<svg xmlns="http://www.w3.org/2000/svg" viewBox="0 0 448.44 47.37"><defs><style>.cls-1{fill:#e11f26;}</style></defs><g id="Layer_2" data-name="Layer 2"><g id="Layer_1-2" data-name="Layer 1"><g id="Layer_2-2" data-name="Layer 2"><g id="set"><path class="cls-1" d="M288.92,22.41c-13.55,0-34.39,0-34.72,1.08s21.52.89,35.05,1c28.82.1,159.19-.72,159.19-1S317.76,22.31,288.92,22.41Z"/><path class="cls-1" d="M159.19,22.41C130.36,22.31,0,23.12,0,23.36s130.67,1.18,159.5,1.08c13.55,0,34.39,0,34.72-1.08S172.7,22.47,159.19,22.41Z"/><path class="cls-1" d="M251.61,23.7a8.91,8.91,0,0,0,2.28-1.45,8,8,0,0,0,2.5-4.86,5.81,5.81,0,0,0-1-3.5,5.58,5.58,0,0,0-4.61-2.37h-.2a6.15,6.15,0,0,0-1.8.33,4.35,4.35,0,0,0-1,.49,23.43,23.43,0,0,0-3.18,1.93,33.36,33.36,0,0,1-4.9,3,4.72,4.72,0,0,1-1.93.35,5.54,5.54,0,0,1-1.22-.11A3.2,3.2,0,0,1,234,14.8,3.24,3.24,0,0,1,236,11.62a2.33,2.33,0,0,1,2.1.14,1.7,1.7,0,0,1,.63,1.1.47.47,0,0,1-.11.41c-.18.15-.27.17-.29.17a1.1,1.1,0,0,1-.33-.27,1.47,1.47,0,0,0-1.12-.64,1,1,0,0,0-.35,0,1.23,1.23,0,0,0-.87.64,1.62,1.62,0,0,0,0,1.36,2.68,2.68,0,0,0,2.51,1.33,2.43,2.43,0,0,0,2.29-1.93A3.59,3.59,0,0,0,239,10.17a3.53,3.53,0,0,0-1.93-.48,3.9,3.9,0,0,0-2.23.6,5.16,5.16,0,0,0-2.32,4.64,4.42,4.42,0,0,0,3.87,3.88,4.82,4.82,0,0,0,.93,0,7.63,7.63,0,0,0,3-.64,3.26,3.26,0,0,0-.43,1.93,2.66,2.66,0,0,0,.91,1.73l.29.17a31.58,31.58,0,0,0-5,.76,31.08,31.08,0,0,1-10.81-4.71c2.62-1.78,8-5.81,9-9.68,1-3.45.31-6-1.94-7.59A5.06,5.06,0,0,0,229.52,0a6.36,6.36,0,0,0-1.24.12,6.66,6.66,0,0,0-4.07,3.06A6.54,6.54,0,0,0,220.16.45a6.43,6.43,0,0,0-1.24-.12,5.15,5.15,0,0,0-2.88.78c-2.19,1.58-2.83,4.14-1.94,7.59,1.05,3.87,6.8,8.13,9,9.68a31,31,0,0,1-10.79,4.7,32.75,32.75,0,0,0-5-.75l.29-.17a2.62,2.62,0,0,0,.91-1.73,3.26,3.26,0,0,0-.43-1.93,7.06,7.06,0,0,0,3.87.56,4.4,4.4,0,0,0,3.88-3.88,5.24,5.24,0,0,0-2.31-4.64,4.1,4.1,0,0,0-2.24-.6,3.38,3.38,0,0,0-1.94.48,3.67,3.67,0,0,0-1.4,3.76,2.44,2.44,0,0,0,2.31,1.93,2.64,2.64,0,0,0,2.5-1.33,1.55,1.55,0,0,0,0-1.36,1.28,1.28,0,0,0-.85-.64h-.35a1.56,1.56,0,0,0-1.15.64c-.11.14-.23.27-.31.27s-.11,0-.29-.17a.47.47,0,0,1-.11-.41,1.57,1.57,0,0,1,.64-1.1,2.37,2.37,0,0,1,2.09-.14,3.24,3.24,0,0,1,1.93,3.18,3.19,3.19,0,0,1-2.47,2.75,5.42,5.42,0,0,1-1.2.11,5.12,5.12,0,0,1-1.94-.34,36.36,36.36,0,0,1-4.9-3,22.86,22.86,0,0,0-3.12-1.94,4.41,4.41,0,0,0-1.08-.5,5.56,5.56,0,0,0-1.8-.33h-.18a5.52,5.52,0,0,0-4.57,2.13,5.68,5.68,0,0,0-1,3.5,8.36,8.36,0,0,0,1.43,3.78,9.3,9.3,0,0,0,3.35,2.51,9,9,0,0,0-2.3,1.44A8,8,0,0,0,192.05,30a5.8,5.8,0,0,0,1,3.52,5.57,5.57,0,0,0,4.61,2.36h.18a6.49,6.49,0,0,0,1.8-.32,5.8,5.8,0,0,0,1-.49,24.33,24.33,0,0,0,3.16-1.94,37.4,37.4,0,0,1,4.9-3,5.09,5.09,0,0,1,1.93-.36,6.78,6.78,0,0,1,1.2.11,3.1,3.1,0,0,1,.55,5.93,2.34,2.34,0,0,1-2.11-.14,1.53,1.53,0,0,1-.62-1.08.47.47,0,0,1,.11-.41c.18-.15.25-.17.29-.17a.89.89,0,0,1,.31.27,1.57,1.57,0,0,0,1.15.62,1,1,0,0,0,.34,0,1.34,1.34,0,0,0,.86-.66,1.5,1.5,0,0,0,0-1.34,2.7,2.7,0,0,0-2.5-1.35A2.45,2.45,0,0,0,208,33.42a3.67,3.67,0,0,0,1.4,3.88,3.45,3.45,0,0,0,1.93.48,4.34,4.34,0,0,0,2.25-.6,5.21,5.21,0,0,0,2.3-4.65A4.38,4.38,0,0,0,212,28.66a7,7,0,0,0-3.87.56,3.41,3.41,0,0,0,.43-1.93,2.53,2.53,0,0,0-.91-1.73l-.3-.19a34,34,0,0,0,5-.74,31,31,0,0,1,10.79,4.69c-2.21,1.53-8,5.81-9,9.68-.95,3.43-.31,6,1.94,7.59a5.66,5.66,0,0,0,4.12.64,6.46,6.46,0,0,0,4.05-3,6.53,6.53,0,0,0,4.07,3,5.7,5.7,0,0,0,4.1-.64c2.21-1.61,2.85-4.16,1.94-7.59-1.05-3.87-6.41-7.86-9-9.68a31.42,31.42,0,0,1,10.81-4.69,34,34,0,0,0,5,.74l-.29.19a2.53,2.53,0,0,0-.91,1.73,3.26,3.26,0,0,0,.43,1.93,7.65,7.65,0,0,0-3-.66,4.82,4.82,0,0,0-.93,0,4.42,4.42,0,0,0-3.88,3.88,5.19,5.19,0,0,0,2.33,4.64,4.07,4.07,0,0,0,2.23.6,3.53,3.53,0,0,0,1.93-.48,3.61,3.61,0,0,0,1.38-3.87,2.43,2.43,0,0,0-2.29-2H238a2.73,2.73,0,0,0-2.33,1.36,1.65,1.65,0,0,0,0,1.34,1.28,1.28,0,0,0,.88.65,1,1,0,0,0,.34,0A1.51,1.51,0,0,0,238,34c.11-.13.25-.27.33-.27s.11,0,.27.18a.48.48,0,0,1,.13.4,1.55,1.55,0,0,1-.64,1.09,2.27,2.27,0,0,1-2.09.13,3.09,3.09,0,0,1,.53-5.92,8.27,8.27,0,0,1,1.22-.12,5.3,5.3,0,0,1,1.93.37,35.54,35.54,0,0,1,4.88,3,26,26,0,0,0,3.14,1.94,5.71,5.71,0,0,0,1.06.5,7,7,0,0,0,1.8.33h.2a5.62,5.62,0,0,0,4.61-2.36,5.86,5.86,0,0,0,1-3.51A9,9,0,0,0,255,26,9.34,9.34,0,0,0,251.61,23.7Zm-4.86,0a24.54,24.54,0,0,1-7.36,0,26.3,26.3,0,0,1,7.36,0ZM244,22a2.4,2.4,0,0,0,.68-1.64,2,2,0,0,0-.7-1.53,1.22,1.22,0,0,0-1.73,0,1.46,1.46,0,0,0-.21.28.94.94,0,0,0,0,1c.2.29.29.52.22.6a.73.73,0,0,1-.68.15,1.24,1.24,0,0,1-.45-1.35,3.82,3.82,0,0,1,1.65-2.15l.7-.47,1.7-1.08a4.69,4.69,0,0,0,.7,3.44,3.86,3.86,0,0,0,2.42,1.63c2.48.41,3.87-.75,4-3.39a2.52,2.52,0,0,0-1.45-2.55,1.82,1.82,0,0,0-.79-.18,1.26,1.26,0,0,0-1.22.78c-.23.56.4,1.2.85,1.39a1,1,0,0,1,.66.79,1.55,1.55,0,0,1-.2,1.17,1.94,1.94,0,0,1-1.33.56A2.17,2.17,0,0,1,247,18.19a3.21,3.21,0,0,1,0-3.33,4.3,4.3,0,0,1,3.2-1.59A4.53,4.53,0,0,1,253.6,15a4,4,0,0,1-.29,4.88,8.92,8.92,0,0,1-3.87,3,24.72,24.72,0,0,0-5.81-.72,1.82,1.82,0,0,0,.35-.27Zm5.46,2.52a8.85,8.85,0,0,1,3.87,3,4,4,0,0,1,.29,4.88,4.56,4.56,0,0,1-3.44,1.76,4.37,4.37,0,0,1-3.2-1.59,3.21,3.21,0,0,1,0-3.33A2.08,2.08,0,0,1,249,28.06a1.94,1.94,0,0,1,1.33.54,1.54,1.54,0,0,1,.18,1.2,1,1,0,0,1-.64.78c-.45.19-1.09.81-.85,1.37a1.26,1.26,0,0,0,1.22.78,2,2,0,0,0,.79-.16A2.52,2.52,0,0,0,252.44,30c-.19-2.89-1.82-3.49-3.15-3.49a6.61,6.61,0,0,0-.89,0A3.87,3.87,0,0,0,246,28.18a4.71,4.71,0,0,0-.56,3.44l-1.72-1.08-.68-.45a3.81,3.81,0,0,1-1.64-2.15,1.27,1.27,0,0,1,.44-1.37.76.76,0,0,1,.68.16,1,1,0,0,1-.21.61.86.86,0,0,0,0,.95,1.23,1.23,0,0,0,1.69.46.88.88,0,0,0,.24-.19,2,2,0,0,0,.7-1.54,2.31,2.31,0,0,0-.93-1.51l-.41-.3a23.74,23.74,0,0,0,5.93-.75Zm-25.29,5.81c1.14.79,8.19,5.9,8.95,9.33a5.8,5.8,0,0,1-.84,4.55,3.85,3.85,0,0,1-3.87,1.16,5.77,5.77,0,0,1-3.83-3,.54.54,0,0,0-.49-.37c-.23,0-.38.24-.46.37A5.91,5.91,0,0,1,220,45.29a4,4,0,0,1-4-1.2,5.81,5.81,0,0,1-.77-4.47c.95-3.58,7.9-8.58,9-9.37Zm0-13.11c-1.12-.81-8.17-5.81-9-9.33a5.8,5.8,0,0,1,.84-4.55A3.52,3.52,0,0,1,219,2a8.51,8.51,0,0,1,1,0,5.9,5.9,0,0,1,3.7,3c.17.25.33.37.48.37s.37-.2.48-.37a5.79,5.79,0,0,1,3.8-2.92,4,4,0,0,1,4,1.22,5.77,5.77,0,0,1,.79,4.47c-.89,3.58-7.9,8.58-9,9.37Zm9.47,6.54a35.65,35.65,0,0,0-9.47,4.65,35.38,35.38,0,0,0-9.45-4.65,34.34,34.34,0,0,0,9.45-4.64,34.91,34.91,0,0,0,9.47,4.6Zm-24.65,0a24.54,24.54,0,0,1-7.36,0,26.26,26.26,0,0,1,7.46,0ZM198.92,23a8.92,8.92,0,0,1-3.87-3,4.07,4.07,0,0,1-.29-4.88,4.57,4.57,0,0,1,3.45-1.76,4.31,4.31,0,0,1,3.17,1.55,3.31,3.31,0,0,1,0,3.33,2.2,2.2,0,0,1-1.94,1.16,1.94,1.94,0,0,1-1.33-.56,1.54,1.54,0,0,1-.2-1.2,1,1,0,0,1,.66-.76c.43-.19,1.09-.83.84-1.39a1.24,1.24,0,0,0-1.22-.78,2.17,2.17,0,0,0-.8.18A2.51,2.51,0,0,0,196,17.39c.17,2.87,1.82,3.47,3.16,3.47a6.31,6.31,0,0,0,.87,0,3.75,3.75,0,0,0,2.42-1.63,4.71,4.71,0,0,0,.58-3.46l1.57,1,.81.52a4,4,0,0,1,1.82,2.1,1.21,1.21,0,0,1-.46,1.35.68.68,0,0,1-.68-.15,1.06,1.06,0,0,1,.23-.6.9.9,0,0,0,0-1,1.21,1.21,0,0,0-1.66-.46.94.94,0,0,0-.28.21,2.07,2.07,0,0,0-.71,1.53,2.29,2.29,0,0,0,.69,1.64l.39.27a24.61,24.61,0,0,0-5.79.72Zm5.48,2.52a2.3,2.3,0,0,0-.7,1.62,2.09,2.09,0,0,0,.72,1.55,1.23,1.23,0,0,0,1.75,0,1.12,1.12,0,0,0,.19-.24.9.9,0,0,0,0-.95c-.22-.29-.29-.52-.24-.62a.79.79,0,0,1,.68-.15,1.24,1.24,0,0,1,.47,1.37,4,4,0,0,1-1.65,2.15l-.83.54-1.57,1a4.64,4.64,0,0,0-.58-3.45,3.88,3.88,0,0,0-2.42-1.64,6.32,6.32,0,0,0-.87,0c-1.34,0-3,.6-3.16,3.48a2.54,2.54,0,0,0,1.43,2.56,2.22,2.22,0,0,0,.8.15,1.24,1.24,0,0,0,1.22-.77c.25-.56-.41-1.18-.83-1.37a1,1,0,0,1-.66-.82,1.48,1.48,0,0,1,.19-1.16,1.92,1.92,0,0,1,1.34-.54,2.1,2.1,0,0,1,1.93,1.16,3.26,3.26,0,0,1,0,3.33,4.44,4.44,0,0,1-3.21,1.59A4.63,4.63,0,0,1,195,32.48a4.08,4.08,0,0,1,0-5,9,9,0,0,1,3.87-3,24.24,24.24,0,0,0,5.81.7Z"/></g></g></g></g></svg>