<svg xmlns="http://www.w3.org/2000/svg" viewBox="0 0 93.69 29.56"><defs><style>.cls-1{fill:#fff;}</style></defs><g id="Layer_2" data-name="Layer 2"><g id="set"><path class="cls-1" d="M38.15,29.56l.13-.38a2.5,2.5,0,0,1,1.2-1.4,4.5,4.5,0,0,0,1.12-1,2.51,2.51,0,0,0,.51-1.73h0a1.76,1.76,0,0,0-.64-1.15l-.11-.08c.14-.15.32-.36.55-.58l.18-.17.2-.18.13-.11a2.17,2.17,0,0,0-.08.3,3,3,0,0,0,0,1.16,2.21,2.21,0,0,0,.17.57,1.93,1.93,0,0,0,.35.51,1.39,1.39,0,0,0,1.16.44,1.16,1.16,0,0,0,.32-.08,1.2,1.2,0,0,0,.27-.16,1.67,1.67,0,0,0,.38-.42l.13-.23a1.86,1.86,0,0,0,.1-.25.86.86,0,0,0,0-.28.76.76,0,0,0,0-.27.87.87,0,0,0-.3-.4.77.77,0,0,0-.41-.15.92.92,0,0,0-.38.06l-.14.09a.58.58,0,0,0-.12.1.44.44,0,0,0-.09.42.19.19,0,0,0,.07.08l0,0s0,0,0,0a.12.12,0,0,1,0-.08.24.24,0,0,1,0-.14.51.51,0,0,1,.11-.16.62.62,0,0,1,.5-.12.5.5,0,0,1,.26.13.57.57,0,0,1,.17.28.88.88,0,0,1,0,.16,1.36,1.36,0,0,1,0,.17,1,1,0,0,1-.09.17,1.4,1.4,0,0,1-.12.18,1.42,1.42,0,0,1-.3.3.77.77,0,0,1-.36.14.94.94,0,0,1-.74-.31,1.64,1.64,0,0,1-.4-.8v-.1a.13.13,0,0,1,0-.06v-.55l0-.13v-.06a.64.64,0,0,1,0-.07,4.1,4.1,0,0,1,.33-1l.17-.31.18-.16c1-1,2.15-2.06,3-2.93a7.26,7.26,0,0,0,.55-.63,4.14,4.14,0,0,0,.35-.56,2.65,2.65,0,0,0,.15-.39.59.59,0,0,0,0-.15s0,0-.08.12-.12.21-.22.35a4.81,4.81,0,0,1-.4.47c-.17.17-.37.35-.59.54l-.72.62c-.25.22-.52.45-.78.69-.54.47-1.08,1-1.6,1.46l-.81.76-.43.4,0,0a2,2,0,0,1-.6.13,1.61,1.61,0,0,1-.31,0h-.08l-.07,0-.15,0a1.51,1.51,0,0,1-.5-.31,2,2,0,0,1-.17-.23,1,1,0,0,1-.1-.28.91.91,0,0,1,.12-.56A1.1,1.1,0,0,1,39.2,21a.6.6,0,0,1,.08-.08l0,0,0,0,0,0h0l0,0s0,0,0,0a.14.14,0,0,0,0-.11.13.13,0,0,0-.08-.08h-.28l-.07,0,0,0,0,0-.07,0a1.15,1.15,0,0,0-.27.27,1.24,1.24,0,0,0-.22.88,1.26,1.26,0,0,0,.14.44,1.28,1.28,0,0,0,.24.35,1.68,1.68,0,0,0,.71.46,1.7,1.7,0,0,0,.83.07h0a3.07,3.07,0,0,0-.31.52,1.64,1.64,0,0,0-.77-.06,2.52,2.52,0,0,0-1.65,1.27,3.35,3.35,0,0,0-.48,2.23,5.41,5.41,0,0,0,.79,2.09Zm1.34-3c-.15.17-.32.33-.48.48a3.34,3.34,0,0,0-.94,1.21,3.93,3.93,0,0,1,.1-1,7.67,7.67,0,0,1,.56-1.83A3.72,3.72,0,0,1,39.81,24a.6.6,0,0,1,.19.06l0,0A2.45,2.45,0,0,1,39.49,26.54ZM39.41,24a4.12,4.12,0,0,0-.92,1.28,8.48,8.48,0,0,0-.59,1.9,4.7,4.7,0,0,0-.1.91,4,4,0,0,1-.27-1,3,3,0,0,1,.42-2A2.14,2.14,0,0,1,39.35,24Zm-1,4.25a3.3,3.3,0,0,1,.83-1c.17-.16.34-.33.5-.51a2.8,2.8,0,0,0,.72-2.19.88.88,0,0,0,0-.16,1.37,1.37,0,0,1,.34.74,2.11,2.11,0,0,1-.44,1.46,4,4,0,0,1-1,.9A3.47,3.47,0,0,0,38.36,28.24Z"/><path class="cls-1" d="M52.27,13.42l-.15.11-.44.34c-.38.29-.94.72-1.69,1.2a25,25,0,0,1-2.77,1.58,28.74,28.74,0,0,1-3.76,1.53,35.58,35.58,0,0,1-4.6,1.13,38.16,38.16,0,0,1-5.14.55c-.89,0-1.78,0-2.68,0l-1.35-.07c-.45,0-.9-.07-1.34-.13l-.67-.12c-.22,0-.44-.08-.66-.13l-.67-.13-.66-.15L25,19l-.66-.15-1.31-.3-1.28-.29L20.42,18l-.17,0-.18,0-.36-.08-.36-.06-.19,0-.18,0a14.91,14.91,0,0,0-1.5-.1,16.35,16.35,0,0,0-3,.27c-.48.09-.95.19-1.41.31s-.9.24-1.33.38-.83.28-1.22.42-.76.28-1.11.43c-.7.28-1.3.55-1.8.79-1,.47-1.57.8-1.49.87a5.32,5.32,0,0,0,1.76-.5c.51-.19,1.12-.42,1.81-.66s1.45-.5,2.27-.74c.41-.12.83-.24,1.26-.34s.89-.2,1.34-.28.92-.14,1.38-.19.94-.06,1.41-.06a13,13,0,0,1,1.4.08l.34,0,.34,0,.68.14,2.6.59,1.32.31,1.33.29.67.15.17,0,.17,0,.34.07.34.07.17,0,.17,0,.69.12h.08l.09,0,.18,0,.34,0,.7.06c.46,0,.92.06,1.38.07.92,0,1.84,0,2.75,0a37.92,37.92,0,0,0,5.24-.63l1.23-.26,1.19-.3c.78-.22,1.53-.45,2.24-.7A27.85,27.85,0,0,0,47.32,17a23.78,23.78,0,0,0,2.76-1.71,19.33,19.33,0,0,0,1.65-1.31l.41-.38Z"/><path class="cls-1" d="M18.07,27.61a1.74,1.74,0,0,0,.42-.34,1.56,1.56,0,0,0,.16-.2,1.28,1.28,0,0,0,.14-.23.82.82,0,0,0,.06-.27.76.76,0,0,0,0-.26.9.9,0,0,0-.22-.42.83.83,0,0,0-.38-.2.73.73,0,0,0-.36,0,.53.53,0,0,0-.15,0l-.07,0-.06.05a.45.45,0,0,0-.17.37.19.19,0,0,0,0,.1l0,0a.08.08,0,0,0,0,0s0-.05,0-.08a.43.43,0,0,1,.05-.13.44.44,0,0,1,.14-.13l0,0,.06,0,.12,0H18a.35.35,0,0,1,.14,0,.48.48,0,0,1,.23.17.6.6,0,0,1,.12.28.86.86,0,0,1,0,.16.3.3,0,0,1-.05.15,1.23,1.23,0,0,1-.24.29,1.51,1.51,0,0,1-.34.24.86.86,0,0,1-.37.1.77.77,0,0,1-.36-.09,1,1,0,0,1-.31-.25l-.06-.08-.06-.09,0-.1,0-.09a2,2,0,0,1-.08-.43,1.63,1.63,0,0,1,0-.44s0-.08,0-.12l0-.12a.36.36,0,0,1,0-.11v-.06l0-.06a2.23,2.23,0,0,1,.21-.44l.07-.1a.86.86,0,0,1,.07-.1l.14-.18c.06-.07.13-.13.19-.19a6.68,6.68,0,0,0,.84-.43,14.82,14.82,0,0,0,4.14-4.25l.34-.45-.46-.35c-.11.16-.22.31-.34.46a17.12,17.12,0,0,1-3.18,3.55l-.25.11a4.12,4.12,0,0,1-1.46.36,2.55,2.55,0,0,1-.74-.07,1.43,1.43,0,0,1-.31-.12,1.64,1.64,0,0,1-.25-.19,1.62,1.62,0,0,1-.4-.54,1.51,1.51,0,0,1-.15-.65,1.06,1.06,0,0,1,.21-.59,1.2,1.2,0,0,1,.22-.23l.07-.05.07,0,.07,0,0,0h0a.78.78,0,0,1,.58,0A1.25,1.25,0,0,1,17,21a.91.91,0,0,1,.23.53.57.57,0,0,1,0,.26.68.68,0,0,1-.14.23l-.05.06,0,0,0,0,0,0-.06,0a1.58,1.58,0,0,1-.24.15.71.71,0,0,1-.24.06.35.35,0,0,1-.2-.05l0,0,0,0,0,0v0l0,0a.51.51,0,0,1,0-.56.68.68,0,0,1,.23-.22.67.67,0,0,1,.24-.08c.14,0,.22,0,.22,0l-.05,0a.37.37,0,0,0-.17,0,.76.76,0,0,0-.58.27,1,1,0,0,0-.11.21.75.75,0,0,0,0,.26.84.84,0,0,0,.08.27.57.57,0,0,0,.08.13.63.63,0,0,0,.12.11.58.58,0,0,0,.32.13.93.93,0,0,0,.34-.05,1.77,1.77,0,0,0,.31-.15l.14-.09a.81.81,0,0,0,.14-.12.86.86,0,0,0,.13-.14l.06-.09a.39.39,0,0,0,0-.09.91.91,0,0,0,.1-.4,1.14,1.14,0,0,0-.07-.41,1.18,1.18,0,0,0-.19-.37,1.62,1.62,0,0,0-.67-.54,1.36,1.36,0,0,0-.44-.11,1.33,1.33,0,0,0-.48.07l-.11,0-.11,0-.09.06-.05,0,0,0a1.67,1.67,0,0,0-.34.31,1.53,1.53,0,0,0-.35.87,1.75,1.75,0,0,0,0,.46,1.71,1.71,0,0,0,.13.44,2.42,2.42,0,0,0,.51.72,2.45,2.45,0,0,0,.35.26l.1.05.1.05.12.05.11,0a1.71,1.71,0,0,0,.45.09,2.36,2.36,0,0,0,.46,0h0a5.17,5.17,0,0,1-1.92.38c-.18,0-.41,0-.64,0l-.78,0-.07,0a2.11,2.11,0,0,1-.55-.3,1.51,1.51,0,0,1-.23-.21l-.05-.06,0-.06a.83.83,0,0,1-.08-.12,1.52,1.52,0,0,1-.18-.57,1.46,1.46,0,0,1,0-.29.84.84,0,0,1,.56-.62,1.36,1.36,0,0,1,.25-.07.4.4,0,0,1,.11,0h.25a.17.17,0,0,0,.1-.06s0-.07,0-.12l0,0,0,0,0,0-.05,0-.06,0-.07,0H13.3a1,1,0,0,0-.38,0,1.22,1.22,0,0,0-.74.52,1.19,1.19,0,0,0-.18.42,1.67,1.67,0,0,0-.05.43,1.81,1.81,0,0,0,.24.82,1.85,1.85,0,0,0,.59.59h0a2.71,2.71,0,0,0-.59.18,1.49,1.49,0,0,0-.53-.53,2.5,2.5,0,0,0-2.08-.12A4,4,0,0,0,7,27.2l-.07.4.35-.2a2.55,2.55,0,0,1,1.82-.28,4.19,4.19,0,0,0,1.49,0,2.05,2.05,0,0,0,1.79-2.17h0a3.08,3.08,0,0,1,1.31-.21,1.83,1.83,0,0,0-.36.26l-.05.05-.06,0-.1.11-.1.11,0,0,0,.06-.09.12-.07.12a.75.75,0,0,0-.07.12l0,.06,0,.06a2.35,2.35,0,0,0-.17.55,1.73,1.73,0,0,0,0,.6,1.44,1.44,0,0,0,.26.56,1.18,1.18,0,0,0,.48.4,1.37,1.37,0,0,0,.59.11,1.79,1.79,0,0,0,.53-.12,1.22,1.22,0,0,0,.24-.1,1,1,0,0,0,.22-.14.72.72,0,0,0,.18-.21.86.86,0,0,0,.11-.24.87.87,0,0,0,0-.48.68.68,0,0,0-.23-.35.87.87,0,0,0-.33-.17l-.16,0h-.14a.39.39,0,0,0-.32.26.19.19,0,0,0,0,.1l0,0s0,0,0,0a.41.41,0,0,1,0-.08.45.45,0,0,1,.1-.09.35.35,0,0,1,.18-.05h.11l.12,0a.24.24,0,0,1,.11.06l.11.09a.58.58,0,0,1,.13.26.62.62,0,0,1,0,.3.64.64,0,0,1-.08.14.57.57,0,0,1-.11.11,1.08,1.08,0,0,1-.36.15,1.4,1.4,0,0,1-.41.06.91.91,0,0,1-.37-.08.76.76,0,0,1-.29-.25.89.89,0,0,1-.15-.36.36.36,0,0,1,0-.1.31.31,0,0,0,0-.1v-.11a.34.34,0,0,1,0-.1,1.45,1.45,0,0,1,.12-.42,1.86,1.86,0,0,1,.21-.39l.07-.09.08-.1.09-.08,0-.05,0,0a2.19,2.19,0,0,1,.39-.29l.11-.06.1-.06.21-.09a3,3,0,0,1,.44-.13h.19a6.65,6.65,0,0,0,1.35-.17,2.3,2.3,0,0,0-.26.49l0,.07a.25.25,0,0,0,0,.07l-.05.14,0,.15a.14.14,0,0,0,0,.07v.07a.68.68,0,0,0,0,.14v.14A.66.66,0,0,0,16,26v.13a1.63,1.63,0,0,0,.1.57,1.59,1.59,0,0,0,.28.53,1.53,1.53,0,0,0,.48.39,1.29,1.29,0,0,0,.61.13A1.27,1.27,0,0,0,18.07,27.61Zm-6.25-3.14a2,2,0,0,1,.11.2,2.41,2.41,0,0,1-2,1.51,5.36,5.36,0,0,1-.69.06,3.36,3.36,0,0,0-1.5.3,3.8,3.8,0,0,1,.74-.7,7.66,7.66,0,0,1,1.62-1A3.76,3.76,0,0,1,11.82,24.47ZM9.15,26.74a3.39,3.39,0,0,0-1.19,0,3.38,3.38,0,0,1,1.3-.24c.23,0,.47,0,.7-.05A2.84,2.84,0,0,0,12,25.12a1.75,1.75,0,0,1-1.51,1.6A3.73,3.73,0,0,1,9.15,26.74Zm2.32-2.57.06,0a4.22,4.22,0,0,0-1.54.37,8.4,8.4,0,0,0-1.68,1.06,5,5,0,0,0-.68.62,3.23,3.23,0,0,1,2.08-2.17A2.11,2.11,0,0,1,11.47,24.17Z"/><path class="cls-1" d="M5.73,22.74a2,2,0,0,0,.85-1.54,1,1,0,0,0,0-.25h0c-.11-.92-1.09-1.78-2.74-1.63a3.75,3.75,0,0,0-2.4,1.14,6,6,0,0,0-1.28,2L0,22.84l.39-.12a2.85,2.85,0,0,1,2.07.15,4.79,4.79,0,0,0,1.63.35A2.9,2.9,0,0,0,5.73,22.74Zm-2.15-.65c-.25,0-.51-.07-.76-.11A3.62,3.62,0,0,0,1,22a4.4,4.4,0,0,1,1.05-.64,8.58,8.58,0,0,1,2-.71,4.14,4.14,0,0,1,2,.06,1.13,1.13,0,0,1,.08.24A2.72,2.72,0,0,1,3.58,22.09Zm2.31-1.75a4.69,4.69,0,0,0-1.83,0,9.49,9.49,0,0,0-2.1.74,4.6,4.6,0,0,0-1,.58,3.64,3.64,0,0,1,2.88-2A2.29,2.29,0,0,1,5.89,20.34ZM4.1,22.83a4.16,4.16,0,0,1-1.51-.32,4.06,4.06,0,0,0-1.45-.3,3.34,3.34,0,0,1,1.63,0,6.84,6.84,0,0,0,.79.12,3.1,3.1,0,0,0,2.62-1A1.94,1.94,0,0,1,4.1,22.83Z"/><path class="cls-1" d="M9.49,19.73a3,3,0,0,0-.38,0,5.79,5.79,0,0,1-.95-.06H8.09l-.07,0-.15,0-.29-.09A2.5,2.5,0,0,1,7,19.19,1.51,1.51,0,0,1,6.8,19l0-.06,0-.06-.08-.12a1.34,1.34,0,0,1-.17-.57,1,1,0,0,1,0-.29.81.81,0,0,1,.11-.27A.91.91,0,0,1,7,17.26l.25-.06h.36a.11.11,0,0,0,.1-.05.11.11,0,0,0,0-.12l0,0,0,0,0,0-.06,0-.06,0-.07,0,0,0h0l-.08,0a1.33,1.33,0,0,0-.39,0,1.27,1.27,0,0,0-.74.51,1.23,1.23,0,0,0-.18.43,1.63,1.63,0,0,0,0,.43,1.66,1.66,0,0,0,.24.81,1.75,1.75,0,0,0,.58.6,2.18,2.18,0,0,0,.7.31,2.14,2.14,0,0,0,.35.06L8,20h.46l.14,0h.13l.23,0,.2,0C9.36,19.8,9.49,19.75,9.49,19.73Z"/><path class="cls-1" d="M12.18,19a1.33,1.33,0,0,0-.46.06,7.6,7.6,0,0,0-1.15.3,4.4,4.4,0,0,0-.74.34,4.13,4.13,0,0,0-.38.25,2.19,2.19,0,0,0-.34.34,2.16,2.16,0,0,0-.47.9,1.84,1.84,0,0,0-.06.53,1,1,0,0,0,0,.29,1.14,1.14,0,0,0,.13.3.86.86,0,0,0,.22.25,1.18,1.18,0,0,0,.29.16,1.32,1.32,0,0,0,.62,0,1.59,1.59,0,0,0,.3-.06l.14-.05h0l0,0,.05,0,.08,0a1.08,1.08,0,0,0,.37-.52.85.85,0,0,0,0-.32.65.65,0,0,0-.08-.31.78.78,0,0,0-.19-.21l-.1-.06-.09,0a.39.39,0,0,0-.26,0,.14.14,0,0,0-.11.11.16.16,0,0,0,0,.14l.12.16a.22.22,0,0,1,0,.08.19.19,0,0,1,0,.07.64.64,0,0,0,0,.07.23.23,0,0,1,0,.09l-.08.1a.38.38,0,0,1-.09.09l0,0L10,22a.51.51,0,0,1-.17,0,.59.59,0,0,1-.3,0,.34.34,0,0,1-.16-.11.58.58,0,0,1-.06-.23,1.5,1.5,0,0,1,0-.35,1.76,1.76,0,0,1,.28-.66,2.17,2.17,0,0,1,.24-.29l.28-.25a7.07,7.07,0,0,1,.61-.4c.41-.23.79-.4,1-.53S12.19,19,12.18,19Z"/><path class="cls-1" d="M28.44,20.07l.35-.44-.1-.09c-.72-.58-1.45-1.17-2.21-1.7-.11-.16-.27-.4-.43-.68L25.93,17l-.12-.23-.06-.12-.06-.13c0-.08-.07-.16-.11-.25s0-.08,0-.12l0-.06V16a.58.58,0,0,1,0-.22V15.7a.11.11,0,0,1,0,0v-.09a.64.64,0,0,1,.1-.18l.14-.11.09,0h.1a.41.41,0,0,1,.19,0l.07,0,.06.06a.64.64,0,0,1,.08.14.39.39,0,0,1,0,.14s0,.08,0,.12a.13.13,0,0,0,.07.08.11.11,0,0,0,.11,0,.29.29,0,0,0,.12-.14.54.54,0,0,0,.06-.27.81.81,0,0,0-.1-.34.7.7,0,0,0-.3-.29A.93.93,0,0,0,26,14.7a1,1,0,0,0-.41.09l-.09.05-.05,0,0,0s-.05,0-.07.07l-.07.06a1.12,1.12,0,0,0-.2.33l0,.05v0a.29.29,0,0,0,0,.09s0,.07,0,.1v.19s0,.07,0,.1a.85.85,0,0,0,0,.17,1.44,1.44,0,0,0,.13.31,1.43,1.43,0,0,0,.15.27l.07.12.09.12a.44.44,0,0,0,.08.11l.08.11a1.63,1.63,0,0,0,.17.2l0,.05a12.16,12.16,0,0,0-1.95-1c-.22-.24-.67-.66-1.24-1.18l-.33-.29L22,14.56c-.06-.05-.11-.11-.16-.16l-.15-.17a1.27,1.27,0,0,1-.13-.19,1.74,1.74,0,0,1-.11-.18,1.3,1.3,0,0,1-.16-.8,1,1,0,0,1,.14-.34,1,1,0,0,1,.27-.26.72.72,0,0,1,.33-.11h.17a.52.52,0,0,1,.28.17.35.35,0,0,1,.08.13.59.59,0,0,1,0,.13.32.32,0,0,1,0,.14.24.24,0,0,1-.06.11.23.23,0,0,1-.07.07.73.73,0,0,1-.21.06h-.25l-.07,0a.09.09,0,0,0,0,.07.14.14,0,0,0,0,.1.47.47,0,0,0,.24.22.79.79,0,0,0,.51,0,.69.69,0,0,0,.29-.16.88.88,0,0,0,.22-.28,1,1,0,0,0,.07-.74A1.19,1.19,0,0,0,23,12.1a1.37,1.37,0,0,0-.28-.26,1.14,1.14,0,0,0-.36-.15,1.17,1.17,0,0,0-.37,0,1.41,1.41,0,0,0-.65.19,1.51,1.51,0,0,0-.49.45,1.42,1.42,0,0,0-.26.62,1.32,1.32,0,0,0,0,.34,1.65,1.65,0,0,0,0,.32,2.27,2.27,0,0,0,.23.58c.06.08.11.17.17.24l.09.11.05.06.05,0a4.48,4.48,0,0,0,.4.36l.39.29.38.25.94.62L23,16a5.86,5.86,0,0,0-3.21-.12l-.28.08-.37,0a3.15,3.15,0,0,1-.9-.29l-.05,0,0,0-.1-.06-.1-.07,0,0,0,0-.09-.07-.08-.08-.07-.08,0,0,0,0a1.83,1.83,0,0,1-.23-.38,1.38,1.38,0,0,1-.1-.4.85.85,0,0,1,.26-.71,1.11,1.11,0,0,1,.75-.24,1.12,1.12,0,0,1,.39.05.36.36,0,0,1,.15.08.68.68,0,0,1,.12.12.64.64,0,0,1,.11.3.72.72,0,0,1-.06.29.63.63,0,0,1-.4.33.49.49,0,0,1-.21,0,.32.32,0,0,1-.13-.07.2.2,0,0,1-.06-.09l0,0a.1.1,0,0,0,0,0,.24.24,0,0,0,0,.12.48.48,0,0,0,.4.18h.07l.08,0,.15-.06.15-.1a.93.93,0,0,0,.13-.15.78.78,0,0,0,.15-.41.89.89,0,0,0-.1-.47.83.83,0,0,0-.16-.21.91.91,0,0,0-.23-.17,1.14,1.14,0,0,0-.26-.09l-.25,0a2.46,2.46,0,0,0-.54,0,1.34,1.34,0,0,0-.55.24,1.24,1.24,0,0,0-.38.5,1.57,1.57,0,0,0-.12.6c0,.06,0,.11,0,.16l0,.15,0,.14a.58.58,0,0,0,.05.14,2.43,2.43,0,0,0,.29.5,2.92,2.92,0,0,0,.39.4l.12.09.12.09.12.08.07,0,.07,0a3,3,0,0,0,.41.18,3,3,0,0,1-1.34.1v-.07A2.81,2.81,0,0,0,17,16a2.06,2.06,0,0,0-.87-1.41,3,3,0,0,0-1.57-.52,5,5,0,0,0-1.7.26,3,3,0,0,1-2.16,0l-.38-.14.13.38a6.37,6.37,0,0,0,1.2,2.16,3.89,3.89,0,0,0,2.41,1.31,2.89,2.89,0,0,0,2.34-.53,1.73,1.73,0,0,0,.47-.62,2.4,2.4,0,0,0,.89,0l-.09.09a3,3,0,0,0-.22.28,2.07,2.07,0,0,0-.34.68,1.78,1.78,0,0,0-.07.83,1.7,1.7,0,0,0,.33.78,1.74,1.74,0,0,0,.3.31,1.68,1.68,0,0,0,.42.22,1.33,1.33,0,0,0,.93-.06,1.4,1.4,0,0,0,.33-.24l.11-.13a.43.43,0,0,1,0-.07l0-.07v-.06a.07.07,0,0,1,0-.05v-.1a.11.11,0,0,0-.07-.09c-.08,0-.15.06-.25.13l0,0s0,0,0,0h0l0,0-.05,0-.23.1a.92.92,0,0,1-.57,0,1,1,0,0,1-.46-.33,1.51,1.51,0,0,1-.24-.55v-.3a1.73,1.73,0,0,1,0-.32,3.23,3.23,0,0,1,.22-.59l.16-.26.09-.12.09-.11.1-.11.08-.09.94-.26.62-.17a5.29,5.29,0,0,1,2.92.11A17.26,17.26,0,0,1,28.33,20ZM11.24,15.5a5.1,5.1,0,0,0,1,.68,9.6,9.6,0,0,0,2.12.88,4.83,4.83,0,0,0,1.91.11l-.12.11a2.52,2.52,0,0,1-2,.45A3.84,3.84,0,0,1,11.24,15.5Zm5.39.65A3.21,3.21,0,0,0,14,15c-.27,0-.55.05-.82.08A3.41,3.41,0,0,1,11.43,15,3.86,3.86,0,0,0,13,14.73a4.4,4.4,0,0,1,1.58-.25,2,2,0,0,1,2.07,1.6Zm-.13.7a4.38,4.38,0,0,1-2.06-.05,9.08,9.08,0,0,1-2.07-.86,4.27,4.27,0,0,1-1.06-.74,3.7,3.7,0,0,0,1.87.09c.26,0,.54-.06.8-.07A2.83,2.83,0,0,1,16.6,16.6.87.87,0,0,1,16.5,16.85Z"/><path class="cls-1" d="M34.37,25.64a1.56,1.56,0,0,0,.37-.17,2.13,2.13,0,0,0,.32-.26,1.48,1.48,0,0,0,.36-.69,1.14,1.14,0,0,0-.5-1.25,1.22,1.22,0,0,0-.28-.14,1,1,0,0,0-.29-.06,1,1,0,0,0-.52.09,1.39,1.39,0,0,0-.35.26,1.1,1.1,0,0,0-.19.29l0,.07a.14.14,0,0,0,0,.06.53.53,0,0,0,0,.12.41.41,0,0,0,0,.15s0,.06,0,.06a.15.15,0,0,0,0-.06.82.82,0,0,1,.05-.14.69.69,0,0,1,0-.1l0-.05,0-.06a1.92,1.92,0,0,1,.2-.23,1.06,1.06,0,0,1,.33-.19l.2-.05h.32l.11,0a1.2,1.2,0,0,1,.21.13,1.45,1.45,0,0,1,.18.17,1.06,1.06,0,0,1,.18.48.75.75,0,0,1,0,.26,1,1,0,0,1-.28.5,1.08,1.08,0,0,1-.24.18,1.18,1.18,0,0,1-.28.12,1.7,1.7,0,0,1-.64.05,1.84,1.84,0,0,1-1.17-.55,1.12,1.12,0,0,1-.28-.54,1.17,1.17,0,0,1,0-.32,1.82,1.82,0,0,1,0-.32,2.13,2.13,0,0,1,.25-.59,2.76,2.76,0,0,1,.23-.27l.27-.24a3.21,3.21,0,0,1,.66-.35l.35-.11.17-.05.18,0c.46-.09.88-.12,1.18-.16l.28-.05a8.3,8.3,0,0,0,2.43.05,7.63,7.63,0,0,0,1.23-.28A6.9,6.9,0,0,0,40.45,21,6.64,6.64,0,0,0,42,19.86l.14-.13.12-.14.22-.24.18-.22.14-.19.19-.26c0-.06.06-.09,0-.1l-.07.08-.21.24a2.32,2.32,0,0,1-.16.18l-.19.2a2.49,2.49,0,0,1-.23.22l-.12.12-.14.13a7.59,7.59,0,0,1-1.51,1l-.24.11-.12.05-.13.05-.26.1-.14,0-.14,0a6.16,6.16,0,0,1-1.18.24,8.14,8.14,0,0,1-2.66-.19,9.13,9.13,0,0,1-1.38-.43,9.67,9.67,0,0,1-1.34-.64l-.16-.1-.16-.1-.08-.05-.08-.05-.16-.11-.31-.22-.16-.12-.15-.12a8.42,8.42,0,0,1-.72-.62l0-.05-.08-.12a4.31,4.31,0,0,1-.42-.74v-.06l0-.06,0-.07v-.06l0-.13a.13.13,0,0,1,0-.06s0-.05,0-.07a1.22,1.22,0,0,1,0-.27,1.26,1.26,0,0,1,0-.27,1.19,1.19,0,0,1,.24-.46.78.78,0,0,1,.2-.16l0,0h0l.06,0,.11,0,.12,0h.19l.07,0,.12,0a.74.74,0,0,1,.21.13.47.47,0,0,1,.12.18.57.57,0,0,1,0,.18.81.81,0,0,1,0,.16l0,.13a.13.13,0,0,0,0,.1.1.1,0,0,0,.11,0,.41.41,0,0,0,.18-.1.68.68,0,0,0,.15-.27.9.9,0,0,0,0-.18.52.52,0,0,0,0-.21l0-.1s0-.07-.05-.1L32,15.86l-.07-.09a1.14,1.14,0,0,0-.36-.26l-.1,0-.11,0-.21,0h-.4l-.1,0-.09,0-.1,0-.09.05a1.35,1.35,0,0,0-.32.26,1.79,1.79,0,0,0-.22.34,1.73,1.73,0,0,0-.11.37,1.58,1.58,0,0,0,0,.72.19.19,0,0,0,0,.08s0,.06,0,.08l0,.07c-.12-.16-.23-.32-.34-.49s-.25-.44-.36-.66L28.94,16a1.34,1.34,0,0,0-.07-.18l-.06-.17-.06-.17a1.54,1.54,0,0,0-.05-.17L28.61,15c0-.12-.05-.25-.07-.37s0-.26-.05-.38a5.34,5.34,0,0,1,.09-1.59c0-.15.07-.29.11-.44l.25-.2a2.18,2.18,0,0,1,.34-.2,1.87,1.87,0,0,1,.42-.13,1.77,1.77,0,0,1,.46,0A1.53,1.53,0,0,1,31,12a1.27,1.27,0,0,1,.27.34.41.41,0,0,1,.05.09l0,.1,0,.1s0,.07,0,.1V13a.75.75,0,0,1,0,.21,1.26,1.26,0,0,1-.15.38l-.13.15a.91.91,0,0,1-.16.11.93.93,0,0,1-.37.1.7.7,0,0,1-.36-.07.38.38,0,0,1-.15-.09.71.71,0,0,1-.12-.13l-.05-.08,0-.08a.75.75,0,0,1,0-.16.65.65,0,0,1,0-.31.55.55,0,0,1,.15-.24.74.74,0,0,1,.2-.16.6.6,0,0,1,.2-.07l.09,0h.22l0,0,0,0-.06,0-.09,0h-.09a.77.77,0,0,0-.25,0,.85.85,0,0,0-.51.43,1,1,0,0,0,0,.89,1.08,1.08,0,0,0,.36.38,1,1,0,0,0,.25.12,1.24,1.24,0,0,0,.85,0,.92.92,0,0,0,.27-.16,1.32,1.32,0,0,0,.49-.75,1.12,1.12,0,0,0,.05-.31v-.16s0-.1,0-.15a1.85,1.85,0,0,0-.57-1,2.11,2.11,0,0,0-.48-.32,2,2,0,0,0-.6-.19,1.62,1.62,0,0,0-.31,0,1.66,1.66,0,0,0-.32,0,1.77,1.77,0,0,0-.57.21l0,0c0-.08.08-.16.13-.24a3.39,3.39,0,0,1,1-1.08,2.34,2.34,0,0,1,.6-.28,1.8,1.8,0,0,1,.6-.1,2.5,2.5,0,0,1,1,.23,4.19,4.19,0,0,1,.61.35h0a1.4,1.4,0,0,0-.29.44,1.82,1.82,0,0,0-.12.86A2.24,2.24,0,0,0,34,13.24a4.19,4.19,0,0,0,1.42.32,2.49,2.49,0,0,1,1.68.63l.3.27,0-.4a7.29,7.29,0,0,0,0-1.06,3.55,3.55,0,0,0-1.73-2.79,2.47,2.47,0,0,0-2-.3,1.48,1.48,0,0,0-.46.26l0,0,0-.05L33,10a.52.52,0,0,0-.11-.1h.21l.11,0h.12l.22-.06a2,2,0,0,0,.77-.49,1.48,1.48,0,0,0,.41-.84,1.38,1.38,0,0,0-.18-.91,1.23,1.23,0,0,0-.33-.35A1.1,1.1,0,0,0,33.76,7a1.07,1.07,0,0,0-.79.13.81.81,0,0,0-.26.26.67.67,0,0,0-.12.31.57.57,0,0,0,0,.29.44.44,0,0,0,.13.21.48.48,0,0,0,.29.14c.07,0,.1,0,.1,0l-.09,0a.43.43,0,0,1-.19-.17A.38.38,0,0,1,32.79,8a.44.44,0,0,1,0-.19.56.56,0,0,1,.3-.33.77.77,0,0,1,.78.1l.1.1s0,0,0,.06l0,0,0,0a1,1,0,0,1,0,.88.9.9,0,0,1-.17.26,1.34,1.34,0,0,1-.56.37l-.17.06H33l-.18,0h-.18l-.59,0H32a2.51,2.51,0,0,0-.63-.11,2.6,2.6,0,0,0-.72.1l-.12,0,0-.06s0-.07,0-.11a2,2,0,0,0,.1-.92,1.53,1.53,0,0,0-.13-.45,1.37,1.37,0,0,0-.29-.39,1.48,1.48,0,0,0-.4-.27,1.54,1.54,0,0,0-.46-.11h-.24l-.11,0-.12,0a1.11,1.11,0,0,0-.39.2l-.05,0s0,0,0,0l-.07.07-.07.09v0l0,0,0,0a.9.9,0,0,0-.11.4.85.85,0,0,0,.06.36.7.7,0,0,0,.19.28.73.73,0,0,0,.26.14.65.65,0,0,0,.24,0,.48.48,0,0,0,.18,0l.07,0,.05,0,0,0,0,0s0,0,0,0h-.05l0,0a.56.56,0,0,1-.27,0,.46.46,0,0,1-.32-.18.42.42,0,0,1-.1-.2.49.49,0,0,1,0-.24.27.27,0,0,1,0-.12.39.39,0,0,1,.06-.11.61.61,0,0,1,.2-.19A.81.81,0,0,1,29,7.58h.29a.91.91,0,0,1,.55.25,1,1,0,0,1,.28.54,1.43,1.43,0,0,1-.06.67A1.3,1.3,0,0,1,30,9.2l0,.08s0,.05,0,.08l-.05.08-.05.07a.35.35,0,0,0,0,.08l-.06.07c-.15.18-.29.33-.39.46l0,.06a4.29,4.29,0,0,0-.53.68,5.18,5.18,0,0,0-.65,1.6,6.35,6.35,0,0,0-.12.86v.06l0-.19a5.69,5.69,0,0,0-.18-.78,3.94,3.94,0,0,0-.41-.86,2.54,2.54,0,0,0-.77-.76l-.06,0-.06,0-.13-.06-.14-.05-.15,0a1.72,1.72,0,0,0-.6,0,1.38,1.38,0,0,0-.59.2,1.27,1.27,0,0,0-.45.44,1.69,1.69,0,0,0-.22.57v.08a.19.19,0,0,1,0,.08v.17a.25.25,0,0,1,0,.08v.09s0,.06,0,.08l0,.09a1,1,0,0,0,.15.31,1.2,1.2,0,0,0,.24.26l0,0,0,0,.08,0,.09,0,.09,0a.87.87,0,0,0,.36,0,.92.92,0,0,0,.32-.14l.12-.12a.38.38,0,0,0,.09-.15.61.61,0,0,0,.05-.29.52.52,0,0,0-.08-.23.39.39,0,0,0-.13-.15.28.28,0,0,0-.13-.07h-.09a.08.08,0,0,0,0,0,.38.38,0,0,0,0,.13l0,.08a.3.3,0,0,1,0,.1.45.45,0,0,1,0,.11.16.16,0,0,1-.05.09.29.29,0,0,1-.22.11.43.43,0,0,1-.16,0l0,0,0,0,0,0,0,0,0,0,0,0,0,0s0,0,0,0a.61.61,0,0,1-.09-.18,1,1,0,0,1,.1-.78l.12-.16,0,0h0l0,0,0,0,0,0a1,1,0,0,1,.38-.14,1.24,1.24,0,0,1,.43,0l.21,0,.05,0,.05,0,.1,0a2.26,2.26,0,0,1,.37.26,3.14,3.14,0,0,1,.31.32l.07.09.06.09.06.09,0,0,0,0,.05.1.05.09.09.19a5.33,5.33,0,0,1,.27.71c.07.22.12.42.16.59s.08.29.11.38a6.83,6.83,0,0,0,.11.79l0,.19a1.05,1.05,0,0,0,.05.19c0,.13.07.25.11.37a6.17,6.17,0,0,0,.3.75c.05.13.12.25.18.37l.1.18.1.17a8.92,8.92,0,0,0,1,1.3,9.44,9.44,0,0,0,1.19,1.09l.16.13.16.12.33.23.33.21.35.21a9.94,9.94,0,0,0,2,.87l-.31,0a3.69,3.69,0,0,0-1.55.58l-.34.28a3,3,0,0,0-.28.34,2,2,0,0,0-.22.37,2,2,0,0,0-.13.39,2.12,2.12,0,0,0,0,.87,1.77,1.77,0,0,0,.15.42.31.31,0,0,0,0,.1l0,.05,0,.05A1.15,1.15,0,0,0,32,25a2.13,2.13,0,0,0,.7.51,2.59,2.59,0,0,0,.82.2A2.09,2.09,0,0,0,34.37,25.64ZM33,11.08a2.74,2.74,0,0,0,1.7,1.67c.22.08.44.14.66.2a3.29,3.29,0,0,1,1.17.46,3.55,3.55,0,0,0-1.11-.23,3.66,3.66,0,0,1-1.3-.29A1.88,1.88,0,0,1,33,11.53,1.14,1.14,0,0,1,33,11.08Zm.33-.58a3.61,3.61,0,0,1,1.57.66,8.35,8.35,0,0,1,1.34,1.3,4.14,4.14,0,0,1,.55.81,3.18,3.18,0,0,0-1.36-.58l-.64-.19a2.36,2.36,0,0,1-1.61-1.84A.75.75,0,0,1,33.33,10.5Zm2.09,0A3.16,3.16,0,0,1,37,13a4.39,4.39,0,0,0-.51-.71A7.46,7.46,0,0,0,35.05,11a4.16,4.16,0,0,0-1.38-.66l0,0A2.11,2.11,0,0,1,35.42,10.54Z"/><path class="cls-1" d="M23.69,27.74a3.1,3.1,0,0,0,1-2.52,1.8,1.8,0,0,0-.26-.78,1.1,1.1,0,0,0,.23-.13,2.91,2.91,0,0,0,.5-.41v0s0,.06,0,.09v.09a1.37,1.37,0,0,0,0,.19,2.67,2.67,0,0,0,0,.4,3,3,0,0,0,.06.42,2.39,2.39,0,0,0,.14.43,1.88,1.88,0,0,0,.53.76,2,2,0,0,0,.84.45,2.26,2.26,0,0,0,.47.05,1.61,1.61,0,0,0,.52-.11,1.29,1.29,0,0,0,.46-.29,1.31,1.31,0,0,0,.3-.41,1.21,1.21,0,0,0,.12-.43.67.67,0,0,0,0-.2.22.22,0,0,0,0-.08s0-.05,0-.08v0s0,0,0,0l0-.05L28.45,25c-.05,0-.08,0-.12,0s-.07.15-.1.29,0,0,0,.06,0,0,0,.06v.06l0,.06a1.17,1.17,0,0,1-.13.28,1.08,1.08,0,0,1-.51.43.93.93,0,0,1-.33.07,1.27,1.27,0,0,1-.34,0,1.67,1.67,0,0,1-.62-.32l-.07-.06-.06-.06L26,25.66a1.61,1.61,0,0,1-.19-.31,2.16,2.16,0,0,1-.23-.69c0-.12,0-.24-.05-.35v-.5l0-.16s0-.1,0-.15h0l.17-.21.52-.71.26-.37.28-.35a8.86,8.86,0,0,1,.9-.93,3,3,0,0,0-.16.53s0,0,0,.06v.07l0,.13a1.24,1.24,0,0,0,0,.27,3,3,0,0,0,0,.52,2.18,2.18,0,0,0,.15.54,1.55,1.55,0,0,0,.36.49,1.4,1.4,0,0,0,.53.3,1.47,1.47,0,0,0,.29.05h.3a1.4,1.4,0,0,0,.77-.37,1.12,1.12,0,0,0,.18-.2,1.71,1.71,0,0,0,.13-.23,2.25,2.25,0,0,0,.08-.24s0-.09,0-.13,0-.08,0-.12a1.94,1.94,0,0,0,0-.24A1.15,1.15,0,0,0,30.1,22a.93.93,0,0,0-.29-.27.81.81,0,0,0-.34-.1.79.79,0,0,0-.28,0,.55.55,0,0,0-.2.11s0,0-.07.06l0,.05,0,.05a.08.08,0,0,0,0,0v0s0,0,0,0l0,0,0,0,.06,0,.06,0a.47.47,0,0,1,.17,0,.52.52,0,0,1,.21,0,.44.44,0,0,1,.19.1.62.62,0,0,1,.15.2.65.65,0,0,1,0,.13.73.73,0,0,1,0,.44.8.8,0,0,1-.16.26l-.12.11a.67.67,0,0,1-.14.09.61.61,0,0,1-.3.08.7.7,0,0,1-.32,0,.67.67,0,0,1-.27-.16.65.65,0,0,1-.11-.12.64.64,0,0,1-.08-.14,1.23,1.23,0,0,1-.11-.34,1.64,1.64,0,0,1,0-.39.75.75,0,0,1,0-.21v-.11s0-.08,0-.11a3.37,3.37,0,0,1,.27-.83l0-.1,0,0,0-.05a1.19,1.19,0,0,0,.08-.16l0-.08,0-.07.06-.13,0-.07.07,0,.19-.11.09-.05.09-.05.19-.11a7.77,7.77,0,0,1,1.58-.6,7.11,7.11,0,0,1,1.62-.23h.78l.37,0H34l.18,0,.18,0h.08l.09,0,.33.07a1.73,1.73,0,0,1,.31.07l.29.08.14,0,.14,0,.26.08.23.08.22.08.19.07.09,0,.08,0,.27.1a.68.68,0,0,0,.23.08l-.21-.13-.25-.14-.16-.09-.18-.09a9.66,9.66,0,0,0-2-.73,1.15,1.15,0,0,0-.19-.28,3.25,3.25,0,0,1-.45-.8.56.56,0,0,1,0-.12.65.65,0,0,1,0-.13,2.48,2.48,0,0,1,0-.27v-.28s0-.05,0-.07,0,0,0-.07a.65.65,0,0,1,0-.13,1.6,1.6,0,0,1,.62-.84,1.56,1.56,0,0,1,.47-.17,1.48,1.48,0,0,1,.51,0,1.13,1.13,0,0,1,.78.57,1.19,1.19,0,0,1,.05,1,1.07,1.07,0,0,1-.26.39.89.89,0,0,1-.38.23.82.82,0,0,1-.41,0,.62.62,0,0,1-.33-.17.67.67,0,0,1-.18-.3.39.39,0,0,1,0-.15.4.4,0,0,1,0-.15.58.58,0,0,1,.13-.22.61.61,0,0,1,.16-.13l.17-.07s-.07,0-.2,0a.45.45,0,0,0-.21.1.65.65,0,0,0-.22.24.36.36,0,0,0,0,.09.29.29,0,0,0,0,.1.36.36,0,0,0,0,.11v.11a.83.83,0,0,0,.18.46,1.19,1.19,0,0,0,.19.2,1.59,1.59,0,0,0,.26.14,1.14,1.14,0,0,0,.61,0,.76.76,0,0,0,.16,0l.16-.06L36.1,18l.07,0,.07-.05a1.45,1.45,0,0,0,.45-.53,1.75,1.75,0,0,0,.19-.71,1.62,1.62,0,0,0-.12-.75l-.09-.18a.41.41,0,0,1-.05-.09l-.06-.08-.07-.08-.06-.07-.15-.14a2,2,0,0,0-1.48-.43,1.93,1.93,0,0,0-.74.26,2.2,2.2,0,0,0-1,1.23l0,.1,0,.1v.1l0,.1a2.94,2.94,0,0,0,0,.42,2.66,2.66,0,0,0,.07.39,1.27,1.27,0,0,0,.06.18.87.87,0,0,0,.07.17,2.1,2.1,0,0,0,.37.56l.11.11-.23,0h-.39a2.88,2.88,0,0,0-.41,0,7.82,7.82,0,0,0-1.72.16,7.39,7.39,0,0,0-1.71.6l-.21.11-.2.11-.38.23a8,8,0,0,0-.73.53,10.05,10.05,0,0,0-1.32,1.3l-.3.38L26,22a2.87,2.87,0,0,1-.46.33,3,3,0,0,1-1,.4l-.07,0h-.74l-.13,0h-.12a2.64,2.64,0,0,1-.47-.17,1.65,1.65,0,0,1-.39-.29,1.07,1.07,0,0,1-.3-.86,1,1,0,0,1,.18-.41,1.65,1.65,0,0,1,.34-.36,1.33,1.33,0,0,1,.39-.23.43.43,0,0,1,.19,0l.2,0a.83.83,0,0,1,.32.2.64.64,0,0,1,.15.31.71.71,0,0,1-.12.59l-.09.09a.31.31,0,0,1-.1.05.38.38,0,0,1-.17,0l-.11,0,0,0s0,0,0,0a.23.23,0,0,0,.11.07.51.51,0,0,0,.48-.13l.06-.06.05-.07.09-.16a1.17,1.17,0,0,0,.05-.2,1.55,1.55,0,0,0,0-.22.88.88,0,0,0-.16-.45.91.91,0,0,0-.43-.34.89.89,0,0,0-.28-.07,1.08,1.08,0,0,0-.31,0,1.42,1.42,0,0,0-.29.1l-.25.15a1.92,1.92,0,0,0-.45.41,1.34,1.34,0,0,0-.31.59,1.51,1.51,0,0,0,0,.7,1.77,1.77,0,0,0,.33.6l.12.13.13.11.13.1.15.08a2,2,0,0,0,.6.22c.1,0,.2,0,.3.06l.33,0h.33l.17,0,.08,0h.09l.16,0,.17-.05.16-.05L25.3,23h0c-.16.23-.32.44-.46.62s-.28.32-.4.44l-.16.15a2.73,2.73,0,0,0-.25-.23,2.23,2.23,0,0,0-1.95-.38,3.23,3.23,0,0,0-1.6,1.07,5.47,5.47,0,0,0-.89,1.67,3.3,3.3,0,0,1-1.41,1.94l-.33.22.38.12A6.93,6.93,0,0,0,21,29,4.31,4.31,0,0,0,23.69,27.74Zm-2.83-2c-.17.25-.32.52-.47.77a3.57,3.57,0,0,1-1.3,1.53A4.26,4.26,0,0,0,20,26.49a4.91,4.91,0,0,1,.82-1.56,2.22,2.22,0,0,1,2.92-.71A3.5,3.5,0,0,0,20.86,25.77Zm3.35-1a4.62,4.62,0,0,1-1.42,1.81,9.84,9.84,0,0,1-2.11,1.26,4.56,4.56,0,0,1-1.43.45,3.91,3.91,0,0,0,1.37-1.61,8.38,8.38,0,0,1,.46-.75,3.15,3.15,0,0,1,3-1.42A1,1,0,0,1,24.21,24.77Zm-4.77,3.77a5.39,5.39,0,0,0,1.35-.46A10.44,10.44,0,0,0,23,26.79a5.31,5.31,0,0,0,1.38-1.65.5.5,0,0,0,0,.12,2.79,2.79,0,0,1-.94,2.21A4.28,4.28,0,0,1,19.44,28.54Z"/><path class="cls-1" d="M55.75,29.21a5.41,5.41,0,0,0,.79-2.09,3.35,3.35,0,0,0-.48-2.23,2.52,2.52,0,0,0-1.65-1.27,1.65,1.65,0,0,0-.77.06,2.52,2.52,0,0,0-.31-.52h0a1.73,1.73,0,0,0,1.54-.53,1.57,1.57,0,0,0,.25-.35,1.26,1.26,0,0,0,.14-.44,1.3,1.3,0,0,0-.22-.88,1.19,1.19,0,0,0-.28-.27l-.07,0,0,0,0,0-.07,0h-.28a.15.15,0,0,0-.09.08.12.12,0,0,0,0,.11l.05,0,0,0h0l0,0,0,0,0,0a.6.6,0,0,1,.08.08,1.91,1.91,0,0,1,.15.21.9.9,0,0,1,.11.56,1,1,0,0,1-.1.28.91.91,0,0,1-.17.23,1.41,1.41,0,0,1-.5.31l-.15,0-.07,0h-.08a1.61,1.61,0,0,1-.31,0,2,2,0,0,1-.59-.13l0,0-.43-.4-.81-.76c-.51-.49-1.06-1-1.6-1.46q-.39-.36-.78-.69l-.72-.62c-.22-.19-.42-.37-.58-.54a5.06,5.06,0,0,1-.41-.47,2.64,2.64,0,0,1-.21-.35l-.08-.12s0,.05,0,.15a2,2,0,0,0,.16.39,2.79,2.79,0,0,0,.35.56,7,7,0,0,0,.54.63c.83.87,1.92,2,3,2.93l.18.16.17.31a4.62,4.62,0,0,1,.34,1s0,0,0,.07v.06l0,.13V24a.13.13,0,0,0,0,.06l0,.1a1.56,1.56,0,0,1-.4.8.93.93,0,0,1-.73.31.77.77,0,0,1-.37-.14,1.42,1.42,0,0,1-.3-.3L50,24.67l-.09-.17a.55.55,0,0,1,0-.17.43.43,0,0,1,0-.16.57.57,0,0,1,.17-.28.53.53,0,0,1,.26-.13.62.62,0,0,1,.5.12.51.51,0,0,1,.11.16.24.24,0,0,1,0,.14.12.12,0,0,1,0,.08.08.08,0,0,0,0,0l0,0A.19.19,0,0,0,51,24.2a.44.44,0,0,0-.09-.42.58.58,0,0,0-.12-.1l-.14-.09a.87.87,0,0,0-.37-.06.77.77,0,0,0-.42.15.85.85,0,0,0-.29.4,1.07,1.07,0,0,0-.06.27,1.26,1.26,0,0,0,0,.28,1.86,1.86,0,0,0,.1.25l.13.23a1.54,1.54,0,0,0,.39.42,1.2,1.2,0,0,0,.27.16,1,1,0,0,0,.31.08,1.39,1.39,0,0,0,1.16-.44,1.93,1.93,0,0,0,.35-.51,2.21,2.21,0,0,0,.17-.57,2.85,2.85,0,0,0,0-1.16,2.17,2.17,0,0,0-.08-.3l.13.11.2.18a1.45,1.45,0,0,1,.18.17c.23.22.41.43.55.58l-.11.08a1.76,1.76,0,0,0-.64,1.15h0a2.47,2.47,0,0,0,.52,1.73,4.47,4.47,0,0,0,1.11,1,2.5,2.5,0,0,1,1.2,1.4l.13.38Zm-2.09-5.12,0,0a.7.7,0,0,1,.19-.06A3.53,3.53,0,0,1,55,25.39a8.23,8.23,0,0,1,.57,1.83,3.92,3.92,0,0,1,.09,1A3.34,3.34,0,0,0,54.68,27c-.16-.15-.33-.31-.48-.48A2.45,2.45,0,0,1,53.66,24.09Zm.68-.09a2.12,2.12,0,0,1,1.4,1.09,3,3,0,0,1,.42,2,4.48,4.48,0,0,1-.26,1,4.71,4.71,0,0,0-.11-.91,8,8,0,0,0-.59-1.9A4.12,4.12,0,0,0,54.28,24Zm.09,3.46a3.85,3.85,0,0,1-1-.9A2.11,2.11,0,0,1,53,25.1a1.37,1.37,0,0,1,.34-.74.88.88,0,0,0,0,.16A2.8,2.8,0,0,0,54,26.71c.16.18.33.35.5.51a3.34,3.34,0,0,1,.84,1A3.82,3.82,0,0,0,54.43,27.46Z"/><path class="cls-1" d="M41.42,13.42l.15.11.44.34c.38.29,1,.72,1.69,1.2a26,26,0,0,0,2.77,1.58,28.34,28.34,0,0,0,3.77,1.53,35,35,0,0,0,4.59,1.13,38.33,38.33,0,0,0,5.14.55c.89,0,1.79,0,2.69,0L64,19.8c.45,0,.9-.07,1.34-.13l.66-.12c.22,0,.44-.08.66-.13l.67-.13.66-.15.67-.14.66-.15,1.32-.3,1.27-.29,1.35-.3.18,0,.17,0,.36-.08.36-.06.19,0,.18,0c.5-.06,1-.09,1.5-.1a16.27,16.27,0,0,1,3,.27c.48.09,1,.19,1.41.31s.9.24,1.33.38.83.28,1.22.42.76.28,1.11.43c.7.28,1.31.55,1.81.79,1,.47,1.56.8,1.48.87a5.3,5.3,0,0,1-1.75-.5c-.52-.19-1.13-.42-1.82-.66s-1.45-.5-2.26-.74c-.41-.12-.84-.24-1.27-.34s-.88-.2-1.34-.28-.92-.14-1.38-.19-.94-.06-1.41-.06a12.81,12.81,0,0,0-1.39.08l-.35,0-.34,0-.67.14L71,19.2l-1.32.31-1.33.29-.67.15-.17,0-.17,0-.33.07-.34.07-.17,0-.17,0-.7.12h-.08l-.09,0-.17,0-.35,0c-.23,0-.47,0-.7.06-.46,0-.92.06-1.38.07-.92,0-1.84,0-2.74,0a38.07,38.07,0,0,1-5.25-.63l-1.23-.26-1.19-.3c-.78-.22-1.53-.45-2.24-.7A28.41,28.41,0,0,1,46.37,17a22.75,22.75,0,0,1-2.75-1.71A18.24,18.24,0,0,1,42,13.93l-.41-.38C41.46,13.47,41.41,13.42,41.42,13.42Z"/><path class="cls-1" d="M76.2,27.79a1.27,1.27,0,0,0,.61-.13,1.53,1.53,0,0,0,.48-.39,1.83,1.83,0,0,0,.29-.53,2.28,2.28,0,0,0,.1-.57V26a.66.66,0,0,0,0-.14v-.14a.68.68,0,0,0,0-.14v-.07s0-.05,0-.07l0-.15,0-.14,0-.07,0-.07a2.87,2.87,0,0,0-.26-.49,6.46,6.46,0,0,0,1.34.17h.2a2.93,2.93,0,0,1,.43.13l.21.09.11.06.1.06a2.27,2.27,0,0,1,.4.29l0,0,0,.05a.6.6,0,0,0,.08.08l.08.1.07.09a2.56,2.56,0,0,1,.22.39,1.85,1.85,0,0,1,.11.42s0,.07,0,.1v.11s0,.06,0,.1,0,.07,0,.1a1.07,1.07,0,0,1-.16.36.82.82,0,0,1-.28.25.92.92,0,0,1-.38.08,1.51,1.51,0,0,1-.41-.06,1,1,0,0,1-.35-.15.43.43,0,0,1-.12-.11.61.61,0,0,1-.07-.14.53.53,0,0,1,0-.3.51.51,0,0,1,.14-.26l.1-.09.11-.06.12,0h.11a.35.35,0,0,1,.18.05.3.3,0,0,1,.1.09.16.16,0,0,1,0,.08,0,0,0,0,0,0,0l0,0a.19.19,0,0,0,0-.1.39.39,0,0,0-.31-.26h-.15l-.16,0a.77.77,0,0,0-.32.17.76.76,0,0,0-.24.35.79.79,0,0,0,0,.48.82.82,0,0,0,.1.24.72.72,0,0,0,.18.21,1.09,1.09,0,0,0,.23.14.94.94,0,0,0,.23.1,1.86,1.86,0,0,0,.53.12,1.37,1.37,0,0,0,.59-.11,1.28,1.28,0,0,0,.49-.4,1.58,1.58,0,0,0,.25-.56,1.73,1.73,0,0,0,0-.6,2,2,0,0,0-.17-.55l0-.06,0-.06a.75.75,0,0,0-.07-.12l-.07-.12a.83.83,0,0,1-.08-.12l0-.06,0,0-.1-.11-.1-.11,0,0L80.35,25A1.83,1.83,0,0,0,80,24.7a3.08,3.08,0,0,1,1.31.21h0a2.05,2.05,0,0,0,1.79,2.17,4.19,4.19,0,0,0,1.49,0,2.54,2.54,0,0,1,1.82.28l.35.2-.06-.4a4,4,0,0,0-2.59-3.48,2.51,2.51,0,0,0-2.08.12,1.58,1.58,0,0,0-.53.53,2.79,2.79,0,0,0-.58-.18h0a1.85,1.85,0,0,0,.59-.59,1.81,1.81,0,0,0,.24-.82,1.67,1.67,0,0,0,0-.43,1.26,1.26,0,0,0-.91-.94,1.06,1.06,0,0,0-.39,0h-.16l-.08,0-.06,0,0,0-.05,0,0,0,0,0a.14.14,0,0,0,0,.12.17.17,0,0,0,.1.06h.25a.41.41,0,0,1,.11,0,1.36,1.36,0,0,1,.25.07.84.84,0,0,1,.56.62,1,1,0,0,1,0,.29,1.36,1.36,0,0,1-.18.57.83.83,0,0,1-.08.12l0,.06-.05.06a1.51,1.51,0,0,1-.23.21,2.11,2.11,0,0,1-.55.3l-.07,0-.78,0c-.23,0-.45,0-.64,0a5.17,5.17,0,0,1-1.92-.38h0a2.34,2.34,0,0,0,.46,0,1.79,1.79,0,0,0,.46-.09l.11,0,.11-.05.1-.05.1-.05a2.45,2.45,0,0,0,.35-.26,2.42,2.42,0,0,0,.51-.72,2.25,2.25,0,0,0,.14-.44,1.41,1.41,0,0,0,0-.46,1.46,1.46,0,0,0-.35-.87,1.67,1.67,0,0,0-.34-.31l0,0,0,0-.09-.06-.11,0-.11,0a1.28,1.28,0,0,0-.47-.07,1.35,1.35,0,0,0-.45.11,1.53,1.53,0,0,0-.66.54,1.2,1.2,0,0,0-.2.37,1.14,1.14,0,0,0-.07.41,1.07,1.07,0,0,0,.1.4.19.19,0,0,0,0,.09l0,.09a.86.86,0,0,0,.13.14l.14.12.15.09a1.4,1.4,0,0,0,.3.15.93.93,0,0,0,.34.05.64.64,0,0,0,.33-.13.57.57,0,0,0,.11-.11.57.57,0,0,0,.08-.13.65.65,0,0,0,.08-.27.57.57,0,0,0,0-.26.53.53,0,0,0-.11-.21.75.75,0,0,0-.3-.22.79.79,0,0,0-.28-.05.4.4,0,0,0-.17,0l0,0s.08,0,.22,0a.67.67,0,0,1,.24.08.68.68,0,0,1,.23.22.51.51,0,0,1,0,.56v0l0,0,0,0,0,0,0,0a.35.35,0,0,1-.2.05.71.71,0,0,1-.24-.06,1.14,1.14,0,0,1-.23-.15l-.06,0,0,0,0,0,0,0,0-.06a.68.68,0,0,1-.14-.23.57.57,0,0,1,0-.26.91.91,0,0,1,.23-.53,1.25,1.25,0,0,1,.52-.36.78.78,0,0,1,.58,0h0l0,0,.07,0,.07,0,.07.05a1.25,1.25,0,0,1,.23.23,1,1,0,0,1,.2.59,1.49,1.49,0,0,1-.14.65,2,2,0,0,1-.4.54,2.48,2.48,0,0,1-.26.19,1.43,1.43,0,0,1-.31.12,2.48,2.48,0,0,1-.73.07,4.13,4.13,0,0,1-1.47-.36L75,22.78a17.12,17.12,0,0,1-3.18-3.55c-.11-.15-.23-.3-.34-.46l-.46.35.34.45a14.85,14.85,0,0,0,4.15,4.25,6.68,6.68,0,0,0,.84.43l.18.19.14.18a.36.36,0,0,1,.07.1l.07.1a3,3,0,0,1,.22.44.14.14,0,0,0,0,.06l0,.06,0,.11,0,.12s0,.08,0,.12a2.2,2.2,0,0,1,0,.44,2.05,2.05,0,0,1-.09.43.36.36,0,0,1,0,.09l0,.1-.06.09a.21.21,0,0,1-.06.08,1,1,0,0,1-.3.25.81.81,0,0,1-.37.09.86.86,0,0,1-.37-.1,1.27,1.27,0,0,1-.33-.24,1.08,1.08,0,0,1-.25-.29.44.44,0,0,1,0-.15.86.86,0,0,1,0-.16.6.6,0,0,1,.12-.28.51.51,0,0,1,.24-.17.31.31,0,0,1,.13,0h.13l.12,0,.06,0,0,0a.44.44,0,0,1,.14.13.27.27,0,0,1,0,.13s0,.06,0,.08a.08.08,0,0,0,0,0l0,0a.19.19,0,0,0,0-.1.4.4,0,0,0-.17-.37L76,25.77l-.06,0-.16,0a.73.73,0,0,0-.36,0,.75.75,0,0,0-.37.2.91.91,0,0,0-.23.42.76.76,0,0,0,0,.26.83.83,0,0,0,.07.27.86.86,0,0,0,.13.23,1.63,1.63,0,0,0,.17.2,1.43,1.43,0,0,0,.42.34A1.2,1.2,0,0,0,76.2,27.79Zm7.39-3a7.41,7.41,0,0,1,1.62,1,3.8,3.8,0,0,1,.74.7,3.3,3.3,0,0,0-1.5-.3,5.05,5.05,0,0,1-.68-.06,2.43,2.43,0,0,1-2-1.51,1.06,1.06,0,0,1,.12-.2A3.72,3.72,0,0,1,83.59,24.82Zm-.42,1.9a1.73,1.73,0,0,1-1.5-1.6,2.82,2.82,0,0,0,2.06,1.33c.23,0,.47,0,.7.05a3.47,3.47,0,0,1,1.31.24,3.45,3.45,0,0,0-1.2,0A3.73,3.73,0,0,1,83.17,26.72ZM84,24.08a3.24,3.24,0,0,1,2.07,2.17,5,5,0,0,0-.68-.62,8.12,8.12,0,0,0-1.68-1.06,4.22,4.22,0,0,0-1.54-.37l.06,0A2.13,2.13,0,0,1,84,24.08Z"/><path class="cls-1" d="M89.6,23.22a4.68,4.68,0,0,0,1.63-.35,2.89,2.89,0,0,1,2.08-.15l.38.12-.15-.37a6,6,0,0,0-1.28-2,3.72,3.72,0,0,0-2.4-1.14c-1.64-.15-2.62.71-2.74,1.63h0a2.09,2.09,0,0,0,0,.25A2,2,0,0,0,88,22.74,2.9,2.9,0,0,0,89.6,23.22Zm-2.09-2.31a2.25,2.25,0,0,1,.08-.24,4.14,4.14,0,0,1,2-.06,8.83,8.83,0,0,1,2,.71,4.33,4.33,0,0,1,1,.64,3.62,3.62,0,0,0-1.79,0c-.25,0-.51.09-.76.11A2.73,2.73,0,0,1,87.51,20.91Zm2.32-1.21a3.64,3.64,0,0,1,2.88,2,4.37,4.37,0,0,0-1-.58,9.58,9.58,0,0,0-2.09-.74,4.74,4.74,0,0,0-1.84,0A2.3,2.3,0,0,1,89.83,19.7Zm-2.32,1.67a3.13,3.13,0,0,0,2.63,1,7,7,0,0,0,.78-.12,3.34,3.34,0,0,1,1.63,0,4.06,4.06,0,0,0-1.45.3,4.15,4.15,0,0,1-1.5.32A1.94,1.94,0,0,1,87.51,21.37Z"/><path class="cls-1" d="M84.2,19.73a3.18,3.18,0,0,1,.38,0,5.79,5.79,0,0,0,1-.06h.08l.07,0,.14,0,.29-.09a2.5,2.5,0,0,0,.55-.31,1.51,1.51,0,0,0,.23-.21l0-.06,0-.06a.83.83,0,0,0,.08-.12,1.34,1.34,0,0,0,.17-.57,1,1,0,0,0,0-.29.81.81,0,0,0-.11-.27.91.91,0,0,0-.45-.35l-.25-.06h-.36a.12.12,0,0,1-.1-.05A.13.13,0,0,1,86,17l0,0,0,0,0,0,.05,0,.06,0,.07,0,0,0h0l.09,0a1.27,1.27,0,0,1,.38,0,1.24,1.24,0,0,1,.74.51,1.49,1.49,0,0,1,.19.43,1.6,1.6,0,0,1,0,.43,1.65,1.65,0,0,1-.23.81,2,2,0,0,1-.58.6,2.33,2.33,0,0,1-.71.31,2.14,2.14,0,0,1-.35.06l-.16,0h-.47l-.13,0H85l-.24,0-.2,0A1,1,0,0,1,84.2,19.73Z"/><path class="cls-1" d="M81.51,19A1.32,1.32,0,0,1,82,19a8,8,0,0,1,1.16.3,4.71,4.71,0,0,1,.73.34,3.11,3.11,0,0,1,.38.25,2.79,2.79,0,0,1,.35.34,2.27,2.27,0,0,1,.46.9,1.84,1.84,0,0,1,.06.53,1,1,0,0,1,0,.29.88.88,0,0,1-.13.3.86.86,0,0,1-.22.25,1.18,1.18,0,0,1-.29.16,1.32,1.32,0,0,1-.62,0,1.36,1.36,0,0,1-.29-.06l-.15-.05h0l0,0,0,0-.07,0a.87.87,0,0,1-.23-.24,1.51,1.51,0,0,1-.15-.28.85.85,0,0,1,0-.32.56.56,0,0,1,.09-.31.76.76,0,0,1,.18-.21l.1-.06.09,0a.42.42,0,0,1,.27,0,.14.14,0,0,1,.1.11.18.18,0,0,1,0,.14l-.13.16a.22.22,0,0,0,0,.08.17.17,0,0,0,0,.07.2.2,0,0,0,0,.07l0,.09a.3.3,0,0,0,.07.1.38.38,0,0,0,.09.09l0,0,.08,0a.45.45,0,0,0,.16,0,.59.59,0,0,0,.3,0,.34.34,0,0,0,.16-.11.58.58,0,0,0,.06-.23,1.5,1.5,0,0,0,0-.35,1.76,1.76,0,0,0-.28-.66,2.17,2.17,0,0,0-.24-.29l-.28-.25a7.07,7.07,0,0,0-.61-.4c-.41-.23-.79-.4-1-.53S81.5,19,81.51,19Z"/><path class="cls-1" d="M65.36,20a17.19,17.19,0,0,1,5.54-3.42,5.26,5.26,0,0,1,2.91-.11l.62.17.94.26.09.09.09.11.09.11.09.12a2.26,2.26,0,0,1,.16.26,2.22,2.22,0,0,1,.22.59c0,.11,0,.21,0,.32s0,.1,0,.15v.15a1.51,1.51,0,0,1-.24.55,1,1,0,0,1-.46.33.93.93,0,0,1-.57,0l-.23-.1-.05,0,0,0h0l0,0,0,0c-.09-.07-.17-.14-.24-.13s-.06,0-.07.09a.17.17,0,0,0,0,.1.11.11,0,0,0,0,.05v0l0,0,0,.07,0,.07a.57.57,0,0,0,.1.13,1.4,1.4,0,0,0,.33.24,1.34,1.34,0,0,0,.93.06A1.4,1.4,0,0,0,76,20a1.74,1.74,0,0,0,.3-.31,1.6,1.6,0,0,0,.33-.78,1.92,1.92,0,0,0-.06-.83,2.3,2.3,0,0,0-.35-.68,3,3,0,0,0-.22-.28L75.92,17a2.4,2.4,0,0,0,.89,0,1.86,1.86,0,0,0,.47.62,2.89,2.89,0,0,0,2.34.53A3.87,3.87,0,0,0,82,16.79a6.21,6.21,0,0,0,1.2-2.16l.13-.38-.38.14a3,3,0,0,1-2.16,0,5,5,0,0,0-1.7-.26,2.94,2.94,0,0,0-1.56.52A2,2,0,0,0,76.69,16a1.42,1.42,0,0,0,0,.29v.07a3,3,0,0,1-1.34-.1,3.79,3.79,0,0,0,.42-.18l.06,0,.07,0L76,16l.12-.09.11-.09a2.92,2.92,0,0,0,.39-.4,2,2,0,0,0,.29-.5.58.58,0,0,0,0-.14l0-.14,0-.15a.81.81,0,0,0,0-.16,1.4,1.4,0,0,0-.12-.6,1.24,1.24,0,0,0-.38-.5A1.34,1.34,0,0,0,76,13a2.44,2.44,0,0,0-.54,0l-.25,0a1.34,1.34,0,0,0-.26.09.91.91,0,0,0-.23.17.8.8,0,0,0-.15.21.81.81,0,0,0-.11.47.88.88,0,0,0,.15.41c0,.06.09.1.13.15l.15.1a.47.47,0,0,0,.15.06l.08,0h.07a.46.46,0,0,0,.4-.18.24.24,0,0,0,0-.12s0,0,0,0l0,0a.28.28,0,0,1,0,.09.37.37,0,0,1-.14.07.45.45,0,0,1-.2,0,.61.61,0,0,1-.4-.33.49.49,0,0,1-.06-.29.48.48,0,0,1,.11-.3.43.43,0,0,1,.11-.12.44.44,0,0,1,.15-.08,1.15,1.15,0,0,1,.39-.05,1.11,1.11,0,0,1,.75.24.85.85,0,0,1,.26.71,1.12,1.12,0,0,1-.1.4,1.83,1.83,0,0,1-.23.38l0,0,0,0-.08.08-.08.08-.09.07,0,0,0,0-.09.07-.11.06,0,0-.05,0a3.15,3.15,0,0,1-.9.29l-.37,0-.28-.08a5.86,5.86,0,0,0-3.21.12l-.33.11.95-.62.37-.25.4-.29a4.38,4.38,0,0,0,.39-.36l0,0,0-.06.09-.11a2.07,2.07,0,0,0,.17-.24,2.27,2.27,0,0,0,.23-.58,1.64,1.64,0,0,0,.05-.32,2,2,0,0,0,0-.34,1.54,1.54,0,0,0-.76-1.07,1.41,1.41,0,0,0-.65-.19,1.17,1.17,0,0,0-.37,0,1,1,0,0,0-.35.15,1.2,1.2,0,0,0-.29.26,1,1,0,0,0-.18.35,1,1,0,0,0,.06.74.88.88,0,0,0,.22.28.76.76,0,0,0,.29.16.79.79,0,0,0,.51,0,.55.55,0,0,0,.25-.22.19.19,0,0,0,0-.1.09.09,0,0,0,0-.07l-.06,0h-.26a.83.83,0,0,1-.21-.06L71.24,13a.39.39,0,0,1-.06-.11.32.32,0,0,1,0-.14.59.59,0,0,1,0-.13.57.57,0,0,1,.08-.13.69.69,0,0,1,.13-.11l.15-.06h.18a.78.78,0,0,1,.59.37,1,1,0,0,1,.14.34,1.37,1.37,0,0,1-.15.8l-.11.18-.14.19c0,.06-.1.11-.15.17s-.1.11-.16.16l-.33.32-.34.29c-.57.52-1,.94-1.24,1.18a12.07,12.07,0,0,0-1.94,1l0-.05.16-.2.09-.11.08-.11.08-.12.08-.12c0-.09.1-.17.15-.27a1.43,1.43,0,0,0,.12-.31c0-.05,0-.11,0-.17a.38.38,0,0,1,0-.1v-.19s0-.06,0-.1l0-.09v0s0,0,0-.05a.94.94,0,0,0-.2-.33L68.4,15s-.05,0-.07-.07l0,0-.05,0a.26.26,0,0,0-.09-.05,1,1,0,0,0-.41-.09,1,1,0,0,0-.41.11,1.09,1.09,0,0,0-.17.13.91.91,0,0,0-.13.16.81.81,0,0,0-.1.34.54.54,0,0,0,.06.27.29.29,0,0,0,.12.14.13.13,0,0,0,.12,0,.16.16,0,0,0,.06-.08s0-.07,0-.12l0-.14a.64.64,0,0,1,.08-.14l.06-.06.07,0a.43.43,0,0,1,.19,0h.1l.09,0a.53.53,0,0,1,.14.11.64.64,0,0,1,.1.18.06.06,0,0,1,0,0v.1a.13.13,0,0,0,0,.06,1.92,1.92,0,0,1,0,.22V16l0,.06a.56.56,0,0,1,0,.12,1.89,1.89,0,0,1-.11.25l-.06.13-.06.12-.12.23-.12.21c-.16.28-.32.52-.43.68-.76.53-1.49,1.12-2.21,1.7l-.1.09.36.44Zm14.2-2.26a2.53,2.53,0,0,1-2-.45l-.11-.11a4.77,4.77,0,0,0,1.9-.11,9.4,9.4,0,0,0,2.12-.88,5.1,5.1,0,0,0,1-.68A3.83,3.83,0,0,1,79.56,17.73Zm-2.5-1.65a2,2,0,0,1,2.08-1.6,4.48,4.48,0,0,1,1.58.25,3.81,3.81,0,0,0,1.55.22,3.46,3.46,0,0,1-1.73.08c-.27,0-.54-.07-.82-.08a3.22,3.22,0,0,0-2.66,1.2Zm0,.52a2.85,2.85,0,0,1,2.63-1.38c.26,0,.53,0,.79.07a3.7,3.7,0,0,0,1.87-.09,4.27,4.27,0,0,1-1.06.74,9.19,9.19,0,0,1-2.06.86,4.42,4.42,0,0,1-2.07.05A.87.87,0,0,1,77.09,16.6Z"/><path class="cls-1" d="M60.15,25.73a2.6,2.6,0,0,0,.81-.2,2,2,0,0,0,.7-.51,1.15,1.15,0,0,0,.14-.17l0-.05,0-.05a.31.31,0,0,0,0-.1,1.77,1.77,0,0,0,.15-.42,2,2,0,0,0,0-.87A2,2,0,0,0,61.9,23a2.71,2.71,0,0,0-.21-.37c-.09-.12-.19-.23-.29-.34L61.06,22a3.7,3.7,0,0,0-1.54-.58l-.32,0a9.94,9.94,0,0,0,2-.87l.35-.21.33-.21.33-.23.16-.12.16-.13a10.27,10.27,0,0,0,1.2-1.09,8.85,8.85,0,0,0,1-1.3l.1-.17a1.62,1.62,0,0,0,.1-.18c.06-.12.13-.24.18-.37a4.89,4.89,0,0,0,.3-.75c0-.12.08-.24.11-.37a1.05,1.05,0,0,0,0-.19l.05-.19a6.83,6.83,0,0,0,.11-.79c0-.09.06-.22.1-.38s.1-.37.16-.59a7.19,7.19,0,0,1,.27-.71l.09-.19.05-.09.06-.1,0,0,0,0,.06-.09.07-.09.06-.09a3.14,3.14,0,0,1,.31-.32,2.26,2.26,0,0,1,.37-.26l.1,0,0,0,.06,0,.21,0a1.19,1.19,0,0,1,.42,0,1,1,0,0,1,.38.14l0,0,0,0,0,0h0l0,0a1,1,0,0,1,.12.16.92.92,0,0,1,.1.78,1,1,0,0,1-.08.18l0,0,0,0,0,0,0,0,0,0,0,0,0,0,0,0a.38.38,0,0,1-.15,0,.3.3,0,0,1-.23-.11.26.26,0,0,1,0-.09.45.45,0,0,1,0-.11s0-.07,0-.1l0-.08s0-.09,0-.13,0,0,0,0h-.1a.33.33,0,0,0-.13.07.39.39,0,0,0-.13.15.52.52,0,0,0-.07.23.6.6,0,0,0,0,.29.54.54,0,0,0,.09.15l.12.12a1,1,0,0,0,.32.14.93.93,0,0,0,.37,0l.09,0,.08,0L69,13l0,0,0,0a.85.85,0,0,0,.24-.26,1,1,0,0,0,.15-.31l0-.09s0-.05,0-.08v-.09s0-.05,0-.08V11.9a.25.25,0,0,0,0-.08v-.08a1.51,1.51,0,0,0-.22-.57,1.32,1.32,0,0,0-.44-.44,1.47,1.47,0,0,0-.6-.2,1.72,1.72,0,0,0-.6,0l-.15,0-.13.05-.14.06-.06,0-.06,0a2.54,2.54,0,0,0-.77.76,3.88,3.88,0,0,0-.4.86,5.83,5.83,0,0,0-.19.78,1.37,1.37,0,0,0,0,.19.13.13,0,0,1,0-.06,6.35,6.35,0,0,0-.12-.86,5.18,5.18,0,0,0-.65-1.6,4.29,4.29,0,0,0-.53-.68l-.05-.06c-.09-.13-.24-.28-.39-.46l-.05-.07a.35.35,0,0,1,0-.08l-.06-.07,0-.08a.35.35,0,0,1,0-.08l0-.08A1.22,1.22,0,0,1,63.63,9a1.31,1.31,0,0,1-.06-.67.9.9,0,0,1,.82-.79h.3a.85.85,0,0,1,.26.11.61.61,0,0,1,.2.19.24.24,0,0,1,.06.11.56.56,0,0,1,0,.12.64.64,0,0,1,0,.24.53.53,0,0,1-.09.2.5.5,0,0,1-.33.18.52.52,0,0,1-.26,0l0,0h-.06s0,0,0,0,0,0,0,0l0,0,0,0,.06,0a.53.53,0,0,0,.19,0,.62.62,0,0,0,.23,0,.73.73,0,0,0,.26-.14.7.7,0,0,0,.19-.28.72.72,0,0,0,.06-.36,1.36,1.36,0,0,0,0-.2,1.19,1.19,0,0,0-.08-.2l0,0v0l0,0-.06-.09-.08-.07s0,0,0,0l0,0a1.16,1.16,0,0,0-.4-.2l-.11,0-.12,0h-.23a1.41,1.41,0,0,0-.46.11,1.39,1.39,0,0,0-.41.27,1.37,1.37,0,0,0-.29.39A1.53,1.53,0,0,0,63,8.3a2,2,0,0,0,.1.92.54.54,0,0,0,0,.11l0,.06-.13,0a2.53,2.53,0,0,0-.71-.1,2.44,2.44,0,0,0-.63.11h-.11l-.59,0h-.18l-.18,0h-.17l-.18-.06a1.41,1.41,0,0,1-.56-.37,1.67,1.67,0,0,1-.17-.26,1.4,1.4,0,0,1-.09-.29.91.91,0,0,1,.1-.59v0l0,0,.05-.06.09-.1A.85.85,0,0,1,60,7.41a.73.73,0,0,1,.53,0,.45.45,0,0,1,.19.14.44.44,0,0,1,.12.19.43.43,0,0,1,0,.19.38.38,0,0,1-.06.16.43.43,0,0,1-.19.17l-.09,0s0,0,.11,0A.54.54,0,0,0,61,8.21.53.53,0,0,0,61.08,8a.57.57,0,0,0,0-.29A.77.77,0,0,0,61,7.4a1,1,0,0,0-.27-.26A1.07,1.07,0,0,0,59.93,7a1.16,1.16,0,0,0-.42.17,1.07,1.07,0,0,0-.32.35,1.39,1.39,0,0,0-.19.91,1.45,1.45,0,0,0,.14.46,1.74,1.74,0,0,0,.27.38,2,2,0,0,0,.77.49l.22.06h.12l.11,0h.21a.47.47,0,0,0-.1.1,1.14,1.14,0,0,0-.11.11l0,.05,0,0a1.54,1.54,0,0,0-.47-.26,2.44,2.44,0,0,0-2,.3A3.56,3.56,0,0,0,56.35,13a7.29,7.29,0,0,0,0,1.06l0,.4.3-.27a2.49,2.49,0,0,1,1.68-.63,4.14,4.14,0,0,0,1.42-.32,2.24,2.24,0,0,0,1.37-1.66,1.82,1.82,0,0,0-.12-.86,1.37,1.37,0,0,0-.28-.44h0a5.07,5.07,0,0,1,.62-.35,2.45,2.45,0,0,1,1-.23,1.8,1.8,0,0,1,.6.1,2.57,2.57,0,0,1,.61.28,3.48,3.48,0,0,1,1,1.08l.14.24,0,0a1.77,1.77,0,0,0-.57-.21,1.63,1.63,0,0,0-.31,0,1.67,1.67,0,0,0-.32,0,2.1,2.1,0,0,0-.6.19,2.36,2.36,0,0,0-.48.32,1.78,1.78,0,0,0-.56,1c0,.05,0,.1,0,.15V13a1.67,1.67,0,0,0,0,.31,1.47,1.47,0,0,0,.28.54.88.88,0,0,0,.22.21,1,1,0,0,0,.26.16,1.24,1.24,0,0,0,.85,0,1.23,1.23,0,0,0,.26-.12,1.15,1.15,0,0,0,.35-.38,1,1,0,0,0,0-.89.85.85,0,0,0-.23-.29.92.92,0,0,0-.28-.14.75.75,0,0,0-.24,0h-.1l-.08,0-.07,0,0,0,0,0h.22l.09,0a.6.6,0,0,1,.2.07,1,1,0,0,1,.21.16.63.63,0,0,1,.14.24.81.81,0,0,1,0,.31.75.75,0,0,1,0,.16.59.59,0,0,1,0,.08l-.05.08a.71.71,0,0,1-.12.13.42.42,0,0,1-.14.09.77.77,0,0,1-.37.07,1,1,0,0,1-.37-.1.83.83,0,0,1-.15-.11l-.13-.15a1.06,1.06,0,0,1-.16-.38,1.49,1.49,0,0,1,0-.21.38.38,0,0,1,0-.1v-.1a.38.38,0,0,1,0-.1l0-.1,0-.1a.41.41,0,0,0,0-.09,1.84,1.84,0,0,1,.27-.34,1.57,1.57,0,0,1,.79-.37,1.77,1.77,0,0,1,.46,0,1.87,1.87,0,0,1,.42.13,2.3,2.3,0,0,1,.35.2l.24.2c0,.15.08.29.11.44a5.34,5.34,0,0,1,.09,1.59c0,.12,0,.25,0,.38s0,.25-.07.37a3.58,3.58,0,0,1-.09.35.84.84,0,0,1,0,.17l-.06.17-.06.17-.07.18c0,.11-.1.23-.16.34s-.23.45-.36.66-.22.33-.34.49l0-.07a.19.19,0,0,0,0-.08l0-.08a1.83,1.83,0,0,0-.1-1.09,1.79,1.79,0,0,0-.22-.34,1.35,1.35,0,0,0-.32-.26l-.09-.05-.09,0-.1,0-.1,0h-.4l-.21,0-.1,0-.11,0a1.14,1.14,0,0,0-.36.26l-.07.09-.06.09a8791577004293.47,8791577004293.47,0,0,1-.08.2.78.78,0,0,0,0,.21.48.48,0,0,0,0,.18.51.51,0,0,0,.15.27.33.33,0,0,0,.18.1.1.1,0,0,0,.11,0,.18.18,0,0,0,0-.1l0-.13c0-.05,0-.1,0-.16a.57.57,0,0,1,0-.18.63.63,0,0,1,.12-.18.74.74,0,0,1,.21-.13l.12,0,.07,0h.19l.12,0L63,16,63,16h0l0,0a1,1,0,0,1,.19.16,1.19,1.19,0,0,1,.24.46,2.56,2.56,0,0,1,.05.27,2.44,2.44,0,0,1,0,.27.17.17,0,0,1,0,.07.13.13,0,0,1,0,.06l0,.13v.06l0,.07,0,.06v.06a4.36,4.36,0,0,1-.41.74l-.08.12,0,.05a8.42,8.42,0,0,1-.72.62l-.15.12-.16.12-.31.22-.15.11-.08.05-.08.05-.16.1-.17.1a9.67,9.67,0,0,1-1.34.64,9,9,0,0,1-1.37.43,8.2,8.2,0,0,1-2.67.19,6.16,6.16,0,0,1-1.18-.24l-.14,0-.13,0-.27-.1-.12-.05-.13-.05-.24-.11a7.22,7.22,0,0,1-1.5-1l-.15-.13-.12-.12-.23-.22-.19-.2L51,18.9a2.49,2.49,0,0,1-.2-.24l-.08-.08a.44.44,0,0,0,.06.1l.18.26.14.19.18.22.22.24.12.14.14.13a6.77,6.77,0,0,0,2.57,1.57,7.52,7.52,0,0,0,1.24.28A8.23,8.23,0,0,0,58,21.66l.28.05c.3,0,.73.07,1.19.16l.17,0,.17.05.35.11a3,3,0,0,1,.66.35l.28.24.22.27a1.66,1.66,0,0,1,.25.59,1.82,1.82,0,0,1,0,.32,1.73,1.73,0,0,1,0,.32,1.14,1.14,0,0,1-.29.54,1.79,1.79,0,0,1-1.17.55,1.7,1.7,0,0,1-.64-.05,1.39,1.39,0,0,1-.28-.12,1,1,0,0,1-.23-.18,1.16,1.16,0,0,1-.29-.5.57.57,0,0,1,0-.26.7.7,0,0,1,0-.25.76.76,0,0,1,.13-.23,1.37,1.37,0,0,1,.17-.17,1.2,1.2,0,0,1,.21-.13l.11,0h.33l.2.05a1.13,1.13,0,0,1,.32.19,1.31,1.31,0,0,1,.2.23l0,.06s0,0,0,.05a.93.93,0,0,0,0,.1c0,.06,0,.11,0,.14s0,.06,0,.06v-.06a.41.41,0,0,0,0-.15.5.5,0,0,0,0-.12l0-.06,0-.07a1.52,1.52,0,0,0-.2-.29,1.39,1.39,0,0,0-.35-.26,1,1,0,0,0-.52-.09,1.07,1.07,0,0,0-.29.06,1.22,1.22,0,0,0-.71.65,1.17,1.17,0,0,0-.07.74,1.48,1.48,0,0,0,.36.69,2.78,2.78,0,0,0,.32.26,1.63,1.63,0,0,0,.38.17A2.05,2.05,0,0,0,60.15,25.73Zm.57-14.2a1.87,1.87,0,0,1-1.14,1.36,3.75,3.75,0,0,1-1.3.29,3.61,3.61,0,0,0-1.12.23A3.37,3.37,0,0,1,58.33,13c.22-.06.45-.12.66-.2a2.71,2.71,0,0,0,1.7-1.67A1.14,1.14,0,0,1,60.72,11.53Zm-.2-.87A2.37,2.37,0,0,1,58.9,12.5c-.2.07-.42.13-.64.19a3.18,3.18,0,0,0-1.36.58,4.14,4.14,0,0,1,.55-.81,8,8,0,0,1,1.35-1.3,3.53,3.53,0,0,1,1.56-.66ZM60,10.27l.05,0a4.2,4.2,0,0,0-1.39.66,8.14,8.14,0,0,0-1.39,1.34,4.39,4.39,0,0,0-.51.71,3.15,3.15,0,0,1,1.54-2.46A2.11,2.11,0,0,1,60,10.27Z"/><path class="cls-1" d="M72.75,29a6.9,6.9,0,0,0,2.68-.36l.39-.12-.34-.22a3.3,3.3,0,0,1-1.41-1.94,5.26,5.26,0,0,0-.89-1.67,3.23,3.23,0,0,0-1.6-1.07,2.21,2.21,0,0,0-1.94.38,1.94,1.94,0,0,0-.26.23l-.15-.15a4.59,4.59,0,0,1-.4-.44c-.15-.18-.3-.39-.46-.62h0l.16.07.16.05.16.05.17,0h.08l.08,0,.17,0h.34l.32,0c.1,0,.2,0,.3-.06a2,2,0,0,0,.6-.22l.15-.08.14-.1.12-.11a.71.71,0,0,0,.12-.13,1.61,1.61,0,0,0,.33-.6,1.39,1.39,0,0,0,0-.7,1.44,1.44,0,0,0-.3-.59,2.19,2.19,0,0,0-.46-.41l-.25-.15a1.33,1.33,0,0,0-.28-.1,1.1,1.1,0,0,0-.31,0,.88.88,0,0,0-.29.07,1,1,0,0,0-.43.34.88.88,0,0,0-.16.45,1.55,1.55,0,0,0,0,.22.66.66,0,0,0,.06.2.8.8,0,0,0,.08.16l0,.07.06.06a.51.51,0,0,0,.48.13.19.19,0,0,0,.11-.07l0,0s0,0,0,0l-.12,0a.38.38,0,0,1-.17,0l-.1-.05-.09-.09a.75.75,0,0,1-.12-.59.58.58,0,0,1,.16-.31.7.7,0,0,1,.32-.2l.19,0a.41.41,0,0,1,.19,0,1.37,1.37,0,0,1,.4.23,1.88,1.88,0,0,1,.33.36,1,1,0,0,1,.18.41,1.09,1.09,0,0,1-.29.86,1.88,1.88,0,0,1-.39.29,2.74,2.74,0,0,1-.48.17h-.12l-.13,0h-.74l-.07,0a3,3,0,0,1-1-.4,3.27,3.27,0,0,1-.45-.33l-.07-.09-.3-.38A9.47,9.47,0,0,0,66,20.2c-.23-.18-.47-.37-.72-.53l-.39-.23-.2-.11-.2-.11a7.73,7.73,0,0,0-1.71-.6A7.93,7.93,0,0,0,61,18.46a2.75,2.75,0,0,0-.41,0h-.4l-.22,0,.1-.11a2.1,2.1,0,0,0,.37-.56c0-.05.05-.11.08-.17a1.21,1.21,0,0,0,.05-.18,1.78,1.78,0,0,0,.07-.39,2,2,0,0,0,0-.42l0-.1v-.1l0-.1,0-.1a2.2,2.2,0,0,0-.95-1.23,1.93,1.93,0,0,0-.74-.26,1.87,1.87,0,0,0-.78.07,2,2,0,0,0-.7.36l-.14.14a.23.23,0,0,0-.07.07l-.07.08-.05.08-.06.09-.09.18a1.77,1.77,0,0,0-.12.75,1.92,1.92,0,0,0,.19.71,1.45,1.45,0,0,0,.45.53l.07.05.07,0,.16.07.15.06.16,0a1.14,1.14,0,0,0,.61,0,1.26,1.26,0,0,0,.26-.14.89.89,0,0,0,.19-.2.83.83,0,0,0,.18-.46v-.11s0-.08,0-.11a.3.3,0,0,0,0-.1.36.36,0,0,0,0-.09.72.72,0,0,0-.21-.24.52.52,0,0,0-.22-.1c-.13,0-.2,0-.19,0s.06,0,.16.07a.61.61,0,0,1,.16.13A.48.48,0,0,1,59,17a.4.4,0,0,1,0,.15.39.39,0,0,1,0,.15.57.57,0,0,1-.17.3.7.7,0,0,1-.33.17.86.86,0,0,1-.42,0,.89.89,0,0,1-.38-.23.94.94,0,0,1-.25-.39,1.11,1.11,0,0,1,.82-1.53,1.48,1.48,0,0,1,.51,0,1.34,1.34,0,0,1,1.09,1,.65.65,0,0,1,0,.13.2.2,0,0,1,0,.07.17.17,0,0,1,0,.07V17s0,0,0,.07a1.24,1.24,0,0,1,0,.27l0,.13a.56.56,0,0,0,0,.12,3,3,0,0,1-.46.8,2.33,2.33,0,0,0-.19.28,9.88,9.88,0,0,0-2,.73l-.18.09-.16.09-.25.14-.21.13a.77.77,0,0,0,.24-.08l.26-.1.09,0,.08,0,.2-.07.21-.08.24-.08.25-.08.14,0,.14,0,.29-.08a1.83,1.83,0,0,1,.32-.07l.33-.07.08,0h.09l.17,0,.18,0h.18l.37,0h.78a7,7,0,0,1,1.62.23,7.77,7.77,0,0,1,1.58.6l.19.11.09.05.09.05.19.11.07,0,0,.07.06.13,0,.07,0,.08a1.19,1.19,0,0,0,.08.16l0,.05,0,0,0,.1a3.37,3.37,0,0,1,.27.83s0,.07,0,.11l0,.11c0,.07,0,.14,0,.21a2.38,2.38,0,0,1,0,.39,1.23,1.23,0,0,1-.11.34.64.64,0,0,1-.08.14.43.43,0,0,1-.11.12.67.67,0,0,1-.27.16.7.7,0,0,1-.32,0,.77.77,0,0,1-.44-.17L64.07,23a1,1,0,0,1-.16-.26,1,1,0,0,1,0-.3s0-.09,0-.14l0-.13a.62.62,0,0,1,.15-.2.54.54,0,0,1,.2-.1.47.47,0,0,1,.2,0,.43.43,0,0,1,.17,0l.07,0,.05,0,0,0,0,0a0,0,0,0,0,0,0v0s0,0,0,0a.17.17,0,0,0,0-.05l0-.05s0-.05-.07-.06a.5.5,0,0,0-.19-.11.88.88,0,0,0-.29,0,.73.73,0,0,0-.33.1.86.86,0,0,0-.3.27,1,1,0,0,0-.16.41.65.65,0,0,0,0,.24.48.48,0,0,0,0,.12s0,.09,0,.13a1.17,1.17,0,0,0,.09.24.76.76,0,0,0,.13.23,1.63,1.63,0,0,0,.17.2,1.4,1.4,0,0,0,.77.37h.3a1.35,1.35,0,0,0,.29-.05,1.45,1.45,0,0,0,.89-.79,1.82,1.82,0,0,0,.15-.54,2.24,2.24,0,0,0,0-.52,1.24,1.24,0,0,0,0-.27l0-.13v-.07s0,0,0-.06a3,3,0,0,0-.16-.53,8,8,0,0,1,.9.93c.1.11.19.23.28.35s.18.24.26.37l.52.71.17.21h0a.76.76,0,0,1,0,.15l0,.16V24a1,1,0,0,1,0,.17v.17a2.27,2.27,0,0,1,0,.35,2.16,2.16,0,0,1-.23.69,1.61,1.61,0,0,1-.19.31l-.12.14-.06.06-.07.06a1.67,1.67,0,0,1-.62.32,1.19,1.19,0,0,1-.33,0,.94.94,0,0,1-.34-.07,1.08,1.08,0,0,1-.51-.43,1.17,1.17,0,0,1-.13-.28l0-.06v-.06s0,0,0-.06,0,0,0-.06,0-.25-.1-.29-.07,0-.11,0a.22.22,0,0,0-.07.09.08.08,0,0,0,0,.05l0,0v0s0,.05,0,.08a.22.22,0,0,0,0,.08,1.34,1.34,0,0,0,0,.2,1.21,1.21,0,0,0,.12.43,1.31,1.31,0,0,0,.3.41,1.38,1.38,0,0,0,.46.29,1.61,1.61,0,0,0,.52.11,2.44,2.44,0,0,0,.48-.05,2,2,0,0,0,.84-.45,2.09,2.09,0,0,0,.53-.76,3.52,3.52,0,0,0,.13-.43,3,3,0,0,0,.06-.42,2.67,2.67,0,0,0,0-.4c0-.06,0-.12,0-.19V24s0-.06,0-.09v0a3.32,3.32,0,0,0,.49.41.94.94,0,0,0,.24.13,1.81,1.81,0,0,0-.27.78A3.08,3.08,0,0,0,70,27.74,4.26,4.26,0,0,0,72.75,29ZM70,24.22a2.22,2.22,0,0,1,2.92.71,4.71,4.71,0,0,1,.82,1.56,4.26,4.26,0,0,0,.89,1.58,3.57,3.57,0,0,1-1.3-1.53c-.14-.25-.3-.52-.47-.77A3.48,3.48,0,0,0,70,24.22Zm-.33.29a3.15,3.15,0,0,1,3,1.42,8.38,8.38,0,0,1,.46.75,3.91,3.91,0,0,0,1.37,1.61A4.51,4.51,0,0,1,73,27.84a10.14,10.14,0,0,1-2.12-1.26,4.71,4.71,0,0,1-1.42-1.81A1.4,1.4,0,0,1,69.64,24.51Zm.64,3a2.75,2.75,0,0,1-.94-2.21.5.5,0,0,1,0-.12,5.14,5.14,0,0,0,1.37,1.65,10.44,10.44,0,0,0,2.17,1.29,5.33,5.33,0,0,0,1.36.46A4.27,4.27,0,0,1,70.28,27.47Z"/><polygon class="cls-1" points="49.48 6.37 46.8 2.03 44.13 6.37 40.61 4.85 42.12 11.06 46.8 11.06 51.49 11.06 53 4.85 49.48 6.37"/><polygon class="cls-1" points="48.84 4.55 49.66 5.75 51.18 5.15 50.77 2.58 48.84 4.55"/><polygon class="cls-1" points="44.81 4.55 43.98 5.75 42.46 5.15 42.87 2.58 44.81 4.55"/><path class="cls-1" d="M53.89,4.24a.45.45,0,1,1-.89,0,.45.45,0,0,1,.89,0Z"/><path class="cls-1" d="M51.63,1.82a.58.58,0,1,1-.58-.58A.58.58,0,0,1,51.63,1.82Z"/><path class="cls-1" d="M39.8,4.24a.45.45,0,1,0,.89,0,.45.45,0,0,0-.89,0Z"/><path class="cls-1" d="M42.07,1.82a.58.58,0,1,0,.58-.58A.58.58,0,0,0,42.07,1.82Z"/><circle class="cls-1" cx="46.75" cy="0.76" r="0.76"/><rect class="cls-1" x="42.17" y="11.37" width="9.27" height="0.96"/></g></g></svg>