<svg xmlns="http://www.w3.org/2000/svg" viewBox="0 0 162.8 161.69"><defs><style>.cls-1{fill:#fff;}.cls-2{fill:none;stroke:#e11f26;stroke-miterlimit:10;}.cls-3{fill:#e11f26;}</style></defs><g id="Layer_2" data-name="Layer 2"><g id="Layer_1-2" data-name="Layer 1"><g id="Layer_2-2" data-name="Layer 2"><g id="set"><path class="cls-1" d="M158,70.08a5.08,5.08,0,0,0-.86.19,3.24,3.24,0,0,0-.55-2.61,2.33,2.33,0,0,0-.8-.63A10.62,10.62,0,0,1,154,70.42a10.35,10.35,0,0,1-2.28,2.15,9.78,9.78,0,0,1-6.72-4,9.47,9.47,0,0,1-1.4-4.38,8.89,8.89,0,0,0,4,.82,1.56,1.56,0,0,0,.16.2A4.59,4.59,0,0,0,151,66.85a4.79,4.79,0,0,0,4.53-3.53c.74-2.55-1-5.19-3.08-6.27-3.09-1.59-7,.24-8.8,2.94a6.55,6.55,0,0,0-1,2.48,6.86,6.86,0,0,1-2.55-6.58,6.71,6.71,0,0,0,2.46,1.27,7.89,7.89,0,0,0,2,.26c2.69,0,5.53-1.32,6.53-3.9.85-2.19.4-5.32-1.85-6.73a4.78,4.78,0,0,0-5.73.36,4.4,4.4,0,0,0-1.24,3.6,8.34,8.34,0,0,0-2.59,3.15V54a9.47,9.47,0,0,1-1.79-4.12,9.87,9.87,0,0,1,2.46-7.56,10.42,10.42,0,0,1,6.56,1.47,2.47,2.47,0,0,0,.19-1,3.27,3.27,0,0,0-1.33-2.31,4.55,4.55,0,0,0,.78-.43,6.14,6.14,0,0,0,2.28-4.66,6.1,6.1,0,0,0-5.17.48,4.65,4.65,0,0,0-.67.58,3.29,3.29,0,0,0-1.7-2.07,2.46,2.46,0,0,0-1-.18,10.45,10.45,0,0,1-1,6.79,9.79,9.79,0,0,1-7.81-.42,9.45,9.45,0,0,1-3.28-3.22,8.77,8.77,0,0,0,4-1.15l.23.1a4.64,4.64,0,0,0,3.62-.06A4.77,4.77,0,0,0,138.4,31c-.53-2.59-3.26-4.12-5.61-4.12-3.5,0-6.16,3.48-6.46,6.69a6.81,6.81,0,0,0,.28,2.65,7.32,7.32,0,0,1-3.78-2.06,6.75,6.75,0,0,1-1.53-2.59,6.14,6.14,0,0,0,1.35.15,6.78,6.78,0,0,0,1.42-.15c3.15-.69,6.26-3.74,5.87-7.19-.27-2.34-2.13-4.89-4.77-5.1a4.77,4.77,0,0,0-4.9,3,4.44,4.44,0,0,0,.57,3.78,8.14,8.14,0,0,0-.83,4v.08a9.51,9.51,0,0,1-3.51-2.81,9.91,9.91,0,0,1-1.33-7.84,11.36,11.36,0,0,1,2.7-1.29,10.42,10.42,0,0,1,3.8-.45,2.38,2.38,0,0,0-.31-1,3.23,3.23,0,0,0-2.24-1.44,5.11,5.11,0,0,0,.48-.73,6.16,6.16,0,0,0-.14-5.19,6,6,0,0,0-4.35,2.83,3.94,3.94,0,0,0-.34.82,3.24,3.24,0,0,0-2.45-1,2.52,2.52,0,0,0-1,.3,10.62,10.62,0,0,1,1.79,3.39,10.5,10.5,0,0,1,.47,3.1A10,10,0,0,1,106.72,22h-.23a9.25,9.25,0,0,1-4.4-1.34,8.7,8.7,0,0,0,3-2.85h.26a4.6,4.6,0,0,0,3.18-1.73,4.76,4.76,0,0,0-.33-5.73c-1.68-2.06-4.83-2.14-6.91-1-3.06,1.64-3.8,5.93-2.58,8.91a6.91,6.91,0,0,0,1.48,2.22,7.25,7.25,0,0,1-4.3-.07,6.86,6.86,0,0,1-2.55-1.57,6.78,6.78,0,0,0,2.44-1.3c2.47-2.07,3.81-6.22,1.86-9.09C96.31,6.5,93.48,5.11,91,6.15a4.76,4.76,0,0,0-3,4.92,4.35,4.35,0,0,0,2.26,3.07A8.2,8.2,0,0,0,91.43,18v.07A9.44,9.44,0,0,1,87,17.2a9.88,9.88,0,0,1-4.82-6.32A10.84,10.84,0,0,1,84,8.53a10.68,10.68,0,0,1,3.15-2.17,2.5,2.5,0,0,0-.72-.73,3.26,3.26,0,0,0-2.66-.21,4.41,4.41,0,0,0,.09-.89A6.16,6.16,0,0,0,81.36,0a6.11,6.11,0,0,0-2.54,4.53,4.41,4.41,0,0,0,.09.89,3.26,3.26,0,0,0-2.66.21,2.54,2.54,0,0,0-.73.73,10.68,10.68,0,0,1,3.15,2.17,11,11,0,0,1,1.87,2.52,9.8,9.8,0,0,1-4.79,6.19,9.36,9.36,0,0,1-4.51.87,8.89,8.89,0,0,0,1.3-3.91l.22-.14a4.67,4.67,0,0,0,2-3,4.76,4.76,0,0,0-3-4.92c-2.44-1-5.27.35-6.59,2.3-2,2.87-.61,7,1.86,9.09a6.59,6.59,0,0,0,2.34,1.27,7.32,7.32,0,0,1-3.84,1.95,7.07,7.07,0,0,1-3-.21,6.91,6.91,0,0,0,1.56-2.29c1.22-3,.48-7.27-2.58-8.91-2.08-1.11-5.24-1-6.91,1a4.76,4.76,0,0,0-.33,5.73,4.41,4.41,0,0,0,3.43,1.67,8.16,8.16,0,0,0,2.8,3h.08A9.4,9.4,0,0,1,56.33,22a9.92,9.92,0,0,1-7.2-3.36,10.48,10.48,0,0,1,2.25-6.33,2.54,2.54,0,0,0-1-.31,3.26,3.26,0,0,0-2.46,1,4.14,4.14,0,0,0-.33-.82,6.12,6.12,0,0,0-4.35-2.83,6.09,6.09,0,0,0-.14,5.19,5.21,5.21,0,0,0,.48.74,3.23,3.23,0,0,0-2.25,1.43,2.71,2.71,0,0,0-.31,1,10.67,10.67,0,0,1,3.81.46,10.23,10.23,0,0,1,2.82,1.37,9.83,9.83,0,0,1-1.36,7.7,9.31,9.31,0,0,1-3.6,2.86,8.76,8.76,0,0,0-.68-4l.13-.23a4.66,4.66,0,0,0,.38-3.6,4.79,4.79,0,0,0-4.9-3c-2.65.21-4.5,2.76-4.77,5.1-.39,3.45,2.71,6.5,5.86,7.19a7.05,7.05,0,0,0,2.67,0,7.26,7.26,0,0,1-2.5,3.5,6.74,6.74,0,0,1-2.74,1.2,6.53,6.53,0,0,0,.32-2.74c-.31-3.21-3-6.67-6.43-6.69-2.39,0-5.11,1.53-5.64,4.12a4.77,4.77,0,0,0,2.37,5.22,4.39,4.39,0,0,0,3.81-.11,8.31,8.31,0,0,0,3.86,1.31h.08a9.34,9.34,0,0,1-3.21,3.13,9.85,9.85,0,0,1-7.94.38,10.37,10.37,0,0,1-.95-6.66,2.47,2.47,0,0,0-1,.19,3.23,3.23,0,0,0-1.69,2.06,4.67,4.67,0,0,0-.68-.57,6.14,6.14,0,0,0-5.17-.49,6.08,6.08,0,0,0,2.29,4.66,5,5,0,0,0,.78.44,3.21,3.21,0,0,0-1.34,2.31,2.65,2.65,0,0,0,.19,1,10.45,10.45,0,0,1,3.58-1.36,10.27,10.27,0,0,1,3.13-.1,9.83,9.83,0,0,1,2.38,7.45A9.42,9.42,0,0,1,23,54.08a8.62,8.62,0,0,0-2.47-3.29,1.13,1.13,0,0,1,0-.26,4.62,4.62,0,0,0-1.34-3.37,4.78,4.78,0,0,0-5.73-.36c-2.24,1.41-2.7,4.54-1.85,6.73,1.26,3.24,5.43,4.49,8.54,3.64A6.8,6.8,0,0,0,22.58,56,7.24,7.24,0,0,1,22,60.23a7.09,7.09,0,0,1-1.87,2.34,6.68,6.68,0,0,0-1-2.58c-1.75-2.7-5.71-4.53-8.79-2.94-2.1,1.08-3.82,3.72-3.08,6.27a4.79,4.79,0,0,0,4.53,3.53A4.44,4.44,0,0,0,15.11,65c.25,0,.49,0,.74.06a8.42,8.42,0,0,0,3.28-.69h.08a9.66,9.66,0,0,1-1.39,4.27,9.91,9.91,0,0,1-6.86,4,10.59,10.59,0,0,1-4-5.5,2.46,2.46,0,0,0-.8.63,3.26,3.26,0,0,0-.54,2.62,5,5,0,0,0-.87-.2,6.1,6.1,0,0,0-4.8,2,6.12,6.12,0,0,0,4.19,3.06,4.41,4.41,0,0,0,.89,0A3.27,3.27,0,0,0,5,77.92a2.37,2.37,0,0,0,.63.81,10.54,10.54,0,0,1,5.26-4.42,9.82,9.82,0,0,1,5.57,5.5,9.41,9.41,0,0,1,.31,4.59A8.74,8.74,0,0,0,13,82.63a1.63,1.63,0,0,0-.11-.23A4.62,4.62,0,0,0,10.19,80a4.79,4.79,0,0,0-5.25,2.34c-1.32,2.3-.28,5.27,1.5,6.82,2.61,2.28,6.89,1.46,9.24-.74a7,7,0,0,0,1.55-2.18,7.34,7.34,0,0,1,1.46,4,6.92,6.92,0,0,1-.57,2.94A6.92,6.92,0,0,0,16,91.45c-2.81-1.57-7.16-1.35-9.15,1.49C5.51,94.87,5.2,98,7,99.94a4.78,4.78,0,0,0,5.65,1,4.46,4.46,0,0,0,2.08-3.2A8.33,8.33,0,0,0,18,95.31l0-.07a9.44,9.44,0,0,1,.75,4.42,9.84,9.84,0,0,1-4.2,6.75,10.25,10.25,0,0,1-2.87-.82,10.71,10.71,0,0,1-3.15-2.18,2.66,2.66,0,0,0-.42.94,3.29,3.29,0,0,0,.73,2.56,5.09,5.09,0,0,0-.85.23,6.12,6.12,0,0,0-3.33,4,6.09,6.09,0,0,0,5.13.77,3.87,3.87,0,0,0,.79-.39,3.24,3.24,0,0,0,1.16,2.4,2.47,2.47,0,0,0,.93.43A10.54,10.54,0,0,1,15.39,108a9.85,9.85,0,0,1,7.49,2.28,9.56,9.56,0,0,1,2.41,3.92,8.83,8.83,0,0,0-4.12.16l-.21-.15a4.6,4.6,0,0,0-3.52-.82,4.78,4.78,0,0,0-3.56,4.51c-.11,2.65,2.2,4.8,4.49,5.35,3.38.8,6.78-1.91,7.84-5a7,7,0,0,0,.36-2.64,7.37,7.37,0,0,1,3.18,2.9,6.89,6.89,0,0,1,.86,2.87,6.55,6.55,0,0,0-2.68-.64c-3.25-.08-7,2.13-7.42,5.57-.3,2.34.89,5.26,3.41,6.09a4.76,4.76,0,0,0,5.47-1.72,4.39,4.39,0,0,0,.35-3.8,8,8,0,0,0,1.76-3.67v-.08a9.49,9.49,0,0,1,2.73,3.57,9.93,9.93,0,0,1-.58,7.93,10.47,10.47,0,0,1-2.93.6,10.64,10.64,0,0,1-3.8-.46,2.42,2.42,0,0,0,.06,1,3.25,3.25,0,0,0,1.84,1.93,4.55,4.55,0,0,0-.64.6,6.12,6.12,0,0,0-1.11,5.08A6.18,6.18,0,0,0,32,141.7a5.27,5.27,0,0,0,.52-.72,3.19,3.19,0,0,0,2.13,1.6,2.82,2.82,0,0,0,1-.06,10.6,10.6,0,0,1-.92-3.72,10.24,10.24,0,0,1,.28-3.12,9.85,9.85,0,0,1,7.68-1.47,9.6,9.6,0,0,1,3.95,2.35,8.89,8.89,0,0,0-3.56,2.07h-.25a4.65,4.65,0,0,0-3.51.92,4.78,4.78,0,0,0-1,5.65c1.14,2.39,4.18,3.22,6.46,2.64,3.37-.85,5.12-4.84,4.64-8a6.55,6.55,0,0,0-.91-2.5,7.22,7.22,0,0,1,4.17,1.09,7.08,7.08,0,0,1,2.09,2.13,7,7,0,0,0-2.68.69c-2.89,1.41-5.18,5.12-4,8.37.81,2.21,3.23,4.24,5.85,3.82a4.76,4.76,0,0,0,4-4.07,4.46,4.46,0,0,0-1.45-3.53,8.22,8.22,0,0,0-.15-4.06v-.08a9.34,9.34,0,0,1,4.07,1.89,9.88,9.88,0,0,1,3.17,7.29,10.43,10.43,0,0,1-5.89,3.25,2.83,2.83,0,0,0,.53.88,3.26,3.26,0,0,0,2.53.85,6.34,6.34,0,0,0-.3.83,6.13,6.13,0,0,0,1.39,5,6.08,6.08,0,0,0,3.54-3.79,3.74,3.74,0,0,0,.13-.88,3.2,3.2,0,0,0,2.64.42,2.29,2.29,0,0,0,.87-.53,10.45,10.45,0,0,1-3.74-5.76,9.81,9.81,0,0,1,6.12-4.86,9.4,9.4,0,0,1,4.59.24A8.66,8.66,0,0,0,73.81,150l-.25.09a4.56,4.56,0,0,0-2.67,2.44A4.77,4.77,0,0,0,72.58,158c2.12,1.6,5.2.92,7-.66,2.58-2.32,2.28-6.66.37-9.26a6.75,6.75,0,0,0-2-1.8,7.23,7.23,0,0,1,4.19-1,7,7,0,0,1,2.85.92,6.75,6.75,0,0,0-2.07,1.8c-1.9,2.6-2.21,6.94.37,9.26,1.76,1.58,4.84,2.26,7,.66A4.77,4.77,0,0,0,92,152.44,4.45,4.45,0,0,0,89,150a8.19,8.19,0,0,0-2-3.53l-.06-.06a9.44,9.44,0,0,1,4.48-.21,9.86,9.86,0,0,1,6.2,5,10.6,10.6,0,0,1-3.71,5.62,2.83,2.83,0,0,0,.88.53,3.26,3.26,0,0,0,2.63-.42,5.23,5.23,0,0,0,.13.87,6.09,6.09,0,0,0,3.55,3.79,6.09,6.09,0,0,0,1.38-5,4.9,4.9,0,0,0-.29-.84,3.25,3.25,0,0,0,2.52-.85,2.49,2.49,0,0,0,.54-.88,10.64,10.64,0,0,1-3.58-1.35,10.32,10.32,0,0,1-2.42-2,9.86,9.86,0,0,1,3.16-7.15,9.58,9.58,0,0,1,4.18-1.92,8.81,8.81,0,0,0-.32,4.11l-.18.18a4.66,4.66,0,0,0-1.24,3.41,4.77,4.77,0,0,0,4,4.07c2.61.42,5-1.61,5.85-3.82,1.21-3.25-1.08-7-4-8.37a6.59,6.59,0,0,0-2.57-.68,7.24,7.24,0,0,1,3.26-2.81,7,7,0,0,1,3-.51,6.72,6.72,0,0,0-1,2.59c-.48,3.19,1.27,7.18,4.63,8a6,6,0,0,0,1.47.18,5.42,5.42,0,0,0,5-2.82,4.78,4.78,0,0,0-1.06-5.65,4.39,4.39,0,0,0-3.72-.8,8.25,8.25,0,0,0-3.43-2.19h-.09a9.51,9.51,0,0,1,3.87-2.28,9.92,9.92,0,0,1,7.81,1.54,10.55,10.55,0,0,1-.68,6.69,2.42,2.42,0,0,0,1,.06,3.23,3.23,0,0,0,2.13-1.59,5.17,5.17,0,0,0,.52.71,6.08,6.08,0,0,0,4.91,1.71,6.1,6.1,0,0,0-1.11-5.07,4.55,4.55,0,0,0-.64-.6,3.25,3.25,0,0,0,1.84-1.93,2.42,2.42,0,0,0,.06-1,10.43,10.43,0,0,1-3.8.47,10.73,10.73,0,0,1-3.07-.66,9.86,9.86,0,0,1-.52-7.8,9.39,9.39,0,0,1,2.81-3.64,8.73,8.73,0,0,0,1.61,3.78,1,1,0,0,1-.07.25,4.65,4.65,0,0,0,.49,3.59,4.78,4.78,0,0,0,5.48,1.72c2.51-.83,3.71-3.75,3.4-6.09-.44-3.44-4.18-5.65-7.41-5.57a6.68,6.68,0,0,0-2.6.6,7.33,7.33,0,0,1,1.59-4,7,7,0,0,1,2.37-1.82,6.71,6.71,0,0,0,.36,2.74c.93,2.68,3.67,5.1,6.61,5.1a5,5,0,0,0,1.22-.14c2.3-.55,4.6-2.7,4.5-5.35a4.78,4.78,0,0,0-3.56-4.51,4.44,4.44,0,0,0-3.67,1,8.12,8.12,0,0,0-4.06-.35h-.08a9.47,9.47,0,0,1,2.37-3.81A9.89,9.89,0,0,1,147.5,108a10.59,10.59,0,0,1,2.52,6.24,2.7,2.7,0,0,0,.93-.42,3.25,3.25,0,0,0,1.15-2.41,3.87,3.87,0,0,0,.79.39A6.15,6.15,0,0,0,158,111a6.09,6.09,0,0,0-3.34-4,3.56,3.56,0,0,0-.85-.23,3.24,3.24,0,0,0,.73-2.57,2.35,2.35,0,0,0-.42-.94,10.54,10.54,0,0,1-3.14,2.18,10.41,10.41,0,0,1-3,.85,9.85,9.85,0,0,1-4-6.64,9.53,9.53,0,0,1,.8-4.53A8.88,8.88,0,0,0,148,97.74a.47.47,0,0,0,.05.25,4.64,4.64,0,0,0,2.1,3,4.78,4.78,0,0,0,5.65-1c1.84-1.91,1.54-5,.19-7-2-2.84-6.35-3.06-9.16-1.49a6.94,6.94,0,0,0-2,1.74,7.31,7.31,0,0,1-.46-4.28,7.12,7.12,0,0,1,1.26-2.72,6.81,6.81,0,0,0,1.59,2.27,8.17,8.17,0,0,0,5.38,2.1,5.79,5.79,0,0,0,3.86-1.36c1.78-1.55,2.82-4.52,1.49-6.82A4.78,4.78,0,0,0,152.64,80a4.37,4.37,0,0,0-2.78,2.61,8.23,8.23,0,0,0-3.75,1.58l-.06.06a9.58,9.58,0,0,1,.32-4.48,9.89,9.89,0,0,1,5.7-5.55,10.44,10.44,0,0,1,2.59,1.49,10.84,10.84,0,0,1,2.54,2.86,2.46,2.46,0,0,0,.63-.8,3.31,3.31,0,0,0-.11-2.67,4.41,4.41,0,0,0,.89,0A6.14,6.14,0,0,0,162.8,72,6.1,6.1,0,0,0,158,70.08ZM147.72,62.2c.09-1,.91-2.43,2-2.43a1.77,1.77,0,0,1,1.62,1.38c.06.39,0,1-.91,1.82a4.26,4.26,0,0,1-2.27,1A3,3,0,0,1,147.72,62.2Zm-3.19-1.67c1.49-2.28,4.93-3.91,7.5-2.59,1.7.88,3.17,3.08,2.58,5.1a3.76,3.76,0,0,1-3.52,2.81,3.61,3.61,0,0,1-2.25-1,5,5,0,0,0,2.24-1.14A3,3,0,0,0,152.31,61a2.77,2.77,0,0,0-2.54-2.22c-1.61,0-2.89,1.71-3,3.33A3.81,3.81,0,0,0,147,64a7.7,7.7,0,0,1-3.41-.93A5.67,5.67,0,0,1,144.53,60.53Zm-3.88-6.2a7.38,7.38,0,0,1,1.89-2.47,5.28,5.28,0,0,0,.29.69.37.37,0,0,0,0,.11,1.28,1.28,0,0,0,.15.25,4.35,4.35,0,0,0,.38.57v.05a3.2,3.2,0,0,0,3.65,1.19,2.56,2.56,0,0,0,1.45-2.59c-.22-1.51-2-2.22-3.16-2.33a4.18,4.18,0,0,0-2.09.4,3.38,3.38,0,0,1,1-2.32,3.76,3.76,0,0,1,4.5-.24c1.78,1.13,2.14,3.75,1.45,5.53-1,2.69-4.7,3.76-7.33,3a5.65,5.65,0,0,1-2.43-1.39C140.51,54.63,140.58,54.48,140.65,54.33Zm2.77-3.07a3.22,3.22,0,0,1,1.87-.46c.83.08,2.13.6,2.26,1.48a1.57,1.57,0,0,1-.88,1.53,2.3,2.3,0,0,1-2.5-1,3.52,3.52,0,0,1-.3-.45l-.1-.17A4.34,4.34,0,0,1,143.42,51.26ZM19.94,56.2c-2.63.73-6.29-.34-7.33-3-.69-1.78-.34-4.4,1.45-5.53A4.25,4.25,0,0,1,16.28,47a3.19,3.19,0,0,1,2.27.87,3.53,3.53,0,0,1,1,2.23,4.82,4.82,0,0,0-2.43-.63,3,3,0,0,0-2.72,1.22A2.78,2.78,0,0,0,14.82,54c1.17,1.1,3.31.63,4.5-.47a3.85,3.85,0,0,0,1-1.65,8,8,0,0,1,1.94,3A5.76,5.76,0,0,1,19.94,56.2Zm-.43-5a3,3,0,0,1-.85,1.6c-.75.69-2.34,1.22-3.13.47a1.79,1.79,0,0,1-.27-2.08c.22-.34.72-.74,1.89-.76a4.28,4.28,0,0,1,2.36.82ZM15,62.75v.19a4,4,0,0,1-.37,1,3.29,3.29,0,0,1-1.7-.91c-.58-.62-1.2-1.87-.72-2.62a1.55,1.55,0,0,1,1.67-.55,2.28,2.28,0,0,1,1.23,2.37A4.36,4.36,0,0,1,15,62.75Zm3.7.67a7.67,7.67,0,0,1-3.06.61,5.55,5.55,0,0,0,.25-.72v-.12l.06-.28a4.08,4.08,0,0,0,.09-.69h0a3.2,3.2,0,0,0-1.94-3.31,2.57,2.57,0,0,0-2.81,1c-.83,1.28,0,3,.83,3.84a4,4,0,0,0,1.88,1,3.4,3.4,0,0,1-2.27,1.09A3.76,3.76,0,0,1,8.22,63c-.59-2,.88-4.22,2.58-5.1,2.56-1.32,6,.31,7.5,2.59a5.84,5.84,0,0,1,.89,2.66ZM12.3,85.35c-.34,1-1.49,2.17-2.55,1.87a1.78,1.78,0,0,1-1.2-1.71c0-.4.29-1,1.32-1.55a3.88,3.88,0,0,1,1.89-.45,5,5,0,0,1,.55,0A3,3,0,0,1,12.3,85.35ZM15,87.73c-2,1.86-5.73,2.62-7.91.72-1.44-1.26-2.34-3.74-1.28-5.57a4,4,0,0,1,3.25-2,3,3,0,0,1,.84.12,3.48,3.48,0,0,1,1.94,1.51,5.22,5.22,0,0,0-2.45.57,3,3,0,0,0-1.84,2.34,2.75,2.75,0,0,0,1.93,2.76c1.54.44,3.22-1,3.76-2.5a3.84,3.84,0,0,0,.14-1.93,7.84,7.84,0,0,1,3.09,1.71A5.9,5.9,0,0,1,15,87.73Zm2.28,7a7.3,7.3,0,0,1-2.43,2,4.88,4.88,0,0,0-.12-.75v-.11l-.09-.29a5.33,5.33,0,0,0-.23-.63v-.06a3.21,3.21,0,0,0-3.25-2,2.58,2.58,0,0,0-2,2.16c-.14,1.52,1.42,2.64,2.51,3a3.93,3.93,0,0,0,1.27.21,6,6,0,0,0,.85-.09,3.39,3.39,0,0,1-1.5,2,3.77,3.77,0,0,1-4.43-.85c-1.46-1.52-1.18-4.15-.08-5.72,1.65-2.36,5.46-2.52,7.84-1.19a5.89,5.89,0,0,1,2,1.94,1.58,1.58,0,0,0-.35.38ZM13.86,97a3.18,3.18,0,0,1-1.93,0c-.79-.28-1.93-1.1-1.85-2a1.61,1.61,0,0,1,1.22-1.27,2.3,2.3,0,0,1,2.2,1.56,4.09,4.09,0,0,1,.18.49l.06.21A3.45,3.45,0,0,1,13.86,97Zm16.66,26a7.91,7.91,0,0,1-1.24,2.87,7,7,0,0,0-.45-.62.39.39,0,0,0-.08-.1l-.19-.2a5.8,5.8,0,0,0-.52-.47h0a3.2,3.2,0,0,0-3.82-.29,2.56,2.56,0,0,0-.8,2.86,3.07,3.07,0,0,0,3,1.55,3.53,3.53,0,0,0,.65,0,4.19,4.19,0,0,0,1.93-.9,3.37,3.37,0,0,1-.4,2.5,3.73,3.73,0,0,1-4.3,1.31c-2-.67-3-3.13-2.74-5,.37-2.86,3.67-4.75,6.4-4.69a5.77,5.77,0,0,1,2.69.77A1,1,0,0,0,30.52,123Zm-2,3.66a3.28,3.28,0,0,1-1.71.88c-.83.12-2.22-.08-2.56-.9a1.59,1.59,0,0,1,.49-1.69,2.29,2.29,0,0,1,2.66.35,3.52,3.52,0,0,1,.41.36l.14.14a4.18,4.18,0,0,1,.62.89Zm106.36-4.94c2.76-.08,6,1.83,6.39,4.69.25,1.9-.73,4.36-2.73,5a3.76,3.76,0,0,1-4.31-1.31,3.45,3.45,0,0,1-.45-2.41,4.92,4.92,0,0,0,2.21,1.19,3,3,0,0,0,2.93-.53,2.75,2.75,0,0,0,.39-3.35c-.87-1.35-3.06-1.41-4.47-.62a3.94,3.94,0,0,0-1.39,1.36,7.84,7.84,0,0,1-1.18-3.34,5.71,5.71,0,0,1,2.66-.65Zm-.77,4.91a3,3,0,0,1,1.21-1.35c.89-.49,2.56-.62,3.15.29a1.78,1.78,0,0,1-.24,2.08,2.06,2.06,0,0,1-2,.29,4.2,4.2,0,0,1-2.07-1.28Zm13.11-34.34c2.38-1.33,6.19-1.17,7.85,1.19,1.09,1.57,1.37,4.2-.09,5.72a3.77,3.77,0,0,1-4.42.85A3.55,3.55,0,0,1,149,98.12a5.08,5.08,0,0,0,2.51,0,3,3,0,0,0,2.35-1.84,2.75,2.75,0,0,0-1.21-3.14c-1.4-.79-3.36.17-4.25,1.53a3.89,3.89,0,0,0-.6,1.84,7.73,7.73,0,0,1-2.59-2.4,5.79,5.79,0,0,1,2-1.79ZM148.88,97a2.9,2.9,0,0,1,.44-1.75c.56-.85,2-1.75,2.92-1.21a1.75,1.75,0,0,1,.76,2c-.13.38-.52.89-1.65,1.19A4.1,4.1,0,0,1,148.88,97ZM132.11,35a3,3,0,0,1-1.19-1.37c-.38-.94-.31-2.61.67-3.09a1.62,1.62,0,0,1,.65-.14,1.75,1.75,0,0,1,1.38.63,2.09,2.09,0,0,1,0,2A4.2,4.2,0,0,1,132.11,35Zm-4.78-1.36c.25-2.72,2.55-5.76,5.43-5.78,1.94,0,4.24,1.26,4.66,3.32a3.74,3.74,0,0,1-1.82,4.12,3.57,3.57,0,0,1-2.45.16,5.12,5.12,0,0,0,1.46-2.06,3,3,0,0,0-.18-3,2.76,2.76,0,0,0-3.28-.79c-1.44.7-1.77,2.86-1.15,4.37a3.71,3.71,0,0,0,1.17,1.54,7.65,7.65,0,0,1-3.45.76,5.72,5.72,0,0,1-.39-2.62Zm-5.81-6.77a4.65,4.65,0,0,0,.59.49l.1.08.23.15c.2.12.41.23.62.33h0a3.2,3.2,0,0,0,3.78-.64,2.57,2.57,0,0,0,.09-3c-.91-1.24-2.82-1-3.88-.6A4.17,4.17,0,0,0,121.38,25a3.39,3.39,0,0,1-.21-2.52A3.73,3.73,0,0,1,125,20.2c2.1.17,3.64,2.32,3.85,4.22.33,2.86-2.41,5.51-5.08,6.09a5.65,5.65,0,0,1-2.8-.11,1.54,1.54,0,0,0-.06-.51,7.88,7.88,0,0,1,.57-3ZM122,26a3.25,3.25,0,0,1,1.45-1.27c.78-.32,2.18-.46,2.7.26a1.57,1.57,0,0,1-.07,1.76,2.31,2.31,0,0,1-2.67.3l-.48-.26-.17-.11A3.78,3.78,0,0,1,122,26Zm-17.55-9.13a3,3,0,0,1-1.69-.65c-.77-.66-1.49-2.17-.84-3a1.76,1.76,0,0,1,1.4-.65,1.51,1.51,0,0,1,.63.13c.36.17.82.62,1,1.78a4.19,4.19,0,0,1-.49,2.35Zm-4.86,1c-1-2.52-.42-6.29,2.12-7.65a5.48,5.48,0,0,1,2.45-.58A4,4,0,0,1,107.39,11a3.73,3.73,0,0,1,.31,4.49,3.51,3.51,0,0,1-2.09,1.28,4.94,4.94,0,0,0,.33-2.49,3,3,0,0,0-1.54-2.55,2.77,2.77,0,0,0-3.27.82c-1,1.29-.23,3.36,1,4.4a3.86,3.86,0,0,0,1.76.82,7.81,7.81,0,0,1-2.7,2.28,5.66,5.66,0,0,1-1.58-2.19Zm-8.29-3.3a5,5,0,0,0,.75.16h.38a4.21,4.21,0,0,0,.71,0h.06a3.2,3.2,0,0,0,3.05-2.33A2.57,2.57,0,0,0,95,9.78c-1.37-.67-3,.4-3.71,1.28A4.16,4.16,0,0,0,90.41,13,3.36,3.36,0,0,1,89,10.88a3.74,3.74,0,0,1,2.4-3.83c1.93-.83,4.29.36,5.37,1.94,1.62,2.39.42,6-1.67,7.76A5.79,5.79,0,0,1,92.58,18c-.1-.14-.2-.28-.29-.43a8,8,0,0,1-1-3Zm0-1.05a3.29,3.29,0,0,1,.7-1.8c.53-.65,1.71-1.42,2.5-1a1.6,1.6,0,0,1,.76,1.6,2.28,2.28,0,0,1-2.22,1.5h-.77a3.92,3.92,0,0,1-1-.31ZM67.72,16.75C65.63,15,64.43,11.38,66,9a5.16,5.16,0,0,1,4-2.21,3.5,3.5,0,0,1,1.35.27,3.75,3.75,0,0,1,2.36,3.83A3.53,3.53,0,0,1,72.52,13a5,5,0,0,0-.86-2.36,3,3,0,0,0-2.55-1.56,2.76,2.76,0,0,0-2.51,2.25c-.25,1.59,1.35,3.08,2.94,3.43a3.72,3.72,0,0,0,1.93-.09,7.76,7.76,0,0,1-1.33,3.27A5.79,5.79,0,0,1,67.72,16.75Zm3.83-3.17a3,3,0,0,1-1.8.21c-1-.22-2.33-1.23-2.16-2.31a1.81,1.81,0,0,1,1.55-1.4c.45,0,1,.21,1.7,1.13A4.17,4.17,0,0,1,71.55,13.58ZM58.14,14.83c.18-.82.86-2,1.75-2.08a1.61,1.61,0,0,1,1.41,1.06A2.29,2.29,0,0,1,60,16.18a4.16,4.16,0,0,1-.47.24l-.2.09a4.27,4.27,0,0,1-1,.23A3.37,3.37,0,0,1,58.14,14.83Zm.71,2.85a4.76,4.76,0,0,0,.74-.2h.11l.27-.11a5.07,5.07,0,0,0,.61-.32h0a3.21,3.21,0,0,0,1.62-3.48,2.54,2.54,0,0,0-2.39-1.76c-1.53,0-2.45,1.74-2.69,2.86a4,4,0,0,0,.15,2.12,3.32,3.32,0,0,1-2.2-1.25A3.76,3.76,0,0,1,55.43,11c1.33-1.63,4-1.68,5.67-.78,2.54,1.36,3.16,5.13,2.12,7.65a5.77,5.77,0,0,1-1.67,2.24,4,4,0,0,1-.46-.24A7.79,7.79,0,0,1,58.85,17.68ZM39,30.59c-2.67-.58-5.41-3.23-5.09-6.09.22-1.9,1.75-4.05,3.86-4.22h.3a3.69,3.69,0,0,1,3.57,2.31A3.57,3.57,0,0,1,41.47,25a5.12,5.12,0,0,0-1.86-1.69,3,3,0,0,0-3-.19,2.77,2.77,0,0,0-1.17,3.16c.52,1.52,2.62,2.1,4.19,1.67a3.8,3.8,0,0,0,1.68-1,8.08,8.08,0,0,1,.34,3.52A5.89,5.89,0,0,1,39,30.59ZM40.89,26a3,3,0,0,1-1.5,1c-1,.27-2.63,0-3-1a1.81,1.81,0,0,1,.73-2,1.45,1.45,0,0,1,.7-.17,2.92,2.92,0,0,1,1.32.38A4.14,4.14,0,0,1,40.89,26ZM30.68,34.93a3.21,3.21,0,0,1-1.08-1.6c-.23-.81-.2-2.21.58-2.64a1.54,1.54,0,0,1,1.74.28,2.3,2.3,0,0,1,0,2.69c-.1.15-.2.29-.31.43a1,1,0,0,1-.13.16A3.74,3.74,0,0,1,30.68,34.93Zm3.86,1.49a7.72,7.72,0,0,1-3-.89,3.85,3.85,0,0,0,.55-.52l.09-.09.18-.22a3.66,3.66,0,0,0,.4-.57h0a3.18,3.18,0,0,0-.18-3.83,2.57,2.57,0,0,0-2.93-.44c-1.33.74-1.36,2.67-1.06,3.78a4.22,4.22,0,0,0,1.12,1.81,3.41,3.41,0,0,1-2.53-.09,3.76,3.76,0,0,1-1.77-4.16c.42-2.06,2.72-3.32,4.62-3.32,2.92,0,5.21,3.06,5.47,5.78a5.82,5.82,0,0,1-.44,2.77ZM21.77,117.08c.15,1-.32,2.62-1.38,2.84a1.76,1.76,0,0,1-1.86-1,2.06,2.06,0,0,1,.44-2,4.28,4.28,0,0,1,2-1.51A3,3,0,0,1,21.77,117.08Zm3.5.85c-.9,2.58-3.85,5-6.66,4.32-1.86-.45-3.82-2.23-3.73-4.34a3.73,3.73,0,0,1,2.75-3.56,3.15,3.15,0,0,1,.61-.06,3.8,3.8,0,0,1,1.81.49,5,5,0,0,0-1.91,1.64,3,3,0,0,0-.53,2.93,2.72,2.72,0,0,0,3,1.55c1.56-.33,2.4-2.35,2.16-4a3.9,3.9,0,0,0-.77-1.78,7.52,7.52,0,0,1,3.53.09A5.84,5.84,0,0,1,25.27,117.93ZM42.38,142a4.23,4.23,0,0,1,1-2.25,3,3,0,0,1,1.48,1c.6.82.93,2.46.1,3.16a1.8,1.8,0,0,1-2.1,0A2.16,2.16,0,0,1,42.38,142Zm2.13,4.84c-1.86.47-4.41-.21-5.32-2.11a3.78,3.78,0,0,1,.78-4.44,3.53,3.53,0,0,1,2.21-.74h.13a5,5,0,0,0-.92,2.35,3,3,0,0,0,.89,2.84,2.76,2.76,0,0,0,3.36,0c1.24-1,1-3.2.08-4.52A3.82,3.82,0,0,0,44.21,139a7.71,7.71,0,0,1,3.16-1.57,5.69,5.69,0,0,1,1,2.5c.43,2.68-1.07,6.18-3.86,6.9ZM57,149.21a3.75,3.75,0,0,1-3.21,3.16c-2.09.34-4.09-1.38-4.76-3.18-1-2.7,1-5.92,3.48-7.13a5.74,5.74,0,0,1,2.74-.56,4.68,4.68,0,0,1,.18.48,7.27,7.27,0,0,1,.23,3.11c-.22-.12-.45-.23-.68-.33h-.11l-.28-.09a3.76,3.76,0,0,0-.66-.17h-.06a3.21,3.21,0,0,0-3.54,1.5,2.57,2.57,0,0,0,.63,2.9,2.21,2.21,0,0,0,1.46.5,4.5,4.5,0,0,0,2.45-.85,4.14,4.14,0,0,0,1.29-1.69A3.39,3.39,0,0,1,57,149.21Zm-1.6-3.09a3.44,3.44,0,0,1-1.1,1.58c-.68.5-2,1-2.68.39a1.55,1.55,0,0,1-.35-1.72,2.27,2.27,0,0,1,2.51-.93,3.18,3.18,0,0,1,.53.14.6.6,0,0,1,.19.06,3.76,3.76,0,0,1,.88.48Zm19.23,4.66a3,3,0,0,1,1.79.23c.91.45,2,1.75,1.55,2.75a1.77,1.77,0,0,1-1.84,1c-.4-.08-1-.41-1.38-1.49a4.16,4.16,0,0,1-.14-2.49Zm4.48-2.16c1.61,2.2,1.91,6-.24,7.93-1.42,1.28-4,1.87-5.68.6a3.75,3.75,0,0,1-1.38-4.28,3.59,3.59,0,0,1,1.73-1.75,5.08,5.08,0,0,0,.28,2.5,3,3,0,0,0,2.1,2.11,2.77,2.77,0,0,0,3-1.58c.61-1.48-.58-3.32-2-4a3.94,3.94,0,0,0-1.91-.37,8,8,0,0,1,2-2.9,5.86,5.86,0,0,1,2.09,1.74ZM88,152.78c-.37.75-1.33,1.77-2.19,1.59A1.54,1.54,0,0,1,84.63,153a2.28,2.28,0,0,1,1.8-2,3.18,3.18,0,0,1,.51-.13h.22a4.18,4.18,0,0,1,1,0,3.37,3.37,0,0,1-.23,1.91Zm0-2.94a4.82,4.82,0,0,0-.76,0h-.41a5,5,0,0,0-.67.16h-.06a3.19,3.19,0,0,0-2.4,3,2.57,2.57,0,0,0,1.9,2.28c1.5.32,2.79-1.1,3.3-2.13a4.21,4.21,0,0,0,.36-2.1,3.38,3.38,0,0,1,1.8,1.82,3.75,3.75,0,0,1-1.37,4.28c-1.69,1.27-4.27.68-5.69-.6-2.14-1.93-1.84-5.73-.23-7.93a5.83,5.83,0,0,1,2.16-1.78c.13.11.26.22.39.35a7.56,7.56,0,0,1,1.66,2.65Zm22.39-7.78c2.45,1.21,4.49,4.43,3.48,7.13-.66,1.8-2.67,3.52-4.75,3.18a3.75,3.75,0,0,1-3.21-3.16,3.52,3.52,0,0,1,.72-2.34A5,5,0,0,0,108,149a3,3,0,0,0,2.84.89,2.76,2.76,0,0,0,1.9-2.78c-.14-1.6-2-2.66-3.67-2.63a3.87,3.87,0,0,0-1.87.55,7.84,7.84,0,0,1,.51-3.49,5.82,5.82,0,0,1,2.6.52Zm-3,4a3,3,0,0,1,1.7-.63c1,0,2.55.63,2.65,1.72a1.8,1.8,0,0,1-1.17,1.73,2.11,2.11,0,0,1-1.92-.68,4.31,4.31,0,0,1-1.24-2.14Zm12.72-4.42c0,.84-.34,2.19-1.2,2.43a1.55,1.55,0,0,1-1.62-.69,2.29,2.29,0,0,1,.67-2.6c.13-.12.26-.24.4-.35l.17-.13a4.36,4.36,0,0,1,.91-.47,3.39,3.39,0,0,1,.69,1.81ZM118.71,139a4.28,4.28,0,0,0-.66.37.41.41,0,0,0-.11.07l-.23.17a5.59,5.59,0,0,0-.52.45h0a3.18,3.18,0,0,0-.74,3.76,2.57,2.57,0,0,0,2.74,1.14c1.47-.41,2-2.27,1.93-3.42a4.19,4.19,0,0,0-.65-2,3.37,3.37,0,0,1,2.43.69,3.74,3.74,0,0,1,.77,4.44c-.9,1.9-3.46,2.58-5.31,2.11-2.8-.72-4.3-4.22-3.89-6.92a5.65,5.65,0,0,1,1.09-2.58l.5.13A7.72,7.72,0,0,1,118.71,139Zm22.55-22.46.09-.19a3.84,3.84,0,0,1,.59-.84,3.31,3.31,0,0,1,1.43,1.29c.41.73.72,2.1.07,2.71a1.57,1.57,0,0,1-1.76.14,2.3,2.3,0,0,1-.61-2.62,4.32,4.32,0,0,1,.19-.45ZM137.83,115a7.63,7.63,0,0,1,3.12.14,5.42,5.42,0,0,0-.42.64.24.24,0,0,0-.06.11l-.12.26a3.86,3.86,0,0,0-.25.64v0a3.21,3.21,0,0,0,1.09,3.68,2.56,2.56,0,0,0,3-.27c1.12-1,.69-2.92.12-3.93a4.18,4.18,0,0,0-1.52-1.49,3.39,3.39,0,0,1,2.48-.51,3.77,3.77,0,0,1,2.75,3.56c.08,2.11-1.87,3.89-3.73,4.34-2.81.67-5.76-1.74-6.66-4.32a5.64,5.64,0,0,1-.23-2.79Zm12.71-29.7a4.6,4.6,0,0,1-.06-.52.81.81,0,0,1,0-.22,4.22,4.22,0,0,1,.13-1,3.31,3.31,0,0,1,1.87.47c.7.45,1.61,1.52,1.32,2.36a1.64,1.64,0,0,1-1.49,1,2.3,2.3,0,0,1-1.77-2.06Zm-3.82-.3a7.24,7.24,0,0,1,2.82-1.32,4.74,4.74,0,0,0-.06.75.24.24,0,0,0,0,.12v.29a5.4,5.4,0,0,0,.08.69v.06a3.18,3.18,0,0,0,2.67,2.74,2.55,2.55,0,0,0,2.49-1.61c.5-1.44-.75-2.9-1.72-3.53a4.15,4.15,0,0,0-2-.61A3.29,3.29,0,0,1,152.93,81,3.77,3.77,0,0,1,157,82.88c1.05,1.83.15,4.31-1.29,5.57-2.17,1.9-5.91,1.14-7.9-.72a5.75,5.75,0,0,1-1.5-2.37A4.48,4.48,0,0,1,146.72,85Zm-1.29-5.55a10.2,10.2,0,0,0-.24,5.61,7.88,7.88,0,0,0-1.86,3.6,8.27,8.27,0,0,0,.79,5.46,10.18,10.18,0,0,0-1.15,5.6,10.72,10.72,0,0,0,4.31,7.22,10.75,10.75,0,0,0-8,2.55,10.24,10.24,0,0,0-2.82,4.85,8,8,0,0,0-3.32,2.33,8.26,8.26,0,0,0-1.83,5.2,10.31,10.31,0,0,0-3.63,4.42,10.76,10.76,0,0,0,.47,8.4,10.73,10.73,0,0,0-8.29-1.47,10.28,10.28,0,0,0-4.75,3,7.82,7.82,0,0,0-4,.52,8.28,8.28,0,0,0-4,3.75,10.27,10.27,0,0,0-5.27,2.23,10.77,10.77,0,0,0-3.49,7.65,10.71,10.71,0,0,0-6.65-5.15,10.24,10.24,0,0,0-5.59.44,8.08,8.08,0,0,0-3.81-1.42A8.18,8.18,0,0,0,77,145.69a10.17,10.17,0,0,0-5.7-.47,10.76,10.76,0,0,0-6.65,5.15,10.7,10.7,0,0,0-3.49-7.65A10.26,10.26,0,0,0,56,140.51a7.75,7.75,0,0,0-2.71-3,8.26,8.26,0,0,0-5.38-1.19A10.27,10.27,0,0,0,43,133.25a10.69,10.69,0,0,0-8.28,1.47,10.72,10.72,0,0,0,.46-8.4A10.22,10.22,0,0,0,31.62,122a8,8,0,0,0-1-3.94,8.13,8.13,0,0,0-4.22-3.55,10.19,10.19,0,0,0-2.85-5,10.75,10.75,0,0,0-8-2.55,10.77,10.77,0,0,0,4.32-7.22,10.27,10.27,0,0,0-1.11-5.5,7.75,7.75,0,0,0,.94-3.94,8.19,8.19,0,0,0-2.07-5.11,10.31,10.31,0,0,0-.22-5.72,10.74,10.74,0,0,0-5.92-6,10.76,10.76,0,0,0,7.18-4.39,10.25,10.25,0,0,0,1.57-5.38,7.89,7.89,0,0,0,2.67-3.06,8.19,8.19,0,0,0,.54-5.49A10.3,10.3,0,0,0,25.9,50a10.72,10.72,0,0,0-2.48-8,13.38,13.38,0,0,0,3.82.61,9.2,9.2,0,0,0,4.59-1.14,10.27,10.27,0,0,0,3.9-4A7.78,7.78,0,0,0,39.51,36a8.3,8.3,0,0,0,3-4.61A10.18,10.18,0,0,0,47.09,28a10.79,10.79,0,0,0,1.56-8.27A10.83,10.83,0,0,0,56.11,23h.26a10.23,10.23,0,0,0,5.32-1.76,7.72,7.72,0,0,0,2.85.54,9.36,9.36,0,0,0,1.18-.08A8.33,8.33,0,0,0,70.54,19a10.28,10.28,0,0,0,5.65-.91,10.74,10.74,0,0,0,5.22-6.59,10.69,10.69,0,0,0,5.23,6.59,10.36,10.36,0,0,0,4.38,1A8.92,8.92,0,0,0,92.18,19a8.05,8.05,0,0,0,3.35,2.28,8.15,8.15,0,0,0,5.51-.13A10.25,10.25,0,0,0,106.46,23h.26a10.85,10.85,0,0,0,7.43-3.42,10.7,10.7,0,0,0,1.56,8.27,10.27,10.27,0,0,0,4.48,3.38,7.88,7.88,0,0,0,1.91,3.59A8.14,8.14,0,0,0,127,37.29a10.2,10.2,0,0,0,4,4.13,9.2,9.2,0,0,0,4.59,1.14,13.31,13.31,0,0,0,3.81-.56,10.72,10.72,0,0,0-2.48,8,10.32,10.32,0,0,0,2.39,5.08,8,8,0,0,0,0,4,8.3,8.3,0,0,0,3.24,4.47A10.17,10.17,0,0,0,144.14,69a10.75,10.75,0,0,0,7.19,4.39,10.76,10.76,0,0,0-5.9,6Z"/><path class="cls-1" d="M81.41,17a1.71,1.71,0,1,0,1.71,1.71h0a1.7,1.7,0,0,0-1.7-1.7Z"/><path class="cls-1" d="M51.22,24.46a1.7,1.7,0,1,0,2.3.72,1.7,1.7,0,0,0-2.3-.72Z"/><circle class="cls-1" cx="29.34" cy="46.05" r="1.71"/><path class="cls-1" d="M18.81,72.67a1.71,1.71,0,1,0,1.49,1.91h0A1.7,1.7,0,0,0,18.81,72.67Z"/><path class="cls-1" d="M21.65,102.83a1.71,1.71,0,1,0,2.2,1h0A1.71,1.71,0,0,0,21.65,102.83Z"/><path class="cls-1" d="M38.18,128.22a1.7,1.7,0,1,0,2.41-.14,1.71,1.71,0,0,0-2.41.14Z"/><path class="cls-1" d="M66.68,141.77a1.71,1.71,0,1,0,1.25,2.07h0a1.7,1.7,0,0,0-1.24-2.06Z"/><path class="cls-1" d="M96.15,141.77A1.7,1.7,0,1,0,98.21,143h0a1.68,1.68,0,0,0-2-1.23Z"/><path class="cls-1" d="M122.24,128.08a1.7,1.7,0,1,0,2.41.14,1.7,1.7,0,0,0-2.41-.14Z"/><path class="cls-1" d="M141.18,102.83a1.71,1.71,0,1,0,1,2.21,1.71,1.71,0,0,0-1-2.21Z"/><path class="cls-1" d="M144,72.67a1.71,1.71,0,1,0,1.9,1.5h0A1.7,1.7,0,0,0,144,72.67Z"/><path class="cls-1" d="M132.51,44.65a1.71,1.71,0,1,0,2.38.43,1.7,1.7,0,0,0-2.38-.43Z"/><path class="cls-1" d="M111.61,24.46a1.71,1.71,0,1,0-1.6,3,1.69,1.69,0,0,0,2.31-.71h0A1.72,1.72,0,0,0,111.61,24.46Z"/><circle class="cls-1" cx="81.41" cy="81.81" r="58.89"/><circle class="cls-2" cx="81.41" cy="81.81" r="55.63"/><circle class="cls-2" cx="81.41" cy="81.81" r="51.31"/><path class="cls-3" d="M111,94.32a7.51,7.51,0,0,1-1,.87c-6.29,4.08-12.6,8.14-18.89,12.24a14,14,0,0,1-6.7,2.08,19.5,19.5,0,0,1-6.85-1.12l-10.73-3a4.52,4.52,0,0,0-3.79.44,14.91,14.91,0,0,1-1.53.81.7.7,0,0,0-.44.74c0,1.24-.39,1.58-1.64,1.54l-8.37-.23a1.17,1.17,0,0,1-1.32-1,1,1,0,0,1,0-.39q.2-7.5.41-15c0-1.45.07-2.91.12-4.36,0-1,.43-1.39,1.46-1.37,2.87.07,5.73.16,8.6.24a1.13,1.13,0,0,1,1.25,1,1,1,0,0,1,0,.25V89.8c.19-.07.35-.13.5-.2A14.32,14.32,0,0,1,75,89.73a14,14,0,0,0,6.53,1.59c2.13,0,4.26.08,6.39.15A7.24,7.24,0,0,1,94.12,95c.07.1.13.2.22.32l6.7-3.16c.83-.39,1.65-.8,2.49-1.17a5.73,5.73,0,0,1,7.2,2.26c.08.13.17.25.26.38ZM92.75,97.61a2,2,0,0,0-.13-.5,5,5,0,0,0-4.74-3.37l-6.57-.16c-.92,0-1.84-.08-2.75-.17a16.37,16.37,0,0,1-4.84-1.77,12.3,12.3,0,0,0-11.79.65.77.77,0,0,0-.44.75c-.08,3.5-.18,7-.27,10.51v.65l1-.53a6.42,6.42,0,0,1,5-.56c3.83,1.08,7.66,2.13,11.48,3.23a16.11,16.11,0,0,0,5.63.89,11.36,11.36,0,0,0,5.47-1.66q8.86-5.76,17.75-11.49l.57-.39v-.2a10.2,10.2,0,0,0-1.92-.68,3.06,3.06,0,0,0-1.69.21c-3.16,1.44-6.3,2.94-9.47,4.44,0,.31.07.61.09.9.09,1.26-.35,1.72-1.61,1.69l-12.9-.36a1.18,1.18,0,0,1-1.3-1.06.41.41,0,0,1,0-.11c0-.69.53-1.12,1.35-1.1,2.47.06,4.94.14,7.41.19C89.65,97.64,91.18,97.61,92.75,97.61Zm-33.9,9L59.33,89l-6.76-.18-.48,17.54Z"/><path class="cls-3" d="M80,87a6.9,6.9,0,0,1-6.32-3.65,5,5,0,0,0-2.08-2,6.46,6.46,0,0,1-3.73-6.29,4.56,4.56,0,0,0-.72-2.61,6.44,6.44,0,0,1,0-7.4,4.68,4.68,0,0,0,.73-2.67,6.45,6.45,0,0,1,3.66-6.21A5.51,5.51,0,0,0,73.79,54a6.64,6.64,0,0,1,6.06-3.47,7.11,7.11,0,0,0,3.52-.91,6.75,6.75,0,0,1,6.89,0,6.49,6.49,0,0,0,3.36.87A6.67,6.67,0,0,1,99.78,54a5.47,5.47,0,0,0,2.2,2.12,6.49,6.49,0,0,1,3.69,6.2,5.05,5.05,0,0,0,.79,2.83,6.29,6.29,0,0,1,0,7.09,5.22,5.22,0,0,0-.8,2.88,6.44,6.44,0,0,1-3.58,6.1,6,6,0,0,0-2.37,2.27A6.56,6.56,0,0,1,93.84,87a7.56,7.56,0,0,0-3.69,1,6.75,6.75,0,0,1-6.9-.11A5.24,5.24,0,0,0,80,87Zm1-2.28a7,7,0,0,1,3.33,1.1,4.62,4.62,0,0,0,5,0,7.82,7.82,0,0,1,4.27-1.11A4.54,4.54,0,0,0,98,82.23a6.83,6.83,0,0,1,3-2.85,4.37,4.37,0,0,0,2.55-4.31,6.42,6.42,0,0,1,1-3.79,4.26,4.26,0,0,0,0-5,6.26,6.26,0,0,1-1-3.74A4.37,4.37,0,0,0,101,58.19a7,7,0,0,1-3-2.9,4.48,4.48,0,0,0-4.28-2.43,7.94,7.94,0,0,1-4.33-1.11,4.58,4.58,0,0,0-4.93,0,7.82,7.82,0,0,1-4.27,1.1,4.56,4.56,0,0,0-4.37,2.49,6.68,6.68,0,0,1-2.92,2.82,4.32,4.32,0,0,0-2.58,4.33,6.26,6.26,0,0,1-1,3.74,4.29,4.29,0,0,0,0,5.14,6,6,0,0,1,1,3.62,4.46,4.46,0,0,0,2.7,4.5,6.34,6.34,0,0,1,2.62,2.61C76.63,84,78.2,84.84,81,84.72Z"/><path class="cls-3" d="M80.17,80.73a1.15,1.15,0,0,1-1.24-1.06,1.27,1.27,0,0,1,.08-.51,4.25,4.25,0,0,1,.27-.46q6.57-10.53,13.15-21.06A2,2,0,0,1,93,57a1,1,0,0,1,1.27.12,1.06,1.06,0,0,1,.33,1.24,3.91,3.91,0,0,1-.31.57q-6.54,10.49-13.08,21C80.94,80.34,80.64,80.75,80.17,80.73Z"/><path class="cls-3" d="M98,74.79A5.79,5.79,0,0,1,96,79a4.52,4.52,0,0,1-6,0,6.24,6.24,0,0,1-.51-8.66A4.62,4.62,0,0,1,96,69.78,4.49,4.49,0,0,1,97,70.84,6.43,6.43,0,0,1,98,74.79Zm-2.27-.34a3.71,3.71,0,0,0-1.13-2.76,2.29,2.29,0,0,0-3.24,0l0,0a4,4,0,0,0,0,5.5,2.29,2.29,0,0,0,3.25.08s.1-.1.15-.15a3.85,3.85,0,0,0,1-2.67Z"/><path class="cls-3" d="M85.68,63.1a6.08,6.08,0,0,1-1.1,3.6,4.67,4.67,0,0,1-6.44,1.4,4.8,4.8,0,0,1-1.31-1.27,6.35,6.35,0,0,1,0-7.47,4.64,4.64,0,0,1,6.46-1.15,4.69,4.69,0,0,1,1.25,1.3A6.08,6.08,0,0,1,85.68,63.1Zm-2.28,0a3.86,3.86,0,0,0-.91-2.58,2.32,2.32,0,0,0-3.27-.37,2,2,0,0,0-.3.28,4,4,0,0,0,0,5.37,2.31,2.31,0,0,0,3.26.19,1.7,1.7,0,0,0,.19-.19,3.68,3.68,0,0,0,1-2.69Z"/></g></g></g></g></svg>