<svg xmlns="http://www.w3.org/2000/svg" viewBox="0 0 479.19 31.95"><defs><style>.cls-1{fill:#fff;}</style></defs><g id="Layer_2" data-name="Layer 2"><g id="set"><path class="cls-1" d="M0,0V28.61a3.34,3.34,0,0,0,6.19,1.73,3.32,3.32,0,0,0,5.69,0,3.32,3.32,0,0,0,5.69,0,3.33,3.33,0,0,0,5.7,0,3.32,3.32,0,0,0,5.69,0,3.32,3.32,0,0,0,5.69,0,3.33,3.33,0,0,0,5.7,0,3.32,3.32,0,0,0,5.69,0,3.32,3.32,0,0,0,5.69,0,3.32,3.32,0,0,0,5.69,0,3.33,3.33,0,0,0,5.7,0,3.32,3.32,0,0,0,5.69,0,3.32,3.32,0,0,0,5.69,0,3.33,3.33,0,0,0,5.7,0,3.32,3.32,0,0,0,5.69,0,3.32,3.32,0,0,0,5.69,0,3.32,3.32,0,0,0,5.69,0,3.33,3.33,0,0,0,5.7,0,3.32,3.32,0,0,0,5.69,0,3.32,3.32,0,0,0,5.69,0,3.33,3.33,0,0,0,5.7,0,3.32,3.32,0,0,0,5.69,0,3.32,3.32,0,0,0,5.69,0,3.32,3.32,0,0,0,5.69,0,3.33,3.33,0,0,0,5.7,0,3.32,3.32,0,0,0,5.69,0,3.32,3.32,0,0,0,5.69,0,3.33,3.33,0,0,0,5.7,0,3.32,3.32,0,0,0,5.69,0,3.32,3.32,0,0,0,5.69,0,3.33,3.33,0,0,0,5.7,0,3.32,3.32,0,0,0,5.69,0,3.32,3.32,0,0,0,5.69,0,3.32,3.32,0,0,0,5.69,0,3.33,3.33,0,0,0,5.7,0,3.32,3.32,0,0,0,5.69,0,3.32,3.32,0,0,0,5.69,0,3.33,3.33,0,0,0,5.7,0,3.32,3.32,0,0,0,5.69,0,3.32,3.32,0,0,0,5.69,0,3.32,3.32,0,0,0,5.69,0,3.33,3.33,0,0,0,5.7,0,3.32,3.32,0,0,0,5.69,0,3.32,3.32,0,0,0,5.69,0,3.33,3.33,0,0,0,5.7,0,3.32,3.32,0,0,0,5.69,0,3.32,3.32,0,0,0,5.69,0,3.32,3.32,0,0,0,5.69,0,3.33,3.33,0,0,0,5.7,0,3.32,3.32,0,0,0,5.69,0,3.32,3.32,0,0,0,5.69,0,3.33,3.33,0,0,0,5.7,0,3.32,3.32,0,0,0,5.69,0,3.32,3.32,0,0,0,5.69,0,3.32,3.32,0,0,0,5.69,0,3.33,3.33,0,0,0,5.7,0,3.32,3.32,0,0,0,5.69,0,3.32,3.32,0,0,0,5.69,0,3.33,3.33,0,0,0,5.7,0,3.32,3.32,0,0,0,5.69,0,3.32,3.32,0,0,0,5.69,0,3.33,3.33,0,0,0,5.7,0,3.32,3.32,0,0,0,5.69,0,3.32,3.32,0,0,0,5.69,0,3.32,3.32,0,0,0,5.69,0,3.33,3.33,0,0,0,5.7,0,3.32,3.32,0,0,0,5.69,0,3.32,3.32,0,0,0,5.69,0,3.33,3.33,0,0,0,5.7,0,3.32,3.32,0,0,0,5.69,0,3.32,3.32,0,0,0,5.69,0,3.32,3.32,0,0,0,5.69,0,3.33,3.33,0,0,0,5.7,0,3.32,3.32,0,0,0,5.69,0,3.32,3.32,0,0,0,5.69,0,3.33,3.33,0,0,0,5.7,0,3.32,3.32,0,0,0,5.69,0,3.32,3.32,0,0,0,5.69,0,3.32,3.32,0,0,0,5.69,0,3.33,3.33,0,0,0,5.7,0,3.32,3.32,0,0,0,5.69,0,3.32,3.32,0,0,0,5.69,0,3.33,3.33,0,0,0,5.7,0,3.33,3.33,0,0,0,6.18-1.73V0Z"/></g></g></svg>