<svg xmlns="http://www.w3.org/2000/svg" viewBox="0 0 184.28 185.77"><defs><style>.cls-1{fill:#fff;}.cls-2{fill:#fdffff;}</style></defs><g id="Layer_2" data-name="Layer 2"><g id="set"><path class="cls-1" d="M2.62,58c0,.74,0,1.34,0,1.93C3.44,71.86,7.8,82.71,13.2,93.09c17,32.65,41.4,58.24,73.55,76.26,10.73,6,21.89,11.1,34.17,13.19,8.69,1.48,16.75,1,23.17-6.25,3.56-4,7.46-7.66,11.2-11.48,5.2-5.32,5.24-9,0-14.21Q145,140.16,134.54,129.8c-4.73-4.7-8.2-4.71-13,0-4.3,4.24-8.53,8.56-12.83,12.79-3.71,3.65-6.62,4-11.28,1.72a110.22,110.22,0,0,1-26.75-18.54c-12-11.1-22.84-23.09-29.76-38.14-2.44-5.3-1.85-8.11,2.39-12.21s8.26-8,12.28-12.08c4.7-4.8,4.68-8.17-.08-13Q45,39.65,34.37,29.09c-4.57-4.52-8.47-4.5-13.12.05-4,3.88-7.76,7.92-11.79,11.73C4.44,45.6,2.08,51.29,2.62,58Z"/><path class="cls-2" d="M128,185.77a45.05,45.05,0,0,1-7.53-.72c-13.91-2.36-26-8.45-35-13.48C53.29,153.51,28.2,127.5,10.94,94.26,6.37,85.47,1,73.65.09,60.12a14.07,14.07,0,0,1,0-1.45c0-.17,0-.36,0-.55-.57-7.36,2-13.79,7.63-19.1,2.34-2.21,4.65-4.55,6.89-6.82,1.58-1.61,3.22-3.27,4.87-4.88,5.67-5.55,11.12-5.56,16.69,0C43.93,35,50.86,42,57.36,48.55c5.74,5.82,5.76,10.77.09,16.56-4,4.07-8.16,8.1-12.18,12l-.15.15c-3.49,3.38-3.82,5-1.85,9.31,7.31,15.9,19.44,28.3,29.18,37.34A108.1,108.1,0,0,0,98.58,142c3.79,1.84,5.51,1.58,8.38-1.24,2.2-2.17,4.43-4.41,6.58-6.56s4.15-4.17,6.25-6.23c5.74-5.67,10.84-5.66,16.54,0,6.81,6.78,13.84,13.78,20.81,20.81,6.21,6.26,6.2,11.41,0,17.78q-1.81,1.84-3.65,3.66c-2.51,2.5-5.1,5.08-7.47,7.74C140.54,184.1,134.07,185.77,128,185.77ZM27.86,28.26c-1.49,0-3,.9-4.83,2.7-1.61,1.58-3.24,3.23-4.81,4.82-2.27,2.3-4.61,4.67-7,6.94C6.67,47,4.69,52,5.16,57.81V58c0,.26,0,.5,0,.74,0,.39,0,.73,0,1C6,72.36,11.12,83.56,15.46,91.92c16.8,32.34,41.2,57.64,72.54,75.21,12.81,7.18,23.1,11.16,33.35,12.9,9.73,1.66,16,0,20.84-5.43,2.47-2.77,5.12-5.41,7.68-7.95,1.2-1.2,2.41-2.41,3.6-3.62,4.23-4.32,4.24-6.41.05-10.63-7-7-14-14-20.78-20.79-3.75-3.74-5.59-3.74-9.38,0-2.08,2.05-4.18,4.16-6.21,6.2s-4.4,4.41-6.62,6.6c-4.38,4.31-8.49,4.95-14.17,2.19a112.87,112.87,0,0,1-27.37-19c-10.09-9.35-22.66-22.23-30.35-38.94-2.88-6.26-2.11-10.21,2.94-15.1l.15-.15c4-3.86,8.13-7.86,12.08-11.89,3.74-3.81,3.72-5.57-.07-9.42C47.25,45.54,40.33,38.6,32.57,30.9,30.8,29.14,29.33,28.26,27.86,28.26Z"/><path class="cls-1" d="M100,0c8,2.61,16.23,4.57,23.86,7.94,27.07,12,45.76,32.09,55.9,59.94a146.69,146.69,0,0,1,4.41,16.62,5.34,5.34,0,0,1-10.28,2.74c-1.13-3.68-1.68-7.54-2.87-11.2Q154.08,24.23,100.94,12a24.8,24.8,0,0,1-3.44-.89,5.3,5.3,0,0,1-3.33-6A5.43,5.43,0,0,1,99.73.74Z"/><path class="cls-1" d="M98.27,35.23a58.46,58.46,0,0,1,22.31,8.21c15.62,9.82,25.46,23.71,29,41.93.69,3.54-.85,6.28-3.83,6.94-3.22.72-5.91-1-6.67-4.65-2.69-12.9-9-23.54-19.4-31.69a52.79,52.79,0,0,0-22.56-10,5.21,5.21,0,0,1-4.48-6A5.48,5.48,0,0,1,98.27,35.23Z"/></g></g></svg>