<svg xmlns="http://www.w3.org/2000/svg" xmlns:xlink="http://www.w3.org/1999/xlink" viewBox="0 0 460.56 247.18"><defs><style>.cls-1{fill:none;}.cls-2{clip-path:url(#clip-path);}.cls-3{fill:#e11f26;}.cls-4{fill:#bf111e;}</style><clipPath id="clip-path" transform="translate(0 0.22)"><rect class="cls-1" width="460.56" height="246.96"/></clipPath></defs><g id="Layer_2" data-name="Layer 2"><g id="Layer_1-2" data-name="Layer 1"><g class="cls-2"><rect class="cls-3" y="0.22" width="460.56" height="246.96"/><path class="cls-4" d="M26.06,73.07h0l.06-.07.08-.17c1.67-3.37,3.29-7.3,4.35-10,2.35-6.17.65-11.71-.71-16.16q-.24-.78-.45-1.5c-1.13-3.75-2.36-6.9-2.76-7.92,0-.31-.14-.35-.21-.37h-.07c-.85-2.5-3.35-5.1-4.8-6.49A54.11,54.11,0,0,1,35.41,40.56a.17.17,0,0,0,0,.1l.3.69a35,35,0,0,1,.14,5.51c0,1.13-.07,2.07-.11,2.89-.2,4.18-.24,5,3.8,10.14a34.38,34.38,0,0,1,5,9.68c1,2.79,1.81,4.8,3.09,5.22h.2v-.15c.06-.3.08-1.07.14-3.06s.13-4.88.15-8.91c0-7.24-3.67-11.87-6.34-15.25l-.68-.87A67.73,67.73,0,0,0,36,40.69a.21.21,0,0,0,0-.11A53.68,53.68,0,0,0,19.86,29.13a20.67,20.67,0,0,1-3.17-1.88,47.8,47.8,0,0,0,18.13,3.23h0l.5.1a29.51,29.51,0,0,1,4.32,2.75c.87.63,1.58,1.18,2.2,1.67,2.92,2.28,3.8,3,9.75,2.32a25.75,25.75,0,0,1,8.49.31c2.39.39,4.11.67,4.86-.53h0v-.05a.09.09,0,0,0,0-.07h0c-.87-.79-3.31-3-7.13-5.92-3.54-2.7-7.45-2.2-11.22-1.72-1.1.14-2.13.28-3.16.33-3.74.34-7.47.5-8.53.54a.55.55,0,0,0-.31,0h-.08a47.52,47.52,0,0,1-18.93-3.75C5.1,17.72,5.2.69,5.2.5A.2.2,0,0,0,5,.3a.18.18,0,0,0-.17.12V.49A45.7,45.7,0,0,0,7.89,16.08h0l-.06.07h0v.94a35.35,35.35,0,0,1-2,5.37c-.51,1.15-1,2.07-1.35,2.88C2.71,29,2.3,29.83,3.65,36a31.76,31.76,0,0,1,.26,10.34c-.26,2.75-.45,4.74.56,5.62a.17.17,0,0,0,.21,0h0a.27.27,0,0,0,.07-.08v-.09c2-3.18,4-6.87,5.28-9.42,2.87-5.83,1.64-11.48.64-16-.12-.55-.24-1.08-.34-1.59-.63-3-1.34-5.59-1.78-7.15a25.52,25.52,0,0,0,6.63,9,.2.2,0,0,0,.09.09h.05a20.36,20.36,0,0,0,4.37,2.78l.56.28c.36.3,5,4.34,5.89,7.74a.11.11,0,0,0,0,.08v.34a37.69,37.69,0,0,1-1.62,5.5c-.42,1.17-.79,2.11-1.12,2.94-1.48,3.76-1.83,4.65.07,10.7a32.89,32.89,0,0,1,1.21,10.35c0,2.82,0,4.86,1.08,5.67a.17.17,0,0,0,.25,0A.08.08,0,0,0,26.06,73.07Z" transform="translate(0 0.22)"/><path class="cls-4" d="M57.17,246.78s4.91-12.34-5.72-21.47-27.81,2-36.53-5.89S24.33,190.12,0,176.29v70.49Z" transform="translate(0 0.22)"/><path class="cls-4" d="M460.56,53.71s-44.37-2.19-52.11-18-7.08-21.46-37.06-21.09S341.74-.22,341.74-.22H460.56Z" transform="translate(0 0.22)"/><polygon class="cls-4" points="411.9 134.79 411.9 134.8 411.9 134.8 411.9 134.79"/><polygon class="cls-4" points="453.87 199.93 453.86 199.95 453.86 199.95 453.87 199.93"/><polygon class="cls-4" points="457.52 207.86 457.52 207.86 457.52 207.87 457.52 207.86"/><polygon class="cls-4" points="417.2 177.42 417.2 177.42 417.2 177.43 417.2 177.42"/><path class="cls-4" d="M460.41,197.78c-.12-.38-.26-.74-.4-1.11l-.44-1.11h0l-.14-.32-.24-.53-.21-.51c-.15-.36-.31-.72-.47-1.08-.08-.17-.16-.34-.23-.52a1,1,0,0,0-.12-.25.23.23,0,0,0-.12-.12.15.15,0,0,0-.13,0,.39.39,0,0,0-.14.08l-.4.36-.44.4a9.26,9.26,0,0,0-.81.85,10.52,10.52,0,0,0-.72.93c-.12.17-.22.34-.33.52a4.11,4.11,0,0,0-.25.52c-.08.18-.15.35-.23.52s-.16.38-.25.57c-.15.35-.31.71-.44,1.07s-.24.75-.35,1.13a11.06,11.06,0,0,0-.3,1.13c-.08.38-.16.76-.22,1.14h0v.08h0a4.92,4.92,0,0,0,0,.94,6.54,6.54,0,0,0,.08.89,7.86,7.86,0,0,0,.2,1.18c.05.18.11.36.17.54l.2.57c.13.35.25.71.38,1.06s.26.74.4,1.1l.4,1.08c.06.18.13.36.19.55s.07.2.1.3,0,.18.07.26,0,.12,0,.17v.17h0v.27l-.15.33-.24.44-.57,1c-.24.42-.48.85-.68,1.29-.11.23-.22.47-.32.7s-.21.42-.32.63l-.13.23h0c-.06.11-.14.22-.21.33l-.22.33-.5.69-.25.29a.28.28,0,0,0-.09.1l-.09.15a.81.81,0,0,1-.08.25c0,.08-.09.21-.13.32s-.12.32-.19.48l-.25.63-.09.26c0-.74.07-1.49.11-2.23v-1.4a6.52,6.52,0,0,0-.08-1.27c-.08-.42-.1-.89-.16-1.34s-.09-.85-.15-1.27a3.86,3.86,0,0,0-.11-.68c0-.22-.1-.44-.15-.66-.11-.43-.21-.86-.32-1.28h0v-.05h0v-.15h0l-.24-1c-.09-.42-.18-.85-.26-1.27s-.16-.87-.26-1.3-.24-.85-.35-1.28-.22-.82-.36-1.22l-.24-.6v-.38c0-.13-.07-.51-.11-.76s-.08-.51-.11-.76l-.09-.74-.06-.76v-3.13a3.41,3.41,0,0,0-.07-.84,7.76,7.76,0,0,1-.1-.77c-.09-.54-.19-1.07-.32-1.6v-.18h0V192h0l-.09-.35c-.1-.42-.18-.84-.27-1.27s-.21-1-.33-1.55a4.18,4.18,0,0,0-.92-1.86,3.74,3.74,0,0,0-.78-.65l-.33-.2-1.39-.76c-.23-.13-.46-.26-.69-.37s-.58-.3-.86-.47a4.48,4.48,0,0,1-.44-.32c-.23-.19-.44-.4-.65-.6a2.81,2.81,0,0,1-.39-.46l-.44-.55c-.11-.16-.23-.31-.35-.46l-.41-.51-.09-.13a.29.29,0,0,0-.15-.14.17.17,0,0,0-.17,0,.35.35,0,0,0-.06.17,2.23,2.23,0,0,1-.16.6c-.12.43-.25.87-.37,1.31l-.18.72a4.1,4.1,0,0,0-.14.92,5.55,5.55,0,0,0,.09,1,3.64,3.64,0,0,0,.13.72c.1.52.21,1.05.29,1.57.05.29.09.57.14.85s.06.5.1.75,0,.35.05.53a1.88,1.88,0,0,1,0,.53v1.05a11.12,11.12,0,0,0,.07,1.52,2.8,2.8,0,0,0,.07.76c.07.25.07.5.13.74a6.59,6.59,0,0,0,.22.72,5.53,5.53,0,0,0,.34.79l.21.38.22.34c.15.21.29.43.44.65a7.23,7.23,0,0,0,1,1.21,6,6,0,0,0,.61.52l.64.47a12.21,12.21,0,0,0,1.23.91c.47.27,1,.51,1.45.73.24.11.49.21.74.3l.73.23h0l.36.12.46.19.16.08h0l.09.13c.09.13.18.25.26.39l.07.11h0a1.27,1.27,0,0,0,.11.38c.06.27.13.53.21.79s.15.5.21.75.15.76.22,1.14.15.84.23,1.25.17.83.25,1.24.16.76.25,1.13h0v.07l.18.72c.11.53.19,1.07.26,1.61a6.85,6.85,0,0,0,.11.91c-.06-.1-.12-.2-.17-.3h0l-.1-.18h0a10.57,10.57,0,0,0-.64-1,10.17,10.17,0,0,1-.66-1l-.07-.11h0a1.8,1.8,0,0,0-.54-.71h-.07a1,1,0,0,0-.05-.16c-.07-.25-.14-.49-.22-.74s-.15-.51-.24-.76a7.37,7.37,0,0,0-.3-.7,5.23,5.23,0,0,0-.41-.67,2,2,0,0,0-.37-.39,1.25,1.25,0,0,0-.41-.22.9.9,0,0,0-.46,0,1.74,1.74,0,0,0-.58.24.89.89,0,0,0-.31.3,1.12,1.12,0,0,0-.16.43,2,2,0,0,0,0,.49,2.34,2.34,0,0,0,.09.38,1.73,1.73,0,0,0,.16.37,3,3,0,0,0,.26.42,2.59,2.59,0,0,0,.4.41,4.45,4.45,0,0,0,.68.45c.23.14.47.26.71.38s.47.2.71.3h0l.26.12h0v.06c.08.15.17.29.26.43a2.44,2.44,0,0,0,.32.4c.11.14.23.27.35.41h0v-.06l.11.14c.22.29.44.6.65.9s.41.62.6.94c.05.09.1.17.14.26s.1.3.15.45v.17h0a.14.14,0,0,0,0,.09,9.55,9.55,0,0,1,0,1.07v.18c0,.43-.05.86-.07,1.28s-.05.89-.08,1.34-.08.88-.13,1.31-.11.91-.18,1.36-.14.89-.2,1.33-.1.92-.12,1.38,0,.92,0,1.38a16.25,16.25,0,0,0,.11,2.31,1.39,1.39,0,0,0-.1-.33c-.23-.79-.43-1.6-.66-2.4s-.51-1.61-.78-2.41c-.13-.41-.27-.82-.39-1.23s-.2-.74-.29-1.11v-.1l-.27-1.25c-.09-.42-.17-.84-.28-1.26s-.21-.82-.34-1.22l-.4-1.24c-.26-.83-.5-1.66-.74-2.49-.11-.39-.24-.79-.37-1.18s-.29-.82-.46-1.22-.32-.79-.49-1.19-.33-.79-.48-1.19c-.31-.76-.6-1.53-.91-2.3s-.67-1.58-1-2.37-.63-1.56-1-2.34-.67-1.48-1-2.21-.76-1.47-1.12-2.21-.72-1.52-1.07-2.28c-.19-.4-.38-.8-.56-1.2s-.32-.75-.47-1.13-.25-.68-.38-1l-.5-1.26a10.8,10.8,0,0,0-.53-1.08c-.18-.34-.37-.66-.58-1l-.73-1.06c-.23-.34-.45-.69-.67-1.05l-.21-.36v-3h0v-.32c0-.44.06-.87.08-1.31v-.54l.09-.39a1.4,1.4,0,0,1,.1-.35l.06-.22a.79.79,0,0,1,.1-.28c0-.09.14-.35.22-.52l.12-.26c.15-.32.31-.64.45-1s.26-.63.39-.95h0l.09-.19.08-.18a.09.09,0,0,0,0-.07.38.38,0,0,0,.13.09h.36l.24-.07,1-.32a9.55,9.55,0,0,0,1-.41l.94-.45c.31-.15.62-.31.92-.48h.1l.08,0c.58-.34,1.12-.76,1.7-1.1.14-.07.28-.14.41-.22a4.92,4.92,0,0,0,.45-.24,3.76,3.76,0,0,0,.77-.61,5.91,5.91,0,0,0,.64-.85l.29-.43.31-.42h0l.31-.39a5.27,5.27,0,0,0,.43-.62c.1-.15.18-.31.27-.47s.15-.29.22-.43a10.34,10.34,0,0,0,.47-1,3.66,3.66,0,0,0,.18-.46c.05-.16.09-.32.14-.47h0a1.33,1.33,0,0,0,0-.19h0l.06-.21h0c.05-.15.09-.3.14-.44s.09-.28.14-.42.2-.53.29-.79l.35-1V163a.84.84,0,0,0,.05-.17.23.23,0,0,0-.06-.25.24.24,0,0,0-.2,0,3.94,3.94,0,0,0-.48.18,4.66,4.66,0,0,0-.45.22l-.47.25a9.37,9.37,0,0,1-1,.44h0l-.15.06h0c-.18.08-.37.14-.56.21l-.65.23-.46.15-.5.18c-.33.13-.67.25-1,.39l-1,.44a9.8,9.8,0,0,0-.87.55l-.9.59a5.87,5.87,0,0,0-.83.66l-.38.39-.34.45-.29.46-.26.44h0l-.21.34-.21.32c-.09.12-.16.25-.24.38a3.37,3.37,0,0,0-.19.38,5.62,5.62,0,0,0-.22.6c-.12.36-.22.72-.31,1.08a4.05,4.05,0,0,0-.12.5,3,3,0,0,1-.1.52h0V173h0v0h0v.82c0,.15-.05.54-.08.8h0a4.72,4.72,0,0,0-.37.61,10.36,10.36,0,0,0-.43,1h0v.08h0v.07h0l-.22.48a4.44,4.44,0,0,0-.24.49c-.06.13-.12.26-.17.4s0,.09-.05.14c0-.58,0-1.16.05-1.74s0-1,0-1.54v-.83a2.88,2.88,0,0,0-.06-.73v-.88a1.41,1.41,0,0,1,0-.29c.07-.33.16-.66.26-1h0v-.15h0l.09-.31.09-.34c0-.2.08-.41.12-.62h0v-.22h0v-.06h0V169h0l.09-.51a2.29,2.29,0,0,1,.07-.36c0-.12.07-.25.1-.37h0c.05-.14.1-.28.16-.42L434,167l.2-.37a4.57,4.57,0,0,0,.31-.8,4.24,4.24,0,0,0,.15-1v-1.38a.54.54,0,0,0,0-.18V163l-.06-.39a4,4,0,0,0-.15-.75c0-.25-.12-.48-.19-.72l-.11-.38-.12-.37c-.09-.25-.18-.48-.28-.72s-.18-.43-.28-.64a3.59,3.59,0,0,0-.17-.34l-.18-.34-.21-.34-.12-.18-.11-.15-.13-.17-.11-.13-.26-.3c-.16-.17-.32-.35-.47-.53l-.46-.6-.59-.84a3.92,3.92,0,0,0-.25-.32,2.56,2.56,0,0,0-.2-.26l-.16-.18-.14-.15-.25-.23-.57-.52-.28-.25-.29-.29a2.69,2.69,0,0,1-.27-.32,2.26,2.26,0,0,1-.16-.26,1.09,1.09,0,0,1-.08-.15,2.39,2.39,0,0,1-.13-.28c-.05-.1-.09-.2-.13-.3l-.12-.31a.28.28,0,0,0-.25-.15.23.23,0,0,0-.21.13.49.49,0,0,0-.05.24v.23a2.68,2.68,0,0,1-.07.27.82.82,0,0,1-.11.28l-.12.23-.1.18h0c-.1.15-.19.3-.28.45h0v.06h0l-.06.1h0c-.09.15-.18.3-.26.45s-.09.18-.13.27l-.06.19a1.19,1.19,0,0,1-.07.23l-.07.25-.06.3a2.89,2.89,0,0,0,0,.83v.43l.06.4a4.53,4.53,0,0,0,.11.71c0,.24.07.49.09.74a4.68,4.68,0,0,0,.05.67.94.94,0,0,1,0,.38v3.36c0,.13.05.46.08.69l.06.41a3.21,3.21,0,0,0,.07.43c0,.14.08.45.13.67s.06.27.1.4.06.24.1.36.07.24.11.36a1.86,1.86,0,0,1,.1.25.78.78,0,0,0,.05.14c0,.11.1.23.16.34l.12.22.09.14a4.74,4.74,0,0,0,.46.62,3.33,3.33,0,0,0,.39.36h0l.09.07h0l.07.06h0l.24.19h0l.26.24.12.13.5.54c.17.18.34.38.53.55l.29.26.31.26c.18.15.37.28.56.43l.19.18.14.14.18.21.14.19c.21.3.4.6.58.92.05.1.1.21.14.31h0a2.16,2.16,0,0,0,0,.36,1.85,1.85,0,0,0,.07.41v.93a6.91,6.91,0,0,1-.07,1.2c-.07.4-.08,1-.11,1.54s-.07,1-.1,1.54-.05,1-.08,1.54-.06,1.06-.08,1.59v2.47c-.15-.27-.3-.54-.46-.8a17.31,17.31,0,0,0-1.4-2.09c-.53-.67-1.05-1.34-1.55-2l-.79-1.11c-.08-.1-.15-.21-.23-.32s-.13-.18-.2-.26l-.42-.52c-.3-.36-.6-.73-.89-1.1v-.07a4.81,4.81,0,0,1-.2-.53c0-.15-.09-.29-.13-.44a1.42,1.42,0,0,1-.07-.22c-.08-.31-.17-.63-.25-1h0c-.05-.21-.1-.41-.16-.62h0a.33.33,0,0,0-.05-.21c-.05-.07,0-.1,0-.15a.61.61,0,0,0,0-.19v-.4l-.06-.44c-.05-.29-.09-.58-.13-.88h0c-.05-.41-.09-.83-.11-1.25s0-.69,0-1a10.29,10.29,0,0,0-.1-1c0-.35-.08-.65-.11-1s-.06-.7-.07-1.06a8.17,8.17,0,0,0-.05-1v-.55l-.06-.52a2,2,0,0,0-.05-.54v-1.49a13.2,13.2,0,0,1,.05-1.43c.05-.43,0-1,.08-1.48s.05-.68.09-1,.09-.75.13-1.13.08-.7.11-1l.06-.51a1.38,1.38,0,0,1,.05-.45,2.27,2.27,0,0,0,.08-.41c0-.13.06-.25.08-.37s.12-.48.17-.72.11-.46.17-.7.13-.5.2-.74a1.33,1.33,0,0,1,.05-.19h0l.09-.31h0c0-.17.09-.34.14-.5.09-.32.19-.64.28-1a3.73,3.73,0,0,1,.09-.46,1.61,1.61,0,0,0,0-.31l.44-1,.42-.88c.15-.3.32-.6.45-.91a4.89,4.89,0,0,0,.2-.48,4.16,4.16,0,0,0,.16-.5,1.36,1.36,0,0,0,.06-.29,1.48,1.48,0,0,0,0-.42,1,1,0,0,0,0-.3v-.1a.44.44,0,0,0-.08-.11.37.37,0,0,0-.17-.13.33.33,0,0,0-.19-.06,1,1,0,0,0-.47.1,1.14,1.14,0,0,0-.31.27c-.11.13-.22.26-.32.4a4.92,4.92,0,0,0-.54.83,2.36,2.36,0,0,0-.29,1,1.5,1.5,0,0,0,0,.3v.21a9.23,9.23,0,0,0,.14,1h0v.81h0v.43a.63.63,0,0,1-.08.38h0c-.2.72-.39,1.45-.57,2.17s-.31,1.34-.45,2c-.07.34-.14.69-.18,1s-.06.69-.09,1-.07.68-.1,1-.09.68-.12,1-.07.71-.09,1.06l-.06,1.1v.24c-.1-.43-.19-.86-.29-1.29s-.2-.86-.33-1.28A12.21,12.21,0,0,0,423,156h0v-.06h0v-.07h0v-.07h0c-.11-.26-.22-.53-.34-.78-.19-.4-.4-.78-.61-1.17l-.33-.66a2.2,2.2,0,0,0-.05-.57q-.06-.61-.06-1.23v-.73a2,2,0,0,0,0-.35,2,2,0,0,0-.1-.35,2.29,2.29,0,0,0-.45-.73h0a1.21,1.21,0,0,0-.85-.39,1,1,0,0,0-.61.25.88.88,0,0,0-.22.25,1.33,1.33,0,0,0-.1.28,1.19,1.19,0,0,0,.07.59,2.77,2.77,0,0,0,.1.26,3.55,3.55,0,0,0,.21.44l.09.15h0a4,4,0,0,0,.32.48l.32.45c.21.29.39.6.58.91a8.16,8.16,0,0,1,.4.75c.13.26.26.48.4.71l.15.27h0a1.62,1.62,0,0,0,.1.18h0c.15.27.3.54.43.82s.26.58.38.87l.19.48a1.59,1.59,0,0,0,.17.49c.26.83.46,1.67.69,2.51a1.54,1.54,0,0,0,.1.35h0c.06.21.11.43.15.65l.06.34v1.41a10.45,10.45,0,0,0,.1,1.1c.07.66.08,1.32.12,2,0,.34.06.68.09,1l.12,1.08c.08.68.1,1.36.15,2a12.89,12.89,0,0,0,.28,2,3.76,3.76,0,0,0,.1.55,2.79,2.79,0,0,0,.07.4l.12.38c.1.36.2.73.31,1.1a1.43,1.43,0,0,0,.11.39l.12.41-.32-.43h0l-.9-1.27v-.11a7.14,7.14,0,0,0-.31-.81c-.12-.24-.27-.47-.41-.7l-.41-.6v-.14a5.58,5.58,0,0,1-.08-.57h0c-.05-.51-.1-1-.14-1.53s-.11-1.23-.15-1.84c0-.29-.05-.58-.07-.88s0-.59,0-.89v-.51a1.44,1.44,0,0,1,.05-.46c0-.3,0-.6.06-.9s0-.62,0-.92a5.58,5.58,0,0,0-.12-1h0v-.15h0c-.07-.28-.19-.56-.29-.84a5.22,5.22,0,0,0-.31-.71,5.87,5.87,0,0,0-.43-.67c-.18-.22-.35-.45-.55-.66l-.66-.71-.13-.14c-.09-.09-.18-.17-.26-.26l-.34-.34-.4-.41-.73.11c-.07-.06-.13-.13-.21-.19h0l-.26-.21-.18-.13-.17-.11a2.5,2.5,0,0,0-.35-.21l-.41-.19-.39-.15c-.32-.11-.65-.2-1-.29a.47.47,0,0,1,0-.1h0s-.05-.11-.08-.17a5.82,5.82,0,0,1-.3-.79.81.81,0,0,0-.08-.25h0c-.06-.2-.13-.39-.2-.59h0v-.67h0V150.9a7.15,7.15,0,0,1,.14-.76c.05-.25.09-.44.14-.65s.11-.44.17-.67c.11-.4.22-.81.31-1.22.05-.21.09-.42.13-.64l.12-.67.12-.65a2.77,2.77,0,0,1,.14-.62,5.8,5.8,0,0,1,.19-.59v-.1h.06l.13-.15c.18-.22.38-.42.58-.62h0a2.09,2.09,0,0,1,.22-.2l.26-.21.3-.21.32-.19c.25-.13.51-.26.78-.37a14.12,14.12,0,0,0,1.57-.6c.22-.12.43-.25.64-.39a4,4,0,0,0,.59-.5,3.83,3.83,0,0,0,.28-.29c.08-.09.17-.18.24-.27l.24-.3.21-.35c.12-.22.22-.46.32-.69a3.91,3.91,0,0,0,.34-1.45,3.64,3.64,0,0,1,.05-.74A4.81,4.81,0,0,0,424,136c0-.26,0-.49,0-.74h0a.43.43,0,0,1,0-.16h0v-.35h0q0-.69,0-1.38a4.06,4.06,0,0,0-.09-.7,2.91,2.91,0,0,0-.17-.72,1.59,1.59,0,0,0-.12-.27c0-.07-.09-.15-.14-.23a2,2,0,0,1-.1-.21,1.11,1.11,0,0,0-.1-.29h0c-.08-.31-.15-.62-.23-.93h0l0-.27h0v-.08h0a.25.25,0,0,0-.31-.17h0a.25.25,0,0,0-.16.31h0a.39.39,0,0,0,.07.27h-.23l-.19.06-.2.13-.11.08-.44.3-.61.43c-.21.15-.42.29-.61.45l-.3.24a3.47,3.47,0,0,0-.29.25,6.88,6.88,0,0,0-.54.54l-.26.32a.76.76,0,0,1-.11.14l-.12.19a5.32,5.32,0,0,0-.35.61,12,12,0,0,0-.54,1.41,23.53,23.53,0,0,0-.76,3c-.05.23-.09.47-.12.7a7.39,7.39,0,0,1-.06.78,3,3,0,0,0,0,.73v.73c0,.48.07,1,.09,1.44s0,.87,0,1.31a2,2,0,0,1-.08.22c-.13.4-.27.8-.38,1.2s-.2.88-.29,1.33-.17.83-.28,1.23-.24.87-.34,1.31c-.06.21-.1.43-.14.65s-.08.45-.11.67,0,.24,0,.36v1.82c-.05-.12-.09-.24-.14-.37s-.07-.22-.11-.33l-.09-.29a1.92,1.92,0,0,0-.11-.37c-.14-.51-.26-1-.42-1.52l-.24-.71c-.09-.25-.18-.5-.26-.75s-.12-.4-.17-.6c-.13-.5-.25-1-.38-1.5l-.21-.77c-.06-.24-.12-.49-.17-.73a5.31,5.31,0,0,1-.09-.61c0-.2,0-.43-.07-.65l-.09-.78a.49.49,0,0,0,0-.17h0a.57.57,0,0,1,.07-.33l.06-.19a1.09,1.09,0,0,1,.08-.15l.09-.16h0l.17-.28a4.48,4.48,0,0,0,.32-.56l.29-.66.49-1.17.15-.33c.05-.11.1-.22.16-.33l.33-.63a12.93,12.93,0,0,0,.54-1.2c.08-.19.15-.39.23-.58l.25-.64h0a.61.61,0,0,1,.05-.12h0l.07-.15h0L416,135c.1-.21.2-.41.29-.62l.15-.35a1.86,1.86,0,0,0,.1-.25,1.11,1.11,0,0,1,.1-.29l.13-.4a.92.92,0,0,1,.08-.27l.09-.33.15-.63a2.29,2.29,0,0,1,.07-.36,4.92,4.92,0,0,0,.1-.94v-1.49a.72.72,0,0,0,0-.32,1.8,1.8,0,0,0-.06-.32,1.55,1.55,0,0,0-.08-.36,2.17,2.17,0,0,0-.07-.24,1.43,1.43,0,0,0-.08-.22,1.39,1.39,0,0,0-.12-.28c0-.11-.1-.21-.16-.32l-.17-.28c-.13-.19-.25-.38-.39-.56l-.24-.32h0l-.36-.5c-.05-.08-.1-.15-.15-.24l-.17-.29c-.06-.11-.12-.22-.17-.33s-.11-.23-.16-.35a2.49,2.49,0,0,1-.11-.29.92.92,0,0,1-.09-.23,1.83,1.83,0,0,0-.08-.25,1.63,1.63,0,0,0-.07-.3c0-.1-.05-.19-.08-.29s-.06-.24-.1-.36a.32.32,0,0,0-.18-.18.17.17,0,0,0-.14,0,.2.2,0,0,0-.12.08.62.62,0,0,0-.14.18l-.16.21q-.29.34-.6.66l-.71.69h0l-.17.17-.19.19-.19.2-.16.17h0v.06h0l-.06.08h0l-.2.28-.16.23c-.14.2-.27.41-.4.61l-.31.49-.4.57-.42.56-.42.55-.15.21-.19.27-.18.29-.2.35c0,.08-.09.17-.13.25l-.34.18v.09h0c-.08.16-.15.32-.22.49a1.34,1.34,0,0,0-.07.18l-.12.3-.15.46c-.05.15-.08.3-.13.45a5.72,5.72,0,0,0-.14.56,4,4,0,0,0-.07.48,3.38,3.38,0,0,0,0,.45v1.38a3.14,3.14,0,0,0,0,.63c.05.21,0,.25.05.38s0,.21.05.32a3.53,3.53,0,0,0,.11.65,4.62,4.62,0,0,0,.45,1.26,6.86,6.86,0,0,0,.76,1.09c.28.32.61.61.92.9l1,1,.48.42.27.22a3.17,3.17,0,0,1,.34.3h0a.23.23,0,0,1,.07.07h0l.13.14v.08c0,.08.09.17.13.26a.19.19,0,0,0,.16.11c.05.47.08,1,.12,1.42v.78l.06.37a1.89,1.89,0,0,0,.08.4c.11.5.24,1,.37,1.51s.23,1,.38,1.5.33,1,.5,1.53c.05.17.11.35.16.53a3.87,3.87,0,0,0-.27-.43,1,1,0,0,1-.13-.16l-.12-.13-.11-.12-.13-.12c-.09-.07-.18-.15-.27-.21l-.3-.22-.56-.37a4.27,4.27,0,0,0-.51-.3h0l-.17-.24-.17-.41c-.18-.25-.36-.51-.55-.76h0l-.17-.24a5.74,5.74,0,0,0-.7-.78c-.13-.12-.27-.23-.39-.36l-.36-.36c-.16-.17-.33-.34-.5-.5a6.65,6.65,0,0,0-.59-.46,5.68,5.68,0,0,0-1.15-.59l-.6-.23-.34-.11-.33-.08-.3-.06h-.35a2.57,2.57,0,0,1-.67-.06c-.44,0-.89-.05-1.33-.06h-2.61l-.35.1-.29.11c-.21.08-.4.18-.6.27l-1.17.54h0a1.06,1.06,0,0,1-.25.09l-.23.07c-.29.06-.58.1-.88.14h-.62a.21.21,0,0,0-.12.17.27.27,0,0,0,.06.17,1.46,1.46,0,0,0,.41.41,1.94,1.94,0,0,0,.29.21l.4.24.33.19h0l.19.12h0l.08,0h.05l.49.32.54.38,1,.73.24.19.17.13.3.22a9.06,9.06,0,0,0,1.1.61l.73.36.26.11.28.13.43.17a3.3,3.3,0,0,0,.62.15l.69.12h2.62a5.4,5.4,0,0,0,.69-.08h.07a2.14,2.14,0,0,0,.55-.15c.18-.05.41-.11.61-.18a6.62,6.62,0,0,0,.62-.24c.19-.08.37-.18.56-.28l.27-.16c.08,0,.15-.11.23-.15h.09l.12,0h.06l.44.24.8.53.42.3.38.28c.05.06.12.11.17.16l.16.16a2.25,2.25,0,0,1,.21.24l.2.25h0l.24.34.13.16a.23.23,0,0,0,.07.07l.05.06.13.15h.06l.15.44.3.76c.11.24.21.49.32.73l.3.67c.06.13.12.26.17.4l.12.26a1.64,1.64,0,0,0,.14.22c0,.08.1.15.14.23v0l-.32-.09-.46-.14h0l-.5-.17-.54-.2-.57-.22-.49-.21c-.18-.09-.41-.23-.61-.11a.57.57,0,0,0-.11.11v.12a.81.81,0,0,0,0,.22l.15.53v.18a2.67,2.67,0,0,1,0,.4c0,.46-.09.91-.13,1.38a10,10,0,0,0,0,1.34,12.33,12.33,0,0,0,.09,1.82c.09.61.11,1.27.18,1.9a6.07,6.07,0,0,0,.12.84,2.13,2.13,0,0,0,.11.5c0,.16.06.26.1.39a4.41,4.41,0,0,0,.24.54,9.32,9.32,0,0,0,.68,1.08,8.81,8.81,0,0,0,.83,1,12.48,12.48,0,0,0,1,.87l.68.6q.33.28.69.54l.41.26a2.42,2.42,0,0,0,.39.21c.26.14.53.25.81.37l.37.19.34.21c.38.25.76.48,1.15.71a7.58,7.58,0,0,1,.87.64,1.24,1.24,0,0,0,.22.18l.24.16c.17.12.34.24.5.37l.15.15a1.46,1.46,0,0,1,.16.19h0a.23.23,0,0,0,.07.07l.33.46v.08a.94.94,0,0,0,.12.22.58.58,0,0,0,.15.11l.53.78c.21.3.42.61.62.92s.36.57.56.84h0v.07h0l.12.17.08.1h0v.05c.37.52.76,1,1.14,1.54s.6.9.91,1.35l.41.62-.12-.11-.22-.18-.2-.17h0a.44.44,0,0,0-.15-.12h-.19l-.2,0h-.1l-.29-.09-.67-.18-.73-.17c-.47-.1-.94-.19-1.41-.3l-.65-.16c-.23-.06-.45-.11-.68-.15l-.75-.13-.72-.09-1.2-.18c-.4,0-.8-.09-1.19-.15l-1-.16H417l-.51,0h-.73a4.37,4.37,0,0,1-.72-.06l-.68-.08-.58-.06c0-.06-.05-.11-.07-.17v-.07h0v-.08h0v-.21h0v-1.4a4.19,4.19,0,0,0-.09-1v-.5c0-.11-.06-.23-.1-.34a3.93,3.93,0,0,0-.3-.66c-.12-.2-.25-.39-.39-.58a4.82,4.82,0,0,0-.36-.43l-.17-.19-.18-.17-.12-.11-.09-.07-.22-.16-.43-.29a2.58,2.58,0,0,0-.44-.22l-.26-.1-.42-.16-.08-.07a2.36,2.36,0,0,0-.48-.29c-.2-.1-.42-.19-.63-.27a1.75,1.75,0,0,0-.32-.12q-.3-.09-.6-.15a1.77,1.77,0,0,0-.46,0H407a4.9,4.9,0,0,0-1,.19,2.74,2.74,0,0,0-.4.15,2.7,2.7,0,0,0-.73.43l-.27.23-.27.25-.42.41-.3.29-.23.24c-.07.07-.13.15-.2.23l-.12.15-.16.2a3.11,3.11,0,0,0-.25.38,2,2,0,0,0-.13.39,2.62,2.62,0,0,0,0,.79,2.76,2.76,0,0,0,.06.7c.06.23.09.44.15.65h0a2.2,2.2,0,0,0,.37.77,2.75,2.75,0,0,0,.22.26l.14.15.14.12.1.1h0a.17.17,0,0,0,0,.1v.16a.64.64,0,0,1,.08.14l.18.31c.13.2.25.4.39.59s.23.32.35.47l.34.45.26.33h0l.13.18a.93.93,0,0,0,.14.14l.16.13.25.18a1.53,1.53,0,0,0,.3.19l.35.16c.23.09.46.16.68.23l.67.19a4.82,4.82,0,0,0,.75.1h1l.4-.11c.23-.06.45-.11.67-.19l.69-.26.65-.24h0a5.42,5.42,0,0,0,.69-.32l.33-.23.25-.23a5.67,5.67,0,0,0,.48-.5,1.81,1.81,0,0,0,.19-.29,1.34,1.34,0,0,0,.12-.3h0l.67.06c.24,0,.48.07.72.08h.73a2.32,2.32,0,0,1,.69.07h.22l.8.13.88.1,1.42.16.72.08.69.09.77.14.82.19,1.38.28.73.15.37.09.3.08h0l.28.08.3.08H427l.22.19.26.21.45.39.42.37.21.19c.17.24.33.48.51.72s.48.67.7,1,.49.75.71,1.14.45.77.66,1.16.55,1,.83,1.46v2.33h0l-.06,1c0,.52-.06,1-.08,1.55s-.05,1-.05,1.54a13.82,13.82,0,0,0,.06,1.58c.06.53.1,1.06.16,1.59v.2h0v-.11l-.24-.7a1.18,1.18,0,0,0-.1-.3c0-.1,0-.11-.05-.15a.54.54,0,0,1-.1-.16l-.09-.13-.36-.59a4.74,4.74,0,0,0-.37-.51l-.17-.22h0c-.08-.09-.15-.19-.22-.28h0l-.81-1.09c-.26-.36-.53-.72-.83-1.07a4.47,4.47,0,0,0-.42-.45l-.48-.5-.91-1c-.3-.3-.62-.59-.94-.88a3.9,3.9,0,0,0-.51-.4c-.17-.12-.36-.24-.53-.37h0l-.14-.11-.17-.14-.13-.2c-.2-.32-.4-.64-.59-1l-.14-.22-.09-.18-.08-.16c0-.06,0-.09,0-.13l-.24-.64a4.11,4.11,0,0,0-.28-.65v-.07a2.23,2.23,0,0,0-.42-.5l-.27-.2a1.56,1.56,0,0,0-.28-.16l-.34-.13a1.58,1.58,0,0,0-.75,0,1.43,1.43,0,0,0-.44.19.86.86,0,0,0-.29.28.93.93,0,0,0-.14.36,1.21,1.21,0,0,0,0,.38,2.31,2.31,0,0,0,.29.71,1.55,1.55,0,0,0,.33.39,1.86,1.86,0,0,0,.28.21,4,4,0,0,0,.58.31l.61.26c.19.08.36.17.54.26a8.42,8.42,0,0,1,.79.55l.57.45a1.56,1.56,0,0,0,.16.2l.14.13.12.09a2.22,2.22,0,0,0,.41.2h.06l.26.18a1.84,1.84,0,0,1,.22.17c.29.24.57.5.85.75s.54.46.79.71l.08.07h0l.06.06c.12.13.24.25.35.38s.23.26.34.4l.65.81c.19.25.38.51.56.77s.39.6.58.9l.3.46.33.47c.21.29.4.58.59.88s.37.62.55.94a6.58,6.58,0,0,1,.42.84,9,9,0,0,1,.33,1l.17.51c.06.35.11.71.18,1.06s.13.58.2.87l.21.82c.06.21.13.43.2.65s.09.29.14.43l.15.41a13.4,13.4,0,0,0,.61,1.45l.2.39c.08.13.15.27.23.41a3.79,3.79,0,0,0,.2.34l.16.26c.09.13.18.25.26.38s.19.25.28.37a3.11,3.11,0,0,0,.23.28l.23.27c.21.22.4.43.61.64l.53.56.51.55c.36.41.7.83,1,1.24a12,12,0,0,0,1.08,1.21,3.44,3.44,0,0,0,.27.27l.35.33.28.23.3.24,1.27,1h0l.38.32.28.25.55.54c.13.15.26.3.4.44l.32.39.51.65c.16.5.32,1,.47,1.51s.34,1.16.5,1.74c.28,1.23.51,2.48.86,3.69.24.83.52,1.65.78,2.48s.5,1.62.73,2.44c.1.37.21.75.32,1.12s.25.83.38,1.24.2.72.31,1.07c-.21-.33-.42-.66-.61-1s-.41-.81-.63-1.2l-.77-1.2c-.21-.37-.4-.75-.58-1.13s-.4-.77-.61-1.15-.43-.76-.68-1.13-.5-.72-.76-1.07-.27-.39-.41-.58l-.41-.51c-.28-.34-.58-.68-.87-1l-.85-1c-.58-.65-1.14-1.31-1.72-2-.29-.33-.58-.67-.88-1l-.47-.49-.48-.45c-.3-.29-.6-.58-.89-.88s-.59-.65-.91-1a22.26,22.26,0,0,0-2-1.69l-1-.84-.47-.39c-.19-.15-.38-.28-.57-.42h0l-.46-.31-.24-.18c-.33-.25-.65-.54-1-.77l-.26-.16-.25-.17H430a2,2,0,0,1-.13-.16,1.84,1.84,0,0,1-.17-.22l-.13-.16h0v-.06a3.62,3.62,0,0,1,.2-.33l.19-.3c.12-.2.24-.4.35-.6a5.59,5.59,0,0,0,.3-.6c.08-.2.15-.41.21-.61a6.9,6.9,0,0,0,.3-1.27,5.81,5.81,0,0,0,0-.59v-.33a.44.44,0,0,0,0-.15h0a3,3,0,0,0,.09-.73,6.82,6.82,0,0,0-.1-.79c0-.23-.11-.45-.17-.68s-.13-.46-.2-.69c-.14-.46-.31-.9-.46-1.35h0a.21.21,0,0,1,0-.11,2.85,2.85,0,0,0-.29-.64c-.14-.23-.29-.46-.44-.68a2.41,2.41,0,0,0-.47-.63,2,2,0,0,0-.41-.22l-.3-.09a6,6,0,0,0-.74-.1,2.78,2.78,0,0,0-.91,0,1.35,1.35,0,0,0-.8.37,1.05,1.05,0,0,0-.27.39,2,2,0,0,0-.13.42c-.05.25-.09.51-.12.77a1.15,1.15,0,0,0,0,.34,2.54,2.54,0,0,0,0,.39v.09l-.05-.06a6.25,6.25,0,0,0-.45-.44,5,5,0,0,0-.52-.39l-.32-.17-.28-.11a2.44,2.44,0,0,0-1.23-.05,4.23,4.23,0,0,0-.57.19,4,4,0,0,0-.88.29,6.23,6.23,0,0,0-.8.54,3.42,3.42,0,0,0-.69.68,3,3,0,0,0-.43.79h0a3.42,3.42,0,0,0-.16.63,3.53,3.53,0,0,0,0,.65v1.87a3.55,3.55,0,0,0,.12.65,2.41,2.41,0,0,0,.25.57,3.62,3.62,0,0,0,.27.41.71.71,0,0,0-.57,0l-.25.14-.17.06a5.07,5.07,0,0,1-.56.13h-.34a4.34,4.34,0,0,0-.51,0,3.12,3.12,0,0,0-.53.11,2.34,2.34,0,0,0-.51.23,1.86,1.86,0,0,0-.42.37,1.75,1.75,0,0,0-.32.48,2,2,0,0,0-.13.41,4.88,4.88,0,0,0-.13.84,1.52,1.52,0,0,0,.17.81,1.37,1.37,0,0,0,.33.43l.31.25a2.69,2.69,0,0,1,.32.27l.47.44a4.66,4.66,0,0,0,.49.39h0c.24.16.46.34.7.51h.12a5.19,5.19,0,0,0,.5.31,2.78,2.78,0,0,0,1,.35,4.26,4.26,0,0,0,.5.06,4.39,4.39,0,0,0,.47.27l.29.14.31.11a2.47,2.47,0,0,0,.6.13l.6.07a3,3,0,0,1,.41.09l.42.07.44.08h.54q.31-.09.63-.21a4.11,4.11,0,0,0,.6-.28,9.79,9.79,0,0,0,1.09-.83,7.37,7.37,0,0,0,.85-1l.4-.56c.12-.17.22-.34.34-.52l.15-.18.13-.13.26-.19.22-.13h.32a.75.75,0,0,0,.2.1h.13l.29.21.47.3.3.19c.24.24.47.48.72.69s.64.52,1,.8l.86.79c.29.26.58.51.89.76l.91.71c.31.24.63.48.92.75s.8.76,1.21,1.13.84.7,1.24,1.06a11.23,11.23,0,0,1,.85.86c.28.3.57.61.84.92.54.61,1.08,1.21,1.6,1.83h0c.36.44.74.88,1.11,1.31h0c.18.22.36.43.53.65s.35.47.52.71l1,1.4c.19.31.36.62.54.94a2.44,2.44,0,0,1,.14.28,1.07,1.07,0,0,0-.22-.15l-.8-.47h0l-.48-.28-.44-.28c-.22-.14-.44-.26-.67-.38a2.07,2.07,0,0,0-.34-.15l-.4-.15c-.24-.08-.49-.15-.74-.21l-.75-.19h0l-.65-.62h0l-.2-.21h0l-.32-.31-.31-.28-.48-.42-.55-.4a9.86,9.86,0,0,0-1-.69l-.56-.29a1.69,1.69,0,0,0-.31-.13l-.31-.11c-.21-.06-.42-.11-.64-.15l-.64-.08h-.65l-.6.09-1.24.23-1.27.23c-.4.07-.8.14-1.21.19h-.09L429,220h0c-.36.05-.71.11-1.06.18l-.48.09-.5.06h-1.18a.26.26,0,0,0-.23.16v.16a.44.44,0,0,0,.05.15,2.46,2.46,0,0,0,.17.27,5.33,5.33,0,0,0,.42.4l.24.21.47.4c.34.27.66.57,1,.86.17.14.32.29.48.44l.47.44.47.42.48.42.95.8a5.43,5.43,0,0,0,1.47.9l.5.17.29.08.37.1.32.07a4.2,4.2,0,0,0,.62.08,3.87,3.87,0,0,0,.68,0h.13a5.07,5.07,0,0,0,.83-.28l.35-.17.23-.11.3-.16h0l.3-.18c.15-.09.3-.18.44-.28l.52-.34c.29-.19.6-.37.9-.54l.32-.17.28-.13.63-.23.6-.18.39-.09h.4a4.13,4.13,0,0,1,.5.15l.48.17c.17.08.35.15.52.24l.49.24c.36.16.72.34,1.07.53l.25.14.18.11.25.18.18.13a.21.21,0,0,0,.1.06h.13v.07c.09.17.17.36.26.53s.2.39.31.57c.22.41.45.82.68,1.23s.38.78.59,1.16.46.78.7,1.17.5.79.73,1.2a.35.35,0,0,0,0,.08c.12.53.23,1.06.36,1.58s.37,1.28.53,1.92a12.91,12.91,0,0,1,.28,1.71c.07.57.15,1.18.21,1.76,0,.33.06.67.06,1v.94c0,.71.09,1.42.16,2.13h0a1.38,1.38,0,0,0,.05.45,7.37,7.37,0,0,0,.26,1.22c.12.37.22.75.37,1.11a1.61,1.61,0,0,0,.7.8,1,1,0,0,0,.73.12h.08a1,1,0,0,0,.66-.72,2.32,2.32,0,0,0,0-.91,4.24,4.24,0,0,0-.17-.61c-.12-.36-.27-.72-.39-1.08l-.35-1c-.12-.33-.23-.66-.32-1-.14-.62-.31-1.23-.46-1.84v-.1h0a8.49,8.49,0,0,0-.12-1.13c-.05-.37-.09-.75-.14-1.12a14.38,14.38,0,0,0-.41-2.36c-.11-.35-.23-.71-.33-1.07s-.19-.71-.27-1.06-.13-.55-.2-.82l-.06-.76c-.08-.92-.16-1.83-.23-2.74s0-1.77,0-2.66v-.57a2.64,2.64,0,0,1,.17-.33h0c.07-.09.16-.17.24-.26l.17-.18.4-.39.42-.37.4-.39c.14-.13.27-.28.41-.42l.38-.46c.14-.17.29-.33.44-.49a9.6,9.6,0,0,0,.89-1l.2-.28c.06-.09.12-.18.17-.27l.33-.54h.73a3.66,3.66,0,0,0,.65-.17,3.24,3.24,0,0,0,.6-.27c.19-.12.37-.26.55-.4a2,2,0,0,0,.44-.47,1.64,1.64,0,0,0,.16-.29,2,2,0,0,0,.12-.34,1.24,1.24,0,0,0,0-.47,1,1,0,0,0-.4-.66,1.07,1.07,0,0,0-.67-.21,1.33,1.33,0,0,0-.58.16,1.49,1.49,0,0,0-.31.2,2.73,2.73,0,0,0-.25.23c-.14.15-.27.31-.4.46a4.17,4.17,0,0,0-.41.53,5,5,0,0,0-.34.59l-.29.55c-.13.21-.25.42-.38.62a4.67,4.67,0,0,1-.38.6l-.09.12-.21.24L453,221l-.45.47-.42.49-.37.48c-.15.17-.3.34-.44.52s-.56.63-.82,1c-.15.18-.3.35-.43.53l-.06.07a2.42,2.42,0,0,1,.06-.65c0-.44.12-.88.18-1.33s.14-.89.19-1.34a6.14,6.14,0,0,1,.43-1.34c.1-.25.19-.49.28-.74h0c.11-.25.22-.5.32-.75l.28-.67v-.08h0l.13-.13.14-.15.17-.21.36-.45c.23-.3.44-.61.64-.93s.25-.46.37-.69l.29-.62c.1-.22.21-.44.32-.65s.24-.45.37-.67h0l.06-.12h0l.43-.74c.14-.24.28-.49.4-.74a5.79,5.79,0,0,0,.29-.68c.09-.23.16-.46.24-.69l.16-.29c.08-.15.16-.32.25-.47h0v-.06h0l.38-.61c.12-.19.26-.38.39-.57a.64.64,0,0,0,.1-.13h0l.75-.92c.12-.16.25-.31.36-.47a5.69,5.69,0,0,0,.62-.84,2.2,2.2,0,0,0,.17-.25c.06-.09.11-.18.16-.27l.15-.27.12-.23a8.75,8.75,0,0,0,.45-1.1c.06-.19.12-.38.16-.57a5.6,5.6,0,0,0,.12-.59l.06-.5v-2.13a2,2,0,0,1,.05-.55c.05-.18,0-.21,0-.32v-.3a2.4,2.4,0,0,0-.15-.84Z" transform="translate(0 0.22)"/><path class="cls-4" d="M446.69,199c-.17-.26-.35-.52-.53-.77l-.22-.32c-.24-.34-.47-.7-.71-1.09l-.13-.22c-.19-.31-.38-.63-.59-.94a9.47,9.47,0,0,0-.8-1l-.4-.45-.06-.06c-.16-.18-.31-.37-.44-.54.06.24.11.43.17.61a4.25,4.25,0,0,0,.21.49c.15.35.33.68.49,1s.3.5.45.75l.24.38c.22.36.47.78.74,1.19.15.23.31.47.47.69l.13.19.14.2c.12.18.25.37.36.56l.31.54c.08.16.17.33.24.5s.17.36.24.54l.2.49.2.51h0v.07h-.08l-.13-.07-.08,0-.17-.09-.42-.18h-.14l-.9-.38h0l-.2-.09-.21-.1-.13-.07-.37-.19c-.28-.14-.6-.31-.92-.5h0l-.2-.13-.29-.22-.35-.28-.16-.13-.49-.38c-.17-.13-.34-.25-.5-.39h-.05l-.24-.22-.26-.27-.05-.05-.2-.24-.23-.3c-.2-.27-.39-.56-.55-.8l-.26-.4-.19-.32h0a2.56,2.56,0,0,0-.11-.24v-.09h0a.5.5,0,0,0-.08-.2v-.11q-.13-.36-.24-.75c-.05-.26-.08-.52-.11-.78s0-.56-.06-.89a7.61,7.61,0,0,1,0-1.17v-.9a1.13,1.13,0,0,0,0-.26v-.12a6.87,6.87,0,0,0-.08-.78h0v-.66l-.15-.82c-.07-.36-.16-.73-.24-1.08a20.24,20.24,0,0,1-.38-2v-.31a1.84,1.84,0,0,1,.05-.49h0c.09-.55.22-1.09.31-1.49l.07-.29.12-.48a1.63,1.63,0,0,1,.08-.37c0-.12,0,0,0-.07h0l.1.14.29.39h0l.21.3.12.17c.1.13.19.26.28.4l.06.07.14.19.1.13.16.19a1.29,1.29,0,0,0,.16.17l.06.07c.14.15.27.29.41.42a4.81,4.81,0,0,0,.73.55c.08.06.17.1.25.15l.09.05.32.18.38.21.22.13.41.24.24.13.48.27.68.39a3.18,3.18,0,0,1,.37.27,1.6,1.6,0,0,1,.27.25,2.48,2.48,0,0,1,.25.3h0a4.11,4.11,0,0,1,.24.39,2.87,2.87,0,0,1,.18.4h0v.08h0a2.26,2.26,0,0,1,.11.37c.14.64.25,1.3.36,1.94,0,.32.11.65.17,1v.25c.08.43.16.87.23,1.31s.17,1.08.23,1.58v1.11c0,.4.06.78.09,1.16v.1c0,.24.05.48.06.73V199a9.47,9.47,0,0,0,.18,1.43h0l-.05-.09-.14-.26A8,8,0,0,0,446.69,199Z" transform="translate(0 0.22)"/><path class="cls-4" d="M447,209.78h0c-.41-.18-.84-.39-1.25-.62l-.29-.18a1.55,1.55,0,0,1-.27-.24,1.29,1.29,0,0,1-.16-.17l-.16-.24-.1-.21h0a1.46,1.46,0,0,1-.07-.19v-.56h0v-.06h.05l.1-.07.19-.09h.45l.1.07.1.09.09.09h0c.07.1.13.2.19.3s.24.46.34.68l.17.46c0,.17.11.34.16.53a4.49,4.49,0,0,0,.16.48Z" transform="translate(0 0.22)"/><path class="cls-4" d="M434.45,174.62h0a3.45,3.45,0,0,1,.11-.54c0-.18.07-.31.1-.46v-.34h0v-.43a.33.33,0,0,0,0-.14v-.06h0v-.08l0-.16c.08-.28.16-.56.25-.83l.06-.2c.05-.16.1-.32.16-.48h0c.05-.14.11-.27.17-.4h0a2.12,2.12,0,0,1,.11-.21l.13-.24.41-.27c.06-.1.12-.2.19-.3h0v-.06h0l.27-.46.24-.41c.07-.11.13-.21.2-.3a1.08,1.08,0,0,1,.18-.24l.05-.06.16-.18.21-.22h0l.2-.17.26-.2.44-.3.36-.24h.07l.24-.15.64-.4.31-.16.34-.14h.06l.52-.19h0l.61-.2h.11l.9-.3a9.19,9.19,0,0,0,1-.36h0l.54-.22c.35-.16.67-.31,1-.48l.54-.31.37-.22h.05l.21-.11h0l-.06.14h0l-.07.18a2,2,0,0,0-.08.22c0,.09-.07.17-.1.25l-.12.3c-.09.22-.17.45-.26.67l-.18.53c-.06.17-.11.34-.16.51s-.11.34-.16.51l-.18.47v.13l-.16.33-.07.14-.07.15-.15.3c-.07.16-.15.32-.23.48l-.05.09-.2.37h0v.05a4.15,4.15,0,0,1-.3.43h0l-.15.18-.17.21-.33.43-.18.27c-.14.19-.27.38-.42.57s-.11.12-.16.19l-.17.18a2.09,2.09,0,0,1-.28.24l-.36.22-.38.2-.31.16c-.23.13-.45.27-.67.41l-.1.07-.13.08c-.3.2-.58.37-.85.52l-.71.37-1,.46-.95.42h0l-.35-.05-.53.17a4.13,4.13,0,0,0-.5.15l-.24.07h0l.06-.09c.2-.28.4-.58.59-.88l.08-.11.19-.3.3-.4c.17-.2.34-.4.53-.59l.16-.17.39-.4.67-.75.36-.41c.09-.11.19-.21.29-.31h0l.45-.42c.24-.21.48-.44.71-.67a4.85,4.85,0,0,0,.37-.4l.32-.42.23-.32.07-.1.29-.39.27-.32.24-.24h0a1.29,1.29,0,0,0,.17-.16l-.12.1-.22.17c-.12.1-.27.22-.41.35l-.32.32h-.05l-.3.3-.06.06-.26.26-.08.08-.43.39-.16.14-.32.27-.24.2-.41.36c-.12.11-.25.24-.4.4a4.11,4.11,0,0,0-.32.37l-.34.39-.68.74-.15.16c-.19.19-.38.39-.55.59l-.35.45-.35.36h0c-.19.28-.38.58-.59.88h0Z" transform="translate(0 0.22)"/><path class="cls-4" d="M431.86,171.16c-.06-.11-.13-.22-.21-.34a.44.44,0,0,0-.08-.11v-.06l-.09-.1h0l-.26-.28-.2-.17L431,170l-.21-.18-.09-.07-.48-.41-.13-.12-.36-.35-.23-.23-.11-.11-.11-.11-.08-.08a3.33,3.33,0,0,0-.39-.36l-.15-.13h0l-.3-.24-.14-.1h0l-.07-.06-.18-.17q-.12-.13-.24-.3a4,4,0,0,1-.22-.34h0l-.07-.13-.07-.11h0v-.07h0l-.05-.1h0l0-.14-.22-.35h0v-.37a.79.79,0,0,1-.06-.22.29.29,0,0,1,0-.13,2.68,2.68,0,0,0-.07-.27v-.13h0v-.45l-.05-.28-.05-.29a7.5,7.5,0,0,0-.11-.81v-.16h0v-.6h0v-1h0v-1c0-.2,0-.64.06-1s0-.44,0-.71v-1.53l-.06-.46v-.28a5,5,0,0,1,0-.55v-.37c0-.27.13-.54.2-.79a.82.82,0,0,1,.1-.26h0c.06-.11.12-.22.19-.33l.2-.34.08-.14.09-.13.05-.08.14-.25.18-.36.06-.14h0v.07c.06.13.12.26.19.38a2.71,2.71,0,0,0,.24.35,3.11,3.11,0,0,0,.29.33l.06,0a2.09,2.09,0,0,0,.22.2l.06.06.25.2.61.49.24.21.22.22.22.26.2.27.05.07h0l.07.11.05.06.05.08c.26.37.54.74.83,1.09a7.35,7.35,0,0,0,.52.57h0l.08.09h0l.08.09.11.15.11.14.09.13v.05l.06.09.08.13.07.12h0l.06.11a2.12,2.12,0,0,1,.11.21,2,2,0,0,1,.1.21l.06.11c.09.18.16.37.24.55h0c.11.29.2.56.28.82l.12.39a2.09,2.09,0,0,0,.11.43l.09.39v.76a.56.56,0,0,0,.05.28v2.08a1,1,0,0,1-.05.39q-.06.3-.15.6a2.74,2.74,0,0,1-.15.4l-.12.23h0l-.09.17a5.38,5.38,0,0,0-.31.64,2.23,2.23,0,0,0-.13.44,3.61,3.61,0,0,1-.11.51l-.09.63-.06.43a.93.93,0,0,1-.07.43,2.43,2.43,0,0,0-.1.51c0,.18-.08.32-.14.51h0v.08h0v.09h0l0,.19h0v-.43a4.21,4.21,0,0,0-.12-.71,1.09,1.09,0,0,0-.08-.31,2.68,2.68,0,0,0-.07-.27h0v-.62a.09.09,0,0,1,0-.07,1.71,1.71,0,0,0-.09.3h0v-.08s-.07-.31-.1-.46l-.09-.54-.06-.37c-.05-.38-.11-.77-.16-1.16a4.22,4.22,0,0,0-.1-.7c0-.23-.08-.46-.13-.68h0a12.21,12.21,0,0,0-.6-1.13c-.08-.24-.17-.46-.26-.67l-.12-.25-.17-.38c-.1-.23-.19-.47-.28-.7l-.25-.64c-.19-.45-.38-.9-.58-1.34v-.08l-.11-.24a2.43,2.43,0,0,0-.2-.35,6.4,6.4,0,0,0-.42-.49v.06a4.26,4.26,0,0,0,.13.62,4,4,0,0,0,.21.58l.05.12.52,1.32h0c.06.18.13.36.2.55s.14.4.22.59.17.44.26.65.13.29.19.44l.21.61c.06.2.11.42.17.65h0v.24c.11.5.19,1,.25,1.42s.11.94.19,1.44a3.39,3.39,0,0,0,.13.69,5.62,5.62,0,0,0,.16.71v0a2.67,2.67,0,0,0,.16.6h0c.06.21.12.43.17.64s.12.59.16.84h0Z" transform="translate(0 0.22)"/><path class="cls-4" d="M426,147.53a.76.76,0,0,0-.05-.33V147a3.64,3.64,0,0,0-.07-.44v-.84a1.15,1.15,0,0,1,.09-.26l.08-.16h0v-.08l.05-.1,0-.09c.13-.21.27-.41.41-.6h0l.06-.07h0l.2-.23.07-.06h.4l0,.07h0v.39a2,2,0,0,1-.1.46v.07l-.06.17-.09.24c-.09.2-.19.42-.3.63l-.06.12-.4.77-.05.11c-.12.24-.24.48-.35.73h0A1.3,1.3,0,0,0,426,147.53Z" transform="translate(0 0.22)"/><path class="cls-4" d="M420.6,150.65v1.53h0l-.26-.4-.38-.55a1.51,1.51,0,0,1-.18-.26,1.14,1.14,0,0,1-.15-.23,3.71,3.71,0,0,1-.26-.53h0v-.39h.46l.07.06.13.15.07.11a2.1,2.1,0,0,1,.13.26l.08.23Z" transform="translate(0 0.22)"/><path class="cls-4" d="M417.58,142.84c.14-.31.28-.59.41-.83s.25-.43.38-.64l.1-.18c.12-.2.23-.38.32-.56a6.36,6.36,0,0,0,.28-.59,8.36,8.36,0,0,0,.42-1.22l.09-.41v-.21c0-.07.09-.38.14-.58v-.08c.09-.37.2-.81.32-1.24l.08-.26.06-.18v-.08l.06-.17v-.07l.06-.14v-.08q.15-.33.3-.63l.14-.25c.05-.11.11-.21.17-.32a2.44,2.44,0,0,1,.14-.28l.14-.28c.1-.21.2-.39.3-.56v-.13h0l.35-.52a1,1,0,0,0,.18-.47.87.87,0,0,0-.43.3l-.16.22h0l-.18.28c-.12.18-.23.37-.34.57s-.15.28-.22.43l-.08.15c-.09.18-.18.36-.28.54h0c-.1.17-.2.36-.29.55l-.15.34a3.05,3.05,0,0,0-.13.32,1,1,0,0,1-.1.28v.07a1.55,1.55,0,0,0-.07.23h0v.1h0v.15h0a3.17,3.17,0,0,0-.12.44V137l-.06.24-.09.32c-.06.24-.1.43-.14.6s-.05.2-.07.3l-.06.26h0l-.06.2h0v.14a1.26,1.26,0,0,1-.13.37l-.19.46h0l-.05.1a.38.38,0,0,1-.08.17l-.15.3c-.09.18-.19.35-.29.51h0c-.12.19-.23.39-.34.58s-.18.34-.26.51v.08l-.12.27c-.05.1-.09.19-.13.29l-.05.13h0v-.61h0v-1.44h0V139l.06-.39c.07-.39.13-.72.2-1s.1-.43.16-.67.13-.51.21-.8h0V136c.08-.28.17-.57.26-.85l.05-.15c.05-.14.09-.28.15-.41s.13-.34.2-.51l.09-.18a.46.46,0,0,1,.09-.19l.17-.31h0v-.07l.11-.16L419,133l.09-.12.12-.15.06-.07.11-.12v-.06l.32-.32h0l.07-.07.35-.29.43-.35.35-.25.56-.41.26-.19h.1a2.11,2.11,0,0,1,.31-.21h.3l.09.38a1.8,1.8,0,0,0,.08.39,1.94,1.94,0,0,0,.16.48,1.51,1.51,0,0,0,.11.22l.09.19a.84.84,0,0,1,.05.17,2.61,2.61,0,0,0,.08.46V133a2.77,2.77,0,0,0,.05.67h0V137a7.91,7.91,0,0,1-.06,1v.1a3.59,3.59,0,0,1-.08.35,5.74,5.74,0,0,1-.26.69h0v.06l-.21.42-.24.34-.34.4-.39.39-.32.26-.41.28-.41.28c-.22.12-.45.22-.67.32l-.66.32-.31.16-.33.19-.31.2-.31.22a6.66,6.66,0,0,0-.56.5l-.18.18h0A2.83,2.83,0,0,0,417.58,142.84Z" transform="translate(0 0.22)"/><path class="cls-4" d="M410.76,148.05h-.1c-.37-.16-.76-.31-1.29-.49s-.89-.29-1.31-.4l-.62-.15-.68-.16-.2-.07c-.23-.06-.46-.14-.69-.19l-.28-.06h-.15l-.3-.07h-.22l-.38-.14-.3-.11.19.23a1.9,1.9,0,0,0,.21.19.82.82,0,0,0,.25.16,1,1,0,0,0,.27.1l.33.07h.19a3.53,3.53,0,0,1,.54.13h.1l.77.22h.12l.76.19h0l.33.11.44.15.29.1,1,.38h.12l-.1.07H410l-.21.13a6.59,6.59,0,0,1-.71.34h0c-.18.07-.38.13-.63.2l-.65.18h0l-.2.05h-.07l-.32,0a8.39,8.39,0,0,1-1,.06H404a2.82,2.82,0,0,1-.69-.14,3.09,3.09,0,0,1-.48-.18h0l-.21-.1-.23-.1-.22-.11-.1-.05-.13-.07-.14-.06-.27-.14-.37-.19-.4-.23h0l-.26-.17-.18-.13h0l-.14-.11-.06,0-.35-.27-.67-.5-.11-.08-.39-.28-.17-.11-.16-.12L398,146l-.1-.06c-.23-.15-.48-.29-.71-.43s-.26-.14-.38-.22-.3-.19-.43-.29l-.07-.06h.33l.32-.18h.16a1.4,1.4,0,0,0,.29-.09,1.75,1.75,0,0,0,.32-.12l.53-.23h.05l.28-.14.29-.14.6-.26.12-.05h.5l.23-.05H402q.69,0,1.32.06h.67l.66.07.41.07.44.1.6.2.29.11.26.11h.08a2.1,2.1,0,0,1,.26.13l.33.17.41.29c.09.07.18.16.28.25l.27.26h0l.32.34c.12.12.24.24.37.35l.18.16.16.14c.12.1.24.22.37.34a2.43,2.43,0,0,1,.31.35l.36.43.06.08.38.48Z" transform="translate(0 0.22)"/><path class="cls-4" d="M411.89,140.71v.85h0l-.16-.18-.25-.23-.09-.07-.6-.56-.38-.38-.54-.53-.29-.26-.22-.2a5.66,5.66,0,0,1-.43-.42h0l-.19-.21-.17-.22h0v-.06l-.13-.17h0l-.15-.22h0l-.12-.24-.12-.25a.9.9,0,0,0-.08-.23,1.87,1.87,0,0,1-.07-.22,2.66,2.66,0,0,0-.07-.39c0-.13-.06-.28-.08-.43a2.93,2.93,0,0,1-.05-.29v-2.57h0v-.11a2.41,2.41,0,0,1,0-.38,6.69,6.69,0,0,1,.16-.75v-.12a1.11,1.11,0,0,1,.07-.26v-.15l.08-.28a1.79,1.79,0,0,1,0-.4v-.09h0a.84.84,0,0,1,.1-.29l.06-.13.11-.26.13-.26c0-.1.1-.21.16-.31l.06-.11a2.12,2.12,0,0,1,.11-.21l.18-.3.09,0,.18-.27.31-.4.18-.25.39-.52c.26-.35.5-.72.73-1.06l.2-.32.13-.18.07-.1.3-.4.07-.09.12-.14h0l.08-.1.09-.08.25-.26h0l.14-.13.31-.29.18-.17.48-.45h0l.19-.19.24-.28c.07-.07.13-.15.19-.22h0l.1-.12h0v.12l.05.2v.1h0a1.51,1.51,0,0,0,.13.46c.05.15.07.2.1.3v.27l.06.15c0,.1.09.2.13.29l.07.15h0v.07l.08.15.05.1.14.24.09.15v.18a.09.09,0,0,1,0,.07v.06l.05.06c.06.1.13.19.2.29l.31.46.24.38h0v.13h0l.05.08v.07a2.92,2.92,0,0,1,.14.31h0v.1a2.77,2.77,0,0,1,.12.41.27.27,0,0,0,.05.19v.2a.74.74,0,0,0,.07.38v.85a5,5,0,0,1,0,.55v.24c0,.21,0,.43,0,.64a2.79,2.79,0,0,1-.07.38v.29a.29.29,0,0,1-.05.19,2,2,0,0,0-.1.38,2.17,2.17,0,0,1-.07.24v.17c0,.09-.06.16-.08.24a1.83,1.83,0,0,0-.08.25l-.06.15v.12l-.06.17h0v.15h0V134h0c0,.07-.07.15-.11.23a.61.61,0,0,0-.07.14v.09a2.56,2.56,0,0,0-.11.24l-.15.33c-.08.17-.14.35-.21.52h0v.28c-.06.16-.12.32-.19.47s-.16.41-.25.62-.26.54-.41.84l-.06.11-.13.26-.06.11-.14.29h0v.14l-.06.14h0l-.21.51a1,1,0,0,1-.14.35c-.05.12-.19.44-.28.67l-.05.12h0a1.47,1.47,0,0,1-.1.22l-.14.26-.11.17a1.76,1.76,0,0,1-.14.23h0a.86.86,0,0,0-.1.16h0c0-.35-.09-.72-.12-1.08s-.09-.88-.14-1.24a.83.83,0,0,0-.05-.35V138a3.17,3.17,0,0,0-.07-.8v-4.12a1.31,1.31,0,0,0,0-.28.79.79,0,0,0-.06-.22,1.79,1.79,0,0,0-.13-.32,1.33,1.33,0,0,0-.21.54.33.33,0,0,0,0,.14.43.43,0,0,0,0,.16v.28a9.48,9.48,0,0,0,.05,1.19,3.88,3.88,0,0,1,0,.77v1.92h0v.37a8.55,8.55,0,0,0,.17,1.25v.29c.06.45.1.9.14,1.35Z" transform="translate(0 0.22)"/><path class="cls-4" d="M422,166.83h0v.84a4.17,4.17,0,0,0,.07.92c.07.31.06.63.1.94s.07.47.1.7h0v-.06l-.3-.46c-.17-.29-.35-.59-.49-.84l-.34-.67c-.12-.25-.22-.5-.31-.71h0v-.06a1.47,1.47,0,0,0-.1-.22,1.3,1.3,0,0,0-.16-.44c-.06-.15-.2-.56-.31-.83s-.17-.43-.26-.64l-.07-.14a.81.81,0,0,0-.13-.29l-.18-.42-.33-.78-.06-.15c-.09-.2-.17-.42-.27-.62s-.25-.53-.38-.77l-.21-.4-.2-.39-.16-.29-.24-.46a6.05,6.05,0,0,0-.65-.94l-.07-.08-.29-.34c-.07-.08-.13-.16-.2-.23h0l-.09-.09-.21-.2h0l-.18-.15-.07-.06-.09-.08-.12-.1h0l-.12-.16-.15-.22-.07-.1c-.11-.16-.23-.33-.33-.51h0v-.08l-.05-.06a.3.3,0,0,0-.24-.08h0a.26.26,0,0,0-.14.26.17.17,0,0,0,0,.1l.06.12.14.19h0l.08.12.1.13.14.19h0l.07.1h0l.06.07h0a.36.36,0,0,0,.07.1l.14.14.14.12h0l.07.06.27.25.5.55.1.12a7.75,7.75,0,0,1,.52.62c.08.12.17.24.24.37l.06.11c.06.1.12.2.17.3h0v.05l.27.51v.06a2.12,2.12,0,0,1,.11.21l.06.11.1.19.08.17.18.39.21.52v.1c0,.1.08.2.11.29l.45,1.14.17.39c.08.21.17.42.26.64s.17.45.25.68c.17.48.35,1,.56,1.47a13,13,0,0,0,.8,1.52c.27.45.57.91.89,1.35l.07.1.08.11h0l-.13-.15c-.12-.13-.24-.28-.38-.41l-.25-.24-.12-.11c-.13-.12-.28-.26-.43-.38s-.47-.31-.72-.45h0l-.25-.15-.5-.3-.42-.21c-.12-.06-.26-.1-.39-.15h0c-.28-.1-.54-.2-.79-.31l-.34-.18h-.06l-.1-.06h0c-.16-.1-.31-.22-.46-.33h-.08l-.08-.07-.26-.21L416,167l-.18-.15h0l-.22-.2-.44-.41-.21-.21-.17-.19c-.12-.14-.23-.28-.34-.43l-.18-.23h0l-.12-.17-.14-.21-.09-.14q-.15-.24-.3-.51a2.55,2.55,0,0,1-.13-.29,6.13,6.13,0,0,1-.18-.61v-.15h0v-.29a.85.85,0,0,0-.05-.33c0-.11,0-.24,0-.36v-.29c-.06-.48-.11-.88-.14-1.25v-.32a8.05,8.05,0,0,0-.06-1.15v-.91a1,1,0,0,1,0-.25v-.32a2.46,2.46,0,0,1,.09-.82v-.07l.09-.74a2.67,2.67,0,0,0,0-.4,2.94,2.94,0,0,0,0-.42c0-.11-.05-.21-.08-.32h.06l.54.24.54.22.24.09h0l.69.26c.29.11.56.2.82.28l.46.14h0l.48.16h.06l.21.08.18.08h.33l.25.15.16.12.08.06.13.11.1.08.15.14.06.07.19.18.19.19c.28.3.56.58.86.87l.6.64.14.15.21.24.11.13c.13.16.27.32.39.49h0c.06.08.12.18.18.28s.18.35.26.53l.23.51h0v0a1.18,1.18,0,0,1,.07.2,2.17,2.17,0,0,1,.07.24.91.91,0,0,0,.06.39v3.88C422.27,166.28,422,166.69,422,166.83Z" transform="translate(0 0.22)"/><path class="cls-4" d="M413.46,177.71h0l0,.07a5.08,5.08,0,0,1-.5.54l-.21.17-.25.16c-.16.09-.35.17-.55.26l-.3.12-.2.07-.41.16-.1.05a4.35,4.35,0,0,1-.61.2h-.11l-.42.1h0l-.31,0h-1l-.42-.1a13,13,0,0,1-1.36-.5l-.33-.17h-.13l-.19-.13c-.08,0-.15-.11-.23-.15h0l-.81-.83c-.25-.29-.46-.53-.66-.79a3,3,0,0,1-.31-.48h0l.17.11.32.19a1,1,0,0,0,.23.12h0l.33.14.33.14.28.1h0l.31.09.67.17,1.25.32.59.17a4,4,0,0,1,.58.2h.11a1.26,1.26,0,0,0,.62.36H410a1.55,1.55,0,0,0,.31.06h.77l.27-.08c.25-.08.46-.15.67-.24a5.71,5.71,0,0,0,.6-.31l.33-.2.26-.16.17-.08Z" transform="translate(0 0.22)"/><path class="cls-4" d="M413.43,176.78h0l-.21-.05h-.14l-.42-.11-.44-.08H412l-.31-.07-.27-.07-.39-.12.14.12a2.54,2.54,0,0,0,.57.4,3.73,3.73,0,0,0,.64.3,6.75,6.75,0,0,0,1,.29h0l-.22.12-.14.09h0l-.4.27a3.32,3.32,0,0,1-.54.25c-.2.08-.41.13-.61.19h-1.12l-.16-.05-.13,0-.13-.07-.1-.07h0v-.19a.6.6,0,0,0-.06-.19.61.61,0,0,1,0-.12.89.89,0,0,1-.08-.17v-.18h0V177a.64.64,0,0,1,.08-.14.66.66,0,0,1,.12-.17l.18-.2.23-.19.23-.15.26-.15.14-.08a.44.44,0,0,0,.15-.12.26.26,0,0,0,.07-.15.43.43,0,0,0,0-.16v-.17a1.22,1.22,0,0,1,0-.27v-.08l0-.14.07-.13.09-.12.12-.14.11-.08H412l.16.11h0l.27.24h0l.16.19c.08.12.16.24.25.4a1.24,1.24,0,0,1,.1.2h0a2.06,2.06,0,0,1,.12.35V176a1.19,1.19,0,0,0,.08.2h0a.46.46,0,0,0,.08.19c0,.06.05.14.08.22a.77.77,0,0,1,.07.16Z" transform="translate(0 0.22)"/><path class="cls-4" d="M413.54,175.87v.36h0a1.4,1.4,0,0,0-.09-.29c0-.09,0-.2-.06-.29s0-.21-.07-.31a1.76,1.76,0,0,0-.1-.3,2.15,2.15,0,0,0-.14-.26,2.91,2.91,0,0,0-.32-.46,1.12,1.12,0,0,0-.18-.2l-.23-.19a1.23,1.23,0,0,0-.31-.19l-.16-.08-.18,0a.76.76,0,0,0-.3,0h-.07a1.33,1.33,0,0,0-.05-.19h0a1.72,1.72,0,0,0-.07-.21c-.09-.29-.17-.59-.25-.9l-.27-1v-.25a1.14,1.14,0,0,0-.09-.26h0l-.08-.18h0l.15.06.27.14.27.18.1.06.34.25h.06l.05.05h.05l.07.07.11.11.22.24v.05a3.09,3.09,0,0,1,.33.39c.11.16.21.31.3.47h0c.07.13.14.26.2.4a3.38,3.38,0,0,1,.11.34,2.09,2.09,0,0,0,.07.36.93.93,0,0,0,0,.29,2,2,0,0,1,.07.48h0v.22h0a.43.43,0,0,0,0,.16V175h0v.15a4,4,0,0,0,.08.62Z" transform="translate(0 0.22)"/><path class="cls-4" d="M423.12,185.54h0l-.21-.14-.3-.17-.28-.14L422,185l-.32-.14a5.52,5.52,0,0,1-.55-.26l-.17-.12-.15-.13a.69.69,0,0,1-.11-.13l-.08-.1c0-.07-.07-.13-.1-.2v-.09l-.06-.22v-.09a.11.11,0,0,0,0-.08v-.08h0l.08-.05.15-.07.16-.05h.42l.19.07.15.08.21.13.19.16.11.12a2.39,2.39,0,0,1,.13.21,2.1,2.1,0,0,1,.13.26,1.49,1.49,0,0,0,.13.37c0,.13.09.25.13.38h0a2.13,2.13,0,0,0,.14.35c.07.16.13.27.19.38h0Z" transform="translate(0 0.22)"/><path class="cls-4" d="M431.17,194.46c-.11-.18-.23-.36-.35-.54l.13.18.13.2.08.12.12.17h0v.11Z" transform="translate(0 0.22)"/><path class="cls-4" d="M443.62,213l-.25-.32a9.45,9.45,0,0,0-1.06-1.13c-.39-.35-.79-.69-1.19-1l-.3-.27-.34-.33c-.17-.16-.32-.33-.48-.49s-.27-.31-.41-.47l-.41-.49c-.25-.3-.5-.61-.76-.91-.51-.61-1.06-1.18-1.61-1.75-.18-.19-.36-.39-.53-.59a3.11,3.11,0,0,1-.23-.28l-.25-.32-.24-.36c-.07-.1-.13-.2-.19-.3s-.27-.45-.4-.69-.26-.52-.38-.78-.21-.49-.31-.73-.16-.4-.23-.61-.16-.46-.23-.69c-.14-.46-.27-.91-.39-1.37s-.21-.9-.3-1.36-.18-1-.26-1.53-.13-.9-.2-1.36a7.6,7.6,0,0,0-.1-.8c0-.27-.05-.41-.07-.62,0-.42-.05-.83-.06-1.25s0-.86,0-1.3c0-.83,0-1.66.06-2.5v-1.17l.52.82c.11.17.22.33.32.51l.26.47a6.05,6.05,0,0,1,.28.57l.25.6c.16.44.32.89.46,1.34s.27,1,.43,1.43.29.83.45,1.24.33.81.5,1.21c.33.77.68,1.54,1,2.3.7,1.47,1.51,2.89,2.16,4.39.35.81.69,1.63,1,2.43s.72,1.57,1.07,2.37.62,1.49,1,2.23.68,1.55,1,2.33c.2.53.39,1.06.56,1.61l.09.31A1.18,1.18,0,0,0,443.62,213Z" transform="translate(0 0.22)"/><path class="cls-4" d="M419.27,203.46v-2.14a1.21,1.21,0,0,1,.05-.42,2.68,2.68,0,0,1,.07-.27c.05-.14.11-.27.17-.4a3.35,3.35,0,0,1,.21-.36,2.17,2.17,0,0,1,.24-.29,1.8,1.8,0,0,1,.2-.19h0a7.9,7.9,0,0,1,.79-.61l.22-.13.29-.12.24-.06.22-.06.32-.1h1.09l.31.08.22.1.3.17c.13.1.26.21.4.34a4.67,4.67,0,0,1,.44.45,13.56,13.56,0,0,1,1.06,1.43c.1.16.2.32.29.48l.24.47c.11.25.21.5.29.74s.12.44.17.65,0,.2.07.3.05.2.08.31c.1.4.17.81.25,1.22v.07l.12.58a4.56,4.56,0,0,0,.13.53l.22.54c.08.2.17.4.26.61h0l-.2-.1q-.28-.12-.57-.21c-.33-.11-.68-.2-1-.28l-.21-.06-.33-.08h-3.37l-.39-.05-.25-.07-.17-.05h0l-.51-.22-.32-.2-.3-.23h0l-.17-.17-.19-.21c-.17-.21-.32-.41-.46-.62l-.21-.39a3.05,3.05,0,0,1-.13-.32.33.33,0,0,0-.05-.21A1.26,1.26,0,0,1,419.27,203.46Z" transform="translate(0 0.22)"/><path class="cls-4" d="M420.59,211.51h-.46a3.73,3.73,0,0,1-.67-.09l-.2-.06-.37-.17c-.21-.12-.41-.24-.61-.38l-.2-.14-.32-.22-.31-.21a1.64,1.64,0,0,1-.22-.14,2.43,2.43,0,0,1-.32-.24l-.11-.09-.2-.17c-.13-.1-.23-.18-.34-.25l-.15-.1-.19-.12-.09-.07-.16-.16v-.06l-.09-.15v-.52c0-.1,0-.21.05-.31s.07-.28.11-.42l.05-.12a.77.77,0,0,1,.07-.16.75.75,0,0,1,.07-.12l.06-.1a.86.86,0,0,1,0-.16l.23-.22h0l.19-.14h0l.17-.09.27-.11.33-.08.34,0a4.67,4.67,0,0,0,.52-.08h.19l.46-.14.24-.1.11-.06.12-.07h.36a1.22,1.22,0,0,0,.27,0h.06l.15.15a4.47,4.47,0,0,0,.45.42,4,4,0,0,0,.56.35h0a1.48,1.48,0,0,0,.29.12l.32.12.3.07h3.42l.34,0,.54.15.27.08.75.24a5,5,0,0,1,.64.26.22.22,0,0,0,.14.2h0a3,3,0,0,0-.51.07l-.25.06-.37.12-.41.17-.44.23a2.92,2.92,0,0,0-.37.24,2.43,2.43,0,0,0-.32.24l-.3.26-.07.06-.14.13-.48.42a10.2,10.2,0,0,1-1.05.78h0l-.12.08h-.43l-.58.14-.33.08-.29.08-.55.14h0C420.9,211.48,420.76,211.49,420.59,211.51Z" transform="translate(0 0.22)"/><path class="cls-4" d="M428.9,208.53h0l-.23.09-.23.1a1.69,1.69,0,0,0-.64.52c-.13.16-.24.34-.35.5s-.11.17-.16.25l-.39.53c-.13.17-.26.34-.41.51a2.5,2.5,0,0,1-.23.23l-.25.22h0l-.16.13c-.19.15-.37.29-.55.41a4.09,4.09,0,0,1-.46.25l-.57.23h-1.59l-.38-.08h-.61a3.68,3.68,0,0,1-.47-.15h-.07l-.17-.07h0l.39-.06.41-.08h0l.41-.09h.15l.26-.05h.4a3.09,3.09,0,0,0,.43-.14l.41-.2c.25-.15.49-.32.72-.48h0c.2-.14.41-.29.64-.47s.47-.36.69-.55a6,6,0,0,1,.65-.47,8.47,8.47,0,0,1,.91-.49,3.66,3.66,0,0,1,.46-.18l.31-.08h.6Z" transform="translate(0 0.22)"/><path class="cls-4" d="M429.09,206.22v.1a.27.27,0,0,1,0,.19,1.69,1.69,0,0,0,0,.55,2.81,2.81,0,0,0,0,.41v.3h0v.09H429l-.25-.15-.18-.33c-.1-.22-.2-.45-.32-.74s-.17-.43-.25-.65a3,3,0,0,1-.12-.5l-.09-.53v-.09c-.07-.4-.15-.84-.24-1.26l-.06-.24a1.53,1.53,0,0,0-.08-.37v-.09a5.36,5.36,0,0,0-.14-.54,6,6,0,0,0-.23-.59c-.08-.19-.18-.39-.28-.58l-.15-.26c-.11-.18-.22-.36-.36-.56l-.23-.32-.13-.18h0a1.82,1.82,0,0,0,0-.33.67.67,0,0,0,0-.2v-1h0a.21.21,0,0,0,0-.11v0a1.84,1.84,0,0,1,.08-.65v-.17a.61.61,0,0,1,.05-.12l.05-.09.07-.08.06-.06.07,0,.1-.06.17-.07H427a6.17,6.17,0,0,1,.86,0h.52l.18,0,.15.07.15.09.16.13.19.19a6.34,6.34,0,0,1,.41.6h0c.09.16.19.32.27.49l.09.2a.3.3,0,0,0,.08.24h0l.15.43.07.24h0c.06.18.12.38.17.57h0c0,.2.11.4.14.6h0l.06.34c.06.3.09.58.12.85a1.41,1.41,0,0,1,0,.29v.25l-.06.2c-.05.14-.11.27-.17.4s-.16.28-.23.42l-.08.14h0l-.35.61-.07.1a3,3,0,0,0-.53,1.25,1.67,1.67,0,0,1-.11.41Z" transform="translate(0 0.22)"/><path class="cls-4" d="M429.51,207.59v.06h0V207a1.08,1.08,0,0,1,.09-.32l.11-.3a.86.86,0,0,1,.09-.27c0-.09.05-.15.07-.23s.07-.23.1-.34l.11-.26c.09-.16.19-.32.29-.48s.16-.24.23-.36l.1-.18h0v.08a.86.86,0,0,1-.06.38,11.59,11.59,0,0,1-.33,1.15,1.21,1.21,0,0,1-.14.37l-.12.28v.09l-.12.3c-.06.14-.12.29-.19.43a1.09,1.09,0,0,1-.08.15Z" transform="translate(0 0.22)"/><path class="cls-4" d="M440.52,223.56h0l-.31.1-.3.1-.61.26a1.51,1.51,0,0,0-.28.15H439l-.18.11-.76.53-.32.22h0l-.39.26h-.07l-.14.09h0l-.14.08-.16.1-.55.28-.47.21h-.13a3.09,3.09,0,0,1-.43.14h-.14a.57.57,0,0,0-.31.06h-.69a8.49,8.49,0,0,1-1-.22l-.23-.07h-.08l-.24-.09-.24-.08h0l-.46-.23c-.18-.11-.37-.24-.56-.38l-.13-.1-.18-.14-.17-.15-.24-.2-.16-.14-.07-.07-.08-.07-.08-.07-.08-.07-.16-.14h0l-.09-.08-.15-.14-.36-.33-.11-.1-.61-.6-.32-.3-.33-.32-.15-.13-.31-.28-.11-.09-.26-.23a1.54,1.54,0,0,0-.19-.17l-.06-.06-.09-.08-.24-.22a1.29,1.29,0,0,1-.17-.16l-.07-.08h1.06l.64-.08.33-.06.26-.05.62-.09h1l.6-.1h.14l.52-.09.65-.11.59-.09.63-.09h.18l.39-.06h1.31l.29,0,.37.08.26.08.21.07h0a3,3,0,0,1,.41.18l.39.21h0c.25.14.49.3.72.44l.25.16h.06c.13.08.27.16.39.25h.05l.15.11.12.08.12.09.5.39h0l.4.32.34.28h0l-.15-.06h-.16l-.12,0h-.12a4.12,4.12,0,0,0-.67-.24c-.2,0-.41-.06-.61-.08h-.19l-.55-.07c-.31,0-.63-.08-.94-.1h-1.58l-.56-.05H434l-.61-.06-.44-.08-.43-.11h-.05l-.32-.09.13.08c.2.11.41.23.64.34a3.15,3.15,0,0,0,1,.31c.22,0,.45.07.67.09h.14l.78.09.76.07h.35l.38,0,.41.08.43.07.32.05.47.08.33.12.3.13.38.16h0l.53.21.46.14h0Z" transform="translate(0 0.22)"/><path class="cls-4" d="M454.83,219.4c.1-.17.19-.32.27-.48l.09-.17.05-.09.09-.19.05-.09c.06-.1.12-.2.19-.3l.15-.21h0c.11-.15.22-.29.34-.43l.31-.37.15-.12.13-.09.12-.06h.53l.05,0,0,.06.06.08h0v.45a.58.58,0,0,1-.08.22.54.54,0,0,1-.07.13l-.09.14-.13.14a2,2,0,0,1-.27.23l-.35.24h-.12l-.2.09h0c-.14,0-.26.1-.38.13h-.06a2.06,2.06,0,0,0-.35.12,2.43,2.43,0,0,0-.59.37h0Z" transform="translate(0 0.22)"/><polygon class="cls-4" points="419.69 136.7 419.69 136.7 419.69 136.68 419.69 136.7"/><polygon class="cls-4" points="418.56 156.64 418.57 156.64 418.57 156.64 418.56 156.64"/><polygon class="cls-4" points="419.2 151.26 419.2 151.26 419.2 151.25 419.2 151.26"/><polygon class="cls-4" points="430.58 193.3 430.58 193.31 430.59 193.32 430.58 193.3"/></g></g></g></svg>