<svg xmlns="http://www.w3.org/2000/svg" viewBox="0 0 250.46 250.46"><defs><style>.cls-1{fill:#fff;}.cls-2{fill:#6d6d6d;}.cls-3{fill:#e30613;}</style></defs><g id="Layer_2" data-name="Layer 2"><g id="OBJECTS"><circle class="cls-1" cx="125.23" cy="125.23" r="119.42"/><path class="cls-2" d="M87.13,33.24a8.72,8.72,0,0,1,1-1.86A5.49,5.49,0,0,1,92.26,29h.22a5.62,5.62,0,0,1,4.11,1.87,6.33,6.33,0,0,1,1.71,4.29,5.93,5.93,0,0,1-.62,2.64A4.08,4.08,0,0,1,94,40.14a3.47,3.47,0,0,1-2.9-1.43,4.16,4.16,0,0,1-.73-2.34,3.33,3.33,0,0,1,1-2.48,2.93,2.93,0,0,1,1.9-.73,1.9,1.9,0,0,1,1.08.3,1.41,1.41,0,0,1,.59.93l.56-.12A1.94,1.94,0,0,0,94.67,33a2.44,2.44,0,0,0-1.4-.4,3.47,3.47,0,0,0-2.29.88,3.89,3.89,0,0,0-1.18,2.9A4.77,4.77,0,0,0,90.63,39,4.05,4.05,0,0,0,94,40.71,4.63,4.63,0,0,0,98.19,38a6.49,6.49,0,0,0,.69-2.89,6.82,6.82,0,0,0-5.19-6.6,4.72,4.72,0,0,0,1.52-1,4.79,4.79,0,0,0,.58-.7,4.87,4.87,0,0,0,.71-.58,4.8,4.8,0,0,0,1-1.52,6.8,6.8,0,0,0,6.6,5.18,6.51,6.51,0,0,0,2.9-.68,4.66,4.66,0,0,0,2.7-4.19,4,4,0,0,0-1.68-3.37,4.67,4.67,0,0,0-2.67-.83A3.85,3.85,0,0,0,102.49,22a3.44,3.44,0,0,0-.88,2.29,2.53,2.53,0,0,0,.39,1.4,2.07,2.07,0,0,0,1.29.83l.11-.56a1.43,1.43,0,0,1-.92-.6,1.85,1.85,0,0,1-.3-1.07,3,3,0,0,1,.73-1.91,3.33,3.33,0,0,1,2.47-1,4.12,4.12,0,0,1,2.35.73,3.5,3.5,0,0,1,1.43,2.9,4.08,4.08,0,0,1-2.39,3.67,5.91,5.91,0,0,1-2.64.63,6.38,6.38,0,0,1-4.29-1.72A5.62,5.62,0,0,1,98,23.47c0-.08,0-.15,0-.23a5.49,5.49,0,0,1,2.41-4.09,10.57,10.57,0,0,1,6.32-1.85,16.83,16.83,0,0,1,3.53.4c5,1.11,7.48,4.38,7.48,7.67a6.68,6.68,0,0,1-.58,2.71c-1.41,3.21-5.23,5.28-9.74,5.28A16,16,0,0,1,101,32a16,16,0,0,1,1.39,6.41c0,4.5-2.08,8.33-5.29,9.74a6.63,6.63,0,0,1-2.7.58,6.4,6.4,0,0,1-.88-.06,7.21,7.21,0,0,1-.58.66,6.66,6.66,0,0,1-2.32,1.51c-3.27,1.26-7.44,0-10.63-3.15a16,16,0,0,1-3.55-5.52,16,16,0,0,1-3.56,5.52c-3.18,3.18-7.35,4.41-10.62,3.15a6.66,6.66,0,0,1-2.32-1.51c-2.33-2.33-2.88-6.4-.13-10.72A15.9,15.9,0,0,1,62,35.82a10.53,10.53,0,0,1,5.78-3.16,5.46,5.46,0,0,1,4.59,1.18l.17.16a5.68,5.68,0,0,1,1.58,4.22,6.42,6.42,0,0,1-1.82,4.25A5.91,5.91,0,0,1,70,43.9,4.08,4.08,0,0,1,65.71,43a3.5,3.5,0,0,1-1-3.06,4.09,4.09,0,0,1,1.15-2.17,3.31,3.31,0,0,1,2.45-1,2.93,2.93,0,0,1,1.86.83,1.88,1.88,0,0,1,.55,1,1.42,1.42,0,0,1-.23,1.08l.47.31a2,2,0,0,0,.33-1.49,2.56,2.56,0,0,0-.71-1.27,3.46,3.46,0,0,0-2.25-1,3.88,3.88,0,0,0-2.88,1.21,4.73,4.73,0,0,0-1.3,2.48,4.07,4.07,0,0,0,1.2,3.57,4.64,4.64,0,0,0,4.87,1,6.64,6.64,0,0,0,2.53-1.56,6.83,6.83,0,0,0,1-8.34,4.8,4.8,0,0,0,1.8.35,5.5,5.5,0,0,0,.91-.09,5.4,5.4,0,0,0,.91.09,4.84,4.84,0,0,0,1.8-.35,6.83,6.83,0,0,0,1,8.34,6.57,6.57,0,0,0,2.53,1.56,4.64,4.64,0,0,0,4.87-1,4.07,4.07,0,0,0,1.2-3.57,4.73,4.73,0,0,0-1.3-2.48,3.9,3.9,0,0,0-2.89-1.21,3.46,3.46,0,0,0-2.24,1,2.48,2.48,0,0,0-.71,1.27,2,2,0,0,0,.32,1.49l.48-.31a1.42,1.42,0,0,1-.23-1.08,1.88,1.88,0,0,1,.55-1,2.93,2.93,0,0,1,1.86-.83,3.31,3.31,0,0,1,2.45,1,4.16,4.16,0,0,1,1.15,2.17,3.5,3.5,0,0,1-1,3.06,4.09,4.09,0,0,1-4.29.92,5.91,5.91,0,0,1-2.31-1.43,6.42,6.42,0,0,1-1.82-4.25A5.64,5.64,0,0,1,80.31,34l.17-.16a5.46,5.46,0,0,1,4.59-1.18A8.76,8.76,0,0,1,87.13,33.24Zm76.2,0a8.76,8.76,0,0,1,2.06-.58A5.46,5.46,0,0,1,170,33.84l.17.16a5.64,5.64,0,0,1,1.58,4.22,6.37,6.37,0,0,1-1.82,4.25,5.91,5.91,0,0,1-2.31,1.43,4.09,4.09,0,0,1-4.29-.92,3.5,3.5,0,0,1-1-3.06,4.16,4.16,0,0,1,1.15-2.17,3.31,3.31,0,0,1,2.45-1,2.93,2.93,0,0,1,1.86.83,1.88,1.88,0,0,1,.55,1,1.42,1.42,0,0,1-.23,1.08l.48.31a2,2,0,0,0,.32-1.49,2.48,2.48,0,0,0-.71-1.27,3.46,3.46,0,0,0-2.24-1A3.9,3.9,0,0,0,163,37.34a4.73,4.73,0,0,0-1.3,2.48,4.07,4.07,0,0,0,1.2,3.57,4.64,4.64,0,0,0,4.87,1,6.57,6.57,0,0,0,2.53-1.56,6.83,6.83,0,0,0,1-8.34,4.84,4.84,0,0,0,1.8.35,5.4,5.4,0,0,0,.91-.09,5.5,5.5,0,0,0,.91.09,4.8,4.8,0,0,0,1.8-.35,6.83,6.83,0,0,0,1,8.34,6.64,6.64,0,0,0,2.53,1.56,4.64,4.64,0,0,0,4.87-1,4.07,4.07,0,0,0,1.2-3.57,4.73,4.73,0,0,0-1.3-2.48,3.88,3.88,0,0,0-2.88-1.21,3.46,3.46,0,0,0-2.25,1,2.56,2.56,0,0,0-.71,1.27,2,2,0,0,0,.33,1.49l.47-.31a1.42,1.42,0,0,1-.23-1.08,1.88,1.88,0,0,1,.55-1,2.93,2.93,0,0,1,1.86-.83,3.31,3.31,0,0,1,2.45,1,4.09,4.09,0,0,1,1.15,2.17,3.5,3.5,0,0,1-1,3.06,4.08,4.08,0,0,1-4.29.92,5.91,5.91,0,0,1-2.31-1.43,6.42,6.42,0,0,1-1.82-4.25A5.68,5.68,0,0,1,177.91,34l.17-.16a5.46,5.46,0,0,1,4.59-1.18,10.53,10.53,0,0,1,5.78,3.16,15.9,15.9,0,0,1,2.21,2.77c2.75,4.32,2.2,8.39-.13,10.72a6.66,6.66,0,0,1-2.32,1.51c-3.27,1.26-7.44,0-10.62-3.15A16,16,0,0,1,174,42.15a16,16,0,0,1-3.55,5.52c-3.19,3.18-7.36,4.41-10.63,3.15a6.66,6.66,0,0,1-2.32-1.51,7.21,7.21,0,0,1-.58-.66,6.4,6.4,0,0,1-.88.06,6.63,6.63,0,0,1-2.7-.58c-3.21-1.41-5.29-5.24-5.29-9.74A16,16,0,0,1,149.47,32a16,16,0,0,1-6.41,1.38c-4.51,0-8.33-2.07-9.74-5.28a6.68,6.68,0,0,1-.58-2.71c0-3.29,2.49-6.56,7.48-7.67a16.83,16.83,0,0,1,3.53-.4,10.57,10.57,0,0,1,6.32,1.85,5.49,5.49,0,0,1,2.41,4.09c0,.08,0,.15,0,.23a5.62,5.62,0,0,1-1.87,4.1,6.38,6.38,0,0,1-4.29,1.72,5.91,5.91,0,0,1-2.64-.63A4.08,4.08,0,0,1,141.3,25a3.5,3.5,0,0,1,1.43-2.9,4.12,4.12,0,0,1,2.35-.73,3.33,3.33,0,0,1,2.47,1,3,3,0,0,1,.73,1.91,1.85,1.85,0,0,1-.3,1.07,1.43,1.43,0,0,1-.92.6l.11.56a2.07,2.07,0,0,0,1.29-.83,2.53,2.53,0,0,0,.39-1.4A3.44,3.44,0,0,0,148,22a3.85,3.85,0,0,0-2.89-1.18,4.67,4.67,0,0,0-2.67.83A4,4,0,0,0,140.73,25a4.66,4.66,0,0,0,2.7,4.19,6.51,6.51,0,0,0,2.9.68,6.8,6.8,0,0,0,6.6-5.18,4.8,4.8,0,0,0,1,1.52,4.87,4.87,0,0,0,.71.58,4.79,4.79,0,0,0,.58.7,4.72,4.72,0,0,0,1.52,1,6.8,6.8,0,0,0-5.18,6.6,6.47,6.47,0,0,0,.68,2.89,4.63,4.63,0,0,0,4.19,2.7A4.05,4.05,0,0,0,159.83,39a4.77,4.77,0,0,0,.83-2.67,3.89,3.89,0,0,0-1.18-2.9,3.47,3.47,0,0,0-2.29-.88,2.44,2.44,0,0,0-1.4.4,1.94,1.94,0,0,0-.83,1.28l.56.12a1.41,1.41,0,0,1,.59-.93,1.9,1.9,0,0,1,1.08-.3,2.93,2.93,0,0,1,1.9.73,3.33,3.33,0,0,1,1,2.48,4.16,4.16,0,0,1-.73,2.34,3.47,3.47,0,0,1-2.9,1.43,4.08,4.08,0,0,1-3.68-2.38,5.93,5.93,0,0,1-.62-2.64,6.33,6.33,0,0,1,1.71-4.29A5.62,5.62,0,0,1,158,29h.22a5.49,5.49,0,0,1,4.09,2.42A8.72,8.72,0,0,1,163.33,33.24Zm53.89,53.89a8.72,8.72,0,0,1,1.86,1,5.49,5.49,0,0,1,2.42,4.09v.22a5.62,5.62,0,0,1-1.87,4.11,6.33,6.33,0,0,1-4.29,1.71,5.93,5.93,0,0,1-2.64-.62A4.08,4.08,0,0,1,210.32,94a3.47,3.47,0,0,1,1.43-2.9,4.16,4.16,0,0,1,2.34-.73,3.33,3.33,0,0,1,2.48,1,2.93,2.93,0,0,1,.73,1.9,1.9,1.9,0,0,1-.3,1.08,1.41,1.41,0,0,1-.93.59l.12.56a1.94,1.94,0,0,0,1.28-.83,2.44,2.44,0,0,0,.4-1.4A3.47,3.47,0,0,0,217,91a3.89,3.89,0,0,0-2.9-1.18,4.77,4.77,0,0,0-2.67.83A4.05,4.05,0,0,0,209.75,94a4.63,4.63,0,0,0,2.7,4.19,6.49,6.49,0,0,0,2.89.69,6.82,6.82,0,0,0,6.6-5.19,4.72,4.72,0,0,0,1,1.52,4.79,4.79,0,0,0,.7.58,4.87,4.87,0,0,0,.58.71,4.8,4.8,0,0,0,1.52,1,6.8,6.8,0,0,0-5.18,6.6,6.51,6.51,0,0,0,.68,2.9,4.66,4.66,0,0,0,4.19,2.7,4,4,0,0,0,3.37-1.68,4.67,4.67,0,0,0,.83-2.67,3.85,3.85,0,0,0-1.18-2.89,3.44,3.44,0,0,0-2.29-.88,2.53,2.53,0,0,0-1.4.39,2.07,2.07,0,0,0-.83,1.29l.56.11a1.43,1.43,0,0,1,.6-.92,1.85,1.85,0,0,1,1.07-.3,3,3,0,0,1,1.91.73,3.33,3.33,0,0,1,1,2.47,4.12,4.12,0,0,1-.73,2.35,3.5,3.5,0,0,1-2.9,1.43,4.08,4.08,0,0,1-3.67-2.39,5.91,5.91,0,0,1-.63-2.64,6.38,6.38,0,0,1,1.72-4.29A5.62,5.62,0,0,1,227,98h.23a5.49,5.49,0,0,1,4.09,2.41,10.57,10.57,0,0,1,1.85,6.32,16.83,16.83,0,0,1-.4,3.53c-1.11,5-4.38,7.48-7.67,7.48a6.68,6.68,0,0,1-2.71-.58c-3.21-1.41-5.28-5.23-5.28-9.74a16,16,0,0,1,1.38-6.41,16,16,0,0,1-6.41,1.39c-4.5,0-8.33-2.08-9.74-5.29a6.63,6.63,0,0,1-.58-2.7,6.4,6.4,0,0,1,.06-.88,7.21,7.21,0,0,1-.66-.58,6.5,6.5,0,0,1-1.5-2.32c-1.27-3.27,0-7.44,3.14-10.63a16,16,0,0,1,5.52-3.55,16,16,0,0,1-5.52-3.56c-3.18-3.18-4.41-7.35-3.14-10.62a6.5,6.5,0,0,1,1.5-2.32c2.33-2.33,6.4-2.88,10.72-.13A15.9,15.9,0,0,1,214.64,62a10.53,10.53,0,0,1,3.16,5.78,5.46,5.46,0,0,1-1.18,4.59l-.16.17a5.68,5.68,0,0,1-4.22,1.58A6.42,6.42,0,0,1,208,72.31,5.91,5.91,0,0,1,206.56,70a4.08,4.08,0,0,1,.92-4.29,3.5,3.5,0,0,1,3.06-1,4.09,4.09,0,0,1,2.17,1.15,3.31,3.31,0,0,1,1,2.45,2.93,2.93,0,0,1-.83,1.86,1.88,1.88,0,0,1-1,.55,1.42,1.42,0,0,1-1.08-.23l-.31.47a2,2,0,0,0,1.49.33,2.56,2.56,0,0,0,1.27-.71,3.46,3.46,0,0,0,1-2.25,3.88,3.88,0,0,0-1.21-2.88,4.73,4.73,0,0,0-2.48-1.3,4.07,4.07,0,0,0-3.57,1.2,4.64,4.64,0,0,0-1,4.87,6.64,6.64,0,0,0,1.56,2.53,6.83,6.83,0,0,0,8.34,1,4.8,4.8,0,0,0-.35,1.8,5.5,5.5,0,0,0,.09.91,5.4,5.4,0,0,0-.09.91,4.84,4.84,0,0,0,.35,1.8,6.83,6.83,0,0,0-8.34,1A6.57,6.57,0,0,0,206,82.68a4.64,4.64,0,0,0,1,4.87,4.07,4.07,0,0,0,3.57,1.2,4.73,4.73,0,0,0,2.48-1.3,3.9,3.9,0,0,0,1.21-2.89,3.46,3.46,0,0,0-1-2.24,2.48,2.48,0,0,0-1.27-.71,2,2,0,0,0-1.49.32l.31.48a1.42,1.42,0,0,1,1.08-.23,1.88,1.88,0,0,1,1,.55,2.93,2.93,0,0,1,.83,1.86,3.31,3.31,0,0,1-1,2.45,4.16,4.16,0,0,1-2.17,1.15,3.5,3.5,0,0,1-3.06-1,4.09,4.09,0,0,1-.92-4.29A5.91,5.91,0,0,1,208,80.55a6.42,6.42,0,0,1,4.25-1.82,5.64,5.64,0,0,1,4.22,1.58l.16.17a5.46,5.46,0,0,1,1.18,4.59A8.76,8.76,0,0,1,217.22,87.13Zm0,76.2a8.76,8.76,0,0,1,.58,2.06,5.46,5.46,0,0,1-1.18,4.59l-.16.17a5.64,5.64,0,0,1-4.22,1.58,6.37,6.37,0,0,1-4.25-1.82,5.91,5.91,0,0,1-1.43-2.31,4.09,4.09,0,0,1,.92-4.29,3.5,3.5,0,0,1,3.06-1,4.16,4.16,0,0,1,2.17,1.15,3.31,3.31,0,0,1,1,2.45,2.93,2.93,0,0,1-.83,1.86,1.88,1.88,0,0,1-1,.55,1.42,1.42,0,0,1-1.08-.23l-.31.48a2,2,0,0,0,1.49.32,2.48,2.48,0,0,0,1.27-.71,3.46,3.46,0,0,0,1-2.24,3.9,3.9,0,0,0-1.21-2.89,4.73,4.73,0,0,0-2.48-1.3,4.07,4.07,0,0,0-3.57,1.2,4.64,4.64,0,0,0-1,4.87,6.57,6.57,0,0,0,1.56,2.53,6.83,6.83,0,0,0,8.34,1,4.84,4.84,0,0,0-.35,1.8,5.4,5.4,0,0,0,.09.91,5.5,5.5,0,0,0-.09.91,4.8,4.8,0,0,0,.35,1.8,6.83,6.83,0,0,0-8.34,1,6.64,6.64,0,0,0-1.56,2.53,4.64,4.64,0,0,0,1,4.87,4.07,4.07,0,0,0,3.57,1.2,4.73,4.73,0,0,0,2.48-1.3,3.88,3.88,0,0,0,1.21-2.88,3.46,3.46,0,0,0-1-2.25,2.56,2.56,0,0,0-1.27-.71,2,2,0,0,0-1.49.33l.31.47a1.42,1.42,0,0,1,1.08-.23,1.88,1.88,0,0,1,1,.55,2.93,2.93,0,0,1,.83,1.86,3.31,3.31,0,0,1-1,2.45,4.09,4.09,0,0,1-2.17,1.15,3.5,3.5,0,0,1-3.06-1,4.08,4.08,0,0,1-.92-4.29,5.91,5.91,0,0,1,1.43-2.31,6.42,6.42,0,0,1,4.25-1.82,5.68,5.68,0,0,1,4.22,1.58l.16.17a5.46,5.46,0,0,1,1.18,4.59,10.53,10.53,0,0,1-3.16,5.78,15.9,15.9,0,0,1-2.77,2.21c-4.32,2.75-8.39,2.2-10.72-.13a6.5,6.5,0,0,1-1.5-2.32c-1.27-3.27,0-7.44,3.14-10.62a16,16,0,0,1,5.52-3.56,16,16,0,0,1-5.52-3.55c-3.18-3.19-4.41-7.36-3.14-10.63a6.5,6.5,0,0,1,1.5-2.32,7.21,7.21,0,0,1,.66-.58,6.4,6.4,0,0,1-.06-.88,6.63,6.63,0,0,1,.58-2.7c1.41-3.21,5.24-5.29,9.74-5.29a16,16,0,0,1,6.41,1.39,16,16,0,0,1-1.38-6.41c0-4.51,2.07-8.33,5.28-9.74a6.68,6.68,0,0,1,2.71-.58c3.29,0,6.56,2.49,7.67,7.48a16.83,16.83,0,0,1,.4,3.53,10.57,10.57,0,0,1-1.85,6.32,5.49,5.49,0,0,1-4.09,2.41H227a5.62,5.62,0,0,1-4.1-1.87,6.38,6.38,0,0,1-1.72-4.29,5.91,5.91,0,0,1,.63-2.64,4.08,4.08,0,0,1,3.67-2.39,3.5,3.5,0,0,1,2.9,1.43,4.12,4.12,0,0,1,.73,2.35,3.33,3.33,0,0,1-1,2.47,3,3,0,0,1-1.91.73,1.85,1.85,0,0,1-1.07-.3,1.43,1.43,0,0,1-.6-.92l-.56.11a2.07,2.07,0,0,0,.83,1.29,2.53,2.53,0,0,0,1.4.39,3.44,3.44,0,0,0,2.29-.88,3.85,3.85,0,0,0,1.18-2.89,4.67,4.67,0,0,0-.83-2.67,4,4,0,0,0-3.37-1.68,4.66,4.66,0,0,0-4.19,2.7,6.51,6.51,0,0,0-.68,2.9,6.8,6.8,0,0,0,5.18,6.6,4.8,4.8,0,0,0-1.52,1,4.87,4.87,0,0,0-.58.71,4.79,4.79,0,0,0-.7.58,4.72,4.72,0,0,0-1,1.52,6.8,6.8,0,0,0-6.6-5.18,6.47,6.47,0,0,0-2.89.68,4.63,4.63,0,0,0-2.7,4.19,4.05,4.05,0,0,0,1.67,3.37,4.77,4.77,0,0,0,2.67.83,3.89,3.89,0,0,0,2.9-1.18,3.47,3.47,0,0,0,.88-2.29,2.44,2.44,0,0,0-.4-1.4,1.94,1.94,0,0,0-1.28-.83l-.12.56a1.41,1.41,0,0,1,.93.59,1.9,1.9,0,0,1,.3,1.08,2.93,2.93,0,0,1-.73,1.9,3.33,3.33,0,0,1-2.48,1,4.16,4.16,0,0,1-2.34-.73,3.47,3.47,0,0,1-1.43-2.9,4.08,4.08,0,0,1,2.38-3.68,5.93,5.93,0,0,1,2.64-.62,6.33,6.33,0,0,1,4.29,1.71A5.62,5.62,0,0,1,221.5,158v.22a5.49,5.49,0,0,1-2.42,4.09A8.72,8.72,0,0,1,217.22,163.33Zm-53.89,53.89a8.72,8.72,0,0,1-1,1.86,5.49,5.49,0,0,1-4.09,2.42H158a5.62,5.62,0,0,1-4.11-1.87,6.33,6.33,0,0,1-1.71-4.29,5.93,5.93,0,0,1,.62-2.64,4.08,4.08,0,0,1,3.68-2.38,3.47,3.47,0,0,1,2.9,1.43,4.16,4.16,0,0,1,.73,2.34,3.33,3.33,0,0,1-1,2.48,2.93,2.93,0,0,1-1.9.73,1.9,1.9,0,0,1-1.08-.3,1.41,1.41,0,0,1-.59-.93l-.56.12a1.94,1.94,0,0,0,.83,1.28,2.44,2.44,0,0,0,1.4.4,3.47,3.47,0,0,0,2.29-.88,3.89,3.89,0,0,0,1.18-2.9,4.77,4.77,0,0,0-.83-2.67,4.05,4.05,0,0,0-3.37-1.67,4.63,4.63,0,0,0-4.19,2.7,6.47,6.47,0,0,0-.68,2.89,6.8,6.8,0,0,0,5.18,6.6,4.72,4.72,0,0,0-1.52,1,4.79,4.79,0,0,0-.58.7,4.87,4.87,0,0,0-.71.58,4.8,4.8,0,0,0-1,1.52,6.8,6.8,0,0,0-6.6-5.18,6.51,6.51,0,0,0-2.9.68,4.66,4.66,0,0,0-2.7,4.19,4,4,0,0,0,1.68,3.37,4.67,4.67,0,0,0,2.67.83,3.85,3.85,0,0,0,2.89-1.18,3.44,3.44,0,0,0,.88-2.29,2.53,2.53,0,0,0-.39-1.4,2.07,2.07,0,0,0-1.29-.83l-.11.56a1.43,1.43,0,0,1,.92.6,1.85,1.85,0,0,1,.3,1.07,3,3,0,0,1-.73,1.91,3.33,3.33,0,0,1-2.47,1,4.12,4.12,0,0,1-2.35-.73,3.5,3.5,0,0,1-1.43-2.9,4.08,4.08,0,0,1,2.39-3.67,5.91,5.91,0,0,1,2.64-.63,6.38,6.38,0,0,1,4.29,1.72,5.62,5.62,0,0,1,1.87,4.1c0,.08,0,.15,0,.23a5.49,5.49,0,0,1-2.41,4.09,10.57,10.57,0,0,1-6.32,1.85,16.83,16.83,0,0,1-3.53-.4c-5-1.11-7.48-4.38-7.48-7.67a6.68,6.68,0,0,1,.58-2.71c1.41-3.21,5.23-5.28,9.74-5.28a16,16,0,0,1,6.41,1.38,16,16,0,0,1-1.39-6.41c0-4.5,2.08-8.33,5.29-9.74a6.63,6.63,0,0,1,2.7-.58,6.4,6.4,0,0,1,.88.06,7.21,7.21,0,0,1,.58-.66,6.5,6.5,0,0,1,2.32-1.5c3.27-1.27,7.44,0,10.63,3.14a16,16,0,0,1,3.55,5.52,16,16,0,0,1,3.56-5.52c3.18-3.18,7.35-4.41,10.62-3.14a6.5,6.5,0,0,1,2.32,1.5c2.33,2.33,2.88,6.4.13,10.72a15.9,15.9,0,0,1-2.21,2.77,10.53,10.53,0,0,1-5.78,3.16,5.46,5.46,0,0,1-4.59-1.18l-.17-.16a5.68,5.68,0,0,1-1.58-4.22,6.42,6.42,0,0,1,1.82-4.25,5.91,5.91,0,0,1,2.31-1.43,4.08,4.08,0,0,1,4.29.92,3.5,3.5,0,0,1,1,3.06,4.09,4.09,0,0,1-1.15,2.17,3.31,3.31,0,0,1-2.45,1,2.93,2.93,0,0,1-1.86-.83,1.88,1.88,0,0,1-.55-1,1.42,1.42,0,0,1,.23-1.08l-.47-.31a2,2,0,0,0-.33,1.49,2.56,2.56,0,0,0,.71,1.27,3.46,3.46,0,0,0,2.25,1,3.88,3.88,0,0,0,2.88-1.21,4.73,4.73,0,0,0,1.3-2.48,4.07,4.07,0,0,0-1.2-3.57,4.64,4.64,0,0,0-4.87-1,6.64,6.64,0,0,0-2.53,1.56,6.83,6.83,0,0,0-1,8.34,4.8,4.8,0,0,0-1.8-.35,5.5,5.5,0,0,0-.91.09,5.4,5.4,0,0,0-.91-.09,4.84,4.84,0,0,0-1.8.35,6.83,6.83,0,0,0-1-8.34,6.57,6.57,0,0,0-2.53-1.56,4.64,4.64,0,0,0-4.87,1,4.07,4.07,0,0,0-1.2,3.57,4.73,4.73,0,0,0,1.3,2.48,3.9,3.9,0,0,0,2.89,1.21,3.46,3.46,0,0,0,2.24-1,2.48,2.48,0,0,0,.71-1.27,2,2,0,0,0-.32-1.49l-.48.31a1.42,1.42,0,0,1,.23,1.08,1.88,1.88,0,0,1-.55,1,2.93,2.93,0,0,1-1.86.83,3.31,3.31,0,0,1-2.45-1,4.16,4.16,0,0,1-1.15-2.17,3.5,3.5,0,0,1,1-3.06,4.09,4.09,0,0,1,4.29-.92,5.91,5.91,0,0,1,2.31,1.43,6.37,6.37,0,0,1,1.82,4.25,5.64,5.64,0,0,1-1.58,4.22l-.17.16a5.46,5.46,0,0,1-4.59,1.18A8.76,8.76,0,0,1,163.33,217.22Zm-76.2,0a8.76,8.76,0,0,1-2.06.58,5.46,5.46,0,0,1-4.59-1.18l-.17-.16a5.64,5.64,0,0,1-1.58-4.22A6.42,6.42,0,0,1,80.55,208a5.91,5.91,0,0,1,2.31-1.43,4.09,4.09,0,0,1,4.29.92,3.5,3.5,0,0,1,1,3.06A4.16,4.16,0,0,1,87,212.71a3.31,3.31,0,0,1-2.45,1,2.93,2.93,0,0,1-1.86-.83,1.88,1.88,0,0,1-.55-1,1.42,1.42,0,0,1,.23-1.08l-.48-.31a2,2,0,0,0-.32,1.49,2.48,2.48,0,0,0,.71,1.27,3.46,3.46,0,0,0,2.24,1,3.9,3.9,0,0,0,2.89-1.21,4.73,4.73,0,0,0,1.3-2.48,4.07,4.07,0,0,0-1.2-3.57,4.64,4.64,0,0,0-4.87-1,6.57,6.57,0,0,0-2.53,1.56,6.83,6.83,0,0,0-1,8.34,4.84,4.84,0,0,0-1.8-.35,5.4,5.4,0,0,0-.91.09,5.5,5.5,0,0,0-.91-.09,4.8,4.8,0,0,0-1.8.35,6.83,6.83,0,0,0-1-8.34A6.64,6.64,0,0,0,70.18,206a4.64,4.64,0,0,0-4.87,1,4.07,4.07,0,0,0-1.2,3.57,4.73,4.73,0,0,0,1.3,2.48,3.88,3.88,0,0,0,2.88,1.21,3.46,3.46,0,0,0,2.25-1,2.56,2.56,0,0,0,.71-1.27,2,2,0,0,0-.33-1.49l-.47.31a1.42,1.42,0,0,1,.23,1.08,1.88,1.88,0,0,1-.55,1,2.93,2.93,0,0,1-1.86.83,3.31,3.31,0,0,1-2.45-1,4.09,4.09,0,0,1-1.15-2.17,3.5,3.5,0,0,1,1-3.06,4.08,4.08,0,0,1,4.29-.92A5.91,5.91,0,0,1,72.31,208a6.42,6.42,0,0,1,1.82,4.25,5.68,5.68,0,0,1-1.58,4.22l-.17.16a5.46,5.46,0,0,1-4.59,1.18A10.53,10.53,0,0,1,62,214.64a15.9,15.9,0,0,1-2.21-2.77c-2.75-4.32-2.2-8.39.13-10.72a6.5,6.5,0,0,1,2.32-1.5c3.27-1.27,7.44,0,10.62,3.14a16,16,0,0,1,3.56,5.52A16,16,0,0,1,80,202.79c3.19-3.18,7.36-4.41,10.63-3.14a6.5,6.5,0,0,1,2.32,1.5,7.21,7.21,0,0,1,.58.66,6.4,6.4,0,0,1,.88-.06,6.63,6.63,0,0,1,2.7.58c3.21,1.41,5.29,5.24,5.29,9.74a16,16,0,0,1-1.39,6.41,16,16,0,0,1,6.41-1.38c4.51,0,8.33,2.07,9.74,5.28a6.68,6.68,0,0,1,.58,2.71c0,3.29-2.49,6.56-7.48,7.67a16.83,16.83,0,0,1-3.53.4,10.57,10.57,0,0,1-6.32-1.85A5.49,5.49,0,0,1,98,227.22c0-.08,0-.15,0-.23a5.62,5.62,0,0,1,1.87-4.1,6.38,6.38,0,0,1,4.29-1.72,5.91,5.91,0,0,1,2.64.63,4.08,4.08,0,0,1,2.39,3.67,3.5,3.5,0,0,1-1.43,2.9,4.12,4.12,0,0,1-2.35.73,3.33,3.33,0,0,1-2.47-1,3,3,0,0,1-.73-1.91,1.85,1.85,0,0,1,.3-1.07,1.43,1.43,0,0,1,.92-.6l-.11-.56a2.07,2.07,0,0,0-1.29.83,2.53,2.53,0,0,0-.39,1.4,3.44,3.44,0,0,0,.88,2.29,3.85,3.85,0,0,0,2.89,1.18,4.67,4.67,0,0,0,2.67-.83,4,4,0,0,0,1.68-3.37,4.66,4.66,0,0,0-2.7-4.19,6.51,6.51,0,0,0-2.9-.68,6.8,6.8,0,0,0-6.6,5.18,4.8,4.8,0,0,0-1-1.52,4.87,4.87,0,0,0-.71-.58,4.79,4.79,0,0,0-.58-.7,4.72,4.72,0,0,0-1.52-1,6.82,6.82,0,0,0,5.19-6.6,6.49,6.49,0,0,0-.69-2.89,4.63,4.63,0,0,0-4.19-2.7,4.05,4.05,0,0,0-3.37,1.67,4.77,4.77,0,0,0-.83,2.67A3.89,3.89,0,0,0,91,217a3.47,3.47,0,0,0,2.29.88,2.44,2.44,0,0,0,1.4-.4,1.94,1.94,0,0,0,.83-1.28l-.56-.12a1.41,1.41,0,0,1-.59.93,1.9,1.9,0,0,1-1.08.3,2.93,2.93,0,0,1-1.9-.73,3.33,3.33,0,0,1-1-2.48,4.16,4.16,0,0,1,.73-2.34,3.47,3.47,0,0,1,2.9-1.43,4.08,4.08,0,0,1,3.68,2.38,5.93,5.93,0,0,1,.62,2.64,6.33,6.33,0,0,1-1.71,4.29,5.62,5.62,0,0,1-4.11,1.87h-.22a5.49,5.49,0,0,1-4.09-2.42A8.72,8.72,0,0,1,87.13,217.22ZM33.24,163.33a8.72,8.72,0,0,1-1.86-1A5.49,5.49,0,0,1,29,158.2V158a5.62,5.62,0,0,1,1.87-4.11,6.33,6.33,0,0,1,4.29-1.71,5.93,5.93,0,0,1,2.64.62,4.08,4.08,0,0,1,2.38,3.68,3.47,3.47,0,0,1-1.43,2.9,4.16,4.16,0,0,1-2.34.73,3.33,3.33,0,0,1-2.48-1,2.93,2.93,0,0,1-.73-1.9,1.9,1.9,0,0,1,.3-1.08,1.41,1.41,0,0,1,.93-.59l-.12-.56a1.94,1.94,0,0,0-1.28.83,2.44,2.44,0,0,0-.4,1.4,3.47,3.47,0,0,0,.88,2.29,3.89,3.89,0,0,0,2.9,1.18,4.77,4.77,0,0,0,2.67-.83,4.05,4.05,0,0,0,1.67-3.37,4.63,4.63,0,0,0-2.7-4.19,6.47,6.47,0,0,0-2.89-.68,6.8,6.8,0,0,0-6.6,5.18,4.72,4.72,0,0,0-1-1.52,4.79,4.79,0,0,0-.7-.58,4.87,4.87,0,0,0-.58-.71,4.8,4.8,0,0,0-1.52-1,6.8,6.8,0,0,0,5.18-6.6,6.51,6.51,0,0,0-.68-2.9,4.66,4.66,0,0,0-4.19-2.7,4,4,0,0,0-3.37,1.68,4.67,4.67,0,0,0-.83,2.67A3.85,3.85,0,0,0,22,148a3.44,3.44,0,0,0,2.29.88,2.53,2.53,0,0,0,1.4-.39,2.07,2.07,0,0,0,.83-1.29l-.56-.11a1.43,1.43,0,0,1-.6.92,1.85,1.85,0,0,1-1.07.3,3,3,0,0,1-1.91-.73,3.33,3.33,0,0,1-1-2.47,4.12,4.12,0,0,1,.73-2.35A3.5,3.5,0,0,1,25,141.3a4.08,4.08,0,0,1,3.67,2.39,5.91,5.91,0,0,1,.63,2.64,6.38,6.38,0,0,1-1.72,4.29,5.62,5.62,0,0,1-4.1,1.87h-.23a5.49,5.49,0,0,1-4.09-2.41,10.57,10.57,0,0,1-1.85-6.32,16.83,16.83,0,0,1,.4-3.53c1.11-5,4.38-7.48,7.67-7.48a6.68,6.68,0,0,1,2.71.58c3.21,1.41,5.28,5.23,5.28,9.74A16,16,0,0,1,32,149.47a16,16,0,0,1,6.41-1.39c4.5,0,8.33,2.08,9.74,5.29a6.63,6.63,0,0,1,.58,2.7,6.4,6.4,0,0,1-.06.88,7.21,7.21,0,0,1,.66.58,6.66,6.66,0,0,1,1.51,2.32c1.26,3.27,0,7.44-3.15,10.63A16,16,0,0,1,42.15,174a16,16,0,0,1,5.52,3.56c3.18,3.18,4.41,7.35,3.15,10.62a6.66,6.66,0,0,1-1.51,2.32c-2.33,2.33-6.4,2.88-10.72.13a15.9,15.9,0,0,1-2.77-2.21,10.53,10.53,0,0,1-3.16-5.78,5.46,5.46,0,0,1,1.18-4.59l.16-.17a5.68,5.68,0,0,1,4.22-1.58,6.42,6.42,0,0,1,4.25,1.82,5.91,5.91,0,0,1,1.43,2.31,4.08,4.08,0,0,1-.92,4.29,3.5,3.5,0,0,1-3.06,1,4.09,4.09,0,0,1-2.17-1.15,3.31,3.31,0,0,1-1-2.45,2.93,2.93,0,0,1,.83-1.86,1.88,1.88,0,0,1,1-.55,1.42,1.42,0,0,1,1.08.23l.31-.47a2,2,0,0,0-1.49-.33,2.56,2.56,0,0,0-1.27.71,3.46,3.46,0,0,0-1,2.25,3.88,3.88,0,0,0,1.21,2.88,4.73,4.73,0,0,0,2.48,1.3,4.07,4.07,0,0,0,3.57-1.2,4.64,4.64,0,0,0,1-4.87,6.64,6.64,0,0,0-1.56-2.53,6.83,6.83,0,0,0-8.34-1,4.8,4.8,0,0,0,.35-1.8,5.5,5.5,0,0,0-.09-.91,5.4,5.4,0,0,0,.09-.91,4.84,4.84,0,0,0-.35-1.8,6.83,6.83,0,0,0,8.34-1,6.57,6.57,0,0,0,1.56-2.53,4.64,4.64,0,0,0-1-4.87,4.07,4.07,0,0,0-3.57-1.2,4.73,4.73,0,0,0-2.48,1.3,3.9,3.9,0,0,0-1.21,2.89,3.46,3.46,0,0,0,1,2.24,2.48,2.48,0,0,0,1.27.71,2,2,0,0,0,1.49-.32l-.31-.48a1.42,1.42,0,0,1-1.08.23,1.88,1.88,0,0,1-1-.55,2.93,2.93,0,0,1-.83-1.86,3.31,3.31,0,0,1,1-2.45,4.16,4.16,0,0,1,2.17-1.15,3.5,3.5,0,0,1,3.06,1,4.09,4.09,0,0,1,.92,4.29,5.91,5.91,0,0,1-1.43,2.31,6.37,6.37,0,0,1-4.25,1.82A5.64,5.64,0,0,1,34,170.15l-.16-.17a5.46,5.46,0,0,1-1.18-4.59A8.76,8.76,0,0,1,33.24,163.33Zm0-76.2a8.76,8.76,0,0,1-.58-2.06,5.46,5.46,0,0,1,1.18-4.59l.16-.17a5.64,5.64,0,0,1,4.22-1.58,6.42,6.42,0,0,1,4.25,1.82,5.91,5.91,0,0,1,1.43,2.31A4.09,4.09,0,0,1,43,87.15a3.5,3.5,0,0,1-3.06,1A4.16,4.16,0,0,1,37.75,87a3.31,3.31,0,0,1-1-2.45,2.93,2.93,0,0,1,.83-1.86,1.88,1.88,0,0,1,1-.55,1.42,1.42,0,0,1,1.08.23l.31-.48a2,2,0,0,0-1.49-.32,2.48,2.48,0,0,0-1.27.71,3.46,3.46,0,0,0-1,2.24,3.9,3.9,0,0,0,1.21,2.89,4.73,4.73,0,0,0,2.48,1.3,4.07,4.07,0,0,0,3.57-1.2,4.64,4.64,0,0,0,1-4.87,6.57,6.57,0,0,0-1.56-2.53,6.83,6.83,0,0,0-8.34-1,4.84,4.84,0,0,0,.35-1.8,5.4,5.4,0,0,0-.09-.91,5.5,5.5,0,0,0,.09-.91,4.8,4.8,0,0,0-.35-1.8,6.83,6.83,0,0,0,8.34-1,6.64,6.64,0,0,0,1.56-2.53,4.64,4.64,0,0,0-1-4.87,4.07,4.07,0,0,0-3.57-1.2,4.73,4.73,0,0,0-2.48,1.3,3.88,3.88,0,0,0-1.21,2.88,3.46,3.46,0,0,0,1,2.25,2.56,2.56,0,0,0,1.27.71,2,2,0,0,0,1.49-.33l-.31-.47a1.42,1.42,0,0,1-1.08.23,1.88,1.88,0,0,1-1-.55,2.93,2.93,0,0,1-.83-1.86,3.31,3.31,0,0,1,1-2.45,4.09,4.09,0,0,1,2.17-1.15,3.5,3.5,0,0,1,3.06,1A4.08,4.08,0,0,1,43.9,70a5.91,5.91,0,0,1-1.43,2.31,6.42,6.42,0,0,1-4.25,1.82A5.68,5.68,0,0,1,34,72.55l-.16-.17a5.46,5.46,0,0,1-1.18-4.59A10.53,10.53,0,0,1,35.82,62a15.9,15.9,0,0,1,2.77-2.21c4.32-2.75,8.39-2.2,10.72.13a6.66,6.66,0,0,1,1.51,2.32c1.26,3.27,0,7.44-3.15,10.62a16,16,0,0,1-5.52,3.56A16,16,0,0,1,47.67,80c3.18,3.19,4.41,7.36,3.15,10.63a6.66,6.66,0,0,1-1.51,2.32,7.21,7.21,0,0,1-.66.58,6.4,6.4,0,0,1,.06.88,6.63,6.63,0,0,1-.58,2.7c-1.41,3.21-5.24,5.29-9.74,5.29A16,16,0,0,1,32,101a16,16,0,0,1,1.38,6.41c0,4.51-2.07,8.33-5.28,9.74a6.68,6.68,0,0,1-2.71.58c-3.29,0-6.56-2.49-7.67-7.48a16.83,16.83,0,0,1-.4-3.53,10.57,10.57,0,0,1,1.85-6.32A5.49,5.49,0,0,1,23.24,98h.23a5.62,5.62,0,0,1,4.1,1.87,6.38,6.38,0,0,1,1.72,4.29,5.91,5.91,0,0,1-.63,2.64A4.08,4.08,0,0,1,25,109.16a3.5,3.5,0,0,1-2.9-1.43,4.12,4.12,0,0,1-.73-2.35,3.33,3.33,0,0,1,1-2.47,3,3,0,0,1,1.91-.73,1.85,1.85,0,0,1,1.07.3,1.43,1.43,0,0,1,.6.92l.56-.11a2.07,2.07,0,0,0-.83-1.29,2.53,2.53,0,0,0-1.4-.39,3.44,3.44,0,0,0-2.29.88,3.85,3.85,0,0,0-1.18,2.89,4.67,4.67,0,0,0,.83,2.67A4,4,0,0,0,25,109.73a4.66,4.66,0,0,0,4.19-2.7,6.51,6.51,0,0,0,.68-2.9,6.8,6.8,0,0,0-5.18-6.6,4.8,4.8,0,0,0,1.52-1,4.87,4.87,0,0,0,.58-.71,4.79,4.79,0,0,0,.7-.58,4.72,4.72,0,0,0,1-1.52,6.82,6.82,0,0,0,6.6,5.19A6.49,6.49,0,0,0,38,98.19,4.63,4.63,0,0,0,40.71,94,4.05,4.05,0,0,0,39,90.63a4.77,4.77,0,0,0-2.67-.83A3.89,3.89,0,0,0,33.47,91a3.47,3.47,0,0,0-.88,2.29,2.44,2.44,0,0,0,.4,1.4,1.94,1.94,0,0,0,1.28.83l.12-.56a1.41,1.41,0,0,1-.93-.59,1.9,1.9,0,0,1-.3-1.08,2.93,2.93,0,0,1,.73-1.9,3.33,3.33,0,0,1,2.48-1,4.16,4.16,0,0,1,2.34.73A3.47,3.47,0,0,1,40.14,94a4.08,4.08,0,0,1-2.38,3.68,5.93,5.93,0,0,1-2.64.62,6.33,6.33,0,0,1-4.29-1.71A5.62,5.62,0,0,1,29,92.48v-.22a5.49,5.49,0,0,1,2.42-4.09A8.72,8.72,0,0,1,33.24,87.13Zm92-66.89c-3.24,1.55-5.72,3.58-7,6a6,6,0,0,0,.06-.85c0-3.6-2.75-7.09-7.94-8.23a16.48,16.48,0,0,0-2.59-.37,139.65,139.65,0,0,1,17.46-2.35,139.65,139.65,0,0,1,17.46,2.35,16.48,16.48,0,0,0-2.59.37c-5.19,1.14-7.94,4.63-7.94,8.23a6,6,0,0,0,.06.85C131,23.82,128.47,21.79,125.23,20.24ZM199.47,51c-3.39-1.19-6.58-1.51-9.17-.71.22-.18.44-.36.64-.56,2.54-2.55,3.07-7,.21-11.43a16.88,16.88,0,0,0-1.57-2.1,141,141,0,0,1,14,10.69,141,141,0,0,1,10.69,14,16.88,16.88,0,0,0-2.1-1.57c-4.47-2.86-8.88-2.33-11.43.21-.2.2-.38.42-.56.64C201,57.57,200.66,54.38,199.47,51Zm30.75,74.24c-1.55-3.24-3.58-5.72-6-7a6,6,0,0,0,.85.06c3.6,0,7.09-2.75,8.23-7.94a16.48,16.48,0,0,0,.37-2.59A139.65,139.65,0,0,1,236,125.23a139.65,139.65,0,0,1-2.35,17.46,16.48,16.48,0,0,0-.37-2.59c-1.14-5.19-4.63-7.94-8.23-7.94a6,6,0,0,0-.85.06C226.64,131,228.67,128.47,230.22,125.23Zm-30.75,74.24c1.19-3.39,1.51-6.58.71-9.17.18.22.36.44.56.64,2.55,2.54,7,3.07,11.43.21a16.88,16.88,0,0,0,2.1-1.57,141,141,0,0,1-10.69,14,141,141,0,0,1-14,10.69,16.88,16.88,0,0,0,1.57-2.1c2.86-4.47,2.33-8.88-.21-11.43-.2-.2-.42-.38-.64-.56C192.89,201,196.08,200.66,199.47,199.47Zm-74.24,30.75c3.24-1.55,5.72-3.58,7-6a6,6,0,0,0-.06.85c0,3.6,2.75,7.09,7.94,8.23a16.48,16.48,0,0,0,2.59.37A139.65,139.65,0,0,1,125.23,236a139.65,139.65,0,0,1-17.46-2.35,16.48,16.48,0,0,0,2.59-.37c5.19-1.14,7.94-4.63,7.94-8.23a6,6,0,0,0-.06-.85C119.51,226.64,122,228.67,125.23,230.22ZM51,199.47c3.39,1.19,6.58,1.51,9.17.71-.22.18-.44.36-.64.56-2.54,2.55-3.07,7-.21,11.43a16.88,16.88,0,0,0,1.57,2.1,141,141,0,0,1-14-10.69,141,141,0,0,1-10.69-14,16.88,16.88,0,0,0,2.1,1.57c4.47,2.86,8.88,2.33,11.43-.21.2-.2.38-.42.56-.64C49.48,192.89,49.8,196.08,51,199.47ZM20.24,125.23c1.55,3.24,3.58,5.72,6,7a6,6,0,0,0-.85-.06c-3.6,0-7.09,2.75-8.23,7.94a16.48,16.48,0,0,0-.37,2.59,139.65,139.65,0,0,1-2.35-17.46,139.65,139.65,0,0,1,2.35-17.46,16.48,16.48,0,0,0,.37,2.59c1.14,5.19,4.63,7.94,8.23,7.94a6,6,0,0,0,.85-.06C23.82,119.51,21.79,122,20.24,125.23ZM51,51c-1.19,3.39-1.51,6.58-.71,9.17-.18-.22-.36-.44-.56-.64-2.55-2.54-7-3.07-11.43-.21a16.88,16.88,0,0,0-2.1,1.57,141,141,0,0,1,10.69-14,141,141,0,0,1,14-10.69,16.88,16.88,0,0,0-1.57,2.1c-2.86,4.47-2.33,8.88.21,11.43.2.2.42.38.64.56C57.57,49.48,54.38,49.8,51,51Zm42.77-1.74q.31,0,.63,0a8.08,8.08,0,0,0,.85-.05,8.61,8.61,0,0,0-1.18.74,10.11,10.11,0,0,0-1.37.31c.23-.18.44-.36.65-.56Zm62.94,0,.42.47c.21.2.42.38.65.56A10.11,10.11,0,0,0,156.4,50a8.61,8.61,0,0,0-1.18-.74,8.08,8.08,0,0,0,.85.05Q156.39,49.28,156.7,49.25Zm44.51,44.51q0,.31,0,.63a8.08,8.08,0,0,0,0,.85,8.61,8.61,0,0,0-.74-1.18,10.11,10.11,0,0,0-.31-1.37c.18.23.36.44.56.65Zm0,62.94-.47.42c-.2.21-.38.42-.56.65a10.11,10.11,0,0,0,.31-1.37,8.61,8.61,0,0,0,.74-1.18,8.08,8.08,0,0,0,0,.85Q201.18,156.39,201.21,156.7ZM156.7,201.21q-.31,0-.63,0a8.08,8.08,0,0,0-.85,0,8.61,8.61,0,0,0,1.18-.74,10.11,10.11,0,0,0,1.37-.31c-.23.18-.44.36-.65.56Zm-62.94,0-.42-.47c-.21-.2-.42-.38-.65-.56a10.11,10.11,0,0,0,1.37.31,8.61,8.61,0,0,0,1.18.74,8.08,8.08,0,0,0-.85,0Q94.08,201.18,93.76,201.21ZM49.25,156.7q0-.31,0-.63a8.08,8.08,0,0,0-.05-.85A8.61,8.61,0,0,0,50,156.4a10.11,10.11,0,0,0,.31,1.37c-.18-.23-.36-.44-.56-.65Zm0-62.94.47-.42c.2-.21.38-.42.56-.65A10.11,10.11,0,0,0,50,94.06a8.61,8.61,0,0,0-.74,1.18,8.08,8.08,0,0,0,.05-.85Q49.28,94.08,49.25,93.76ZM85.12,16.1a18,18,0,0,1,2.39-.16,12.63,12.63,0,0,1,7.18,2,5.62,5.62,0,0,1,2.72,4.47v.06a4.48,4.48,0,0,1-2,3.91,4.47,4.47,0,0,1-3.92,2h0a5.61,5.61,0,0,1-4.48-2.71,12.64,12.64,0,0,1-2-7.19A18.21,18.21,0,0,1,85.12,16.1ZM19.7,76.43a18.81,18.81,0,0,1,1.58-1.8,12.65,12.65,0,0,1,6.47-3.69,5.64,5.64,0,0,1,5.09,1.25l0,0a4.48,4.48,0,0,1,1.33,4.21,4.46,4.46,0,0,1-1.33,4.2l0,0a5.64,5.64,0,0,1-5.09,1.25,12.72,12.72,0,0,1-6.47-3.69A18.81,18.81,0,0,1,19.7,76.43Zm-3.6,88.91a18,18,0,0,1-.16-2.39,12.63,12.63,0,0,1,2-7.18,5.62,5.62,0,0,1,4.47-2.72h.06a4.48,4.48,0,0,1,3.91,2,4.47,4.47,0,0,1,2,3.92v.05a5.61,5.61,0,0,1-2.71,4.48,12.64,12.64,0,0,1-7.19,2A18.21,18.21,0,0,1,16.1,165.34Zm60.33,65.42a18.81,18.81,0,0,1-1.8-1.58,12.65,12.65,0,0,1-3.69-6.47,5.64,5.64,0,0,1,1.25-5.09l0,0a4.48,4.48,0,0,1,4.21-1.33,4.46,4.46,0,0,1,4.2,1.33l0,0a5.64,5.64,0,0,1,1.25,5.09,12.72,12.72,0,0,1-3.69,6.47A18.81,18.81,0,0,1,76.43,230.76Zm88.91,3.6a18,18,0,0,1-2.39.16,12.63,12.63,0,0,1-7.18-2,5.62,5.62,0,0,1-2.72-4.47V228a7.3,7.3,0,0,1,5.95-5.94h.05a5.61,5.61,0,0,1,4.48,2.71,12.64,12.64,0,0,1,2,7.19A18.21,18.21,0,0,1,165.34,234.36ZM230.76,174a18.81,18.81,0,0,1-1.58,1.8,12.65,12.65,0,0,1-6.47,3.69,5.61,5.61,0,0,1-5.09-1.25l0,0a4.48,4.48,0,0,1-1.33-4.21,4.46,4.46,0,0,1,1.33-4.2l0,0a5.64,5.64,0,0,1,5.09-1.25,12.72,12.72,0,0,1,6.47,3.69A18.81,18.81,0,0,1,230.76,174Zm3.6-88.91a18,18,0,0,1,.16,2.39,12.63,12.63,0,0,1-2,7.18,5.62,5.62,0,0,1-4.47,2.72H228a4.48,4.48,0,0,1-3.91-2,4.47,4.47,0,0,1-2-3.92v0a5.61,5.61,0,0,1,2.71-4.48A12.64,12.64,0,0,1,232,85,18.21,18.21,0,0,1,234.36,85.12ZM174,19.7a18.81,18.81,0,0,1,1.8,1.58,12.65,12.65,0,0,1,3.69,6.47,5.61,5.61,0,0,1-1.25,5.09l0,0A4.48,4.48,0,0,1,174,34.21a4.46,4.46,0,0,1-4.2-1.33l0,0a5.64,5.64,0,0,1-1.25-5.09,12.72,12.72,0,0,1,3.69-6.47A18.81,18.81,0,0,1,174,19.7Zm-8.53-1.21a12.64,12.64,0,0,1-2,7.19,5.61,5.61,0,0,1-4.48,2.71H159a4.47,4.47,0,0,1-3.92-2,4.48,4.48,0,0,1-2-3.91v-.06a5.62,5.62,0,0,1,2.72-4.47,12.63,12.63,0,0,1,7.18-2,18,18,0,0,1,2.39.16A18.21,18.21,0,0,1,165.5,18.49ZM78.23,21.28a12.72,12.72,0,0,1,3.69,6.47,5.64,5.64,0,0,1-1.25,5.09l0,0a4.46,4.46,0,0,1-4.2,1.33,4.48,4.48,0,0,1-4.21-1.33l0,0a5.64,5.64,0,0,1-1.25-5.09,12.65,12.65,0,0,1,3.69-6.47,18.81,18.81,0,0,1,1.8-1.58A18.81,18.81,0,0,1,78.23,21.28ZM18.49,85a12.64,12.64,0,0,1,7.19,2,5.61,5.61,0,0,1,2.71,4.48v0a4.47,4.47,0,0,1-2,3.92,4.48,4.48,0,0,1-3.91,2h-.06a5.62,5.62,0,0,1-4.47-2.72,12.63,12.63,0,0,1-2-7.18,18,18,0,0,1,.16-2.39A18.21,18.21,0,0,1,18.49,85Zm2.79,87.27a12.72,12.72,0,0,1,6.47-3.69,5.64,5.64,0,0,1,5.09,1.25l0,0a4.46,4.46,0,0,1,1.33,4.2,4.48,4.48,0,0,1-1.33,4.21l0,0a5.61,5.61,0,0,1-5.09,1.25,12.65,12.65,0,0,1-6.47-3.69A18.81,18.81,0,0,1,19.7,174,18.81,18.81,0,0,1,21.28,172.23ZM85,232a12.64,12.64,0,0,1,2-7.19,5.61,5.61,0,0,1,4.48-2.71h0a4.47,4.47,0,0,1,3.92,2,4.48,4.48,0,0,1,2,3.91v.06a5.62,5.62,0,0,1-2.72,4.47,12.63,12.63,0,0,1-7.18,2,18,18,0,0,1-2.39-.16A18.21,18.21,0,0,1,85,232Zm87.27-2.79a12.72,12.72,0,0,1-3.69-6.47,5.64,5.64,0,0,1,1.25-5.09l0,0a4.46,4.46,0,0,1,4.2-1.33,4.48,4.48,0,0,1,4.21,1.33l0,0a5.61,5.61,0,0,1,1.25,5.09,12.65,12.65,0,0,1-3.69,6.47,18.81,18.81,0,0,1-1.8,1.58A18.81,18.81,0,0,1,172.23,229.18ZM232,165.5a12.64,12.64,0,0,1-7.19-2,5.61,5.61,0,0,1-2.71-4.48V159a7.3,7.3,0,0,1,5.94-5.95h.06a5.62,5.62,0,0,1,4.47,2.72,12.63,12.63,0,0,1,2,7.18,18,18,0,0,1-.16,2.39A18.21,18.21,0,0,1,232,165.5Zm-2.79-87.27a12.72,12.72,0,0,1-6.47,3.69,5.64,5.64,0,0,1-5.09-1.25l0,0a4.46,4.46,0,0,1-1.33-4.2,4.48,4.48,0,0,1,1.33-4.21l0,0a5.64,5.64,0,0,1,5.09-1.25,12.65,12.65,0,0,1,6.47,3.69,18.81,18.81,0,0,1,1.58,1.8A18.81,18.81,0,0,1,229.18,78.23ZM90.31,21.3a2.57,2.57,0,0,1,1.53-.5,2.23,2.23,0,0,1,1.13.29,1.24,1.24,0,0,1,.59.75l.55-.13a1.75,1.75,0,0,0-.84-1.11,2.75,2.75,0,0,0-1.43-.37,3.13,3.13,0,0,0-1.93.66,3.11,3.11,0,0,0-.67,1.94,2.74,2.74,0,0,0,.38,1.42,1.78,1.78,0,0,0,1.11.85l.13-.56a1.2,1.2,0,0,1-.75-.58,2.18,2.18,0,0,1-.29-1.13A2.6,2.6,0,0,1,90.31,21.3ZM27.05,76.43A2.56,2.56,0,0,1,27.78,75a2.29,2.29,0,0,1,1-.6,1.24,1.24,0,0,1,.95.12L30,74a1.79,1.79,0,0,0-1.39-.18,2.8,2.8,0,0,0-1.27.74,3.21,3.21,0,0,0-.9,1.84,3.24,3.24,0,0,0,.9,1.84,2.8,2.8,0,0,0,1.27.74A1.75,1.75,0,0,0,30,78.82l-.3-.48a1.24,1.24,0,0,1-.95.12,2.29,2.29,0,0,1-1-.6A2.56,2.56,0,0,1,27.05,76.43ZM21.3,160.15a2.57,2.57,0,0,1-.5-1.53,2.23,2.23,0,0,1,.29-1.13,1.24,1.24,0,0,1,.75-.59l-.13-.55a1.75,1.75,0,0,0-1.11.84,2.75,2.75,0,0,0-.37,1.43,3.13,3.13,0,0,0,.66,1.93,3.11,3.11,0,0,0,1.94.67,2.74,2.74,0,0,0,1.42-.38,1.78,1.78,0,0,0,.85-1.11l-.56-.13a1.2,1.2,0,0,1-.58.75,2.18,2.18,0,0,1-1.13.29A2.6,2.6,0,0,1,21.3,160.15Zm55.13,63.26a2.56,2.56,0,0,1-1.43-.73,2.29,2.29,0,0,1-.6-1,1.24,1.24,0,0,1,.12-1l-.49-.3a1.79,1.79,0,0,0-.18,1.39,2.8,2.8,0,0,0,.74,1.27,3.21,3.21,0,0,0,1.84.9,3.24,3.24,0,0,0,1.84-.9,2.8,2.8,0,0,0,.74-1.27,1.75,1.75,0,0,0-.19-1.39l-.48.3a1.24,1.24,0,0,1,.12,1,2.29,2.29,0,0,1-.6,1A2.56,2.56,0,0,1,76.43,223.41Zm83.72,5.75a2.57,2.57,0,0,1-1.53.5,2.23,2.23,0,0,1-1.13-.29,1.24,1.24,0,0,1-.59-.75l-.55.13a1.75,1.75,0,0,0,.84,1.11,2.75,2.75,0,0,0,1.43.37,2.33,2.33,0,0,0,2.6-2.6,2.74,2.74,0,0,0-.38-1.42,1.78,1.78,0,0,0-1.11-.85l-.13.56a1.2,1.2,0,0,1,.75.58,2.18,2.18,0,0,1,.29,1.13A2.6,2.6,0,0,1,160.15,229.16ZM223.41,174a2.56,2.56,0,0,1-.73,1.43,2.29,2.29,0,0,1-1,.6,1.24,1.24,0,0,1-1-.12l-.3.49a1.79,1.79,0,0,0,1.39.18,2.8,2.8,0,0,0,1.27-.74,2.33,2.33,0,0,0,0-3.68,2.8,2.8,0,0,0-1.27-.74,1.75,1.75,0,0,0-1.39.19l.3.48a1.24,1.24,0,0,1,1-.12,2.29,2.29,0,0,1,1,.6A2.56,2.56,0,0,1,223.41,174Zm5.75-83.72a2.57,2.57,0,0,1,.5,1.53,2.23,2.23,0,0,1-.29,1.13,1.24,1.24,0,0,1-.75.59l.13.55a1.75,1.75,0,0,0,1.11-.84,2.75,2.75,0,0,0,.37-1.43,2.33,2.33,0,0,0-2.6-2.6,2.74,2.74,0,0,0-1.42.38,1.78,1.78,0,0,0-.85,1.11l.56.13a1.2,1.2,0,0,1,.58-.75,2.18,2.18,0,0,1,1.13-.29A2.6,2.6,0,0,1,229.16,90.31ZM174,27.05a2.56,2.56,0,0,1,1.43.73,2.29,2.29,0,0,1,.6,1,1.24,1.24,0,0,1-.12.95l.49.3a1.79,1.79,0,0,0,.18-1.39,2.8,2.8,0,0,0-.74-1.27,2.33,2.33,0,0,0-3.68,0,2.8,2.8,0,0,0-.74,1.27,1.75,1.75,0,0,0,.19,1.39l.48-.3a1.24,1.24,0,0,1-.12-.95,2.29,2.29,0,0,1,.6-1A2.56,2.56,0,0,1,174,27.05Zm-13.39-4.22a2.18,2.18,0,0,1-.29,1.13,1.2,1.2,0,0,1-.75.58l.13.56a1.78,1.78,0,0,0,1.11-.85,2.74,2.74,0,0,0,.38-1.42,3.11,3.11,0,0,0-.67-1.94,3.13,3.13,0,0,0-1.93-.66,2.75,2.75,0,0,0-1.43.37,1.75,1.75,0,0,0-.84,1.11l.55.13a1.24,1.24,0,0,1,.59-.75,2.23,2.23,0,0,1,1.13-.29,2.57,2.57,0,0,1,1.53.5A2.6,2.6,0,0,1,160.64,22.83Zm-82.78,5a2.29,2.29,0,0,1,.6,1,1.24,1.24,0,0,1-.12.95l.48.3A1.75,1.75,0,0,0,79,28.64a2.8,2.8,0,0,0-.74-1.27,3.24,3.24,0,0,0-1.84-.9,3.21,3.21,0,0,0-1.84.9,2.8,2.8,0,0,0-.74,1.27A1.79,1.79,0,0,0,74,30l.49-.3a1.24,1.24,0,0,1-.12-.95,2.29,2.29,0,0,1,.6-1,2.56,2.56,0,0,1,1.43-.73A2.56,2.56,0,0,1,77.86,27.78Zm-55,62a2.18,2.18,0,0,1,1.13.29,1.2,1.2,0,0,1,.58.75l.56-.13a1.78,1.78,0,0,0-.85-1.11,2.74,2.74,0,0,0-1.42-.38,3.11,3.11,0,0,0-1.94.67,3.13,3.13,0,0,0-.66,1.93,2.75,2.75,0,0,0,.37,1.43,1.75,1.75,0,0,0,1.11.84l.13-.55a1.24,1.24,0,0,1-.75-.59,2.23,2.23,0,0,1-.29-1.13,2.57,2.57,0,0,1,.5-1.53A2.6,2.6,0,0,1,22.83,89.82Zm5,82.78a2.29,2.29,0,0,1,1-.6,1.24,1.24,0,0,1,.95.12l.3-.48a1.75,1.75,0,0,0-1.39-.19,2.8,2.8,0,0,0-1.27.74,2.33,2.33,0,0,0,0,3.68,2.8,2.8,0,0,0,1.27.74,1.79,1.79,0,0,0,1.39-.18l-.3-.49a1.24,1.24,0,0,1-.95.12,2.29,2.29,0,0,1-1-.6,1.77,1.77,0,0,1,0-2.86Zm62,55a2.18,2.18,0,0,1,.29-1.13,1.2,1.2,0,0,1,.75-.58l-.13-.56a1.78,1.78,0,0,0-1.11.85,2.74,2.74,0,0,0-.38,1.42,2.33,2.33,0,0,0,2.6,2.6,2.75,2.75,0,0,0,1.43-.37,1.75,1.75,0,0,0,.84-1.11l-.55-.13a1.24,1.24,0,0,1-.59.75,2.23,2.23,0,0,1-1.13.29,2.57,2.57,0,0,1-1.53-.5A2.6,2.6,0,0,1,89.82,227.63Zm82.78-4.95a2.29,2.29,0,0,1-.6-1,1.24,1.24,0,0,1,.12-1l-.48-.3a1.75,1.75,0,0,0-.19,1.39,2.8,2.8,0,0,0,.74,1.27,2.33,2.33,0,0,0,3.68,0,2.8,2.8,0,0,0,.74-1.27,1.79,1.79,0,0,0-.18-1.39l-.49.3a1.24,1.24,0,0,1,.12,1,2.29,2.29,0,0,1-.6,1,1.77,1.77,0,0,1-2.86,0Zm55-62a2.18,2.18,0,0,1-1.13-.29,1.2,1.2,0,0,1-.58-.75l-.56.13a1.78,1.78,0,0,0,.85,1.11,2.74,2.74,0,0,0,1.42.38,2.33,2.33,0,0,0,2.6-2.6,2.75,2.75,0,0,0-.37-1.43,1.75,1.75,0,0,0-1.11-.84l-.13.55a1.24,1.24,0,0,1,.75.59,2.23,2.23,0,0,1,.29,1.13,2.57,2.57,0,0,1-.5,1.53A2.6,2.6,0,0,1,227.63,160.64Zm-4.95-82.78a2.29,2.29,0,0,1-1,.6,1.24,1.24,0,0,1-1-.12l-.3.48a1.75,1.75,0,0,0,1.39.19,2.8,2.8,0,0,0,1.27-.74,3.24,3.24,0,0,0,.9-1.84,3.21,3.21,0,0,0-.9-1.84,2.8,2.8,0,0,0-1.27-.74,1.79,1.79,0,0,0-1.39.18l.3.49a1.24,1.24,0,0,1,1-.12,2.29,2.29,0,0,1,1,.6,2.56,2.56,0,0,1,.73,1.43A2.56,2.56,0,0,1,222.68,77.86ZM125.23,28.23a3.36,3.36,0,0,0-1.41-1.14,3.54,3.54,0,0,0-1.42-.31,2.88,2.88,0,0,0-3,2.72,2.18,2.18,0,0,0,.13.74l.54-.19a1.76,1.76,0,0,1-.09-.55A2,2,0,0,1,120.7,28a2.45,2.45,0,0,1,1.7-.68,2.87,2.87,0,0,1,1.19.27,2.66,2.66,0,0,1,1.64,2.23,2.66,2.66,0,0,1,1.64-2.23,2.87,2.87,0,0,1,1.19-.27,2.45,2.45,0,0,1,1.7.68,2,2,0,0,1,.67,1.47,1.76,1.76,0,0,1-.09.55l.54.19a2.18,2.18,0,0,0,.13-.74,2.88,2.88,0,0,0-2.95-2.72,3.54,3.54,0,0,0-1.42.31A3.36,3.36,0,0,0,125.23,28.23ZM56.64,56.64a3.34,3.34,0,0,0-1.8.19,3.66,3.66,0,0,0-1.22.78,2.89,2.89,0,0,0-.17,4,2.43,2.43,0,0,0,.61.44l.25-.52a1.6,1.6,0,0,1-.45-.32,2.08,2.08,0,0,1-.57-1.52A2.49,2.49,0,0,1,54,58a3.1,3.1,0,0,1,1-.66,2.67,2.67,0,0,1,2.74.43,2.67,2.67,0,0,1-.43-2.74A3.1,3.1,0,0,1,58,54a2.49,2.49,0,0,1,1.68-.73,2.08,2.08,0,0,1,1.52.57,1.6,1.6,0,0,1,.32.45l.52-.25a2.43,2.43,0,0,0-.44-.61,2.89,2.89,0,0,0-4,.17,3.66,3.66,0,0,0-.78,1.22A3.34,3.34,0,0,0,56.64,56.64ZM28.23,125.23a3.36,3.36,0,0,0-1.14,1.41,3.54,3.54,0,0,0-.31,1.42A2.88,2.88,0,0,0,29.5,131a2.18,2.18,0,0,0,.74-.13l-.19-.54a1.76,1.76,0,0,1-.55.09,2,2,0,0,1-1.47-.67,2.45,2.45,0,0,1-.68-1.7,2.87,2.87,0,0,1,.27-1.19,2.66,2.66,0,0,1,2.23-1.64,2.66,2.66,0,0,1-2.23-1.64,2.87,2.87,0,0,1-.27-1.19,2.45,2.45,0,0,1,.68-1.7A2,2,0,0,1,29.5,120a1.76,1.76,0,0,1,.55.09l.19-.54a2.18,2.18,0,0,0-.74-.13,2.88,2.88,0,0,0-2.72,3,3.54,3.54,0,0,0,.31,1.42A3.36,3.36,0,0,0,28.23,125.23Zm28.41,68.59a3.34,3.34,0,0,0,.19,1.8,3.66,3.66,0,0,0,.78,1.22,2.89,2.89,0,0,0,4,.17,2.43,2.43,0,0,0,.44-.61l-.52-.25a1.6,1.6,0,0,1-.32.45,2.08,2.08,0,0,1-1.52.57,2.49,2.49,0,0,1-1.68-.73,3.1,3.1,0,0,1-.66-1,2.67,2.67,0,0,1,.43-2.74,2.67,2.67,0,0,1-2.74.43,3.1,3.1,0,0,1-1-.66,2.49,2.49,0,0,1-.73-1.68,2.08,2.08,0,0,1,.57-1.52,1.6,1.6,0,0,1,.45-.32l-.25-.52a2.43,2.43,0,0,0-.61.44,2.89,2.89,0,0,0,.17,4,3.51,3.51,0,0,0,1.22.78A3.34,3.34,0,0,0,56.64,193.82Zm68.59,28.41a3.36,3.36,0,0,0,1.41,1.14,3.54,3.54,0,0,0,1.42.31A2.88,2.88,0,0,0,131,221a2.18,2.18,0,0,0-.13-.74l-.54.19a1.76,1.76,0,0,1,.09.55,2,2,0,0,1-.67,1.47,2.45,2.45,0,0,1-1.7.68,2.87,2.87,0,0,1-1.19-.27,2.66,2.66,0,0,1-1.64-2.23,2.66,2.66,0,0,1-1.64,2.23,2.87,2.87,0,0,1-1.19.27,2.45,2.45,0,0,1-1.7-.68A2,2,0,0,1,120,221a1.76,1.76,0,0,1,.09-.55l-.54-.19a2.18,2.18,0,0,0-.13.74,2.88,2.88,0,0,0,3,2.72,3.54,3.54,0,0,0,1.42-.31A3.36,3.36,0,0,0,125.23,222.23Zm68.59-28.41a3.34,3.34,0,0,0,1.8-.19,3.51,3.51,0,0,0,1.22-.78,2.89,2.89,0,0,0,.17-4,2.43,2.43,0,0,0-.61-.44l-.25.52a1.6,1.6,0,0,1,.45.32,2.08,2.08,0,0,1,.57,1.52,2.49,2.49,0,0,1-.73,1.68,3.1,3.1,0,0,1-1,.66,2.67,2.67,0,0,1-2.74-.43,2.67,2.67,0,0,1,.43,2.74,3.1,3.1,0,0,1-.66,1,2.49,2.49,0,0,1-1.68.73,2.08,2.08,0,0,1-1.52-.57,1.6,1.6,0,0,1-.32-.45l-.52.25a2.43,2.43,0,0,0,.44.61,2.89,2.89,0,0,0,4-.17,3.51,3.51,0,0,0,.78-1.22A3.34,3.34,0,0,0,193.82,193.82Zm28.41-68.59a3.36,3.36,0,0,0,1.14-1.41,3.54,3.54,0,0,0,.31-1.42,2.88,2.88,0,0,0-2.72-3,2.18,2.18,0,0,0-.74.13l.19.54A1.76,1.76,0,0,1,221,120a2,2,0,0,1,1.47.67,2.45,2.45,0,0,1,.68,1.7,2.87,2.87,0,0,1-.27,1.19,2.66,2.66,0,0,1-2.23,1.64,2.66,2.66,0,0,1,2.23,1.64,2.87,2.87,0,0,1,.27,1.19,2.45,2.45,0,0,1-.68,1.7,2,2,0,0,1-1.47.67,1.76,1.76,0,0,1-.55-.09l-.19.54a2.18,2.18,0,0,0,.74.13,2.88,2.88,0,0,0,2.72-2.95,3.54,3.54,0,0,0-.31-1.42A3.36,3.36,0,0,0,222.23,125.23ZM193.82,56.64a3.34,3.34,0,0,0-.19-1.8,3.51,3.51,0,0,0-.78-1.22,2.89,2.89,0,0,0-4-.17,2.43,2.43,0,0,0-.44.61l.52.25a1.6,1.6,0,0,1,.32-.45,2.08,2.08,0,0,1,1.52-.57,2.49,2.49,0,0,1,1.68.73,3.1,3.1,0,0,1,.66,1,2.67,2.67,0,0,1-.43,2.74,2.67,2.67,0,0,1,2.74-.43,3.1,3.1,0,0,1,1,.66,2.49,2.49,0,0,1,.73,1.68,2.08,2.08,0,0,1-.57,1.52,1.6,1.6,0,0,1-.45.32l.25.52a2.43,2.43,0,0,0,.61-.44,2.89,2.89,0,0,0-.17-4,3.66,3.66,0,0,0-1.22-.78A3.34,3.34,0,0,0,193.82,56.64ZM125.23,30.45a3.35,3.35,0,0,1-2.55,2.89,4.16,4.16,0,0,1-1.13.16,3.67,3.67,0,0,1-3.65-3.9,6.64,6.64,0,0,1,.64-2.7c1.08-2.36,3.46-4.43,6.69-6,3.23,1.59,5.61,3.66,6.69,6a6.64,6.64,0,0,1,.64,2.7,3.67,3.67,0,0,1-3.65,3.9,4.16,4.16,0,0,1-1.13-.16A3.35,3.35,0,0,1,125.23,30.45Zm-67,27.76a3.34,3.34,0,0,1,.24,3.85,4.59,4.59,0,0,1-.68.91,3.66,3.66,0,0,1-5.34-.18A6.57,6.57,0,0,1,51,60.43c-.9-2.43-.69-5.58.47-9,3.41-1.16,6.56-1.37,9-.47a6.57,6.57,0,0,1,2.36,1.46A3.66,3.66,0,0,1,63,57.77a4.59,4.59,0,0,1-.91.68A3.34,3.34,0,0,1,58.21,58.21Zm-27.76,67a3.35,3.35,0,0,1,2.89,2.55,4.16,4.16,0,0,1,.16,1.13,3.67,3.67,0,0,1-3.9,3.65,6.64,6.64,0,0,1-2.7-.64c-2.36-1.08-4.43-3.46-6-6.69,1.59-3.23,3.66-5.61,6-6.69a6.64,6.64,0,0,1,2.7-.64,3.67,3.67,0,0,1,3.9,3.65,4.11,4.11,0,0,1-.16,1.13A3.35,3.35,0,0,1,30.45,125.23Zm27.76,67a3.34,3.34,0,0,1,3.85-.24,4.59,4.59,0,0,1,.91.68,3.66,3.66,0,0,1-.18,5.34,6.57,6.57,0,0,1-2.36,1.46c-2.43.9-5.58.69-9-.47-1.16-3.41-1.37-6.56-.47-9a6.57,6.57,0,0,1,1.46-2.36,3.66,3.66,0,0,1,5.34-.18,4.59,4.59,0,0,1,.68.91A3.34,3.34,0,0,1,58.21,192.25Zm67,27.76a3.35,3.35,0,0,1,2.55-2.89,4.16,4.16,0,0,1,1.13-.16,3.67,3.67,0,0,1,3.65,3.9,6.64,6.64,0,0,1-.64,2.7c-1.08,2.36-3.46,4.43-6.69,6-3.23-1.59-5.61-3.66-6.69-6a6.64,6.64,0,0,1-.64-2.7,3.67,3.67,0,0,1,3.65-3.9,4.16,4.16,0,0,1,1.13.16A3.35,3.35,0,0,1,125.23,220Zm67-27.76a3.34,3.34,0,0,1-.24-3.85,4.59,4.59,0,0,1,.68-.91,3.66,3.66,0,0,1,5.34.18,6.57,6.57,0,0,1,1.46,2.36c.9,2.43.69,5.58-.47,9-3.41,1.16-6.56,1.37-9,.47a6.57,6.57,0,0,1-2.36-1.46,3.66,3.66,0,0,1-.18-5.34,4.59,4.59,0,0,1,.91-.68A3.34,3.34,0,0,1,192.25,192.25Zm27.76-67a3.35,3.35,0,0,1-2.89-2.55,4.11,4.11,0,0,1-.16-1.13,3.67,3.67,0,0,1,3.9-3.65,6.64,6.64,0,0,1,2.7.64c2.36,1.08,4.43,3.46,6,6.69-1.59,3.23-3.66,5.61-6,6.69a6.64,6.64,0,0,1-2.7.64,3.67,3.67,0,0,1-3.9-3.65,4.16,4.16,0,0,1,.16-1.13A3.35,3.35,0,0,1,220,125.23Zm-27.76-67a3.34,3.34,0,0,1-3.85.24,4.59,4.59,0,0,1-.91-.68,3.66,3.66,0,0,1,.18-5.34A6.57,6.57,0,0,1,190,51c2.43-.9,5.58-.69,9,.47,1.16,3.41,1.37,6.56.47,9A6.57,6.57,0,0,1,198,62.79a3.66,3.66,0,0,1-5.34.18,4.59,4.59,0,0,1-.68-.91A3.34,3.34,0,0,1,192.25,58.21Zm-67-44.36a137.86,137.86,0,0,0-21.72,3.26h0a9.86,9.86,0,0,0-3.46,1.58,6.74,6.74,0,0,0-2.19,2.64A6.64,6.64,0,0,0,95,17.44a13.27,13.27,0,0,0-7.51-2.07,20,20,0,0,0-2.73.2l-.17,0c0,.05,0,.11,0,.16a18.68,18.68,0,0,0-.2,2.73A13.25,13.25,0,0,0,86.46,26a6.54,6.54,0,0,0,3.89,2.84A6.74,6.74,0,0,0,87.71,31a8.63,8.63,0,0,0-.88,1.48,9.08,9.08,0,0,0-1.67-.42,6.78,6.78,0,0,0-3.42.32,6.59,6.59,0,0,0,.74-4.76,13.22,13.22,0,0,0-3.85-6.78,18.46,18.46,0,0,0-2.07-1.78l-.13-.1-.14.1a20.44,20.44,0,0,0-2.07,1.78,13.26,13.26,0,0,0-3.84,6.78,6.59,6.59,0,0,0,.74,4.76,6.78,6.78,0,0,0-3.42-.32,9.68,9.68,0,0,0-3.56,1.33h0A139.54,139.54,0,0,0,46.47,46.47,139.54,139.54,0,0,0,33.41,64.14h0a9.68,9.68,0,0,0-1.33,3.56,6.78,6.78,0,0,0,.32,3.42,6.59,6.59,0,0,0-4.76-.74,13.26,13.26,0,0,0-6.78,3.84,20.44,20.44,0,0,0-1.78,2.07l-.1.14a1.13,1.13,0,0,0,.1.13,18.46,18.46,0,0,0,1.78,2.07,13.22,13.22,0,0,0,6.78,3.85,6.59,6.59,0,0,0,4.76-.74,6.78,6.78,0,0,0-.32,3.42,9.08,9.08,0,0,0,.42,1.67,8.63,8.63,0,0,0-1.48.88,6.74,6.74,0,0,0-2.19,2.64A6.54,6.54,0,0,0,26,86.46a13.25,13.25,0,0,0-7.51-2.07,18.68,18.68,0,0,0-2.73.2l-.16,0,0,.17a20,20,0,0,0-.2,2.73A13.27,13.27,0,0,0,17.44,95a6.64,6.64,0,0,0,3.89,2.84,6.74,6.74,0,0,0-2.64,2.19,9.86,9.86,0,0,0-1.58,3.46h0a137.86,137.86,0,0,0-3.26,21.72A137.86,137.86,0,0,0,17.11,147h0a9.86,9.86,0,0,0,1.58,3.46,6.74,6.74,0,0,0,2.64,2.19,6.64,6.64,0,0,0-3.89,2.84A13.27,13.27,0,0,0,15.37,163a20,20,0,0,0,.2,2.73l0,.17.16,0a18.68,18.68,0,0,0,2.73.2A13.25,13.25,0,0,0,26,164a6.54,6.54,0,0,0,2.84-3.89A6.74,6.74,0,0,0,31,162.75a8.63,8.63,0,0,0,1.48.88,9.08,9.08,0,0,0-.42,1.67,6.78,6.78,0,0,0,.32,3.42,6.59,6.59,0,0,0-4.76-.74,13.22,13.22,0,0,0-6.78,3.85,18.46,18.46,0,0,0-1.78,2.07,1.13,1.13,0,0,0-.1.13l.1.14a20.44,20.44,0,0,0,1.78,2.07,13.26,13.26,0,0,0,6.78,3.84,6.59,6.59,0,0,0,4.76-.74,6.78,6.78,0,0,0-.32,3.42,9.68,9.68,0,0,0,1.33,3.56h0A139.54,139.54,0,0,0,46.47,204a139.54,139.54,0,0,0,17.67,13.06h0a9.68,9.68,0,0,0,3.56,1.33,6.78,6.78,0,0,0,3.42-.32,6.59,6.59,0,0,0-.74,4.76,13.26,13.26,0,0,0,3.84,6.78,20.44,20.44,0,0,0,2.07,1.78l.14.1.13-.1a18.46,18.46,0,0,0,2.07-1.78,13.22,13.22,0,0,0,3.85-6.78,6.59,6.59,0,0,0-.74-4.76,6.78,6.78,0,0,0,3.42.32,9.08,9.08,0,0,0,1.67-.42,8.63,8.63,0,0,0,.88,1.48,6.74,6.74,0,0,0,2.64,2.19,6.54,6.54,0,0,0-3.89,2.84A13.25,13.25,0,0,0,84.39,232a18.68,18.68,0,0,0,.2,2.73c0,.05,0,.11,0,.16l.17,0a20,20,0,0,0,2.73.2A13.27,13.27,0,0,0,95,233a6.64,6.64,0,0,0,2.84-3.89,6.74,6.74,0,0,0,2.19,2.64,9.86,9.86,0,0,0,3.46,1.58h0a136.49,136.49,0,0,0,21.72,3.26A136.49,136.49,0,0,0,147,233.35h0a9.86,9.86,0,0,0,3.46-1.58,6.74,6.74,0,0,0,2.19-2.64,6.64,6.64,0,0,0,2.84,3.89,13.27,13.27,0,0,0,7.51,2.07,20,20,0,0,0,2.73-.2l.17,0a.88.88,0,0,0,0-.16,18.68,18.68,0,0,0,.2-2.73,13.25,13.25,0,0,0-2.07-7.51,6.54,6.54,0,0,0-3.89-2.84,6.74,6.74,0,0,0,2.64-2.19,8.63,8.63,0,0,0,.88-1.48,9.08,9.08,0,0,0,1.67.42,6.78,6.78,0,0,0,3.42-.32,6.59,6.59,0,0,0-.74,4.76,13.22,13.22,0,0,0,3.85,6.78,18.46,18.46,0,0,0,2.07,1.78l.13.1.14-.1a20.44,20.44,0,0,0,2.07-1.78,13.26,13.26,0,0,0,3.84-6.78,6.59,6.59,0,0,0-.74-4.76,6.78,6.78,0,0,0,3.42.32,9.68,9.68,0,0,0,3.56-1.33h0A139.54,139.54,0,0,0,204,204a139.54,139.54,0,0,0,13.06-17.67h0a9.68,9.68,0,0,0,1.33-3.56,6.78,6.78,0,0,0-.32-3.42,6.59,6.59,0,0,0,4.76.74,13.26,13.26,0,0,0,6.78-3.84,20.44,20.44,0,0,0,1.78-2.07l.1-.14a1.13,1.13,0,0,0-.1-.13,18.46,18.46,0,0,0-1.78-2.07,13.22,13.22,0,0,0-6.78-3.85,6.59,6.59,0,0,0-4.76.74,6.78,6.78,0,0,0,.32-3.42,9.08,9.08,0,0,0-.42-1.67,8.63,8.63,0,0,0,1.48-.88,6.74,6.74,0,0,0,2.19-2.64,6.54,6.54,0,0,0,2.84,3.89,13.25,13.25,0,0,0,7.51,2.07,18.68,18.68,0,0,0,2.73-.2l.16,0,0-.17a20,20,0,0,0,.2-2.73,13.27,13.27,0,0,0-2.07-7.51,6.64,6.64,0,0,0-3.89-2.84,6.74,6.74,0,0,0,2.64-2.19,9.86,9.86,0,0,0,1.58-3.46h0a136.49,136.49,0,0,0,3.26-21.72,136.49,136.49,0,0,0-3.26-21.72h0a9.86,9.86,0,0,0-1.58-3.46,6.74,6.74,0,0,0-2.64-2.19A6.64,6.64,0,0,0,233,95a13.27,13.27,0,0,0,2.07-7.51,20,20,0,0,0-.2-2.73l0-.17-.16,0a18.68,18.68,0,0,0-2.73-.2,13.25,13.25,0,0,0-7.51,2.07,6.54,6.54,0,0,0-2.84,3.89,6.74,6.74,0,0,0-2.19-2.64,8.63,8.63,0,0,0-1.48-.88,9.08,9.08,0,0,0,.42-1.67,6.78,6.78,0,0,0-.32-3.42,6.59,6.59,0,0,0,4.76.74,13.22,13.22,0,0,0,6.78-3.85,18.46,18.46,0,0,0,1.78-2.07,1.13,1.13,0,0,0,.1-.13l-.1-.14a20.44,20.44,0,0,0-1.78-2.07,13.26,13.26,0,0,0-6.78-3.84,6.59,6.59,0,0,0-4.76.74,6.78,6.78,0,0,0,.32-3.42A9.68,9.68,0,0,0,217,64.14h0A139.54,139.54,0,0,0,204,46.47a139.54,139.54,0,0,0-17.67-13.06h0a9.68,9.68,0,0,0-3.56-1.33,6.78,6.78,0,0,0-3.42.32,6.59,6.59,0,0,0,.74-4.76,13.26,13.26,0,0,0-3.84-6.78,20.44,20.44,0,0,0-2.07-1.78L174,19l-.13.1a18.46,18.46,0,0,0-2.07,1.78A13.22,13.22,0,0,0,168,27.65a6.59,6.59,0,0,0,.74,4.76,6.78,6.78,0,0,0-3.42-.32,9.08,9.08,0,0,0-1.67.42,8.63,8.63,0,0,0-.88-1.48,6.74,6.74,0,0,0-2.64-2.19A6.54,6.54,0,0,0,164,26a13.25,13.25,0,0,0,2.07-7.51,18.68,18.68,0,0,0-.2-2.73.88.88,0,0,0,0-.16l-.17,0a20,20,0,0,0-2.73-.2,13.27,13.27,0,0,0-7.51,2.07,6.64,6.64,0,0,0-2.84,3.89,6.74,6.74,0,0,0-2.19-2.64A9.86,9.86,0,0,0,147,17.11h0A137.86,137.86,0,0,0,125.23,13.85ZM94.28,50.51a8.18,8.18,0,0,1,1.64-1,6.48,6.48,0,0,1,2.7-.64,3.65,3.65,0,0,1,3.89,3.65,4.43,4.43,0,0,1-.15,1.12,3.35,3.35,0,0,1-3.2,2.57,2.68,2.68,0,0,1-2.53-1.65,3,3,0,0,1-.26-1.19,2.45,2.45,0,0,1,.67-1.7A2.07,2.07,0,0,1,98.51,51a1.71,1.71,0,0,1,.55.09l.19-.54a2.34,2.34,0,0,0-.74-.12,2.88,2.88,0,0,0-2.71,3,3.44,3.44,0,0,0,.31,1.42,3.26,3.26,0,0,0,3,2,3.91,3.91,0,0,0,3.75-3,4.75,4.75,0,0,0,.18-1.27,4.1,4.1,0,0,0-1.24-3,4.57,4.57,0,0,0-3.23-1.24c-.23,0-.46,0-.7,0,3.13-1.72,5-5.57,5-10A16.28,16.28,0,0,0,102,33a16.33,16.33,0,0,0,5.39.94c4.4,0,8.25-1.91,10-5a5.32,5.32,0,0,0,0,.69,4.55,4.55,0,0,0,1.23,3.23,4.14,4.14,0,0,0,3,1.24,5.18,5.18,0,0,0,1.28-.17,4.07,4.07,0,0,0,2.4-1.74,4.07,4.07,0,0,0,2.4,1.74,5.18,5.18,0,0,0,1.28.17,4.14,4.14,0,0,0,3-1.24,4.55,4.55,0,0,0,1.23-3.23,5.32,5.32,0,0,0,0-.69c1.72,3.12,5.57,5,10,5a16.28,16.28,0,0,0,5.39-.94,16.28,16.28,0,0,0-.94,5.39c0,4.39,1.9,8.24,5,10-.24,0-.47,0-.7,0a4.57,4.57,0,0,0-3.23,1.24,4.1,4.1,0,0,0-1.24,3,4.75,4.75,0,0,0,.18,1.27,3.91,3.91,0,0,0,3.75,3,3.26,3.26,0,0,0,3-2,3.44,3.44,0,0,0,.31-1.42,2.88,2.88,0,0,0-2.71-3,2.34,2.34,0,0,0-.74.12l.19.54A1.71,1.71,0,0,1,152,51a2.07,2.07,0,0,1,1.47.68,2.45,2.45,0,0,1,.67,1.7,3,3,0,0,1-.26,1.19,2.68,2.68,0,0,1-2.53,1.65,3.35,3.35,0,0,1-3.2-2.57,4.43,4.43,0,0,1-.15-1.12,3.65,3.65,0,0,1,3.89-3.65,6.48,6.48,0,0,1,2.7.64,8.18,8.18,0,0,1,1.64,1A9.11,9.11,0,0,1,158,51a6.57,6.57,0,0,1,2.36,1.46,3.66,3.66,0,0,1,.18,5.34,4.59,4.59,0,0,1-.91.68,3.34,3.34,0,0,1-4.07-.44,2.68,2.68,0,0,1-.62-3,2.93,2.93,0,0,1,.65-1,2.53,2.53,0,0,1,1.68-.73,2.08,2.08,0,0,1,1.52.57,1.6,1.6,0,0,1,.32.45l.52-.25a2.21,2.21,0,0,0-.44-.61,2.87,2.87,0,0,0-4,.17,3.68,3.68,0,0,0-.79,1.22,3.27,3.27,0,0,0,.75,3.57A3.92,3.92,0,0,0,160,59a4.74,4.74,0,0,0,1-.78,4.08,4.08,0,0,0,1.24-3A4.55,4.55,0,0,0,160.8,52a5.87,5.87,0,0,0-.52-.46c3.43,1,7.49-.38,10.6-3.49A16.07,16.07,0,0,0,174,43.59a16.28,16.28,0,0,0,3.15,4.48c3.11,3.11,7.18,4.48,10.6,3.49-.18.15-.36.3-.52.46a4.59,4.59,0,0,0-1.41,3.16,4.08,4.08,0,0,0,1.24,3,4.81,4.81,0,0,0,1,.78,4.07,4.07,0,0,0,2.92.47,4.07,4.07,0,0,0,.47,2.92,4.81,4.81,0,0,0,.78,1,4.08,4.08,0,0,0,3,1.24,4.59,4.59,0,0,0,3.16-1.41c.16-.16.31-.34.46-.52-1,3.42.38,7.49,3.49,10.6a16.28,16.28,0,0,0,4.48,3.15,16.28,16.28,0,0,0-4.48,3.15c-3.11,3.11-4.48,7.17-3.49,10.6a5.87,5.87,0,0,0-.46-.52,4.55,4.55,0,0,0-3.16-1.41,4.08,4.08,0,0,0-3,1.24,4.74,4.74,0,0,0-.78,1,3.92,3.92,0,0,0,.54,4.77,3.27,3.27,0,0,0,3.57.75,3.68,3.68,0,0,0,1.22-.79,2.87,2.87,0,0,0,.17-4,2.21,2.21,0,0,0-.61-.44l-.25.52a1.6,1.6,0,0,1,.45.32,2.08,2.08,0,0,1,.57,1.52,2.53,2.53,0,0,1-.73,1.68,2.93,2.93,0,0,1-1,.65,2.68,2.68,0,0,1-3-.62A3.34,3.34,0,0,1,192,90.8a4.59,4.59,0,0,1,.68-.91,3.66,3.66,0,0,1,5.34.18,6.57,6.57,0,0,1,1.46,2.36,9.11,9.11,0,0,1,.46,1.85,8.18,8.18,0,0,1,1,1.64,6.48,6.48,0,0,1,.64,2.7,3.65,3.65,0,0,1-3.65,3.89,4.43,4.43,0,0,1-1.12-.15,3.35,3.35,0,0,1-2.57-3.2,2.68,2.68,0,0,1,1.65-2.53,3,3,0,0,1,1.19-.26,2.49,2.49,0,0,1,1.71.67,2.09,2.09,0,0,1,.67,1.47,1.71,1.71,0,0,1-.09.55l.54.19a2.34,2.34,0,0,0,.12-.74,2.88,2.88,0,0,0-3-2.71,3.44,3.44,0,0,0-1.42.31,3.26,3.26,0,0,0-2,3,3.91,3.91,0,0,0,3,3.75,4.75,4.75,0,0,0,1.27.18,4.1,4.1,0,0,0,3-1.24,4.57,4.57,0,0,0,1.24-3.23c0-.23,0-.46,0-.7,1.72,3.13,5.57,5,10,5a16.28,16.28,0,0,0,5.39-.94,16.33,16.33,0,0,0-.94,5.39c0,4.4,1.91,8.25,5,10a5.32,5.32,0,0,0-.69,0,4.55,4.55,0,0,0-3.23,1.23,4.14,4.14,0,0,0-1.24,3,5.18,5.18,0,0,0,.17,1.28,4.07,4.07,0,0,0,1.74,2.4,4.07,4.07,0,0,0-1.74,2.4,5.18,5.18,0,0,0-.17,1.28,4.14,4.14,0,0,0,1.24,3,4.55,4.55,0,0,0,3.23,1.23,5.32,5.32,0,0,0,.69,0c-3.12,1.72-5,5.57-5,10a16.28,16.28,0,0,0,.94,5.39,16.28,16.28,0,0,0-5.39-.94c-4.39,0-8.24,1.9-10,5,0-.24,0-.47,0-.7a4.57,4.57,0,0,0-1.24-3.23,4.1,4.1,0,0,0-3-1.24,4.75,4.75,0,0,0-1.27.18,3.91,3.91,0,0,0-3,3.75,3.26,3.26,0,0,0,2,3,3.44,3.44,0,0,0,1.42.31,2.88,2.88,0,0,0,3-2.71,2.34,2.34,0,0,0-.12-.74l-.54.19a1.71,1.71,0,0,1,.09.55,2.09,2.09,0,0,1-.67,1.47,2.49,2.49,0,0,1-1.71.67,3,3,0,0,1-1.19-.26,2.68,2.68,0,0,1-1.65-2.53,3.35,3.35,0,0,1,2.57-3.2,4.43,4.43,0,0,1,1.12-.15,3.65,3.65,0,0,1,3.65,3.89,6.48,6.48,0,0,1-.64,2.7,8.18,8.18,0,0,1-1,1.64,9.11,9.11,0,0,1-.46,1.85,6.57,6.57,0,0,1-1.46,2.36,3.66,3.66,0,0,1-5.34.18,4.59,4.59,0,0,1-.68-.91,3.34,3.34,0,0,1,.44-4.07,2.68,2.68,0,0,1,3-.62,2.93,2.93,0,0,1,1,.65,2.53,2.53,0,0,1,.73,1.68,2.08,2.08,0,0,1-.57,1.52,1.6,1.6,0,0,1-.45.32l.25.52a2.21,2.21,0,0,0,.61-.44,2.87,2.87,0,0,0-.17-4,3.68,3.68,0,0,0-1.22-.79,3.27,3.27,0,0,0-3.57.75,3.92,3.92,0,0,0-.54,4.77,4.74,4.74,0,0,0,.78,1,4.08,4.08,0,0,0,3,1.24,4.55,4.55,0,0,0,3.16-1.41,5.87,5.87,0,0,0,.46-.52c-1,3.43.38,7.49,3.49,10.6a16.07,16.07,0,0,0,4.48,3.15,16.28,16.28,0,0,0-4.48,3.15c-3.11,3.11-4.48,7.18-3.49,10.6-.15-.18-.3-.36-.46-.52a4.59,4.59,0,0,0-3.16-1.41,4.08,4.08,0,0,0-3,1.24,4.81,4.81,0,0,0-.78,1A4.07,4.07,0,0,0,191,191a4.07,4.07,0,0,0-2.92.47,4.81,4.81,0,0,0-1,.78,4.08,4.08,0,0,0-1.24,3,4.59,4.59,0,0,0,1.41,3.16c.16.16.34.31.52.46-3.42-1-7.49.38-10.6,3.49a16.28,16.28,0,0,0-3.15,4.48,16.07,16.07,0,0,0-3.15-4.48c-3.11-3.11-7.17-4.48-10.6-3.49a5.87,5.87,0,0,0,.52-.46,4.55,4.55,0,0,0,1.41-3.16,4.08,4.08,0,0,0-1.24-3,4.74,4.74,0,0,0-1-.78,3.92,3.92,0,0,0-4.77.54,3.27,3.27,0,0,0-.75,3.57,3.68,3.68,0,0,0,.79,1.22,2.87,2.87,0,0,0,4,.17,2.21,2.21,0,0,0,.44-.61l-.52-.25a1.6,1.6,0,0,1-.32.45,2.08,2.08,0,0,1-1.52.57,2.53,2.53,0,0,1-1.68-.73,2.93,2.93,0,0,1-.65-1,2.68,2.68,0,0,1,.62-3,3.34,3.34,0,0,1,4.07-.44,4.59,4.59,0,0,1,.91.68,3.66,3.66,0,0,1-.18,5.34,6.57,6.57,0,0,1-2.36,1.46,9.11,9.11,0,0,1-1.85.46,8.18,8.18,0,0,1-1.64,1,6.48,6.48,0,0,1-2.7.64,3.65,3.65,0,0,1-3.89-3.65,4.43,4.43,0,0,1,.15-1.12,3.35,3.35,0,0,1,3.2-2.57,2.68,2.68,0,0,1,2.53,1.65,3,3,0,0,1,.26,1.19,2.49,2.49,0,0,1-.67,1.71,2.09,2.09,0,0,1-1.47.67,1.71,1.71,0,0,1-.55-.09l-.19.54a2.34,2.34,0,0,0,.74.12,2.88,2.88,0,0,0,2.71-3,3.44,3.44,0,0,0-.31-1.42,3.26,3.26,0,0,0-3-2,3.91,3.91,0,0,0-3.75,3,4.75,4.75,0,0,0-.18,1.27,4.1,4.1,0,0,0,1.24,3,4.57,4.57,0,0,0,3.23,1.24c.23,0,.46,0,.7,0-3.13,1.72-5,5.57-5,10a16.28,16.28,0,0,0,.94,5.39,16.28,16.28,0,0,0-5.39-.94c-4.4,0-8.25,1.91-10,5a5.32,5.32,0,0,0,0-.69,4.55,4.55,0,0,0-1.23-3.23,4.14,4.14,0,0,0-3-1.24,5.18,5.18,0,0,0-1.28.17,4.07,4.07,0,0,0-2.4,1.74,4.07,4.07,0,0,0-2.4-1.74,5.18,5.18,0,0,0-1.28-.17,4.14,4.14,0,0,0-3,1.24,4.55,4.55,0,0,0-1.23,3.23,5.32,5.32,0,0,0,0,.69c-1.72-3.12-5.57-5-10-5a16.33,16.33,0,0,0-5.39.94,16.28,16.28,0,0,0,.94-5.39c0-4.39-1.9-8.24-5-10,.24,0,.47,0,.7,0a4.57,4.57,0,0,0,3.23-1.24,4.1,4.1,0,0,0,1.24-3,4.75,4.75,0,0,0-.18-1.27,3.91,3.91,0,0,0-3.75-3,3.26,3.26,0,0,0-3,2,3.44,3.44,0,0,0-.31,1.42,2.88,2.88,0,0,0,2.71,3,2.34,2.34,0,0,0,.74-.12l-.19-.54a1.71,1.71,0,0,1-.55.09,2.09,2.09,0,0,1-1.47-.67,2.49,2.49,0,0,1-.67-1.71,3,3,0,0,1,.26-1.19,2.68,2.68,0,0,1,2.53-1.65,3.35,3.35,0,0,1,3.2,2.57,4.43,4.43,0,0,1,.15,1.12,3.65,3.65,0,0,1-3.89,3.65,6.48,6.48,0,0,1-2.7-.64,8.18,8.18,0,0,1-1.64-1,9.11,9.11,0,0,1-1.85-.46A6.57,6.57,0,0,1,90.07,198a3.66,3.66,0,0,1-.18-5.34,4.59,4.59,0,0,1,.91-.68,3.34,3.34,0,0,1,4.07.44,2.68,2.68,0,0,1,.62,3,2.93,2.93,0,0,1-.65,1,2.53,2.53,0,0,1-1.68.73,2.08,2.08,0,0,1-1.52-.57,1.6,1.6,0,0,1-.32-.45l-.52.25a2.21,2.21,0,0,0,.44.61,2.87,2.87,0,0,0,4-.17,3.68,3.68,0,0,0,.79-1.22,3.27,3.27,0,0,0-.75-3.57,3.92,3.92,0,0,0-4.77-.54,4.74,4.74,0,0,0-1,.78,4.08,4.08,0,0,0-1.24,3,4.55,4.55,0,0,0,1.41,3.16,5.87,5.87,0,0,0,.52.46c-3.43-1-7.49.38-10.6,3.49a16.28,16.28,0,0,0-3.15,4.48,16.28,16.28,0,0,0-3.15-4.48c-3.11-3.11-7.18-4.48-10.6-3.49.18-.15.36-.3.52-.46a4.59,4.59,0,0,0,1.41-3.16,4.08,4.08,0,0,0-1.24-3,4.81,4.81,0,0,0-1-.78,4.07,4.07,0,0,0-2.92-.47,4.07,4.07,0,0,0-.47-2.92,4.81,4.81,0,0,0-.78-1,4.08,4.08,0,0,0-3-1.24A4.59,4.59,0,0,0,52,187.26c-.16.16-.31.34-.46.52,1-3.42-.38-7.49-3.49-10.6A16.28,16.28,0,0,0,43.59,174a16.07,16.07,0,0,0,4.48-3.15c3.11-3.11,4.48-7.17,3.49-10.6a5.87,5.87,0,0,0,.46.52,4.55,4.55,0,0,0,3.16,1.41,4.08,4.08,0,0,0,3-1.24,4.74,4.74,0,0,0,.78-1,3.92,3.92,0,0,0-.54-4.77,3.27,3.27,0,0,0-3.57-.75,3.68,3.68,0,0,0-1.22.79,2.87,2.87,0,0,0-.17,4,2.21,2.21,0,0,0,.61.44l.25-.52a1.6,1.6,0,0,1-.45-.32,2.08,2.08,0,0,1-.57-1.52,2.53,2.53,0,0,1,.73-1.68,2.93,2.93,0,0,1,1-.65,2.68,2.68,0,0,1,3,.62,3.34,3.34,0,0,1,.44,4.07,4.59,4.59,0,0,1-.68.91,3.66,3.66,0,0,1-5.34-.18A6.57,6.57,0,0,1,51,158a9.11,9.11,0,0,1-.46-1.85,8.18,8.18,0,0,1-1-1.64,6.48,6.48,0,0,1-.64-2.7A3.65,3.65,0,0,1,52.54,148a4.43,4.43,0,0,1,1.12.15,3.35,3.35,0,0,1,2.57,3.2,2.68,2.68,0,0,1-1.65,2.53,3,3,0,0,1-1.19.26,2.45,2.45,0,0,1-1.7-.67A2.07,2.07,0,0,1,51,152a1.71,1.71,0,0,1,.09-.55l-.54-.19a2.34,2.34,0,0,0-.12.74,2.88,2.88,0,0,0,3,2.71,3.44,3.44,0,0,0,1.42-.31,3.26,3.26,0,0,0,2-3,3.91,3.91,0,0,0-3-3.75,4.75,4.75,0,0,0-1.27-.18,4.1,4.1,0,0,0-3,1.24,4.57,4.57,0,0,0-1.24,3.23c0,.23,0,.46,0,.7-1.72-3.13-5.57-5-10-5a16.28,16.28,0,0,0-5.39.94,16.28,16.28,0,0,0,.94-5.39c0-4.4-1.91-8.25-5-10a5.32,5.32,0,0,0,.69,0,4.55,4.55,0,0,0,3.23-1.23,4.14,4.14,0,0,0,1.24-3,5.18,5.18,0,0,0-.17-1.28,4.07,4.07,0,0,0-1.74-2.4,4.07,4.07,0,0,0,1.74-2.4,5.18,5.18,0,0,0,.17-1.28,4.14,4.14,0,0,0-1.24-3,4.55,4.55,0,0,0-3.23-1.23,5.32,5.32,0,0,0-.69,0c3.12-1.72,5-5.57,5-10A16.33,16.33,0,0,0,33,102a16.28,16.28,0,0,0,5.39.94c4.39,0,8.24-1.9,10-5,0,.24,0,.47,0,.7a4.57,4.57,0,0,0,1.24,3.23,4.1,4.1,0,0,0,3,1.24,4.75,4.75,0,0,0,1.27-.18,3.91,3.91,0,0,0,3-3.75,3.26,3.26,0,0,0-2-3,3.44,3.44,0,0,0-1.42-.31,2.88,2.88,0,0,0-3,2.71,2.34,2.34,0,0,0,.12.74l.54-.19a1.71,1.71,0,0,1-.09-.55A2.07,2.07,0,0,1,51.69,97a2.45,2.45,0,0,1,1.7-.67,3,3,0,0,1,1.19.26,2.68,2.68,0,0,1,1.65,2.53,3.35,3.35,0,0,1-2.57,3.2,4.43,4.43,0,0,1-1.12.15,3.65,3.65,0,0,1-3.65-3.89,6.48,6.48,0,0,1,.64-2.7,8.18,8.18,0,0,1,1-1.64A9.11,9.11,0,0,1,51,92.43a6.57,6.57,0,0,1,1.46-2.36,3.66,3.66,0,0,1,5.34-.18,4.59,4.59,0,0,1,.68.91A3.34,3.34,0,0,1,58,94.87a2.68,2.68,0,0,1-3,.62,2.93,2.93,0,0,1-1-.65,2.53,2.53,0,0,1-.73-1.68,2.08,2.08,0,0,1,.57-1.52,1.6,1.6,0,0,1,.45-.32l-.25-.52a2.21,2.21,0,0,0-.61.44,2.87,2.87,0,0,0,.17,4,3.68,3.68,0,0,0,1.22.79,3.27,3.27,0,0,0,3.57-.75A3.92,3.92,0,0,0,59,90.51a4.74,4.74,0,0,0-.78-1,4.08,4.08,0,0,0-3-1.24A4.55,4.55,0,0,0,52,89.66a5.87,5.87,0,0,0-.46.52c1-3.43-.38-7.49-3.49-10.6a16.28,16.28,0,0,0-4.48-3.15,16.28,16.28,0,0,0,4.48-3.15c3.11-3.11,4.48-7.18,3.49-10.6.15.18.3.36.46.52a4.59,4.59,0,0,0,3.16,1.41,4.08,4.08,0,0,0,3-1.24,4.81,4.81,0,0,0,.78-1,4.07,4.07,0,0,0,.47-2.92A4.07,4.07,0,0,0,62.34,59a4.81,4.81,0,0,0,1-.78,4.08,4.08,0,0,0,1.24-3A4.59,4.59,0,0,0,63.2,52c-.16-.16-.34-.31-.52-.46,3.42,1,7.49-.38,10.6-3.49a16.28,16.28,0,0,0,3.15-4.48,16.28,16.28,0,0,0,3.15,4.48c3.11,3.11,7.17,4.48,10.6,3.49a5.87,5.87,0,0,0-.52.46,4.55,4.55,0,0,0-1.41,3.16,4.08,4.08,0,0,0,1.24,3,4.74,4.74,0,0,0,1,.78,3.92,3.92,0,0,0,4.77-.54A3.27,3.27,0,0,0,96,54.84a3.68,3.68,0,0,0-.79-1.22,2.87,2.87,0,0,0-4-.17,2.21,2.21,0,0,0-.44.61l.52.25a1.6,1.6,0,0,1,.32-.45,2.08,2.08,0,0,1,1.52-.57,2.53,2.53,0,0,1,1.68.73,2.93,2.93,0,0,1,.65,1,2.68,2.68,0,0,1-.62,3,3.34,3.34,0,0,1-4.07.44,4.59,4.59,0,0,1-.91-.68,3.66,3.66,0,0,1,.18-5.34A6.57,6.57,0,0,1,92.43,51,9.11,9.11,0,0,1,94.28,50.51Z"/><path class="cls-3" d="M125.23,250.46A125.23,125.23,0,1,1,250.46,125.23,125.37,125.37,0,0,1,125.23,250.46Zm0-248.55A123.32,123.32,0,1,0,248.55,125.23,123.46,123.46,0,0,0,125.23,1.91Z"/><path class="cls-3" d="M129.61,95.48H79.19l4.54,3.32,40.83,29.83a.93.93,0,0,0,1.31,0h0c3-2.19,6-4.33,9-6.49.17-.12.33-.29.47-.41C128.7,114,126.6,105.32,129.61,95.48Z"/><path class="cls-3" d="M174.11,156.33c-.76,1.65-2,2.12-3.85,2.12H79.76c-1.82,0-2.89-.69-3.3-2.12a3.89,3.89,0,0,1-.11-1V100.58l1.21.83L123,134.56c1.74,1.28,2.68,1.28,4.47,0l12.4-8.92a25.91,25.91,0,0,0,26.77.9,8.4,8.4,0,0,0,4.56-8,1.09,1.09,0,0,1,.67-1.18c.77-.41,1.48-1,2.22-1.46Z"/><path class="cls-3" d="M174.11,105.32c-.16.54-.3,1.09-.48,1.63a9.42,9.42,0,0,1-11.91,6,8.26,8.26,0,0,1-1.19-.49,4.44,4.44,0,0,0-3.92-.33,8.46,8.46,0,0,1-10.69-5.36c-.06-.18-.11-.36-.15-.53a8.6,8.6,0,0,1,6.09-10.55l.18,0a8.51,8.51,0,0,1,10.3,6.22c0,.15.07.3.1.45a15.45,15.45,0,0,1-.13,4c0,.49,0,.74.45,1a3.79,3.79,0,0,0,5.15-1.46,3.73,3.73,0,0,0,.47-1.91,14.34,14.34,0,1,0-8,13l.93-.47a2.88,2.88,0,0,1,2.83,5l0,0a19.21,19.21,0,0,1-7.12,2.48,20,20,0,1,1,16.88-22.78l.06.44a3.09,3.09,0,0,0,.17.54Zm-20.05,1.53a2.91,2.91,0,0,0,2.86-2.84,2.87,2.87,0,1,0-2.89,2.84Z"/><path class="cls-3" d="M129.61,95.48c-3.05,9.82-.91,18.51,5.69,26.29-.14.12-.3.29-.47.41-3,2.16-6,4.3-9,6.49a.93.93,0,0,1-1.31,0h0q-20.4-15-40.83-29.87l-4.54-3.32Z"/></g></g></svg>