<svg xmlns="http://www.w3.org/2000/svg" viewBox="0 0 153.49 81.24"><defs><style>.cls-1{fill:#a0a0a0;}</style></defs><g id="Layer_2" data-name="Layer 2"><g id="_ëîé_1" data-name="—ëîé_1"><path class="cls-1" d="M151.7,17.35a3.45,3.45,0,0,0-3.35,0A2.94,2.94,0,0,0,146.93,20a2.82,2.82,0,0,0,1.83,2.4.75.75,0,0,0,1-.43.76.76,0,0,0-.44-1,1.33,1.33,0,0,1-.87-1.11,1.48,1.48,0,0,1,.72-1.25,1.93,1.93,0,0,1,1.82.07,2.26,2.26,0,0,1,1,1.74,3,3,0,0,1-1,2.16c-1.42,1.5-3.81,1.35-4.28,1.34-3.53-.08-137.08,0-140.06,0-.47,0-2.84.12-4.25-1.36a2.91,2.91,0,0,1-.93-2.13,2.25,2.25,0,0,1,1-1.76,1.94,1.94,0,0,1,1.81-.06,1.48,1.48,0,0,1,.72,1.25A1.32,1.32,0,0,1,4.2,21a.75.75,0,0,0-.43,1,.73.73,0,0,0,1,.43A2.85,2.85,0,0,0,6.57,20a3,3,0,0,0-1.43-2.63,3.42,3.42,0,0,0-3.34,0A3.77,3.77,0,0,0,0,20.3a4.28,4.28,0,0,0,1.36,3.29c1.81,1.9,4.73,1.81,5.37,1.81,46.69-.09,93.37.16,140.06,0,.65,0,3.53.06,5.34-1.83a4.26,4.26,0,0,0,1.34-3.27A3.76,3.76,0,0,0,151.7,17.35Z"/><path class="cls-1" d="M152.12,57.33c-1.81-1.9-4.73-1.81-5.37-1.81-46.69.09-93.37-.16-140.06,0-.64,0-3.53-.06-5.34,1.83A4.26,4.26,0,0,0,0,60.62a3.77,3.77,0,0,0,1.79,3A3.84,3.84,0,0,0,3.59,64a2.85,2.85,0,0,0,1.55-.44A3,3,0,0,0,6.57,61a2.85,2.85,0,0,0-1.84-2.4.73.73,0,0,0-1,.43.75.75,0,0,0,.43,1,1.33,1.33,0,0,1,.87,1.11,1.48,1.48,0,0,1-.72,1.25,1.9,1.9,0,0,1-1.81-.07,2.23,2.23,0,0,1-1-1.74,2.94,2.94,0,0,1,1-2.16C3.89,56.87,6.27,57,6.74,57c3.52.08,137,0,140.06,0,.47,0,2.83-.12,4.25,1.36a3,3,0,0,1,.94,2.14,2.27,2.27,0,0,1-1,1.75,1.94,1.94,0,0,1-1.81.06,1.48,1.48,0,0,1-.72-1.25,1.33,1.33,0,0,1,.87-1.11.76.76,0,0,0,.44-1,.75.75,0,0,0-1-.43,2.82,2.82,0,0,0-1.83,2.4,2.94,2.94,0,0,0,1.42,2.63,2.85,2.85,0,0,0,1.55.44,3.79,3.79,0,0,0,1.79-.47,3.75,3.75,0,0,0,1.79-3A4.28,4.28,0,0,0,152.12,57.33Z"/><path class="cls-1" d="M131.48,17.12c-1.72-1.63-5-.46-8,.57l-1.24.43c-5.27,1.76-16.41,3.92-20.84-.5A8.62,8.62,0,0,1,100.15,16c1.51-1.62,2.52-3.41,2-4.63a2.19,2.19,0,0,0-1.42-1.28,2.41,2.41,0,0,0-2.21,1.07c-.77,1.08-.46,3,.4,4.68A15.77,15.77,0,0,1,96.08,18a16.73,16.73,0,0,1-11.89,1.83,7.7,7.7,0,0,0,4.14-4.4c.62-2,.49-5.3-1.74-6.57A4.81,4.81,0,0,0,83,8.52a3.66,3.66,0,0,0-2.3,1.78c-.83,1.56-.5,4,1.17,4.87a3.57,3.57,0,0,0,2.59.21,2.39,2.39,0,0,0,1.45-1.21,2.88,2.88,0,0,0-.71-3.25.49.49,0,0,0-.7,0,.5.5,0,0,0,0,.71A1.94,1.94,0,0,1,85,13.73a1.39,1.39,0,0,1-.87.69,2.46,2.46,0,0,1-1.81-.14c-1.13-.6-1.34-2.41-.76-3.52a2.77,2.77,0,0,1,1.7-1.28,3.84,3.84,0,0,1,2.86.27c1.72,1,1.78,3.82,1.28,5.41-.65,2-2.53,3.41-4.69,4.25a10.26,10.26,0,0,1-4-2.58,9.35,9.35,0,0,1-1.37-1.91,2,2,0,0,1,.1-.21A19.32,19.32,0,0,0,80.15,6,7.31,7.31,0,0,0,78.53.82,2.29,2.29,0,0,0,75,.82,7.27,7.27,0,0,0,73.39,6,19.61,19.61,0,0,0,76,14.43l.24.49a9.5,9.5,0,0,1-1.38,1.91,10.08,10.08,0,0,1-4,2.56c-2.13-.84-4-2.21-4.62-4.23-.51-1.6-.44-4.33,1.29-5.42a3.32,3.32,0,0,1,4.56,1.06,2.54,2.54,0,0,1-.81,3.5,1.93,1.93,0,0,1-2.67-.61,1.84,1.84,0,0,1,.56-2.07.5.5,0,1,0-.72-.7,2.78,2.78,0,0,0-.68,3.3,2.93,2.93,0,0,0,4,.93,3.55,3.55,0,0,0,1.13-4.88A4.31,4.31,0,0,0,67,8.9c-2,1.28-2.42,4.34-1.72,6.56a7.64,7.64,0,0,0,4.1,4.38,16.73,16.73,0,0,1-12-1.81,15.35,15.35,0,0,1-2.85-2.22c.85-1.72,1.16-3.6.4-4.68a2.44,2.44,0,0,0-2.22-1.07,2.16,2.16,0,0,0-1.41,1.28c-.51,1.22.5,3,2,4.63a8.57,8.57,0,0,1-1.26,1.65c-4.44,4.42-15.58,2.26-20.85.5L30,17.69c-2.93-1-6.25-2.2-8-.57a3,3,0,0,0-1,2.45,2.62,2.62,0,0,0,2.5,2.08l.26,0a2.58,2.58,0,0,0,2.12-1.7.5.5,0,0,0-.93-.35,1.53,1.53,0,0,1-3-.19,2.06,2.06,0,0,1,.65-1.55c1.29-1.21,4.44-.1,7,.8l1.25.43c5.88,2,17.1,4,21.87-.74a9,9,0,0,0,1.28-1.63,17.45,17.45,0,0,0,2.84,2.19,17.57,17.57,0,0,0,13.9,1.56,18.45,18.45,0,0,0,5.8,1.09h.18a17.84,17.84,0,0,0,6-1.07A17.61,17.61,0,0,0,96.6,18.89a17.83,17.83,0,0,0,2.83-2.19,9.5,9.5,0,0,0,1.28,1.63c4.77,4.75,16,2.7,21.87.74l1.26-.44c2.53-.89,5.68-2,7-.78a2,2,0,0,1,.65,1.54,1.64,1.64,0,0,1-1.67,1.25,1.62,1.62,0,0,1-1.3-1.06.5.5,0,0,0-.93.35,2.58,2.58,0,0,0,2.12,1.7l.26,0a2.62,2.62,0,0,0,2.5-2.08A2.91,2.91,0,0,0,131.48,17.12ZM53.82,15c-1.2-1.37-1.84-2.68-1.57-3.32,0,0,.27-.6.69-.68h.11a1.68,1.68,0,0,1,1.09.68C54.6,12.36,54.42,13.69,53.82,15ZM75.73,1.52a1.27,1.27,0,0,1,2.08,0A6.29,6.29,0,0,1,79.15,6,18.61,18.61,0,0,1,76.8,13.8,17.66,17.66,0,0,1,74.39,6,6.28,6.28,0,0,1,75.73,1.52Zm.88,19a17.29,17.29,0,0,1-4.36-.67,10.65,10.65,0,0,0,3.29-2.35,10.49,10.49,0,0,0,1.21-1.58A9.81,9.81,0,0,0,78,17.52a10.77,10.77,0,0,0,3.33,2.37A17.65,17.65,0,0,1,76.61,20.54Zm22.74-8.83a1.68,1.68,0,0,1,1.09-.68h.11c.43.08.69.68.69.68.27.64-.37,1.95-1.57,3.32C99.07,13.69,98.89,12.36,99.35,11.71Z"/><path class="cls-1" d="M132.43,61.65a2.53,2.53,0,0,0-4.88-.36.5.5,0,0,0,.29.65.49.49,0,0,0,.64-.29,1.53,1.53,0,0,1,3,.19,2,2,0,0,1-.65,1.54c-1.29,1.21-4.43.1-7-.79l-1.26-.43c-5.88-2-17.1-4-21.87.74a9.42,9.42,0,0,0-1.28,1.62,17.18,17.18,0,0,0-2.83-2.18,17.59,17.59,0,0,0-13.91-1.56,18.45,18.45,0,0,0-5.8-1.09,18,18,0,0,0-6.16,1.06A17.6,17.6,0,0,0,56.9,62.34a16.83,16.83,0,0,0-2.84,2.18,9,9,0,0,0-1.28-1.62c-4.77-4.76-16-2.71-21.87-.74l-1.25.43c-2.53.89-5.68,2-7,.79A2,2,0,0,1,22,61.84a1.64,1.64,0,0,1,1.67-1.25A1.62,1.62,0,0,1,25,61.65a.5.5,0,0,0,.64.29.5.5,0,0,0,.29-.65,2.53,2.53,0,0,0-4.88.36,3,3,0,0,0,1,2.46c1.73,1.63,5,.46,8-.57.43-.16.84-.3,1.24-.43,5.27-1.76,16.41-3.92,20.85.5a8.57,8.57,0,0,1,1.26,1.65c-1.51,1.62-2.52,3.41-2,4.63a2.18,2.18,0,0,0,1.41,1.28,1.53,1.53,0,0,0,.3,0A2.62,2.62,0,0,0,55,70.09c.76-1.07.45-3-.4-4.68a15.31,15.31,0,0,1,2.85-2.21,16.7,16.7,0,0,1,11.88-1.83,7.7,7.7,0,0,0-4.13,4.39c-.62,2-.49,5.3,1.74,6.58a4.86,4.86,0,0,0,3.63.37,3.69,3.69,0,0,0,2.3-1.78c.83-1.56.5-4-1.17-4.87a3.56,3.56,0,0,0-2.59-.21,2.39,2.39,0,0,0-1.45,1.21,2.89,2.89,0,0,0,.71,3.25.5.5,0,1,0,.71-.7,1.92,1.92,0,0,1-.52-2.11,1.42,1.42,0,0,1,.86-.7,2.51,2.51,0,0,1,1.81.14c1.13.61,1.34,2.42.76,3.52a2.72,2.72,0,0,1-1.7,1.29,3.8,3.8,0,0,1-2.85-.28c-1.73-1-1.79-3.81-1.28-5.41.64-2,2.53-3.4,4.68-4.25a10.3,10.3,0,0,1,4,2.58,9.87,9.87,0,0,1,1.38,1.92,2,2,0,0,0-.1.21,19.28,19.28,0,0,0-2.75,8.72A7.27,7.27,0,0,0,75,80.41a2.27,2.27,0,0,0,3.51,0,7.33,7.33,0,0,0,1.62-5.17,19.53,19.53,0,0,0-2.56-8.44c-.07-.17-.15-.33-.23-.49a9.42,9.42,0,0,1,1.37-1.92,10.26,10.26,0,0,1,4-2.56c2.12.85,4,2.21,4.62,4.23.5,1.6.43,4.34-1.3,5.42a3.31,3.31,0,0,1-4.56-1,2.54,2.54,0,0,1,.81-3.5,1.88,1.88,0,0,1,1.46-.25,1.94,1.94,0,0,1,1.21.86,1.83,1.83,0,0,1-.55,2.07.5.5,0,1,0,.71.7,2.8,2.8,0,0,0,.69-3.3,2.93,2.93,0,0,0-1.83-1.3,2.9,2.9,0,0,0-2.22.37A3.54,3.54,0,0,0,80.56,71a4.27,4.27,0,0,0,2.68,1.92,4.58,4.58,0,0,0,1,.11,4.32,4.32,0,0,0,2.28-.66c2.06-1.28,2.42-4.34,1.72-6.57a7.61,7.61,0,0,0-4.09-4.37,16.66,16.66,0,0,1,12,1.81,15.73,15.73,0,0,1,2.86,2.21c-.86,1.73-1.17,3.61-.4,4.68a2.59,2.59,0,0,0,1.91,1.11,1.53,1.53,0,0,0,.3,0,2.24,2.24,0,0,0,1.42-1.28c.5-1.22-.51-3-2-4.63a8.62,8.62,0,0,1,1.27-1.65c4.44-4.42,15.57-2.26,20.84-.5l1.24.43c2.94,1,6.26,2.2,8,.57A2.92,2.92,0,0,0,132.43,61.65ZM54.14,69.51c-.2.28-.75.77-1.2.68s-.62-.52-.69-.69c-.27-.63.37-1.94,1.57-3.31C54.42,67.54,54.6,68.87,54.14,69.51Zm23.62,10.2a1.29,1.29,0,0,1-2.08,0,6.31,6.31,0,0,1-1.34-4.45,18.55,18.55,0,0,1,2.36-7.84,17.89,17.89,0,0,1,2.4,7.84A6.31,6.31,0,0,1,77.76,79.71Zm.19-16a9.81,9.81,0,0,0-1.2,1.58,10.49,10.49,0,0,0-1.21-1.58,10.84,10.84,0,0,0-3.32-2.37,15.83,15.83,0,0,1,9,0A10.85,10.85,0,0,0,78,63.71Zm23.29,5.79c-.07.17-.33.62-.69.69s-1-.4-1.2-.68c-.46-.64-.28-2,.32-3.32C100.87,67.56,101.51,68.86,101.24,69.5Z"/></g></g></svg>