<svg xmlns="http://www.w3.org/2000/svg" viewBox="0 0 132.22 10.02"><defs><style>.cls-1{fill:#fff;}</style></defs><g id="Layer_2" data-name="Layer 2"><g id="Layer_1-2" data-name="Layer 1"><path class="cls-1" d="M.27,4.71l130.25.22a.08.08,0,0,1,.08.08.09.09,0,0,1-.08.09L.27,5.31A.27.27,0,0,1,0,5a.29.29,0,0,1,.27-.31Z"/><path class="cls-1" d="M131.31,6a1,1,0,0,1-.91-1,.92.92,0,1,1,1.82,0A1,1,0,0,1,131.31,6Zm0-1.94a.88.88,0,0,0-.82.92.83.83,0,1,0,1.64,0A.88.88,0,0,0,131.31,4.09Z"/><path class="cls-1" d="M130.78,5a.57.57,0,0,1,.53-.59.56.56,0,0,1,.52.59.55.55,0,0,1-.52.59A.56.56,0,0,1,130.78,5Z"/><path class="cls-1" d="M.28,4.73a1.35,1.35,0,0,0,1-.39,6.51,6.51,0,0,0,.83-.9A24.69,24.69,0,0,1,3.74,1.51a7.35,7.35,0,0,1,1-.82A5.84,5.84,0,0,1,5.22.36,3,3,0,0,1,5.8.11,2.64,2.64,0,0,1,8.17.55a2.88,2.88,0,0,1,.82,1A2.57,2.57,0,0,1,9.21,3,2.12,2.12,0,0,1,7.63,4.84a1.41,1.41,0,0,1-.61,0,1.3,1.3,0,0,1-.53-.31A1.69,1.69,0,0,1,6.1,4,1.47,1.47,0,0,1,6,3.3a1.27,1.27,0,0,1,.67-1.07.88.88,0,0,1,.62,0,.76.76,0,0,1,.29.16.76.76,0,0,1,.18.33h0a.12.12,0,0,1-.07.13.1.1,0,0,1-.11-.08v0a.46.46,0,0,0-.32-.38.72.72,0,0,0-.54,0,1,1,0,0,0-.44.38,1.21,1.21,0,0,0-.19.59,1.37,1.37,0,0,0,.49,1.1,1.25,1.25,0,0,0,1.07.29,1.28,1.28,0,0,0,.52-.23,2.09,2.09,0,0,0,.42-.42A2.26,2.26,0,0,0,9,2.91,2.42,2.42,0,0,0,8,.81,2.36,2.36,0,0,0,5.87.42a2.66,2.66,0,0,0-.52.23c-.18.1-.34.2-.5.31a7.59,7.59,0,0,0-.92.78A25,25,0,0,0,2.32,3.65a7.57,7.57,0,0,1-.88.91,2.1,2.1,0,0,1-.55.34A1.24,1.24,0,0,1,.26,5h0a.12.12,0,0,1-.1-.14A.13.13,0,0,1,.28,4.73Z"/><path class="cls-1" d="M.27,5.08a1.26,1.26,0,0,1,.64.08,1.9,1.9,0,0,1,.54.34,7,7,0,0,1,.89.91c.54.64,1,1.31,1.62,1.89a6.59,6.59,0,0,0,.92.77,3.86,3.86,0,0,0,.51.31,2.66,2.66,0,0,0,.52.23,2.36,2.36,0,0,0,2.14-.4A2.43,2.43,0,0,0,9,7.09,2.17,2.17,0,0,0,8.57,6a1.86,1.86,0,0,0-.43-.41,1.26,1.26,0,0,0-.51-.24,1.28,1.28,0,0,0-1.07.3,1.41,1.41,0,0,0-.49,1.11,1.22,1.22,0,0,0,.2.59.93.93,0,0,0,.44.37.7.7,0,0,0,.53,0,.54.54,0,0,0,.33-.4.1.1,0,0,1,.11-.09.1.1,0,0,1,.08.12h0a.64.64,0,0,1-.18.32.71.71,0,0,1-.28.18.88.88,0,0,1-.62,0A1.24,1.24,0,0,1,6,6.72a1.36,1.36,0,0,1,.12-.66,1.84,1.84,0,0,1,.38-.52A1.46,1.46,0,0,1,7,5.23a1.35,1.35,0,0,1,.6-.05A2.09,2.09,0,0,1,9.23,7.06,2.56,2.56,0,0,1,9,8.43a2.78,2.78,0,0,1-.82,1,2.62,2.62,0,0,1-2.36.46,3,3,0,0,1-.58-.25,4.15,4.15,0,0,1-.53-.32,8.23,8.23,0,0,1-1-.81c-.59-.6-1.1-1.28-1.63-1.93a7,7,0,0,0-.83-.89,1.39,1.39,0,0,0-1-.39.11.11,0,0,1-.12-.11.12.12,0,0,1,.09-.14Z"/><path class="cls-1" d="M7.17,2.8a.29.29,0,1,1,.58,0,.29.29,0,1,1-.58,0Z"/><ellipse class="cls-1" cx="7.48" cy="7.24" rx="0.29" ry="0.33"/><path class="cls-1" d="M.07,7a.44.44,0,0,1,.41-.47.47.47,0,0,1,0,.94A.44.44,0,0,1,.07,7Z"/><path class="cls-1" d="M.5,2.52A.45.45,0,0,1,.92,3a.45.45,0,0,1-.42.47A.45.45,0,0,1,.08,3,.45.45,0,0,1,.5,2.52Z"/></g></g></svg>