<?xml version="1.0" encoding="utf-8"?>
<!-- Generator: Adobe Illustrator 23.0.5, SVG Export Plug-In . SVG Version: 6.00 Build 0)  -->
<svg version="1.1" id="Layer_1" xmlns="http://www.w3.org/2000/svg" xmlns:xlink="http://www.w3.org/1999/xlink" x="0px" y="0px"
	 viewBox="0 0 1294.7 368.5" style="enable-background:new 0 0 1294.7 368.5;" xml:space="preserve">
<style type="text/css">
	.st0{fill:url(#SVGID_1_);}
	.st1{fill:url(#SVGID_2_);}
	.st2{fill:#F4F4F4;fill-opacity:0;}
	.st3{opacity:0.1;fill:#F6F6F6;enable-background:new    ;}
	.st4{opacity:0.2;fill:#F6F6F6;enable-background:new    ;}
	.st5{opacity:0.3;fill:#F7F8F9;enable-background:new    ;}
	.st6{opacity:0.4;fill:#F9FAFB;enable-background:new    ;}
	.st7{opacity:0.5;fill:#FAFBFB;enable-background:new    ;}
	.st8{opacity:0.6;fill:#FAFBFB;enable-background:new    ;}
	.st9{opacity:0.7;fill:#FCFDFF;enable-background:new    ;}
	.st10{opacity:0.8;fill:#FFFFFF;enable-background:new    ;}
	.st11{opacity:0.9;fill:#FFFFFF;enable-background:new    ;}
	.st12{fill:#FFFFFF;}
	.st13{opacity:0.57;}
	.st14{clip-path:url(#SVGID_5_);}
	.st15{filter:url(#Adobe_OpacityMaskFilter);}
	.st16{clip-path:url(#SVGID_6_);}
	.st17{clip-path:url(#SVGID_10_);}
	.st18{clip-path:url(#SVGID_11_);fill:url(#SVGID_12_);}
	.st19{clip-path:url(#SVGID_6_);mask:url(#SVGID_7_);fill:url(#SVGID_13_);}
	.st20{fill:url(#SVGID_14_);}
	.st21{fill:#7F7F7F;}
	.st22{fill:#747476;}
	.st23{fill:#211F1F;}
	.st24{fill:#6E6F70;}
	.st25{fill-rule:evenodd;clip-rule:evenodd;fill:#ED1C24;}
	.st26{fill-rule:evenodd;clip-rule:evenodd;fill:#747476;}
	.st27{fill:#BEBEBE;}
	.st28{fill:url(#SVGID_15_);}
	.st29{fill:url(#SVGID_16_);}
	.st30{fill:url(#SVGID_17_);}
	.st31{fill:url(#SVGID_18_);}
	.st32{fill:url(#SVGID_19_);}
	.st33{fill:url(#SVGID_20_);}
	.st34{fill:url(#SVGID_21_);}
	.st35{fill:url(#SVGID_22_);}
	.st36{fill:url(#SVGID_23_);}
	.st37{fill:none;stroke:url(#SVGID_24_);stroke-linecap:round;stroke-linejoin:round;stroke-miterlimit:10;}
	.st38{fill:none;stroke:url(#SVGID_25_);stroke-linecap:round;stroke-linejoin:round;stroke-miterlimit:10;}
	.st39{fill:none;stroke:url(#SVGID_26_);stroke-linecap:round;stroke-linejoin:round;stroke-miterlimit:10;}
	.st40{fill:none;stroke:url(#SVGID_27_);stroke-linecap:round;stroke-linejoin:round;stroke-miterlimit:10;}
	.st41{fill:none;stroke:url(#SVGID_28_);stroke-linecap:round;stroke-linejoin:round;stroke-miterlimit:10;}
	.st42{fill:none;stroke:url(#SVGID_29_);stroke-linecap:round;stroke-linejoin:round;stroke-miterlimit:10;}
	.st43{fill:none;stroke:url(#SVGID_30_);stroke-linecap:round;stroke-linejoin:round;stroke-miterlimit:10;}
	.st44{fill:none;stroke:url(#SVGID_31_);stroke-linecap:round;stroke-linejoin:round;stroke-miterlimit:10;}
	.st45{fill:none;stroke:url(#SVGID_32_);stroke-linecap:round;stroke-linejoin:round;stroke-miterlimit:10;}
</style>
<g>
	<g>
		<g>
			<g>
				<g>
					<g>
						<g>
							<g>
								<g>
									<g>
										<g>
											
												<linearGradient id="SVGID_1_" gradientUnits="userSpaceOnUse" x1="936.2641" y1="44.0313" x2="936.2641" y2="375.5464" gradientTransform="matrix(1 9.312514e-03 9.312514e-03 -1 34.1699 387.097)">
												<stop  offset="0" style="stop-color:#919396"/>
												<stop  offset="0.1879" style="stop-color:#FFFFFF"/>
												<stop  offset="0.2788" style="stop-color:#919396"/>
												<stop  offset="0.4364" style="stop-color:#6D6F71"/>
												<stop  offset="0.6303" style="stop-color:#FFFFFF"/>
												<stop  offset="0.7394" style="stop-color:#919396"/>
												<stop  offset="0.9879" style="stop-color:#CFD0D2"/>
											</linearGradient>
											<path class="st0" d="M1197.8,201.6c-0.6,0-1.2,0-1.7,0c1.2-5.3,1.8-10.7,1.9-16.3c0.5-51-47.4-92.8-106.8-93.4
												c-11.4-0.1-22.4,1.4-32.8,4c-26.6-44.7-80.6-75.6-143-76.2C825.8,19,752.7,80.6,752,157.3c0,2,0,3.9,0.1,6
												c-52.9,6.1-93.9,44.7-94.3,91.8c-0.3,34.6,21.3,65.1,53.8,81.6c12.9,8,29.4,12.9,47.4,13.1l417.5,3.9
												c4.9,0,9.6-0.3,14.3-0.9c1.9,0.1,3.7,0.2,5.7,0.2c48.7,0.5,88.6-33,88.9-74.9C1285.8,236.2,1246.6,202,1197.8,201.6z"/>
											
												<radialGradient id="SVGID_2_" cx="67.5145" cy="142.1834" r="498.434" gradientTransform="matrix(1.1829 1.101671e-02 9.448477e-03 -1.0146 819.3463 346.5188)" gradientUnits="userSpaceOnUse">
												<stop  offset="0" style="stop-color:#FFFFFF"/>
												<stop  offset="1" style="stop-color:#A5A6A9"/>
											</radialGradient>
											<path class="st1" d="M1176.8,195.8c-0.6,0-1.1,0-1.7,0c1.1-5.1,1.8-10.3,1.8-15.7c0.5-49.1-45.7-89.4-103-90
												c-11-0.1-21.6,1.3-31.6,3.9c-25.7-43.1-77.6-72.8-138-73.4C818,19.7,747.4,79.1,746.7,153.1c0,2,0,3.8,0.1,5.7
												c-51,5.9-90.5,43-90.9,88.6c-0.3,33.4,20.5,62.7,51.9,78.6c12.4,7.7,28.3,12.4,45.7,12.6l402.7,3.7
												c4.7,0,9.3-0.3,13.8-0.9c1.8,0.1,3.6,0.2,5.4,0.2c47,0.4,85.4-31.8,85.8-72.2C1261.6,229.3,1223.8,196.1,1176.8,195.8z"
												/>
										</g>
										<g>
											<g>
												<g>
													<path class="st2" d="M928.5,20.7c0.3-1.7,7.6-2.5,19-0.9c11.4,1.6,26.9,6,42,14.1c15.1,8.1,26.5,18.2,33.2,26.2
														c6.7,8.2,9,14.1,7.5,15c-3.4,2.1-20.8-15.9-48.4-30.6C954.4,29.7,927.9,24.3,928.5,20.7z"/>
													<path class="st3" d="M931.9,21.3c0.3-1.6,7.2-2.2,17.9-0.6c10.7,1.7,25.3,5.9,39.5,13.6c14.3,7.6,25.1,17,31.5,24.5
														c6.5,7.6,8.8,13.1,7.4,14.1c-3.2,2-20.1-14.6-46.2-28.5C956.1,30.2,931.3,24.6,931.9,21.3z"/>
													<path class="st4" d="M935.3,21.9c0.3-1.5,6.8-2,16.8-0.3s23.6,5.8,37,13s23.6,15.8,29.8,22.8c6.2,7,8.6,12.2,7.2,13.1
														c-2.9,2-19.3-13.4-43.8-26.4C957.7,30.7,934.5,25,935.3,21.9z"/>
													<path class="st5" d="M938.6,22.5c0.4-1.4,6.4-1.7,15.8,0c9.3,1.7,22,5.6,34.5,12.4c12.5,6.7,22.1,14.7,28,21.1
														c5.9,6.5,8.3,11.3,7,12.2c-2.8,1.9-18.4-12.2-41.5-24.5C959.4,31.2,937.9,25.4,938.6,22.5z"/>
													<path class="st6" d="M941.9,23.2c0.4-1.3,6-1.5,14.7,0.3c8.6,1.7,20.4,5.5,32,11.7c11.6,6.2,20.7,13.6,26.3,19.6
														c5.6,6,8,10.4,6.8,11.2c-2.6,1.8-17.5-11-39.1-22.5C961.2,31.8,941.2,25.9,941.9,23.2z"/>
													<path class="st7" d="M945.2,24c0.4-1.2,5.6-1.2,13.7,0.5c8.1,1.7,18.9,5.3,29.6,11c10.8,5.8,19.3,12.5,24.6,18
														c5.3,5.5,7.6,9.5,6.5,10.3c-2.3,1.7-16.5-9.9-36.6-20.5C962.8,32.3,944.5,26.4,945.2,24z"/>
													<path class="st8" d="M948.5,24.7c0.4-1.1,5.2-1.1,12.6,0.6c7.4,1.7,17.3,5,27.1,10.3c9.9,5.3,17.8,11.5,22.7,16.4
														c5,5,7.2,8.6,6.2,9.4c-2.1,1.6-15.5-8.8-34.1-18.7C964.5,32.8,947.7,27.1,948.5,24.7z"/>
													<path class="st9" d="M951.7,25.6c0.4-1,4.8-0.9,11.5,0.8C969.9,28,979,31.2,988,36c9,4.8,16.3,10.4,20.9,14.8
														c4.6,4.5,6.7,7.8,5.8,8.6c-1.9,1.5-14.4-7.8-31.5-16.9C966.3,33.4,951,27.8,951.7,25.6z"/>
													<path class="st10" d="M955,26.6c0.4-0.9,4.3-0.7,10.4,0.9c6.1,1.6,14.2,4.5,22.4,8.9c8.2,4.4,14.8,9.3,19.1,13.4
														s6.3,7,5.5,7.7c-1.7,1.4-13.4-6.8-28.9-15.1C968,33.9,954.3,28.5,955,26.6z"/>
													<path class="st11" d="M958.2,27.6c0.4-0.8,3.9-0.6,9.3,0.9c5.4,1.5,12.7,4.1,20.1,8.2c7.4,3.9,13.4,8.4,17.3,11.9
														c3.9,3.5,5.7,6.2,5,6.8c-1.5,1.3-12.2-5.9-26.2-13.4C969.7,34.4,957.5,29.3,958.2,27.6z"/>
													<path class="st12" d="M961.4,28.7c0.6-1.5,12.9,1.2,25.9,8.3c13.2,7,21.2,15.3,20.1,16.4c-1.3,1.2-11-5-23.5-11.7
														C971.5,35,960.7,30.1,961.4,28.7z"/>
												</g>
											</g>
											<g>
												<g>
													<path class="st2" d="M1074,88.4c0-0.9,2.3-1.7,6.6-2.3c4.3-0.5,10.6-0.6,18.3,0.4c7.7,1,16.8,3.2,26.1,7.2
														c9.3,3.9,19,9.6,27.4,17c8.5,7.4,14.9,15.7,19.3,23.8c4.4,8.1,6.8,15.9,7.9,22.5c1.1,6.6,0.8,12,0.2,15.7
														c-0.7,3.6-1.7,5.6-2.8,5.6s-2-2-3-5.4c-1.1-3.4-2.4-8.3-4.6-14c-2.2-5.7-5.3-12.4-9.7-19.2
														c-4.4-6.9-10.4-13.9-17.7-20.2c-7.4-6.4-15.4-11.6-23.3-15.5c-7.9-3.9-15.5-6.8-22.2-8.7c-6.7-2-12.3-3.1-16.2-4.2
														C1076.3,90.1,1074,89.3,1074,88.4z"/>
													<path class="st3" d="M1078.5,88.5c0-0.8,2.3-1.6,6.3-1.9c4-0.3,9.9-0.2,17.2,1c7.2,1.2,15.7,3.4,24.5,7.3
														c8.7,3.8,17.7,9.2,25.7,16.2c8,7,14.1,14.7,18.4,22.3c4.3,7.6,6.8,14.8,8,21c1.2,6.2,1.2,11.3,0.8,14.7
														c-0.5,3.4-1.4,5.4-2.4,5.4c-2,0.1-3.5-7.3-8-18.1c-2.3-5.4-5.4-11.6-9.7-18c-4.3-6.4-10-13-17-19.1
														c-7-6.1-14.5-11.1-21.9-14.9c-7.4-3.8-14.5-6.7-20.8-8.6C1087,91.7,1078.4,90.3,1078.5,88.5z"/>
													<path class="st4" d="M1083,88.8c0.1-0.8,2.2-1.4,6-1.6c3.8-0.2,9.4,0.1,16.1,1.4c6.7,1.3,14.5,3.5,22.7,7.3
														c8.2,3.7,16.4,8.8,23.9,15.3c7.5,6.5,13.3,13.8,17.4,20.7c4.1,7.1,6.7,13.9,8.1,19.7c1.4,5.8,1.6,10.6,1.3,13.9
														c-0.3,3.2-1,5.1-2,5.1c-0.9,0.1-1.9-1.6-3.1-4.6c-1.3-2.9-2.8-7.2-5.1-12.2c-2.3-5-5.4-10.8-9.6-16.8
														c-4.2-6-9.6-12.2-16.2-17.9c-6.6-5.8-13.7-10.5-20.6-14.3c-6.9-3.7-13.7-6.5-19.5-8.6c-5.8-2.1-10.7-3.5-14.2-4.6
														C1084.9,90.5,1082.9,89.6,1083,88.8z"/>
													<path class="st5" d="M1087.6,89.3c0.1-0.7,2.2-1.2,5.7-1.3c3.5,0,8.7,0.4,15,1.8c6.2,1.4,13.6,3.6,21,7.2
														c7.6,3.5,15.2,8.5,22.2,14.5c7,6.1,12.5,12.8,16.5,19.3c4,6.5,6.6,12.8,8.1,18.2c1.5,5.4,1.9,9.8,1.8,12.9
														c-0.1,3-0.7,4.8-1.6,4.9c-1.8,0.2-3.7-6.2-8.5-15.5c-4.6-9.3-12.5-21.6-25-32.4c-12.4-10.9-26.5-17.9-37.3-22
														C1094.6,92.7,1087.3,90.8,1087.6,89.3z"/>
													<path class="st6" d="M1092,90c0.2-1.3,7.7-1.7,19.3,1.1c5.8,1.4,12.5,3.6,19.4,7.1s14.1,8,20.5,13.7
														c6.5,5.7,11.7,11.9,15.5,17.9c3.8,6,6.4,11.8,8,16.8c3,9.9,2.4,16.4,0.9,16.5c-1.7,0.2-3.8-5.6-8.5-14.3
														s-12.3-20-24-30.1c-11.6-10.2-24.7-17-34.6-21.1C1098.5,93.3,1091.7,91.4,1092,90z"/>
													<path class="st7" d="M1096.5,90.8c0.2-0.6,2-0.9,5-0.7c3,0.2,7.6,0.9,12.8,2.3c5.3,1.5,11.4,3.7,17.8,7
														c6.4,3.2,12.9,7.6,18.9,12.8c6,5.2,10.9,10.9,14.5,16.4c3.6,5.5,6.2,10.8,7.8,15.3c1.6,4.5,2.3,8.4,2.5,11
														c0.1,2.7-0.2,4.1-1,4.3c-1.5,0.3-3.8-5.1-8.5-13s-12-18.3-22.9-27.7c-10.8-9.5-22.8-16-31.9-20.1
														C1102.3,94.1,1096.1,92.1,1096.5,90.8z"/>
													<path class="st8" d="M1100.8,91.8c0.3-1.1,6.7-0.9,16.4,2c9.6,2.9,22.4,8.9,33.4,18.6c11.1,9.6,17.9,20.7,21,29
														c3.1,8.4,3.2,13.9,2,14.1c-1.4,0.3-3.7-4.5-8.4-11.7c-4.5-7.2-11.6-16.7-21.6-25.5c-10-8.8-20.9-15-29.3-19.1
														C1106,95,1100.4,92.8,1100.8,91.8z"/>
													<path class="st9" d="M1105.3,92.8c0.3-1,6.2-0.6,14.9,2.3c8.6,2.9,20.1,8.6,30.3,17.4s16.5,18.8,19.7,26.2
														c3.1,7.6,3.5,12.6,2.4,12.8c-1.2,0.3-3.7-4-8.2-10.5s-11.1-15.1-20.3-23.2c-9.2-8.1-19.2-14-26.6-17.9
														C1109.8,96.1,1104.8,93.9,1105.3,92.8z"/>
													<path class="st10" d="M1109.5,94.1c0.4-0.9,5.6-0.3,13.5,2.5c7.8,2.8,18,8.2,27.1,16.1c9.1,8,15.2,16.8,18.3,23.6
														c3.1,6.8,3.6,11.3,2.7,11.6c-1.1,0.3-3.5-3.5-7.8-9.3c-4.2-5.8-10.5-13.6-19-20.9c-8.5-7.4-17.3-12.9-24-16.7
														C1113.5,97.3,1109.1,95.1,1109.5,94.1z"/>
													<path class="st11" d="M1113.7,95.6c0.4-0.8,5-0.1,12,2.7c6.9,2.7,15.9,7.7,24.1,14.7c8.2,7.2,13.8,14.9,16.8,20.9
														c3,6,3.7,10,2.9,10.3c-2,0.7-9.4-13.6-24.9-26.8C1129.3,104,1112.8,97.3,1113.7,95.6z"/>
													<path class="st12" d="M1117.8,97.2c0.4-0.7,4.5,0.1,10.5,2.7c6,2.6,13.9,7.1,21.1,13.4s12.3,13.2,15.2,18.4
														c2.9,5.2,3.7,8.7,2.9,9c-1.7,0.7-9-11.7-22.8-23.5C1131.3,105.2,1117.1,98.6,1117.8,97.2z"/>
												</g>
											</g>
											<g>
												<g>
													<path class="st2" d="M1176.8,194.2c0-0.9,1.9-1.7,5.4-2.3c3.5-0.5,8.7-0.8,15.1,0c6.4,0.8,14,2.5,21.7,5.7
														s15.8,7.9,22.8,14.1c7,6.2,12.4,13.1,15.9,19.9c3.6,6.8,5.5,13.3,6.2,18.8c0.8,5.5,0.4,9.9-0.3,13
														c-0.7,3-1.8,4.6-2.8,4.6c-2.2,0-3.4-6.4-7.2-15.7c-1.9-4.6-4.5-9.9-8.2-15.4c-3.6-5.5-8.5-11.1-14.3-16.3
														c-5.9-5.2-12.4-9.3-18.7-12.7c-6.3-3.2-12.5-5.6-17.9-7.3C1184.3,197.2,1176.8,196,1176.8,194.2z"/>
													<path class="st3" d="M1180.5,194.3c0.1-0.8,1.9-1.6,5.2-2c3.3-0.4,8.3-0.4,14.3,0.5c6,0.9,13.1,2.7,20.3,5.8
														c7.3,3.1,14.7,7.6,21.3,13.4c6.6,5.8,11.7,12.3,15.2,18.6c3.5,6.3,5.5,12.4,6.4,17.6c0.9,5.1,0.8,9.3,0.3,12.3
														c-0.5,2.9-1.5,4.4-2.4,4.4c-2,0.1-3.5-5.9-7.4-14.6c-2-4.3-4.5-9.3-8.2-14.4c-3.6-5.1-8.2-10.4-13.8-15.3
														c-5.6-4.9-11.7-8.9-17.7-12.1c-5.9-3.1-11.7-5.5-16.7-7.3C1187.4,197.4,1180.4,196,1180.5,194.3z"/>
													<path class="st4" d="M1184.3,194.5c0.1-0.8,1.9-1.4,5-1.7c3.1-0.3,7.8-0.1,13.4,0.8c5.6,1,12.2,2.8,18.9,5.8
														c6.8,3,13.7,7.3,20,12.7c6.2,5.4,11,11.4,14.3,17.3c3.4,5.9,5.4,11.5,6.5,16.3c1,4.8,1.1,8.7,0.7,11.5
														c-0.4,2.8-1.1,4.2-2,4.2c-1.9,0.1-3.6-5.5-7.6-13.6c-3.9-8.1-10.6-18.7-21.3-28c-10.6-9.3-22.9-15.2-32.2-18.8
														C1190.6,197.7,1184.1,196.1,1184.3,194.5z"/>
													<path class="st5" d="M1187.9,194.9c0.2-1.4,6.8-2.3,17.2-0.2c5.2,1.1,11.3,2.9,17.5,5.8c6.3,2.9,12.7,6.9,18.5,12
														c5.8,5,10.3,10.6,13.7,16c3.2,5.4,5.3,10.6,6.4,15.1c2.2,8.9,1,14.6-0.6,14.7c-1.8,0.2-3.6-5-7.7-12.5
														c-3.9-7.5-10.4-17.4-20.5-26.1c-10-8.8-21.4-14.5-30.1-18.1C1193.7,198.1,1187.7,196.3,1187.9,194.9z"/>
													<path class="st6" d="M1191.7,195.4c0.2-1.3,6.5-1.9,16.1,0.3c4.8,1.1,10.4,2.9,16.1,5.7c5.8,2.8,11.7,6.6,17,11.3
														c5.4,4.7,9.6,9.8,12.8,14.8c3.1,5,5.2,9.8,6.4,14c2.4,8.3,1.5,13.6,0,13.8c-1.6,0.2-3.6-4.5-7.7-11.5
														c-3.9-7-10.2-16-19.7-24.3c-9.4-8.3-19.9-13.9-27.9-17.4C1196.9,198.6,1191.4,196.8,1191.7,195.4z"/>
													<path class="st7" d="M1195.3,196c0.3-1.2,6-1.5,14.8,0.8c8.7,2.2,20.5,7.4,30.5,16.1c10,8.6,15.8,18.9,18.2,26.4
														c2.5,7.7,2,12.6,0.6,12.8c-1.5,0.3-3.6-4-7.6-10.4c-3.9-6.4-10-14.7-18.8-22.4c-8.7-7.7-18.4-13.1-25.8-16.5
														C1199.9,199.3,1194.9,197.3,1195.3,196z"/>
													<path class="st8" d="M1198.8,196.8c0.3-1.1,5.6-1.2,13.7,1.1c8,2.3,18.6,7.2,27.7,15.2c9.1,8,14.7,17.2,17.2,24.1
														c2.5,7,2.4,11.5,1.1,11.8c-1.4,0.3-3.5-3.6-7.4-9.4c-3.8-5.8-9.6-13.5-17.8-20.5c-8.2-7.2-16.9-12.3-23.7-15.6
														C1203.1,200,1198.5,198,1198.8,196.8z"/>
													<path class="st9" d="M1202.5,197.8c0.3-1,5.2-0.8,12.5,1.5c7.3,2.3,16.8,6.9,25.2,14.3c8.4,7.3,13.6,15.5,16.1,21.8
														c2.5,6.3,2.6,10.4,1.4,10.7c-1.2,0.3-3.4-3.1-7.2-8.5c-3.7-5.2-9.2-12.2-16.7-18.7c-7.5-6.6-15.4-11.4-21.5-14.7
														C1206.1,200.8,1202.1,198.8,1202.5,197.8z"/>
													<path class="st10" d="M1205.9,198.8c0.4-0.9,4.7-0.6,11.2,1.7c6.5,2.2,14.9,6.6,22.5,13.2c7.6,6.6,12.5,14,14.9,19.6
														c2.5,5.6,2.8,9.4,1.7,9.6c-2.3,0.7-8.6-12.4-22.4-24.4C1220.3,206.5,1205.1,200.8,1205.9,198.8z"/>
													<path class="st11" d="M1209.4,200c0.4-0.8,4.3-0.3,10,1.8c5.7,2.2,13.3,6.2,20,12.1c6.8,5.9,11.3,12.4,13.7,17.4
														c2.4,5,2.9,8.4,1.9,8.6c-2,0.7-8.4-10.8-20.8-21.6C1221.8,207.4,1208.6,201.7,1209.4,200z"/>
													<path class="st12" d="M1212.8,201.4c0.4-0.7,3.8-0.2,8.8,1.9c5,2.1,11.5,5.7,17.5,10.9c6,5.2,10.1,10.9,12.4,15.2
														c2.3,4.3,2.9,7.3,2.1,7.6c-1.7,0.7-8-9.3-19.1-18.9C1223.5,208.3,1212,202.8,1212.8,201.4z"/>
												</g>
											</g>
										</g>
										<g>
											<g>
												<g>
													<path class="st2" d="M928.5,20.7c0-0.1,6.9,0.5,17.7,2.9c10.7,2.5,25.4,7.3,39.8,15c14.4,7.8,25.8,16.9,33.2,24.1
														c7.4,7.2,11,12.3,10.9,12.3c-0.2,0.1-4.1-4.7-11.7-11.7c-7.5-7-18.9-15.9-33.2-23.6c-14.3-7.8-28.7-12.6-39.3-15.2
														C935.3,21.9,928.5,21,928.5,20.7z"/>
													<path class="st3" d="M931.9,21.3c0-0.1,6.5,0.6,16.6,3c10.1,2.5,23.8,7.1,37.4,14.4c13.7,7.3,24.5,15.8,31.5,22.5
														c7.1,6.7,10.7,11.4,10.5,11.5c-0.2,0.1-4-4.4-11.3-10.9c-7.2-6.5-18-14.8-31.5-22.1c-13.6-7.3-27-12-37-14.6
														C938.3,22.5,931.9,21.5,931.9,21.3z"/>
													<path class="st4" d="M935.3,21.9c0-0.1,6.1,0.7,15.5,3.1s22.3,6.9,35.1,13.9c12.9,6.9,23.1,14.8,29.9,21
														c6.8,6.2,10.2,10.5,10.1,10.6c-0.2,0.1-3.9-4-10.8-10s-17.2-13.8-30-20.6c-12.7-6.9-25.4-11.4-34.7-14.1
														C941.2,23.1,935.2,22,935.3,21.9z"/>
													<path class="st5" d="M938.6,22.5c0-0.1,5.7,0.7,14.5,3.1s20.7,6.7,32.8,13.2c12.1,6.5,21.7,13.8,28.2,19.6
														c6.5,5.7,9.8,9.7,9.7,9.8c-0.1,0.1-3.7-3.7-10.3-9.3s-16.3-12.8-28.2-19.2c-11.9-6.4-23.7-10.8-32.4-13.4
														C944.2,23.8,938.6,22.7,938.6,22.5z"/>
													<path class="st6" d="M941.9,23.2c0-0.1,5.3,0.8,13.5,3.1s19.3,6.5,30.5,12.5c11.2,6,20.3,12.8,26.4,18.1
														c6.1,5.3,9.4,8.9,9.2,9c-0.1,0.1-3.6-3.3-9.8-8.6c-6.2-5.1-15.3-11.8-26.5-17.7C974,33.7,963,29.6,955,27
														C947.1,24.4,941.9,23.4,941.9,23.2z"/>
													<path class="st7" d="M945.2,24c0-0.1,4.9,0.9,12.5,3.1c7.6,2.4,17.8,6.2,28.2,11.8c10.4,5.6,19,11.8,24.8,16.6
														s8.8,8.2,8.7,8.3c-0.1,0.1-3.4-3-9.3-7.8c-5.9-4.7-14.4-10.7-24.8-16.3s-20.4-9.5-27.9-12C950,25.2,945.1,24,945.2,24z
														"/>
													<path class="st8" d="M948.5,24.7c0-0.1,4.5,0.9,11.4,3.1c7,2.3,16.3,5.9,25.9,11.1c9.6,5.1,17.6,10.8,23,15.1
														c5.4,4.4,8.4,7.4,8.3,7.5c-0.2,0.3-12.5-11.7-31.7-21.9C966.2,29.3,948.3,25,948.5,24.7z"/>
													<path class="st9" d="M951.7,25.6c0-0.2,16.4,3.7,34.1,13.4c17.7,9.4,29.1,20.4,28.9,20.4c-0.2,0.2-11.8-10.4-29.4-19.9
														C967.9,30.1,951.6,25.9,951.7,25.6z"/>
													<path class="st10" d="M955,26.6c0-0.1,14.8,3.7,30.9,12.4c16.1,8.6,26.6,18.3,26.5,18.4c-0.2,0.2-10.9-9.2-26.9-17.8
														C969.4,30.9,954.9,26.8,955,26.6z"/>
													<path class="st11" d="M958.2,27.6c0-0.1,13.2,3.6,27.6,11.4c14.4,7.8,24.2,16.2,24.1,16.3c-0.2,0.2-10-8.1-24.5-15.8
														C971.1,31.8,958.1,27.8,958.2,27.6z"/>
													<path class="st12" d="M961.4,28.7c0-0.1,11.6,3.4,24.5,10.4c12.9,6.9,21.7,14.3,21.5,14.3c-0.1,0.2-9.1-7-21.9-13.9
														C972.7,32.7,961.3,28.9,961.4,28.7z"/>
												</g>
											</g>
											<g>
												<g>
													<path class="st2" d="M1074,88.4c0-0.1,2.3-0.2,6.4,0c4.1,0.2,10.1,0.7,17.4,2.2c7.3,1.5,15.6,3.9,24.4,7.9
														c8.6,3.9,17.6,9.4,25.6,16.3c8,7,14.2,14.6,18.6,22.2s7.2,14.8,8.7,21c1.6,6.2,2.1,11.4,2.2,14.9
														c0.1,3.5-0.1,5.5-0.1,5.5c-0.1,0-0.2-2-0.4-5.5c-0.3-3.5-0.9-8.6-2.7-14.7c-1.7-6.1-4.4-13.3-8.8-20.7
														c-4.4-7.4-10.6-15-18.4-21.8c-7.9-6.9-16.6-12.3-25.2-16.2c-8.6-3.9-16.8-6.5-24-8.1c-7.2-1.6-13.1-2.2-17.2-2.6
														C1076.3,88.6,1074,88.5,1074,88.4z"/>
													<path class="st3" d="M1078.5,88.5c0-0.1,8.7-0.3,22.4,2.8c6.8,1.6,14.6,4,22.8,7.9c8.2,3.8,16.5,9,24,15.6
														c7.6,6.6,13.5,13.9,17.8,20.8c4.3,7.1,7.1,13.9,8.7,19.7c3.3,11.7,2.9,19.3,2.8,19.3c-0.3,0-0.2-7.5-3.7-19
														c-1.8-5.8-4.6-12.5-8.9-19.4c-4.3-6.9-10.2-14.1-17.6-20.5c-7.4-6.5-15.6-11.7-23.6-15.5c-8-3.8-15.8-6.4-22.5-8.1
														C1087.2,88.8,1078.4,88.8,1078.5,88.5z"/>
													<path class="st4" d="M1083,88.8c0-0.1,2.1,0,5.7,0.4c3.6,0.4,8.9,1.2,15.2,2.9c6.3,1.7,13.7,4.1,21.2,7.9
														c7.6,3.7,15.3,8.6,22.4,14.8c7.1,6.2,12.7,13,16.9,19.5c4.2,6.6,7,12.9,8.7,18.4c1.8,5.4,2.6,10,3,13.1
														c0.4,3.1,0.4,4.9,0.4,4.9c-0.1,0-0.3-1.7-0.9-4.8c-0.6-3-1.5-7.6-3.4-13c-1.9-5.4-4.7-11.6-8.9-18.1
														c-4.2-6.5-9.8-13.2-16.8-19.3c-7-6.1-14.6-11-22.1-14.7s-14.7-6.3-20.9-8c-6.2-1.8-11.4-2.7-15-3.1
														C1085,89.1,1083,88.9,1083,88.8z"/>
													<path class="st5" d="M1087.6,89.3c0-0.1,7.7,0.3,19.5,3.6c5.8,1.7,12.7,4.1,19.7,7.8c7.1,3.5,14.3,8.3,20.8,14.1
														c6.6,5.8,12,12.1,16,18.2c4,6.1,6.8,12,8.7,17c3.6,10.1,3.9,16.8,3.8,16.8c-0.3,0-0.9-6.6-4.7-16.5
														c-2-5-4.8-10.8-8.8-16.8c-4-6-9.4-12.2-15.9-17.9c-6.6-5.7-13.7-10.4-20.5-14c-6.9-3.6-13.7-6.1-19.4-7.9
														C1095.1,90.2,1087.5,89.5,1087.6,89.3z"/>
													<path class="st6" d="M1092,90c0-0.1,7.2,0.6,18,4c5.4,1.8,11.7,4.2,18.2,7.7c6.5,3.4,13.2,7.9,19.4,13.3
														c6.2,5.4,11.2,11.2,15.1,16.8c3.9,5.6,6.7,11.1,8.6,15.7c3.7,9.3,4.4,15.5,4.3,15.5c-0.3,0-1.2-6.1-5.1-15.3
														c-2-4.6-4.8-9.9-8.7-15.5c-3.9-5.5-8.9-11.3-15-16.6c-6.1-5.3-12.7-9.7-19.1-13.2c-6.4-3.4-12.6-6-17.9-7.8
														C1099.1,91.1,1092,90.2,1092,90z"/>
													<path class="st7" d="M1096.5,90.8c0-0.1,6.6,0.8,16.5,4.2c9.9,3.4,23,9.8,34.5,19.9s18.8,21.4,22.5,30
														c3.8,8.6,4.7,14.3,4.6,14.3c-0.2,0.1-1.4-5.6-5.3-14.1s-11.2-19.7-22.6-29.6c-11.4-9.9-24.3-16.4-34-20
														C1102.9,92.1,1096.4,90.9,1096.5,90.8z"/>
													<path class="st8" d="M1100.8,91.8c0-0.1,6.1,1,15.1,4.4c9,3.3,20.9,9.5,31.5,18.8c10.6,9.2,17.6,19.6,21.3,27.4
														c3.8,7.9,4.9,13,4.8,13c-0.2,0.1-1.6-5.1-5.5-12.8c-3.9-7.7-10.8-17.9-21.3-27c-10.5-9.2-22.3-15.4-31.2-18.9
														C1106.7,93.1,1100.8,91.9,1100.8,91.8z"/>
													<path class="st9" d="M1105.3,92.8c0-0.1,5.5,1.2,13.7,4.5c8.2,3.3,19,9.1,28.6,17.6c9.7,8.5,16.3,17.8,20,24.9
														c3.7,7.1,5,11.8,4.9,11.8c-0.2,0-1.7-4.6-5.5-11.6c-3.8-7-10.4-16.1-20.1-24.6s-20.2-14.3-28.3-17.7
														C1110.6,94.4,1105.2,92.9,1105.3,92.8z"/>
													<path class="st10" d="M1109.5,94.1c0,0,4.9,1.2,12.2,4.4s16.9,8.6,25.8,16.3s14.9,16,18.6,22.4c3.6,6.3,5,10.5,5,10.5
														c-0.2,0.1-1.8-4.1-5.5-10.3c-3.7-6.2-9.9-14.4-18.7-22.1c-8.7-7.7-18.3-13.1-25.5-16.4
														C1114.2,95.7,1109.4,94.2,1109.5,94.1z"/>
													<path class="st11" d="M1113.7,95.6c0-0.1,4.3,1.3,10.8,4.3c6.5,3,14.9,8.1,22.9,15c8,6.9,13.7,14.3,17.1,20
														c3.4,5.6,4.9,9.3,4.9,9.3c-0.1,0-1.8-3.6-5.3-9.1c-3.5-5.5-9.2-12.8-17.2-19.7c-7.9-6.9-16.3-11.9-22.6-15.1
														C1117.9,97.2,1113.7,95.7,1113.7,95.6z"/>
													<path class="st12" d="M1117.8,97.2c0-0.1,3.8,1.3,9.4,4.2c5.6,2.9,13.1,7.5,20.1,13.7c7.1,6.1,12.3,12.6,15.5,17.5
														c3.2,4.9,4.7,8.2,4.7,8.2c-0.1,0-1.8-3.1-5.1-8c-3.3-4.8-8.6-11.2-15.5-17.3c-7-6.1-14.3-10.7-19.9-13.7
														C1121.5,98.7,1117.7,97.3,1117.8,97.2z"/>
												</g>
											</g>
											<g>
												<g>
													<path class="st2" d="M1176.8,194.2c0-0.1,1.9-0.2,5.3-0.1c3.3,0.1,8.3,0.5,14.3,1.7c5.9,1.2,12.9,3.1,20.1,6.4
														c7.2,3.2,14.4,7.7,20.9,13.4c6.5,5.7,11.6,12.1,15.2,18.3c3.6,6.2,5.9,12.2,7.2,17.3c1.3,5.1,1.7,9.3,1.7,12.3
														c0.1,2.9-0.1,4.5-0.2,4.5c-0.1,0-0.2-1.6-0.4-4.5c-0.3-2.9-0.8-7.1-2.2-12.1c-1.4-5-3.6-10.9-7.3-16.9
														c-3.6-6.1-8.6-12.3-15.1-17.9c-6.4-5.6-13.6-10-20.5-13.3c-7-3.2-13.8-5.3-19.7-6.6c-5.8-1.3-10.7-1.8-14.1-2.1
														C1178.7,194.3,1176.8,194.3,1176.8,194.2z"/>
													<path class="st3" d="M1180.5,194.3c0-0.1,7.2-0.3,18.4,2.2c5.6,1.3,12.1,3.3,18.8,6.5c6.7,3.1,13.6,7.5,19.7,12.8
														c6.2,5.4,11,11.3,14.5,17.1c3.5,5.8,5.8,11.4,7.2,16.2c2.8,9.6,2.3,15.8,2.2,15.7c-0.3,0-0.2-6.1-3.1-15.5
														c-1.5-4.7-3.8-10.2-7.4-15.8c-3.5-5.7-8.4-11.5-14.4-16.8c-6.1-5.3-12.8-9.5-19.4-12.7c-6.6-3.1-12.9-5.2-18.4-6.6
														C1187.7,194.6,1180.5,194.5,1180.5,194.3z"/>
													<path class="st4" d="M1184.3,194.5c0-0.1,1.7,0,4.6,0.3s7.4,1,12.5,2.3c5.2,1.3,11.2,3.3,17.4,6.4
														c6.2,3,12.6,7.1,18.4,12.2c5.8,5.1,10.4,10.6,13.9,16c3.4,5.4,5.7,10.6,7.2,15c1.5,4.4,2.1,8.2,2.5,10.7
														c0.3,2.6,0.3,4,0.3,4c-0.1,0-0.3-1.4-0.8-3.9c-0.5-2.6-1.3-6.2-2.9-10.6c-1.6-4.4-3.8-9.5-7.3-14.7
														c-3.4-5.3-8.1-10.7-13.8-15.7s-12-9-18.1-12.1c-6.1-3-12-5.1-17.1-6.6c-5.1-1.4-9.3-2.2-12.3-2.7
														C1185.9,194.8,1184.3,194.6,1184.3,194.5z"/>
													<path class="st5" d="M1187.9,194.9c0-0.1,6.3,0.2,16,2.9c4.8,1.4,10.4,3.4,16.2,6.4c5.8,2.9,11.7,6.8,17.1,11.5
														c5.4,4.7,9.8,9.9,13.2,14.9c3.3,5,5.6,9.8,7.1,14c2.9,8.4,3.2,13.8,3.1,13.8c-0.3,0-0.8-5.3-3.9-13.6
														c-3.1-8.2-9.5-19.1-20.3-28.4c-10.7-9.4-23.3-15.1-32.7-18C1194.2,195.7,1187.9,195.1,1187.9,194.9z"/>
													<path class="st6" d="M1191.7,195.4c0-0.1,5.9,0.4,14.7,3.2c8.8,2.8,20.6,8.3,30.8,17.1c10.2,8.8,16.4,19.1,19.5,26.7
														c3,7.7,3.5,12.8,3.4,12.8c-0.2,0-1-4.9-4.2-12.5c-3.2-7.5-9.4-17.5-19.5-26.2c-10-8.8-21.5-14.3-30.3-17.2
														C1197.4,196.3,1191.6,195.6,1191.7,195.4z"/>
													<path class="st7" d="M1195.3,196c0-0.1,5.4,0.6,13.6,3.4c8.2,2.8,18.9,8.1,28.3,16.3c9.4,8.3,15.4,17.6,18.5,24.6
														c3.1,7.1,3.8,11.7,3.7,11.7c-0.2,0-1.2-4.5-4.4-11.5c-3.2-6.9-9.1-16.1-18.5-24.2c-9.3-8.2-19.9-13.5-27.9-16.3
														C1200.5,197.1,1195.2,196.2,1195.3,196z"/>
													<path class="st8" d="M1198.8,196.8c0-0.1,5,0.8,12.4,3.5c7.4,2.8,17.2,7.8,25.8,15.4c8.7,7.6,14.3,16.1,17.5,22.5
														c3.1,6.4,4,10.7,3.9,10.7c-0.2,0-1.3-4.1-4.5-10.4c-3.2-6.3-8.9-14.6-17.5-22.1c-8.6-7.6-18.2-12.6-25.5-15.4
														C1203.6,198,1198.8,197,1198.8,196.8z"/>
													<path class="st9" d="M1202.5,197.8c0-0.1,4.5,0.9,11.2,3.6c6.7,2.8,15.5,7.5,23.5,14.4c8,7,13.4,14.6,16.4,20.4
														c3,5.8,4.1,9.6,4,9.6c-0.2,0.1-1.4-3.7-4.6-9.4c-3.1-5.7-8.6-13.3-16.4-20.1s-16.5-11.7-23.1-14.4
														C1206.8,199.1,1202.4,197.9,1202.5,197.8z"/>
													<path class="st10" d="M1205.9,198.8c0-0.1,4,1,10,3.6c6,2.7,13.9,7.1,21.1,13.4c7.3,6.3,12.3,13.2,15.2,18.4
														c2.9,5.2,4.1,8.6,4,8.6s-1.5-3.3-4.5-8.5c-3-5.1-8.2-11.8-15.3-18.1c-7.2-6.3-14.9-10.7-20.8-13.5
														C1209.8,200.2,1205.9,199,1205.9,198.8z"/>
													<path class="st11" d="M1209.4,200c0-0.1,3.5,1,8.8,3.5c5.3,2.6,12.3,6.6,18.8,12.3c6.5,5.7,11.2,11.7,14,16.3
														c2.9,4.6,4,7.7,3.9,7.7s-1.5-2.9-4.4-7.5c-2.9-4.5-7.7-10.5-14.1-16.1c-6.4-5.6-13.3-9.7-18.6-12.4
														C1212.8,201.4,1209.3,200.1,1209.4,200z"/>
													<path class="st12" d="M1212.8,201.4c0-0.1,3.1,1.1,7.8,3.4c4.6,2.4,10.7,6.1,16.5,11.2c5.8,5,10,10.3,12.7,14.3
														c2.7,4,3.8,6.7,3.8,6.7c-0.1,0-1.5-2.6-4.2-6.5c-2.8-3.9-7.1-9.1-12.8-14.2c-5.7-5-11.7-8.7-16.3-11.2
														C1215.7,202.6,1212.8,201.5,1212.8,201.4z"/>
												</g>
											</g>
										</g>
										<g class="st13">
											<g>
												<g>
													<defs>
														<polygon id="SVGID_3_" points="13.9,7 14.9,7 13.9,8 														"/>
													</defs>
													<defs>
														<polygon id="SVGID_4_" points="11.9,5.1 10.9,5.1 11.9,4.1 														"/>
													</defs>
													<clipPath id="SVGID_5_">
														<use xlink:href="#SVGID_3_"  style="overflow:visible;"/>
													</clipPath>
													<clipPath id="SVGID_6_" class="st14">
														<use xlink:href="#SVGID_4_"  style="overflow:visible;"/>
													</clipPath>
													<defs>
														<filter id="Adobe_OpacityMaskFilter" filterUnits="userSpaceOnUse" x="655.9" y="20.5" width="521.8" height="282">
															<feColorMatrix  type="matrix" values="1 0 0 0 0  0 1 0 0 0  0 0 1 0 0  0 0 0 1 0"/>
														</filter>
													</defs>
													<mask maskUnits="userSpaceOnUse" x="655.9" y="20.5" width="521.8" height="282" id="SVGID_7_">
														<g class="st15">
															<g>
																<defs>
																	<polygon id="SVGID_8_" points="13.9,7 14.9,7 13.9,8 																	"/>
																</defs>
																<defs>
																	<polygon id="SVGID_9_" points="11.9,5.1 10.9,5.1 11.9,4.1 																	"/>
																</defs>
																<clipPath id="SVGID_10_" class="st16">
																	<use xlink:href="#SVGID_8_"  style="overflow:visible;"/>
																</clipPath>
																<clipPath id="SVGID_11_" class="st17">
																	<use xlink:href="#SVGID_9_"  style="overflow:visible;"/>
																</clipPath>
																
																	<linearGradient id="SVGID_12_" gradientUnits="userSpaceOnUse" x1="620.3684" y1="232.6202" x2="1170.562" y2="232.6202" gradientTransform="matrix(1 9.312514e-03 9.312514e-03 -1 34.1699 387.097)">
																	<stop  offset="0" style="stop-color:#D4D4D4"/>
																	<stop  offset="1" style="stop-color:#121212"/>
																</linearGradient>
																<path class="st18" d="M1176.8,195.8c-0.6,0-1.1,0-1.7,0c1.1-5.1,1.8-10.3,1.8-15.7c0.5-49.1-45.7-89.4-103-90
																	c-11-0.1-21.6,1.3-31.6,3.9c-25.7-43.1-77.6-72.8-138-73.4C818,19.7,747.4,79.1,746.7,153.1c0,2,0,3.8,0.1,5.7
																	c-51,5.9-90.5,43-90.9,88.6c-0.2,20.6,7.8,39.8,21.2,55.1C862.9,112.7,1197,196,1176.8,195.8z"/>
															</g>
														</g>
													</mask>
													
														<linearGradient id="SVGID_13_" gradientUnits="userSpaceOnUse" x1="620.3684" y1="232.6202" x2="1170.562" y2="232.6202" gradientTransform="matrix(1 9.312514e-03 9.312514e-03 -1 34.1699 387.097)">
														<stop  offset="0" style="stop-color:#D4D4D4"/>
														<stop  offset="1" style="stop-color:#121212"/>
													</linearGradient>
													<path class="st19" d="M1176.8,195.8c-0.6,0-1.1,0-1.7,0c1.1-5.1,1.8-10.3,1.8-15.7c0.5-49.1-45.7-89.4-103-90
														c-11-0.1-21.6,1.3-31.6,3.9c-25.7-43.1-77.6-72.8-138-73.4C818,19.7,747.4,79.1,746.7,153.1c0,2,0,3.8,0.1,5.7
														c-51,5.9-90.5,43-90.9,88.6c-0.2,20.6,7.8,39.8,21.2,55.1C862.9,112.7,1197,196,1176.8,195.8z"/>
												</g>
											</g>
											
												<linearGradient id="SVGID_14_" gradientUnits="userSpaceOnUse" x1="620.3684" y1="232.6202" x2="1170.562" y2="232.6202" gradientTransform="matrix(1 9.312514e-03 9.312514e-03 -1 34.1699 387.097)">
												<stop  offset="0" style="stop-color:#FFFFFF"/>
												<stop  offset="1" style="stop-color:#FFFFFF;stop-opacity:0"/>
											</linearGradient>
											<path class="st20" d="M1176.8,195.8c-0.6,0-1.1,0-1.7,0c1.1-5.1,1.8-10.3,1.8-15.7c0.5-49.1-45.7-89.4-103-90
												c-11-0.1-21.6,1.3-31.6,3.9c-25.7-43.1-77.6-72.8-138-73.4C818,19.7,747.4,79.1,746.7,153.1c0,2,0,3.8,0.1,5.7
												c-51,5.9-90.5,43-90.9,88.6c-0.2,20.6,7.8,39.8,21.2,55.1C862.9,112.7,1197,196,1176.8,195.8z"/>
										</g>
									</g>
									<g>
										<g>
											<path class="st2" d="M923.7,346.8c0,1.6-50.2,2.5-112,1.9c-15.4-0.1-30.2-0.4-43.6-0.6l-19.1-0.5
												c-6.1-0.1-11.8-0.9-16.9-2.1c-10.1-2.4-17.8-6.1-22.6-9.2c-4.8-3.1-7.1-5.4-6.9-5.7c0.3-0.4,2.9,1.3,8,3.6
												c5,2.4,12.6,5.4,22.3,7.2c4.9,0.9,10.2,1.4,16.1,1.3l19.1-0.1c13.4,0,28.1,0,43.6,0.2
												C873.6,343.4,923.7,345.1,923.7,346.8z"/>
											<path class="st3" d="M917.5,346.7c0,1.5-47.4,2.3-105.9,1.8c-14.6-0.1-28.5-0.3-41.2-0.6l-18-0.4
												c-2.8-0.1-5.5-0.1-8.3-0.3c-2.7-0.2-5.2-0.5-7.7-1c-9.6-1.7-17-4.7-21.8-7.3c-4.8-2.6-7.1-4.5-6.9-4.8
												c0.2-0.4,2.9,1,7.8,2.9s12.2,4.3,21.5,5.4c2.4,0.3,4.7,0.5,7.3,0.6c2.6,0.1,5.2,0,8.1,0l18-0.1c12.7,0,26.5,0,41.2,0.2
												C870.2,343.6,917.5,345.2,917.5,346.7z"/>
											<path class="st4" d="M911.2,346.7c0,1.4-44.6,2.2-99.6,1.7c-13.8-0.1-26.8-0.3-38.7-0.6l-16.9-0.4l-7.7-0.2
												c-2.6-0.1-4.9-0.3-7.2-0.5c-9.1-1.1-16.3-3.5-20.9-5.6c-4.6-2.1-7-3.7-6.8-4c0.2-0.3,2.8,0.7,7.6,2.2
												c4.7,1.5,11.8,3.2,20.5,3.8c2.2,0.1,4.5,0.2,6.9,0.2l7.7-0.1l16.9-0.1c11.9,0,25,0,38.7,0.2
												C866.7,343.7,911.2,345.2,911.2,346.7z"/>
											<path class="st5" d="M905,346.6c0,1.4-41.8,2.1-93.4,1.6c-25.8-0.3-49-0.7-66-1.4c-8.6-0.6-15.4-2.4-19.9-4
												c-4.5-1.6-6.8-2.9-6.7-3.2c0.1-0.3,2.7,0.4,7.2,1.5c4.5,1,11.2,2.3,19.5,2.4c16.8-0.2,40.2-0.3,65.9-0.1
												C863.3,343.8,905,345.2,905,346.6z"/>
											<path class="st6" d="M898.9,346.5c0,1.3-39,1.9-87.1,1.5c-24.1-0.2-45.8-0.7-61.5-1.2c-8-0.2-14.4-1.4-18.7-2.7
												c-4.3-1.2-6.5-2.3-6.4-2.6c0.1-0.3,2.5,0.2,6.8,0.9c4.3,0.7,10.5,1.4,18.4,1.1c15.7-0.3,37.5-0.3,61.6-0.1
												C859.8,344,898.9,345.3,898.9,346.5z"/>
											<path class="st7" d="M892.6,346.5c0,1.2-36.2,1.8-80.9,1.4c-22.3-0.2-42.6-0.6-57.2-1.2c-3.6-0.1-7-0.2-9.9-0.5
												c-2.9-0.3-5.4-0.7-7.5-1.1c-4-0.9-6.2-1.7-6.1-2c0.2-0.6,8.9,1.3,23.6,0.6c14.6-0.2,34.9-0.3,57.2-0.1
												C856.4,344.1,892.6,345.3,892.6,346.5z"/>
											<path class="st8" d="M886.4,346.4c0,1.1-33.4,1.7-74.7,1.3c-20.6-0.2-39.2-0.6-52.8-1.1c-6.8-0.3-12.2-0.4-16-1
												c-3.8-0.5-5.8-1.2-5.8-1.4c0-0.3,2.2-0.2,5.9-0.1s9.1-0.2,15.9-0.3c13.5-0.2,32.1-0.3,52.8-0.1
												C853,344.2,886.4,345.3,886.4,346.4z"/>
											<path class="st9" d="M880.1,346.4c0,1-30.7,1.5-68.4,1.2c-18.9-0.2-36-0.5-48.4-1c-6.2-0.2-11.2-0.5-14.6-0.7
												c-3.4-0.3-5.4-0.7-5.3-0.9c0-0.3,2-0.3,5.4-0.5c3.4-0.2,8.5-0.3,14.6-0.4c12.4-0.2,29.5-0.2,48.4-0.1
												C849.5,344.4,880.1,345.4,880.1,346.4z"/>
											<path class="st10" d="M873.9,346.3c0,0.9-27.8,1.4-62.2,1c-34.3-0.3-62.1-1.3-62.1-2.2c0-0.9,27.8-1.4,62.2-1.1
												C846.1,344.5,873.9,345.4,873.9,346.3z"/>
											<path class="st11" d="M867.7,346.3c0,0.8-25.1,1.2-55.9,0.9c-30.9-0.3-55.9-1.2-55.9-2s25.1-1.3,55.9-1
												C842.6,344.6,867.7,345.4,867.7,346.3z"/>
											<path class="st12" d="M861.4,346.2c0,0.7-22.3,1.1-49.7,0.8c-27.4-0.3-49.7-1.1-49.6-1.8c0-0.7,22.3-1.1,49.7-0.9
												C839.2,344.8,861.4,345.4,861.4,346.2z"/>
										</g>
									</g>
								</g>
							</g>
						</g>
					</g>
				</g>
				<g>
					<g>
						<g>
							<g>
								<polygon class="st21" points="1154.1,192.3 1155.7,192.3 1155.7,196.9 1156.8,196.9 1156.8,192.4 1158.4,192.4 
									1158.4,191.4 1154.1,191.4 								"/>
								<polygon class="st21" points="1161.7,195.2 1160.8,191.5 1159.1,191.4 1159,196.9 1160.1,196.9 1160.1,192.6 1161.2,196.9 
									1162.3,196.9 1163.3,192.7 1163.3,196.9 1164.3,196.9 1164.3,191.5 1162.8,191.5 								"/>
								<polygon class="st21" points="1158.4,192.4 1156.8,192.4 1156.8,196.9 1155.7,196.9 1155.7,192.3 1154.1,192.3 
									1154.1,191.4 1158.4,191.4 								"/>
								<polygon class="st21" points="1164.3,196.9 1163.3,196.9 1163.3,192.7 1162.3,196.9 1161.2,196.9 1160.1,192.6 
									1160.1,196.9 1159,196.9 1159.1,191.4 1160.8,191.5 1161.7,195.2 1162.8,191.5 1164.3,191.5 								"/>
							</g>
						</g>
					</g>
					<g>
						<g>
							<g>
								<path class="st22" d="M823.5,258.6l0.1-8.6H819v-1.8l12,0.1v1.8h-4.4l-0.1,8.6L823.5,258.6z"/>
							</g>
							<g>
								<path class="st22" d="M838.1,258.7l0.1-10.3l11.2,0.1v1.8l-8.2-0.1v2.3l7.6,0.1v1.8l-7.6-0.1v2.9l8.5,0.1v1.8L838.1,258.7z"
									/>
							</g>
							<g>
								<path class="st22" d="M867,255.1l2.9,0.7c-0.9,2.2-3,3.3-6.3,3.2c-2.4,0-4.1-0.6-5.2-1.7c-1.1-1.1-1.7-2.3-1.7-3.6
									c0-1.7,0.7-2.9,1.9-3.9c1.3-1,2.9-1.5,5.2-1.5c3.2,0,5.2,1.1,6,3l-3,0.5c-0.4-1.2-1.5-1.8-3.1-1.8c-2.6,0-3.7,1.1-3.8,3.4
									c0,2.4,1.2,3.6,3.6,3.6C865.4,257.3,866.5,256.6,867,255.1z"/>
							</g>
							<g>
								<path class="st22" d="M877.7,259.1l0.1-10.3h3v4l6,0.1v-4h3l-0.1,10.3h-3v-4.5l-6-0.1v4.5H877.7z"/>
							</g>
							<g>
								<path class="st22" d="M898.2,259.2l0.1-10.3h2.9l6.1,7l0.1-6.9h2.9l-0.1,10.3h-3l-6-6.8l-0.1,6.7H898.2z"/>
							</g>
							<g>
								<path class="st22" d="M917.9,254.3c0-1.7,0.7-2.9,2-3.9s3-1.4,5.4-1.4c2.6,0,4.4,0.6,5.6,1.7c1.2,1.1,1.7,2.4,1.7,3.7
									c0,1.7-0.7,2.9-2,3.8c-1.3,1-3,1.4-5.4,1.4c-2.3,0-4.1-0.5-5.4-1.5S917.9,255.9,917.9,254.3z M921.1,254.2
									c0,1.1,0.4,2,1.1,2.6c0.7,0.7,1.8,1,3,1c1.4,0,2.5-0.3,3.1-1c0.7-0.7,1.1-1.6,1.1-2.6c0-2.4-1.4-3.5-4.1-3.5
									C922.5,250.8,921.1,251.9,921.1,254.2z"/>
							</g>
							<g>
								<path class="st22" d="M940,259.6l0.1-10.3h3l-0.1,8.6l7.6,0.1v1.8L940,259.6z"/>
							</g>
							<g>
								<path class="st22" d="M957.5,254.7c0-1.7,0.7-2.9,2-3.9c1.3-1,3-1.4,5.4-1.4c2.6,0,4.4,0.6,5.6,1.7c1.2,1.1,1.7,2.4,1.7,3.7
									c0,1.7-0.7,2.9-2,3.8c-1.3,1-3,1.4-5.4,1.4c-2.3,0-4.1-0.5-5.4-1.5C958.2,257.6,957.5,256.3,957.5,254.7z M960.7,254.6
									c0,1.1,0.4,2,1.1,2.6c0.7,0.7,1.8,1,3,1c1.4,0,2.5-0.3,3.1-1c0.7-0.7,1.1-1.6,1.1-2.6c0-2.4-1.4-3.5-4.1-3.5
									C962.2,251.1,960.8,252.3,960.7,254.6z"/>
							</g>
							<g>
								<path class="st22" d="M986.8,256.3v-1.8l6.6,0.1v4.1c-1.7,1.1-3.8,1.6-6.5,1.6c-2.5,0-4.4-0.6-5.7-1.6c-1.3-1-2-2.3-2-3.8
									c0-1.8,0.8-3,2.3-3.9s3.2-1.3,5.3-1.3c3.6,0,5.8,1.1,6.4,3l-3,0.4c-0.5-1.1-1.6-1.7-3.3-1.7c-2.9,0-4.3,1.1-4.4,3.3
									c0,1.2,0.4,2.1,1.1,2.7c0.7,0.7,1.8,1,3.2,1c1.3,0,2.5-0.3,3.5-0.9v-1.3H986.8z"/>
							</g>
							<g>
								<path class="st22" d="M1001.2,260.2l0.1-10.3h3l-0.1,10.3H1001.2z"/>
							</g>
							<g>
								<path class="st22" d="M1012.3,260.3l0.1-10.3l11.2,0.1v1.8l-8.2-0.1v2.3l7.6,0.1v1.8l-7.6-0.1v2.9l8.5,0.1v1.8L1012.3,260.3
									z"/>
							</g>
							<g>
								<path class="st22" d="M1030.8,257.1l2.9-0.2c0.3,1.3,1.5,2,3.2,2.1c2,0,2.9-0.5,2.9-1.4c0-0.4-0.2-0.6-0.7-0.8
									c-0.4-0.2-1.5-0.4-3.2-0.8c-3.2-0.6-4.8-1.7-4.8-3.1c0-0.9,0.5-1.7,1.6-2.2c1-0.5,2.4-0.7,4-0.7c3.7,0,5.7,1.1,5.8,3.1
									l-3,0.1c-0.2-1-1.2-1.5-2.8-1.5c-1.7,0-2.6,0.3-2.6,1c0,0.2,0.1,0.4,0.5,0.6c0.3,0.2,1.3,0.5,2.9,0.8c2.6,0.5,4.1,1,4.6,1.6
									c0.6,0.6,0.9,1.2,0.9,2c0,2.2-2.1,3.1-6.1,3.1C1033.2,260.6,1031.1,259.4,1030.8,257.1z"/>
							</g>
							<g>
								<path class="st23" d="M876.9,239.7l-58.2-0.6l0.1-8.2l37.4-42.7l-34.4-0.3l0.1-11.5l55.4,0.5l-0.1,7.9l-36.7,43l36.4,0.3
									L876.9,239.7z"/>
							</g>
							<g>
								<path class="st23" d="M953.2,177.8l-23.9,40.1l-0.2,22.2l-16.3-0.2l0.2-22l-22.6-40.8l18.6,0.2l11.4,23.5
									c0.2,0.4,0.7,2.2,1.6,5.1h0.2c0.5-2.1,1-3.7,1.6-4.9l12.1-23.4L953.2,177.8z"/>
							</g>
							<g>
								<path class="st23" d="M1053.8,241.4l-16.1-0.2l0.4-37.4c0-4,0.3-8.6,0.7-13.4h-0.4c-0.9,3.8-1.7,6.6-2.4,8.3l-17.3,42.4
									l-13.3-0.1l-16.8-42.3c-0.5-1.2-1.2-4-2.2-8.7h-0.5c0.4,6.2,0.6,11.6,0.5,16.2l-0.3,34.6l-14.6-0.1l0.6-62.6l23.9,0.2
									l14.4,37.3c1.2,2.9,2,6,2.5,8.9h0.3c1-3.4,2-6.5,2.9-9l15.1-36.9l23.3,0.2L1053.8,241.4z"/>
							</g>
							<g>
								<path class="st24" d="M1088.1,210.2l0.1-15.7l-5.6-0.1v-3.2l15,0.1v3.2l-5.6-0.1l-0.1,15.7L1088.1,210.2z"/>
								<path class="st24" d="M1103.8,191.4l-0.1,7c1.2-1.4,2.6-2.1,4.2-2c0.9,0,1.6,0.2,2.3,0.5c0.7,0.3,1.2,0.7,1.5,1.2
									s0.6,1,0.7,1.6s0.2,1.5,0.2,2.8l-0.1,8.1h-3.6l0.1-7.3c0-1.5,0-2.4-0.2-2.8c-0.1-0.4-0.4-0.7-0.7-0.9
									c-0.4-0.2-0.8-0.4-1.3-0.4c-0.6,0-1.2,0.1-1.6,0.4c-0.5,0.3-0.8,0.7-1.1,1.3c-0.2,0.6-0.3,1.5-0.4,2.7l-0.1,6.9h-3.6l0.2-19
									L1103.8,191.4z"/>
								<path class="st24" d="M1116.3,194.9v-3.3h3.6v3.3H1116.3z M1116.1,210.5l0.1-13.7h3.6l-0.1,13.7H1116.1z"/>
								<path class="st24" d="M1135.9,210.7h-3.6l0.1-7c0-1.5-0.1-2.5-0.2-2.9c-0.2-0.4-0.4-0.8-0.8-1c-0.4-0.2-0.8-0.4-1.3-0.4
									c-0.6,0-1.2,0.2-1.7,0.5s-0.9,0.8-1.1,1.4c-0.2,0.6-0.3,1.6-0.3,3.1l-0.1,6.2h-3.6l0.1-13.7h3.3v2c1.2-1.6,2.8-2.3,4.5-2.3
									c0.8,0,1.6,0.2,2.2,0.5c0.7,0.3,1.2,0.7,1.5,1.1c0.3,0.5,0.6,1,0.7,1.6s0.2,1.4,0.2,2.5L1135.9,210.7z"/>
								<path class="st24" d="M1139.5,210.7l0.2-19h3.6l-0.1,10l4.3-4.8h4.4l-4.7,5l4.9,8.7h-3.9l-3.3-6.2l-1.7,1.8v4.4H1139.5z"/>
							</g>
							<g>
								<path class="st24" d="M1083.4,239.7l0.2-19h3.8l-0.2,19H1083.4z"/>
								<path class="st24" d="M1103.4,239.9h-3.6l0.1-7c0-1.5-0.1-2.5-0.2-2.9c-0.2-0.4-0.4-0.8-0.8-1c-0.4-0.2-0.8-0.4-1.3-0.4
									c-0.6,0-1.2,0.2-1.7,0.5s-0.9,0.8-1.1,1.4c-0.2,0.6-0.3,1.6-0.3,3.1l-0.1,6.2h-3.6l0.1-13.7h3.3v2c1.2-1.6,2.8-2.3,4.5-2.3
									c0.8,0,1.6,0.2,2.2,0.5c0.7,0.3,1.2,0.7,1.5,1.1c0.3,0.5,0.6,1,0.7,1.6s0.2,1.4,0.2,2.5L1103.4,239.9z"/>
								<path class="st24" d="M1119.5,240h-3.6l0.1-7c0-1.5-0.1-2.5-0.2-2.9c-0.2-0.4-0.4-0.8-0.8-1s-0.8-0.4-1.3-0.4
									c-0.6,0-1.2,0.2-1.7,0.5s-0.9,0.8-1.1,1.4c-0.2,0.6-0.3,1.6-0.3,3.1l-0.1,6.2h-3.6l0.1-13.7h3.3v2c1.2-1.6,2.8-2.3,4.5-2.3
									c0.8,0,1.6,0.2,2.2,0.5c0.7,0.3,1.2,0.7,1.5,1.1c0.3,0.5,0.6,1,0.7,1.6s0.2,1.4,0.2,2.5L1119.5,240z"/>
								<path class="st24" d="M1122.4,233c0-1.2,0.3-2.4,0.9-3.5c0.6-1.1,1.5-2,2.6-2.6c1.1-0.6,2.4-0.9,3.6-0.9
									c2.1,0,3.7,0.7,5.1,2.1c1.3,1.4,2,3,2,5.1s-0.7,3.8-2.1,5.1c-1.4,1.4-3,2.1-5.1,2c-1.3,0-2.5-0.3-3.5-0.9
									c-1.2-0.6-2-1.4-2.6-2.6C1122.7,236,1122.4,234.6,1122.4,233z M1126.1,233.2c0,1.4,0.3,2.4,1,3.1c0.7,0.7,1.5,1.1,2.4,1.1
									c1,0,1.8-0.4,2.4-1.1c0.7-0.7,1-1.8,1-3.1c0-1.4-0.3-2.4-0.9-3.1c-0.6-0.7-1.4-1.1-2.4-1.1c-1,0-1.8,0.4-2.4,1.1
									C1126.5,230.8,1126.1,231.9,1126.1,233.2z"/>
								<path class="st24" d="M1143.1,240.3l-5.4-13.8h3.8l2.6,7l0.7,2.4c0.2-0.6,0.3-1,0.4-1.2c0.1-0.4,0.3-0.8,0.4-1.2l2.7-7h3.7
									l-5.6,13.7L1143.1,240.3z"/>
								<path class="st24" d="M1156.9,230.8l-3.2-0.6c0.4-1.3,1-2.3,2-2.9c0.9-0.6,2.3-1,4-0.9c1.6,0,2.9,0.2,3.6,0.6
									s1.4,0.9,1.7,1.5c0.3,0.6,0.5,1.7,0.5,3.2l-0.1,4.2c0,1.2,0,2.1,0.2,2.7c0.1,0.6,0.3,1.2,0.6,1.9h-3.6
									c-0.1-0.2-0.2-0.6-0.3-1.1c-0.1-0.2-0.1-0.4-0.1-0.4c-0.6,0.6-1.3,1.1-2,1.4c-0.7,0.3-1.5,0.4-2.3,0.4
									c-1.4,0-2.6-0.4-3.3-1.2c-0.8-0.8-1.2-1.8-1.2-2.9c0-0.8,0.2-1.5,0.6-2.1c0.4-0.6,0.9-1.1,1.6-1.4c0.7-0.3,1.7-0.6,2.9-0.8
									c1.7-0.3,2.9-0.6,3.5-0.9v-0.4c0-0.7-0.2-1.2-0.5-1.5s-1-0.5-2-0.5c-0.7,0-1.2,0.1-1.5,0.4
									C1157.3,229.8,1157.1,230.3,1156.9,230.8z M1161.7,233.8c-0.5,0.2-1.2,0.3-2.3,0.5c-1,0.2-1.7,0.4-2,0.6
									c-0.5,0.3-0.7,0.8-0.7,1.3c0,0.5,0.2,1,0.6,1.3c0.4,0.4,0.9,0.6,1.5,0.6c0.7,0,1.3-0.2,1.9-0.6c0.4-0.3,0.7-0.7,0.9-1.2
									c0.1-0.3,0.2-0.9,0.2-1.8L1161.7,233.8z"/>
								<path class="st24" d="M1175.1,226.8v2.9h-2.5l-0.1,5.5c0,1.1,0,1.8,0.1,2c0,0.2,0.2,0.3,0.3,0.5c0.2,0.1,0.4,0.2,0.6,0.2
									c0.3,0,0.8-0.1,1.5-0.3l0.3,2.9c-0.9,0.4-1.8,0.5-2.9,0.5c-0.7,0-1.3-0.1-1.8-0.4c-0.5-0.2-0.9-0.5-1.2-0.9
									c-0.2-0.4-0.4-0.8-0.5-1.4c-0.1-0.4-0.1-1.3-0.1-2.6l0.1-6h-1.7v-2.9h1.7v-2.8l3.6-2.1v4.8L1175.1,226.8z"/>
								<path class="st24" d="M1177.7,225v-3.3h3.6v3.3H1177.7z M1177.5,240.6l0.1-13.7h3.6l-0.1,13.7H1177.5z"/>
								<path class="st24" d="M1188.7,240.7l-5.4-13.8h3.8l2.6,7l0.7,2.4c0.2-0.6,0.3-1,0.4-1.2c0.1-0.4,0.3-0.8,0.4-1.2l2.7-7h3.7
									l-5.6,13.7L1188.7,240.7z"/>
								<path class="st24" d="M1207.6,236.4l3.6,0.7c-0.5,1.3-1.2,2.4-2.3,3c-1,0.7-2.3,1-3.7,1c-2.4,0-4.1-0.8-5.3-2.4
									c-0.9-1.3-1.4-2.9-1.3-4.7c0-2.3,0.6-4,1.9-5.3c1.2-1.3,2.8-1.9,4.5-1.9c2.1,0,3.6,0.7,4.8,2.1c1.2,1.4,1.7,3.4,1.7,6.2
									l-9-0.1c0,1.1,0.3,1.9,0.9,2.6c0.6,0.6,1.3,0.9,2.1,0.9c0.6,0,1.1-0.1,1.5-0.5C1207.1,237.6,1207.4,237.1,1207.6,236.4z
									 M1207.8,232.8c0-1.1-0.3-1.9-0.8-2.4c-0.5-0.6-1.2-0.8-1.9-0.9c-0.8,0-1.5,0.3-2,0.9c-0.5,0.6-0.8,1.4-0.8,2.4H1207.8z"/>
							</g>
							<g>
								<path class="st25" d="M754.2,170l42,0.4c5.4,0.1,9.8,4.6,9.7,10.1l-0.6,59.3c-0.1,5.5-4.5,10-9.9,9.9l-42-0.4
									c-5.4-0.1-9.8-4.6-9.7-10.1l0.6-59.3C744.3,174.4,748.8,170,754.2,170"/>
								<polygon class="st26" points="726.6,236.9 739.2,237 737,242 724.4,241.9 								"/>
								<polygon class="st26" points="732,225.4 744.5,225.5 742.4,230.5 729.7,230.5 								"/>
								<polygon class="st26" points="736.9,213.8 749.6,213.9 747.3,218.9 734.7,218.9 								"/>
								<polygon class="st26" points="742.6,200.7 755.2,200.8 753,205.8 740.4,205.8 								"/>
								<polygon class="st26" points="747.8,188.3 760.5,188.4 758.2,193.4 745.6,193.4 								"/>
								<polygon class="st26" points="753.6,176.6 766.2,176.7 764,181.7 751.4,181.6 								"/>
								<polygon id="XMLID_25_" class="st12" points="794.1,239.4 805,239.4 779.8,176.7 774.4,176.7 769,176.7 743.9,239.4 
									754.8,239.4 762,221.5 778.4,221.5 781.9,217.1 764,217.1 774.4,190.8 								"/>
							</g>
						</g>
					</g>
				</g>
			</g>
		</g>
		<rect x="1037.2" y="212.5" transform="matrix(9.331422e-03 -1 1 9.331422e-03 841.5011 1278.3215)" width="57.4" height="4"/>
	</g>
</g>
<g>
	
		<image style="overflow:visible;opacity:0.75;enable-background:new    ;" width="2579" height="567" xlink:href="1CF59EA8278A305F.png"  transform="matrix(0.2334 0 0 0.2334 7.5398 127.6493)">
	</image>
	<g>
		<g>
			<g>
				<path class="st27" d="M25.3,192.4v23.8c-0.6,0.2-1.4,0.4-2.5,0.6c-1,0.2-2.1,0.3-3.3,0.3c-2.4,0-4.1-0.4-5.1-1.3
					c-1-0.8-1.5-2.4-1.5-4.4V152c0-1.3,0.4-2.4,1.1-3s1.8-1.3,3-1.7c2.4-0.9,5.2-1.4,8.6-1.8c3.3-0.3,6.4-0.5,9.3-0.5
					c9.9,0,17.3,2.1,22.1,6.3c4.8,4.2,7.2,9.9,7.2,17.1c0,7.2-2.4,13-7.2,17.3c-4.8,4.3-11.9,6.5-21.4,6.5H25.3V192.4z M34.7,182.5
					c5.3,0,9.4-1.2,12.5-3.4c3-2.3,4.5-5.7,4.5-10.3c0-4.6-1.5-8-4.3-10.1c-2.9-2.2-7-3.2-12.4-3.2c-1.8,0-3.5,0.1-5.2,0.2
					c-1.8,0.2-3.2,0.4-4.6,0.6v26.3H34.7z"/>
				<path class="st27" d="M126.5,189.6c0,4.3-0.7,8.4-2,11.8c-1.3,3.5-3.1,6.5-5.5,8.9c-2.4,2.5-5.2,4.3-8.6,5.7
					c-3.3,1.4-7.2,2-11.3,2c-4.1,0-7.9-0.7-11.3-2c-3.3-1.4-6.2-3.2-8.6-5.7c-2.4-2.5-4.1-5.4-5.5-8.9c-1.3-3.5-2-7.5-2-11.8
					c0-4.3,0.7-8.4,2-11.9c1.3-3.5,3.1-6.5,5.5-8.9c2.4-2.5,5.2-4.3,8.6-5.7c3.3-1.4,7.1-2,11.1-2c4,0,7.8,0.7,11.1,2
					c3.3,1.4,6.3,3.2,8.6,5.7c2.4,2.5,4.2,5.5,5.5,8.9C125.8,181.3,126.5,185.2,126.5,189.6z M99.3,170.7c-4.6,0-8.3,1.7-10.9,4.9
					c-2.7,3.3-4,8-4,14s1.3,10.6,3.9,13.9c2.7,3.2,6.3,4.9,11,4.9c4.7,0,8.5-1.7,11-4.9c2.7-3.2,3.9-7.9,3.9-13.9
					c0-5.9-1.3-10.5-3.9-13.9C107.6,172.4,103.9,170.7,99.3,170.7z"/>
				<path class="st27" d="M174,179.2c-0.9,3.3-1.9,6.8-2.9,10.2c-1.1,3.4-2.1,6.7-3.1,9.9s-2.1,6.2-2.9,8.9c-1,2.8-1.9,5.2-2.6,7.3
					c-0.8,0.5-1.7,1-2.8,1.3c-1.1,0.3-2.5,0.5-4,0.5c-1.8,0-3.3-0.3-4.7-0.8c-1.4-0.5-2.3-1.4-2.8-2.6c-0.9-1.9-2-4.8-3.2-8.8
					c-1.2-4-2.5-8.6-3.6-13.4c-1.2-4.8-2.5-9.7-3.5-14.6c-1.2-4.9-2.1-9.2-2.8-12.9c0.6-0.7,1.5-1.3,2.6-1.9
					c1.1-0.6,2.4-0.9,3.7-0.9c3.4,0,5.5,2,6.2,5.9c0.7,3.9,1.5,7.9,2.3,11.9c0.8,4,1.6,7.8,2.4,11.2c0.8,3.4,1.5,6.6,2.2,9.3
					s1.2,4.8,1.5,6.2h0.5c0.4-1.4,1-3.4,1.8-6c0.8-2.6,1.8-5.7,2.8-9c1.1-3.4,2.2-7.1,3.4-11c1.2-3.9,2.5-7.9,3.8-11.8
					c1.8-1.1,3.8-1.6,6.3-1.6c1.8,0,3.2,0.3,4.4,0.9c1.2,0.6,2,1.5,2.4,2.7c1.2,3.8,2.5,7.6,3.5,11.3c1.2,3.7,2.2,7.2,3.1,10.4
					c1,3.2,1.8,6.1,2.6,8.6c0.7,2.5,1.3,4.3,1.7,5.7h0.6c1.6-6.6,3.1-13.6,4.8-20.9c1.7-7.4,3.1-14.7,4.2-22.1
					c0.8-0.4,1.6-0.7,2.6-1c0.9-0.3,1.9-0.4,2.8-0.4c1.7,0,3,0.4,4.1,1.2s1.6,2,1.6,3.6c0,1-0.2,2.7-0.7,5c-0.5,2.4-1.1,5.1-1.9,8.4
					c-0.8,3.1-1.7,6.6-2.7,10.1s-2,7-2.9,10.3c-1,3.3-1.9,6.3-2.9,9c-0.9,2.8-1.7,4.9-2.3,6.3c-0.6,0.5-1.6,0.9-2.8,1.2
					c-1.2,0.4-2.7,0.5-4.1,0.5c-4,0-6.5-1-7.2-2.9c-0.7-1.9-1.5-4.1-2.5-6.8c-0.9-2.7-1.9-5.6-2.9-8.6c-1-3.1-2-6.4-2.9-9.7
					C175.9,185.8,174.9,182.5,174,179.2z"/>
				<path class="st27" d="M233.1,195.7c1.1,4.3,3.1,7.6,6.3,9.7c3.1,2.1,7.1,3.1,11.9,3.1c3.2,0,6.2-0.5,8.8-1.5s4.8-2.1,6.5-3.2
					c2.2,1.2,3.2,2.9,3.2,5.2c0,1.3-0.5,2.6-1.5,3.6c-1,1.1-2.4,2.1-4.1,2.9c-1.8,0.8-3.7,1.5-6.1,1.9c-2.4,0.5-4.8,0.7-7.6,0.7
					c-4.4,0-8.5-0.6-12.1-1.9c-3.6-1.2-6.8-3-9.3-5.5c-2.7-2.5-4.6-5.5-6-9c-1.4-3.6-2.2-7.8-2.2-12.6c0-4.6,0.7-8.6,2.1-12.1
					c1.4-3.4,3.2-6.4,5.6-8.7s5.2-4.1,8.4-5.3c3.2-1.2,6.7-1.9,10.3-1.9s7.1,0.6,10,1.8c3,1.2,5.6,2.9,7.9,4.9
					c2.2,2.1,3.8,4.6,5,7.6c1.2,2.9,1.8,6.1,1.8,9.5c0,2-0.5,3.3-1.4,4.2c-0.9,0.9-2.3,1.5-4,1.8L233.1,195.7z M247.3,170.4
					c-4.2,0-7.8,1.4-10.5,4.2c-2.8,2.9-4.2,6.9-4.4,12.2l28.3-4c-0.3-3.4-1.6-6.4-3.8-8.7C254.7,171.6,251.5,170.4,247.3,170.4z"/>
				<path class="st27" d="M296.4,216.3c-0.5,0.2-1.3,0.4-2.3,0.6c-1,0.2-2,0.3-3.1,0.3c-2.3,0-3.8-0.4-4.9-1.3s-1.6-2.3-1.6-4.2
					v-37.7c0-1.9,0.4-3.4,1.2-4.6c0.8-1.2,2-2.4,3.6-3.4c2.3-1.4,5-2.6,8.6-3.4c3.4-0.9,7.3-1.4,11.4-1.4c6.8,0,10.1,2,10.1,5.7
					c0,0.9-0.2,1.8-0.5,2.6c-0.3,0.8-0.7,1.5-1.1,2.2c-0.8-0.2-1.8-0.3-2.9-0.5c-1.2-0.2-2.4-0.2-3.6-0.2c-3,0-5.9,0.3-8.4,1
					c-2.6,0.7-4.7,1.5-6.5,2.5L296.4,216.3L296.4,216.3z"/>
				<path class="st27" d="M337.2,195.7c1.1,4.3,3.1,7.6,6.3,9.7c3.1,2.1,7.1,3.1,11.9,3.1c3.2,0,6.2-0.5,8.8-1.5
					c2.7-1,4.8-2.1,6.5-3.2c2.2,1.2,3.2,2.9,3.2,5.2c0,1.3-0.5,2.6-1.5,3.6c-1,1.1-2.4,2.1-4.1,2.9c-1.8,0.8-3.7,1.5-6.1,1.9
					c-2.4,0.5-4.8,0.7-7.6,0.7c-4.4,0-8.5-0.6-12.1-1.9c-3.6-1.2-6.8-3-9.3-5.5c-2.7-2.5-4.6-5.5-6-9c-1.4-3.6-2.2-7.8-2.2-12.6
					c0-4.6,0.7-8.6,2.1-12.1c1.4-3.4,3.2-6.4,5.6-8.7c2.4-2.4,5.2-4.1,8.4-5.3c3.2-1.2,6.7-1.9,10.3-1.9s7.1,0.6,10,1.8
					c3,1.2,5.6,2.9,7.9,4.9c2.2,2.1,3.8,4.6,5,7.6c1.2,2.9,1.8,6.1,1.8,9.5c0,2-0.5,3.3-1.4,4.2c-0.9,0.9-2.3,1.5-4,1.8L337.2,195.7
					z M351.4,170.4c-4.2,0-7.8,1.4-10.5,4.2c-2.8,2.9-4.2,6.9-4.4,12.2l28.3-4c-0.3-3.4-1.6-6.4-3.8-8.7
					C358.8,171.6,355.5,170.4,351.4,170.4z"/>
				<path class="st27" d="M412.6,161.1c2.3,0,4.4,0.3,6.5,0.8c2.1,0.5,3.8,1.2,5.3,1.9v-21.8c0.5-0.2,1.3-0.4,2.3-0.6
					c1-0.2,2.1-0.4,3.2-0.4c2.3,0,3.8,0.4,4.9,1.3c1.1,0.9,1.6,2.3,1.6,4.2v60.2c0,1.6-0.4,2.9-1.1,3.9c-0.7,1.1-1.8,2-3.2,2.9
					c-1.8,1.2-4.1,2.2-7.2,3.1c-3,0.9-6.5,1.4-10.4,1.4c-4.3,0-8.4-0.6-12-1.7c-3.6-1.1-6.7-2.9-9.2-5.2c-2.6-2.4-4.5-5.3-5.9-8.8
					c-1.4-3.5-2.1-7.8-2.1-12.6c0-5,0.7-9.3,2.2-13c1.4-3.6,3.3-6.6,5.8-8.9s5.3-4,8.6-5.2C405.4,161.6,408.8,161.1,412.6,161.1z
					 M424.5,173.8c-1.3-0.9-2.9-1.6-4.6-2.2c-1.8-0.6-3.7-0.9-5.9-0.9c-2.3,0-4.4,0.4-6.4,1.1c-2,0.7-3.6,1.9-5.1,3.4
					c-1.5,1.6-2.7,3.5-3.4,6c-0.9,2.5-1.3,5.3-1.3,8.8c0,6.5,1.5,11.1,4.5,14.1c3,2.9,7.1,4.3,12.1,4.3c2.3,0,4.2-0.3,5.8-0.8
					c1.6-0.5,2.9-1.1,4.2-1.8L424.5,173.8L424.5,173.8z"/>
				<path class="st27" d="M528.5,164.4c0,3.3-0.9,6.4-2.6,9c-1.7,2.7-4.3,4.7-8.1,6.3c4.4,1.5,7.8,3.6,9.9,6.7s3.2,6.5,3.2,10.4
					c0,7.2-2.6,12.5-7.8,15.9c-5.2,3.4-12.6,5.1-22.2,5.1c-2.9,0-6.2-0.2-9.5-0.5c-3.3-0.3-6.4-0.9-9.2-1.8c-3.5-1-5.3-3-5.3-6.1
					V152c0-1.3,0.4-2.4,1.1-3s1.8-1.3,3-1.7c2.7-0.9,5.5-1.4,8.6-1.8c3.1-0.3,6.6-0.5,10.3-0.5c8.9,0,15.9,1.6,20.8,4.7
					C526.1,153.1,528.5,157.9,528.5,164.4z M489.2,175.8h13.7c4.3,0,7.7-1,9.9-2.9c2.3-1.9,3.3-4.5,3.3-7.9
					c0-6.8-5.3-10.1-15.8-10.1c-2.3,0-4.2,0.1-6.1,0.2c-1.9,0.2-3.4,0.4-4.9,0.6L489.2,175.8L489.2,175.8z M518.6,196.4
					c0-3.5-1.3-6.3-3.9-8.4s-6.4-3-11.3-3h-14.3v21.8c1.6,0.4,3.5,0.7,5.7,0.9c2.3,0.2,4.4,0.3,6.7,0.3c5.4,0,9.6-1,12.6-2.9
					C517.1,203.4,518.6,200.5,518.6,196.4z"/>
				<path class="st27" d="M553.8,203.9c-2-3.7-4.2-9-7-16c-2.8-6.9-5.4-14.7-8.1-23.5c0.7-0.9,1.6-1.6,2.8-2.2
					c1.2-0.6,2.4-0.9,3.6-0.9c1.7,0,3,0.4,4.1,1.2c1.1,0.8,2,2.2,2.7,4.2c2.1,6.2,4.2,12.3,6.5,18.4c2.3,6,4.7,12.3,7.4,18.7h0.5
					c1.2-2.5,2.4-5.3,3.5-8.6c1.2-3.3,2.4-6.8,3.5-10.4s2.3-7.4,3.2-11.2c1-3.8,1.9-7.4,2.7-10.9c0.8-0.4,1.6-0.7,2.4-0.9
					s1.8-0.4,2.9-0.4c1.7,0,3.1,0.4,4.2,1.2c1.1,0.8,1.8,2.1,1.8,3.7c0,2-0.5,5-1.6,9.1s-2.4,8.6-4.1,13.6c-1.7,4.9-3.6,9.9-5.7,15
					c-2.2,5-4.3,9.5-6.5,13.5c-3.8,6.8-7.3,11.9-10.4,15.4s-6,5.3-8.8,5.3c-2.2,0-3.8-0.6-5.1-1.8s-2.1-2.7-2.4-4.4
					c1.2-1.1,2.6-2.4,4-3.9c1.5-1.6,2.9-3.1,4.3-4.9c1.5-1.8,2.9-3.5,4.1-5.5c1.3-1.9,2.5-3.7,3.3-5.5c-1.3-0.4-2.6-1.1-3.8-2.3
					C556.6,209,555.2,207,553.8,203.9z"/>
			</g>
			<g>
				<g>
					
						<linearGradient id="SVGID_15_" gradientUnits="userSpaceOnUse" x1="12.9065" y1="191.8536" x2="64.2118" y2="191.8536" gradientTransform="matrix(1 0 0 -1 0 368)">
						<stop  offset="0" style="stop-color:#FFFFFF"/>
						<stop  offset="0.343" style="stop-color:#B2B2B2"/>
						<stop  offset="0.6633" style="stop-color:#F6F6F6"/>
						<stop  offset="1" style="stop-color:#B2B2B2"/>
					</linearGradient>
					<path class="st28" d="M25.3,187.5v23.8c-0.6,0.2-1.4,0.4-2.5,0.6c-1,0.2-2.1,0.3-3.3,0.3c-2.4,0-4.1-0.4-5.1-1.3
						c-1-0.8-1.5-2.4-1.5-4.4v-59.4c0-1.3,0.4-2.4,1.1-3c0.7-0.7,1.8-1.3,3-1.7c2.4-0.9,5.2-1.4,8.6-1.8c3.3-0.3,6.4-0.5,9.3-0.5
						c9.9,0,17.3,2.1,22.1,6.3c4.8,4.2,7.2,9.9,7.2,17.1c0,7.2-2.4,13-7.2,17.3s-11.9,6.5-21.4,6.5H25.3V187.5z M34.7,177.6
						c5.3,0,9.4-1.2,12.5-3.4c3-2.3,4.5-5.7,4.5-10.3s-1.5-8-4.3-10.1s-7-3.2-12.4-3.2c-1.8,0-3.5,0.1-5.2,0.2
						c-1.8,0.2-3.2,0.4-4.6,0.6v26.3H34.7z"/>
					
						<linearGradient id="SVGID_16_" gradientUnits="userSpaceOnUse" x1="72.0096" y1="183.4011" x2="126.5132" y2="183.4011" gradientTransform="matrix(1 0 0 -1 0 368)">
						<stop  offset="0" style="stop-color:#FFFFFF"/>
						<stop  offset="0.343" style="stop-color:#B2B2B2"/>
						<stop  offset="0.6633" style="stop-color:#F6F6F6"/>
						<stop  offset="1" style="stop-color:#B2B2B2"/>
					</linearGradient>
					<path class="st29" d="M126.5,184.6c0,4.3-0.7,8.4-2,11.8c-1.3,3.5-3.1,6.5-5.5,8.9c-2.4,2.5-5.2,4.3-8.6,5.7
						c-3.3,1.4-7.2,2-11.3,2c-4.1,0-7.9-0.7-11.3-2c-3.3-1.4-6.2-3.2-8.6-5.7c-2.4-2.5-4.1-5.4-5.5-8.9c-1.3-3.5-2-7.5-2-11.8
						c0-4.3,0.7-8.4,2-11.9s3.1-6.5,5.5-8.9c2.4-2.5,5.2-4.3,8.6-5.7c3.3-1.4,7.1-2,11.1-2c4,0,7.8,0.7,11.1,2
						c3.3,1.4,6.3,3.2,8.6,5.7s4.2,5.5,5.5,8.9C125.8,176.4,126.5,180.3,126.5,184.6z M99.3,165.8c-4.6,0-8.3,1.7-10.9,4.9
						c-2.7,3.3-4,8-4,14s1.3,10.6,3.9,13.9c2.7,3.2,6.3,4.9,11,4.9c4.7,0,8.5-1.7,11-4.9c2.7-3.2,3.9-7.9,3.9-13.9
						c0-5.9-1.3-10.5-3.9-13.9C107.6,167.4,103.9,165.8,99.3,165.8z"/>
					
						<linearGradient id="SVGID_17_" gradientUnits="userSpaceOnUse" x1="134.9777" y1="183.4502" x2="212.4788" y2="183.4502" gradientTransform="matrix(1 0 0 -1 0 368)">
						<stop  offset="0" style="stop-color:#FFFFFF"/>
						<stop  offset="0.343" style="stop-color:#B2B2B2"/>
						<stop  offset="0.6633" style="stop-color:#F6F6F6"/>
						<stop  offset="1" style="stop-color:#B2B2B2"/>
					</linearGradient>
					<path class="st30" d="M174,174.3c-0.9,3.3-1.9,6.8-2.9,10.2c-1.1,3.4-2.1,6.7-3.1,9.9s-2.1,6.2-2.9,8.9c-1,2.8-1.9,5.2-2.6,7.3
						c-0.8,0.5-1.7,1-2.8,1.3c-1.1,0.3-2.5,0.5-4,0.5c-1.8,0-3.3-0.3-4.7-0.8c-1.4-0.5-2.3-1.4-2.8-2.6c-0.9-1.9-2-4.8-3.2-8.8
						c-1.2-4-2.5-8.6-3.6-13.4c-1.2-4.8-2.5-9.7-3.5-14.6c-1.2-4.9-2.1-9.2-2.8-12.9c0.6-0.7,1.5-1.3,2.6-1.9
						c1.1-0.6,2.4-0.9,3.7-0.9c3.4,0,5.5,2,6.2,5.9c0.7,3.9,1.5,7.9,2.3,11.9c0.8,4,1.6,7.8,2.4,11.2c0.8,3.4,1.5,6.6,2.2,9.3
						c0.7,2.8,1.2,4.8,1.5,6.2h0.5c0.4-1.4,1-3.4,1.8-6c0.8-2.6,1.8-5.7,2.8-9c1.1-3.4,2.2-7.1,3.4-11c1.2-3.9,2.5-7.9,3.8-11.8
						c1.8-1.1,3.8-1.6,6.3-1.6c1.8,0,3.2,0.3,4.4,0.9c1.2,0.6,2,1.5,2.4,2.7c1.2,3.8,2.5,7.6,3.5,11.3c1.2,3.7,2.2,7.2,3.1,10.4
						c1,3.2,1.8,6.1,2.6,8.6c0.7,2.5,1.3,4.3,1.7,5.7h0.6c1.6-6.6,3.1-13.6,4.8-20.9c1.7-7.4,3.1-14.7,4.2-22.1
						c0.8-0.4,1.6-0.7,2.6-1c0.9-0.3,1.9-0.4,2.8-0.4c1.7,0,3,0.4,4.1,1.2c1.1,0.8,1.6,2,1.6,3.6c0,1-0.2,2.7-0.7,5
						c-0.5,2.4-1.1,5.1-1.9,8.4c-0.8,3.1-1.7,6.6-2.7,10.1c-1,3.5-2,7-2.9,10.3c-1,3.3-1.9,6.3-2.9,9c-0.9,2.8-1.7,4.9-2.3,6.3
						c-0.6,0.5-1.6,0.9-2.8,1.2c-1.2,0.4-2.7,0.5-4.1,0.5c-4,0-6.5-1-7.2-2.9c-0.7-1.9-1.5-4.1-2.5-6.8c-0.9-2.7-1.9-5.6-2.9-8.6
						c-1-3.1-2-6.4-2.9-9.7C175.9,180.9,174.9,177.6,174,174.3z"/>
					
						<linearGradient id="SVGID_18_" gradientUnits="userSpaceOnUse" x1="220.9167" y1="183.3519" x2="272.0859" y2="183.3519" gradientTransform="matrix(1 0 0 -1 0 368)">
						<stop  offset="0" style="stop-color:#FFFFFF"/>
						<stop  offset="0.343" style="stop-color:#B2B2B2"/>
						<stop  offset="0.6633" style="stop-color:#F6F6F6"/>
						<stop  offset="1" style="stop-color:#B2B2B2"/>
					</linearGradient>
					<path class="st31" d="M233.1,190.7c1.1,4.3,3.1,7.6,6.3,9.7c3.1,2.1,7.1,3.1,11.9,3.1c3.2,0,6.2-0.5,8.8-1.5
						c2.7-1,4.8-2.1,6.5-3.2c2.2,1.2,3.2,2.9,3.2,5.2c0,1.3-0.5,2.6-1.5,3.6s-2.4,2.1-4.1,2.9c-1.8,0.8-3.7,1.5-6.1,1.9
						c-2.4,0.5-4.8,0.7-7.6,0.7c-4.4,0-8.5-0.6-12.1-1.9c-3.6-1.2-6.8-3-9.3-5.5c-2.7-2.5-4.6-5.5-6-9c-1.4-3.6-2.2-7.8-2.2-12.6
						c0-4.6,0.7-8.6,2.1-12.1c1.4-3.4,3.2-6.4,5.6-8.7s5.2-4.1,8.4-5.3c3.2-1.2,6.7-1.9,10.3-1.9s7.1,0.6,10,1.8
						c3,1.2,5.6,2.9,7.9,4.9c2.2,2.1,3.8,4.6,5,7.6s1.8,6.1,1.8,9.5c0,2-0.5,3.3-1.4,4.2c-0.9,0.9-2.3,1.5-4,1.8L233.1,190.7z
						 M247.3,165.5c-4.2,0-7.8,1.4-10.5,4.2c-2.8,2.9-4.2,6.9-4.4,12.2l28.3-4c-0.3-3.4-1.6-6.4-3.8-8.7
						C254.7,166.7,251.5,165.5,247.3,165.5z"/>
					
						<linearGradient id="SVGID_19_" gradientUnits="userSpaceOnUse" x1="284.3889" y1="183.7942" x2="319.2296" y2="183.7942" gradientTransform="matrix(1 0 0 -1 0 368)">
						<stop  offset="0" style="stop-color:#FFFFFF"/>
						<stop  offset="0.343" style="stop-color:#B2B2B2"/>
						<stop  offset="0.6633" style="stop-color:#F6F6F6"/>
						<stop  offset="1" style="stop-color:#B2B2B2"/>
					</linearGradient>
					<path class="st32" d="M296.4,211.4c-0.5,0.2-1.3,0.4-2.3,0.6c-1,0.2-2,0.3-3.1,0.3c-2.3,0-3.8-0.4-4.9-1.3
						c-1.1-0.9-1.6-2.3-1.6-4.2V169c0-1.9,0.4-3.4,1.2-4.6c0.8-1.2,2-2.4,3.6-3.4c2.3-1.4,5-2.6,8.6-3.4c3.4-0.9,7.3-1.4,11.4-1.4
						c6.8,0,10.1,2,10.1,5.7c0,0.9-0.2,1.8-0.5,2.6c-0.3,0.8-0.7,1.5-1.1,2.2c-0.8-0.2-1.8-0.3-2.9-0.5c-1.2-0.2-2.4-0.2-3.6-0.2
						c-3,0-5.9,0.3-8.4,1c-2.6,0.7-4.7,1.5-6.5,2.5L296.4,211.4L296.4,211.4z"/>
					
						<linearGradient id="SVGID_20_" gradientUnits="userSpaceOnUse" x1="324.9799" y1="183.3519" x2="376.149" y2="183.3519" gradientTransform="matrix(1 0 0 -1 0 368)">
						<stop  offset="0" style="stop-color:#FFFFFF"/>
						<stop  offset="0.343" style="stop-color:#B2B2B2"/>
						<stop  offset="0.6633" style="stop-color:#F6F6F6"/>
						<stop  offset="1" style="stop-color:#B2B2B2"/>
					</linearGradient>
					<path class="st33" d="M337.2,190.7c1.1,4.3,3.1,7.6,6.3,9.7c3.1,2.1,7.1,3.1,11.9,3.1c3.2,0,6.2-0.5,8.8-1.5
						c2.7-1,4.8-2.1,6.5-3.2c2.2,1.2,3.2,2.9,3.2,5.2c0,1.3-0.5,2.6-1.5,3.6c-1,1.1-2.4,2.1-4.1,2.9c-1.8,0.8-3.7,1.5-6.1,1.9
						c-2.4,0.5-4.8,0.7-7.6,0.7c-4.4,0-8.5-0.6-12.1-1.9c-3.6-1.2-6.8-3-9.3-5.5c-2.7-2.5-4.6-5.5-6-9c-1.4-3.6-2.2-7.8-2.2-12.6
						c0-4.6,0.7-8.6,2.1-12.1c1.4-3.4,3.2-6.4,5.6-8.7c2.4-2.4,5.2-4.1,8.4-5.3c3.2-1.2,6.7-1.9,10.3-1.9s7.1,0.6,10,1.8
						c3,1.2,5.6,2.9,7.9,4.9c2.2,2.1,3.8,4.6,5,7.6s1.8,6.1,1.8,9.5c0,2-0.5,3.3-1.4,4.2c-0.9,0.9-2.3,1.5-4,1.8L337.2,190.7z
						 M351.4,165.5c-4.2,0-7.8,1.4-10.5,4.2c-2.8,2.9-4.2,6.9-4.4,12.2l28.3-4c-0.3-3.4-1.6-6.4-3.8-8.7
						C358.8,166.7,355.5,165.5,351.4,165.5z"/>
					
						<linearGradient id="SVGID_21_" gradientUnits="userSpaceOnUse" x1="385.5764" y1="193.4262" x2="436.5153" y2="193.4262" gradientTransform="matrix(1 0 0 -1 0 368)">
						<stop  offset="0" style="stop-color:#FFFFFF"/>
						<stop  offset="0.343" style="stop-color:#B2B2B2"/>
						<stop  offset="0.6633" style="stop-color:#F6F6F6"/>
						<stop  offset="1" style="stop-color:#B2B2B2"/>
					</linearGradient>
					<path class="st34" d="M412.6,156.1c2.3,0,4.4,0.3,6.5,0.8c2.1,0.5,3.8,1.2,5.3,1.9V137c0.5-0.2,1.3-0.4,2.3-0.6
						c1-0.2,2.1-0.4,3.2-0.4c2.3,0,3.8,0.4,4.9,1.3c1.1,0.9,1.6,2.3,1.6,4.2v60.2c0,1.6-0.4,2.9-1.1,3.9c-0.7,1.1-1.8,2-3.2,2.9
						c-1.8,1.2-4.1,2.2-7.2,3.1c-3,0.9-6.5,1.4-10.4,1.4c-4.3,0-8.4-0.6-12-1.7s-6.7-2.9-9.2-5.2c-2.6-2.4-4.5-5.3-5.9-8.8
						c-1.4-3.5-2.1-7.8-2.1-12.6c0-5,0.7-9.3,2.2-13c1.4-3.6,3.3-6.6,5.8-8.9c2.5-2.4,5.3-4,8.6-5.2
						C405.4,156.7,408.8,156.1,412.6,156.1z M424.5,168.9c-1.3-0.9-2.9-1.6-4.6-2.2c-1.8-0.6-3.7-0.9-5.9-0.9
						c-2.3,0-4.4,0.4-6.4,1.1c-2,0.7-3.6,1.9-5.1,3.4c-1.5,1.6-2.7,3.5-3.4,6c-0.9,2.5-1.3,5.3-1.3,8.8c0,6.5,1.5,11.1,4.5,14.1
						c3,2.9,7.1,4.3,12.1,4.3c2.3,0,4.2-0.3,5.8-0.8c1.6-0.5,2.9-1.1,4.2-1.8L424.5,168.9L424.5,168.9z"/>
					
						<linearGradient id="SVGID_22_" gradientUnits="userSpaceOnUse" x1="477.1062" y1="191.4605" x2="531.1636" y2="191.4605" gradientTransform="matrix(1 0 0 -1 0 368)">
						<stop  offset="0" style="stop-color:#FFFFFF"/>
						<stop  offset="0.343" style="stop-color:#B2B2B2"/>
						<stop  offset="0.6633" style="stop-color:#F6F6F6"/>
						<stop  offset="1" style="stop-color:#B2B2B2"/>
					</linearGradient>
					<path class="st35" d="M528.5,159.5c0,3.3-0.9,6.4-2.6,9c-1.7,2.7-4.3,4.7-8.1,6.3c4.4,1.5,7.8,3.6,9.9,6.7s3.2,6.5,3.2,10.4
						c0,7.2-2.6,12.5-7.8,15.9c-5.2,3.4-12.6,5.1-22.2,5.1c-2.9,0-6.2-0.2-9.5-0.5c-3.3-0.3-6.4-0.9-9.2-1.8c-3.5-1-5.3-3-5.3-6.1
						v-57.5c0-1.3,0.4-2.4,1.1-3c0.7-0.7,1.8-1.3,3-1.7c2.7-0.9,5.5-1.4,8.6-1.8c3.1-0.3,6.6-0.5,10.3-0.5c8.9,0,15.9,1.6,20.8,4.7
						C526.1,148.2,528.5,153,528.5,159.5z M489.2,170.9h13.7c4.3,0,7.7-1,9.9-2.9c2.3-1.9,3.3-4.5,3.3-7.9c0-6.8-5.3-10.1-15.8-10.1
						c-2.3,0-4.2,0.1-6.1,0.2c-1.9,0.2-3.4,0.4-4.9,0.6L489.2,170.9L489.2,170.9z M518.6,191.5c0-3.5-1.3-6.3-3.9-8.4s-6.4-3-11.3-3
						h-14.3v21.8c1.6,0.4,3.5,0.7,5.7,0.9c2.3,0.2,4.4,0.3,6.7,0.3c5.4,0,9.6-1,12.6-2.9C517.1,198.5,518.6,195.6,518.6,191.5z"/>
					
						<linearGradient id="SVGID_23_" gradientUnits="userSpaceOnUse" x1="538.7366" y1="173.1302" x2="590.2503" y2="173.1302" gradientTransform="matrix(1 0 0 -1 0 368)">
						<stop  offset="0" style="stop-color:#FFFFFF"/>
						<stop  offset="0.343" style="stop-color:#B2B2B2"/>
						<stop  offset="0.6633" style="stop-color:#F6F6F6"/>
						<stop  offset="1" style="stop-color:#B2B2B2"/>
					</linearGradient>
					<path class="st36" d="M553.8,199c-2-3.7-4.2-9-7-16c-2.8-6.9-5.4-14.7-8.1-23.5c0.7-0.9,1.6-1.6,2.8-2.2
						c1.2-0.6,2.4-0.9,3.6-0.9c1.7,0,3,0.4,4.1,1.2c1.1,0.8,2,2.2,2.7,4.2c2.1,6.2,4.2,12.3,6.5,18.4c2.3,6,4.7,12.3,7.4,18.7h0.5
						c1.2-2.5,2.4-5.3,3.5-8.6c1.2-3.3,2.4-6.8,3.5-10.4c1.2-3.6,2.3-7.4,3.2-11.2c1-3.8,1.9-7.4,2.7-10.9c0.8-0.4,1.6-0.7,2.4-0.9
						c0.8-0.2,1.8-0.4,2.9-0.4c1.7,0,3.1,0.4,4.2,1.2c1.1,0.8,1.8,2.1,1.8,3.7c0,2-0.5,5-1.6,9.1c-1.1,4.1-2.4,8.6-4.1,13.6
						c-1.7,4.9-3.6,9.9-5.7,15c-2.2,5-4.3,9.5-6.5,13.5c-3.8,6.8-7.3,11.9-10.4,15.4c-3.1,3.5-6,5.3-8.8,5.3c-2.2,0-3.8-0.6-5.1-1.8
						s-2.1-2.7-2.4-4.4c1.2-1.1,2.6-2.4,4-3.9s2.9-3.1,4.3-4.9c1.5-1.8,2.9-3.5,4.1-5.5c1.3-1.9,2.5-3.7,3.3-5.5
						c-1.3-0.4-2.6-1.1-3.8-2.3C556.6,204.1,555.2,202,553.8,199z"/>
				</g>
				<g>
					
						<linearGradient id="SVGID_24_" gradientUnits="userSpaceOnUse" x1="12.4065" y1="191.8536" x2="64.7118" y2="191.8536" gradientTransform="matrix(1 0 0 -1 0 368)">
						<stop  offset="0" style="stop-color:#C6C6C6"/>
						<stop  offset="0.1365" style="stop-color:#B2B2B2"/>
						<stop  offset="0.4521" style="stop-color:#F6F6F6"/>
						<stop  offset="0.7342" style="stop-color:#706F6F"/>
						<stop  offset="0.9617" style="stop-color:#B2B2B2"/>
					</linearGradient>
					<path class="st37" d="M25.3,187.5v23.8c-0.6,0.2-1.4,0.4-2.5,0.6c-1,0.2-2.1,0.3-3.3,0.3c-2.4,0-4.1-0.4-5.1-1.3
						c-1-0.8-1.5-2.4-1.5-4.4v-59.4c0-1.3,0.4-2.4,1.1-3c0.7-0.7,1.8-1.3,3-1.7c2.4-0.9,5.2-1.4,8.6-1.8c3.3-0.3,6.4-0.5,9.3-0.5
						c9.9,0,17.3,2.1,22.1,6.3c4.8,4.2,7.2,9.9,7.2,17.1c0,7.2-2.4,13-7.2,17.3s-11.9,6.5-21.4,6.5H25.3V187.5z M34.7,177.6
						c5.3,0,9.4-1.2,12.5-3.4c3-2.3,4.5-5.7,4.5-10.3s-1.5-8-4.3-10.1s-7-3.2-12.4-3.2c-1.8,0-3.5,0.1-5.2,0.2
						c-1.8,0.2-3.2,0.4-4.6,0.6v26.3H34.7z"/>
					
						<linearGradient id="SVGID_25_" gradientUnits="userSpaceOnUse" x1="71.5097" y1="183.4011" x2="127.0132" y2="183.4011" gradientTransform="matrix(1 0 0 -1 0 368)">
						<stop  offset="0" style="stop-color:#C6C6C6"/>
						<stop  offset="0.1365" style="stop-color:#B2B2B2"/>
						<stop  offset="0.4521" style="stop-color:#F6F6F6"/>
						<stop  offset="0.7342" style="stop-color:#706F6F"/>
						<stop  offset="0.9617" style="stop-color:#B2B2B2"/>
					</linearGradient>
					<path class="st38" d="M126.5,184.6c0,4.3-0.7,8.4-2,11.8c-1.3,3.5-3.1,6.5-5.5,8.9c-2.4,2.5-5.2,4.3-8.6,5.7
						c-3.3,1.4-7.2,2-11.3,2c-4.1,0-7.9-0.7-11.3-2c-3.3-1.4-6.2-3.2-8.6-5.7c-2.4-2.5-4.1-5.4-5.5-8.9c-1.3-3.5-2-7.5-2-11.8
						c0-4.3,0.7-8.4,2-11.9s3.1-6.5,5.5-8.9c2.4-2.5,5.2-4.3,8.6-5.7c3.3-1.4,7.1-2,11.1-2c4,0,7.8,0.7,11.1,2
						c3.3,1.4,6.3,3.2,8.6,5.7s4.2,5.5,5.5,8.9C125.8,176.4,126.5,180.3,126.5,184.6z M99.3,165.8c-4.6,0-8.3,1.7-10.9,4.9
						c-2.7,3.3-4,8-4,14s1.3,10.6,3.9,13.9c2.7,3.2,6.3,4.9,11,4.9c4.7,0,8.5-1.7,11-4.9c2.7-3.2,3.9-7.9,3.9-13.9
						c0-5.9-1.3-10.5-3.9-13.9C107.6,167.4,103.9,165.8,99.3,165.8z"/>
					
						<linearGradient id="SVGID_26_" gradientUnits="userSpaceOnUse" x1="134.4777" y1="183.4502" x2="212.9787" y2="183.4502" gradientTransform="matrix(1 0 0 -1 0 368)">
						<stop  offset="0" style="stop-color:#C6C6C6"/>
						<stop  offset="0.1365" style="stop-color:#B2B2B2"/>
						<stop  offset="0.4521" style="stop-color:#F6F6F6"/>
						<stop  offset="0.7342" style="stop-color:#706F6F"/>
						<stop  offset="0.9617" style="stop-color:#B2B2B2"/>
					</linearGradient>
					<path class="st39" d="M174,174.3c-0.9,3.3-1.9,6.8-2.9,10.2c-1.1,3.4-2.1,6.7-3.1,9.9s-2.1,6.2-2.9,8.9c-1,2.8-1.9,5.2-2.6,7.3
						c-0.8,0.5-1.7,1-2.8,1.3c-1.1,0.3-2.5,0.5-4,0.5c-1.8,0-3.3-0.3-4.7-0.8c-1.4-0.5-2.3-1.4-2.8-2.6c-0.9-1.9-2-4.8-3.2-8.8
						c-1.2-4-2.5-8.6-3.6-13.4c-1.2-4.8-2.5-9.7-3.5-14.6c-1.2-4.9-2.1-9.2-2.8-12.9c0.6-0.7,1.5-1.3,2.6-1.9
						c1.1-0.6,2.4-0.9,3.7-0.9c3.4,0,5.5,2,6.2,5.9c0.7,3.9,1.5,7.9,2.3,11.9c0.8,4,1.6,7.8,2.4,11.2c0.8,3.4,1.5,6.6,2.2,9.3
						c0.7,2.8,1.2,4.8,1.5,6.2h0.5c0.4-1.4,1-3.4,1.8-6c0.8-2.6,1.8-5.7,2.8-9c1.1-3.4,2.2-7.1,3.4-11c1.2-3.9,2.5-7.9,3.8-11.8
						c1.8-1.1,3.8-1.6,6.3-1.6c1.8,0,3.2,0.3,4.4,0.9c1.2,0.6,2,1.5,2.4,2.7c1.2,3.8,2.5,7.6,3.5,11.3c1.2,3.7,2.2,7.2,3.1,10.4
						c1,3.2,1.8,6.1,2.6,8.6c0.7,2.5,1.3,4.3,1.7,5.7h0.6c1.6-6.6,3.1-13.6,4.8-20.9c1.7-7.4,3.1-14.7,4.2-22.1
						c0.8-0.4,1.6-0.7,2.6-1c0.9-0.3,1.9-0.4,2.8-0.4c1.7,0,3,0.4,4.1,1.2c1.1,0.8,1.6,2,1.6,3.6c0,1-0.2,2.7-0.7,5
						c-0.5,2.4-1.1,5.1-1.9,8.4c-0.8,3.1-1.7,6.6-2.7,10.1c-1,3.5-2,7-2.9,10.3c-1,3.3-1.9,6.3-2.9,9c-0.9,2.8-1.7,4.9-2.3,6.3
						c-0.6,0.5-1.6,0.9-2.8,1.2c-1.2,0.4-2.7,0.5-4.1,0.5c-4,0-6.5-1-7.2-2.9c-0.7-1.9-1.5-4.1-2.5-6.8c-0.9-2.7-1.9-5.6-2.9-8.6
						c-1-3.1-2-6.4-2.9-9.7C175.9,180.9,174.9,177.6,174,174.3z"/>
					
						<linearGradient id="SVGID_27_" gradientUnits="userSpaceOnUse" x1="220.4167" y1="183.3519" x2="272.5859" y2="183.3519" gradientTransform="matrix(1 0 0 -1 0 368)">
						<stop  offset="0" style="stop-color:#C6C6C6"/>
						<stop  offset="0.1365" style="stop-color:#B2B2B2"/>
						<stop  offset="0.4521" style="stop-color:#F6F6F6"/>
						<stop  offset="0.7342" style="stop-color:#706F6F"/>
						<stop  offset="0.9617" style="stop-color:#B2B2B2"/>
					</linearGradient>
					<path class="st40" d="M233.1,190.7c1.1,4.3,3.1,7.6,6.3,9.7c3.1,2.1,7.1,3.1,11.9,3.1c3.2,0,6.2-0.5,8.8-1.5
						c2.7-1,4.8-2.1,6.5-3.2c2.2,1.2,3.2,2.9,3.2,5.2c0,1.3-0.5,2.6-1.5,3.6s-2.4,2.1-4.1,2.9c-1.8,0.8-3.7,1.5-6.1,1.9
						c-2.4,0.5-4.8,0.7-7.6,0.7c-4.4,0-8.5-0.6-12.1-1.9c-3.6-1.2-6.8-3-9.3-5.5c-2.7-2.5-4.6-5.5-6-9c-1.4-3.6-2.2-7.8-2.2-12.6
						c0-4.6,0.7-8.6,2.1-12.1c1.4-3.4,3.2-6.4,5.6-8.7s5.2-4.1,8.4-5.3c3.2-1.2,6.7-1.9,10.3-1.9s7.1,0.6,10,1.8
						c3,1.2,5.6,2.9,7.9,4.9c2.2,2.1,3.8,4.6,5,7.6s1.8,6.1,1.8,9.5c0,2-0.5,3.3-1.4,4.2c-0.9,0.9-2.3,1.5-4,1.8L233.1,190.7z
						 M247.3,165.5c-4.2,0-7.8,1.4-10.5,4.2c-2.8,2.9-4.2,6.9-4.4,12.2l28.3-4c-0.3-3.4-1.6-6.4-3.8-8.7
						C254.7,166.7,251.5,165.5,247.3,165.5z"/>
					
						<linearGradient id="SVGID_28_" gradientUnits="userSpaceOnUse" x1="283.8889" y1="183.7942" x2="319.7295" y2="183.7942" gradientTransform="matrix(1 0 0 -1 0 368)">
						<stop  offset="0" style="stop-color:#C6C6C6"/>
						<stop  offset="0.1365" style="stop-color:#B2B2B2"/>
						<stop  offset="0.4521" style="stop-color:#F6F6F6"/>
						<stop  offset="0.7342" style="stop-color:#706F6F"/>
						<stop  offset="0.9617" style="stop-color:#B2B2B2"/>
					</linearGradient>
					<path class="st41" d="M296.4,211.4c-0.5,0.2-1.3,0.4-2.3,0.6c-1,0.2-2,0.3-3.1,0.3c-2.3,0-3.8-0.4-4.9-1.3
						c-1.1-0.9-1.6-2.3-1.6-4.2V169c0-1.9,0.4-3.4,1.2-4.6c0.8-1.2,2-2.4,3.6-3.4c2.3-1.4,5-2.6,8.6-3.4c3.4-0.9,7.3-1.4,11.4-1.4
						c6.8,0,10.1,2,10.1,5.7c0,0.9-0.2,1.8-0.5,2.6c-0.3,0.8-0.7,1.5-1.1,2.2c-0.8-0.2-1.8-0.3-2.9-0.5c-1.2-0.2-2.4-0.2-3.6-0.2
						c-3,0-5.9,0.3-8.4,1c-2.6,0.7-4.7,1.5-6.5,2.5L296.4,211.4L296.4,211.4z"/>
					
						<linearGradient id="SVGID_29_" gradientUnits="userSpaceOnUse" x1="324.4798" y1="183.3519" x2="376.649" y2="183.3519" gradientTransform="matrix(1 0 0 -1 0 368)">
						<stop  offset="0" style="stop-color:#C6C6C6"/>
						<stop  offset="0.1365" style="stop-color:#B2B2B2"/>
						<stop  offset="0.4521" style="stop-color:#F6F6F6"/>
						<stop  offset="0.7342" style="stop-color:#706F6F"/>
						<stop  offset="0.9617" style="stop-color:#B2B2B2"/>
					</linearGradient>
					<path class="st42" d="M337.2,190.7c1.1,4.3,3.1,7.6,6.3,9.7c3.1,2.1,7.1,3.1,11.9,3.1c3.2,0,6.2-0.5,8.8-1.5
						c2.7-1,4.8-2.1,6.5-3.2c2.2,1.2,3.2,2.9,3.2,5.2c0,1.3-0.5,2.6-1.5,3.6c-1,1.1-2.4,2.1-4.1,2.9c-1.8,0.8-3.7,1.5-6.1,1.9
						c-2.4,0.5-4.8,0.7-7.6,0.7c-4.4,0-8.5-0.6-12.1-1.9c-3.6-1.2-6.8-3-9.3-5.5c-2.7-2.5-4.6-5.5-6-9c-1.4-3.6-2.2-7.8-2.2-12.6
						c0-4.6,0.7-8.6,2.1-12.1c1.4-3.4,3.2-6.4,5.6-8.7c2.4-2.4,5.2-4.1,8.4-5.3c3.2-1.2,6.7-1.9,10.3-1.9s7.1,0.6,10,1.8
						c3,1.2,5.6,2.9,7.9,4.9c2.2,2.1,3.8,4.6,5,7.6s1.8,6.1,1.8,9.5c0,2-0.5,3.3-1.4,4.2c-0.9,0.9-2.3,1.5-4,1.8L337.2,190.7z
						 M351.4,165.5c-4.2,0-7.8,1.4-10.5,4.2c-2.8,2.9-4.2,6.9-4.4,12.2l28.3-4c-0.3-3.4-1.6-6.4-3.8-8.7
						C358.8,166.7,355.5,165.5,351.4,165.5z"/>
					
						<linearGradient id="SVGID_30_" gradientUnits="userSpaceOnUse" x1="385.0765" y1="193.4262" x2="437.0153" y2="193.4262" gradientTransform="matrix(1 0 0 -1 0 368)">
						<stop  offset="0" style="stop-color:#C6C6C6"/>
						<stop  offset="0.1365" style="stop-color:#B2B2B2"/>
						<stop  offset="0.4521" style="stop-color:#F6F6F6"/>
						<stop  offset="0.7342" style="stop-color:#706F6F"/>
						<stop  offset="0.9617" style="stop-color:#B2B2B2"/>
					</linearGradient>
					<path class="st43" d="M412.6,156.1c2.3,0,4.4,0.3,6.5,0.8c2.1,0.5,3.8,1.2,5.3,1.9V137c0.5-0.2,1.3-0.4,2.3-0.6
						c1-0.2,2.1-0.4,3.2-0.4c2.3,0,3.8,0.4,4.9,1.3c1.1,0.9,1.6,2.3,1.6,4.2v60.2c0,1.6-0.4,2.9-1.1,3.9c-0.7,1.1-1.8,2-3.2,2.9
						c-1.8,1.2-4.1,2.2-7.2,3.1c-3,0.9-6.5,1.4-10.4,1.4c-4.3,0-8.4-0.6-12-1.7s-6.7-2.9-9.2-5.2c-2.6-2.4-4.5-5.3-5.9-8.8
						c-1.4-3.5-2.1-7.8-2.1-12.6c0-5,0.7-9.3,2.2-13c1.4-3.6,3.3-6.6,5.8-8.9c2.5-2.4,5.3-4,8.6-5.2
						C405.4,156.7,408.8,156.1,412.6,156.1z M424.5,168.9c-1.3-0.9-2.9-1.6-4.6-2.2c-1.8-0.6-3.7-0.9-5.9-0.9
						c-2.3,0-4.4,0.4-6.4,1.1c-2,0.7-3.6,1.9-5.1,3.4c-1.5,1.6-2.7,3.5-3.4,6c-0.9,2.5-1.3,5.3-1.3,8.8c0,6.5,1.5,11.1,4.5,14.1
						c3,2.9,7.1,4.3,12.1,4.3c2.3,0,4.2-0.3,5.8-0.8c1.6-0.5,2.9-1.1,4.2-1.8L424.5,168.9L424.5,168.9z"/>
					
						<linearGradient id="SVGID_31_" gradientUnits="userSpaceOnUse" x1="476.6063" y1="191.4605" x2="531.6636" y2="191.4605" gradientTransform="matrix(1 0 0 -1 0 368)">
						<stop  offset="0" style="stop-color:#C6C6C6"/>
						<stop  offset="0.1365" style="stop-color:#B2B2B2"/>
						<stop  offset="0.4521" style="stop-color:#F6F6F6"/>
						<stop  offset="0.7342" style="stop-color:#706F6F"/>
						<stop  offset="0.9617" style="stop-color:#B2B2B2"/>
					</linearGradient>
					<path class="st44" d="M528.5,159.5c0,3.3-0.9,6.4-2.6,9c-1.7,2.7-4.3,4.7-8.1,6.3c4.4,1.5,7.8,3.6,9.9,6.7s3.2,6.5,3.2,10.4
						c0,7.2-2.6,12.5-7.8,15.9c-5.2,3.4-12.6,5.1-22.2,5.1c-2.9,0-6.2-0.2-9.5-0.5c-3.3-0.3-6.4-0.9-9.2-1.8c-3.5-1-5.3-3-5.3-6.1
						v-57.5c0-1.3,0.4-2.4,1.1-3c0.7-0.7,1.8-1.3,3-1.7c2.7-0.9,5.5-1.4,8.6-1.8c3.1-0.3,6.6-0.5,10.3-0.5c8.9,0,15.9,1.6,20.8,4.7
						C526.1,148.2,528.5,153,528.5,159.5z M489.2,170.9h13.7c4.3,0,7.7-1,9.9-2.9c2.3-1.9,3.3-4.5,3.3-7.9c0-6.8-5.3-10.1-15.8-10.1
						c-2.3,0-4.2,0.1-6.1,0.2c-1.9,0.2-3.4,0.4-4.9,0.6L489.2,170.9L489.2,170.9z M518.6,191.5c0-3.5-1.3-6.3-3.9-8.4s-6.4-3-11.3-3
						h-14.3v21.8c1.6,0.4,3.5,0.7,5.7,0.9c2.3,0.2,4.4,0.3,6.7,0.3c5.4,0,9.6-1,12.6-2.9C517.1,198.5,518.6,195.6,518.6,191.5z"/>
					
						<linearGradient id="SVGID_32_" gradientUnits="userSpaceOnUse" x1="538.2366" y1="173.1302" x2="590.7502" y2="173.1302" gradientTransform="matrix(1 0 0 -1 0 368)">
						<stop  offset="0" style="stop-color:#C6C6C6"/>
						<stop  offset="0.1365" style="stop-color:#B2B2B2"/>
						<stop  offset="0.4521" style="stop-color:#F6F6F6"/>
						<stop  offset="0.7342" style="stop-color:#706F6F"/>
						<stop  offset="0.9617" style="stop-color:#B2B2B2"/>
					</linearGradient>
					<path class="st45" d="M553.8,199c-2-3.7-4.2-9-7-16c-2.8-6.9-5.4-14.7-8.1-23.5c0.7-0.9,1.6-1.6,2.8-2.2
						c1.2-0.6,2.4-0.9,3.6-0.9c1.7,0,3,0.4,4.1,1.2c1.1,0.8,2,2.2,2.7,4.2c2.1,6.2,4.2,12.3,6.5,18.4c2.3,6,4.7,12.3,7.4,18.7h0.5
						c1.2-2.5,2.4-5.3,3.5-8.6c1.2-3.3,2.4-6.8,3.5-10.4c1.2-3.6,2.3-7.4,3.2-11.2c1-3.8,1.9-7.4,2.7-10.9c0.8-0.4,1.6-0.7,2.4-0.9
						c0.8-0.2,1.8-0.4,2.9-0.4c1.7,0,3.1,0.4,4.2,1.2c1.1,0.8,1.8,2.1,1.8,3.7c0,2-0.5,5-1.6,9.1c-1.1,4.1-2.4,8.6-4.1,13.6
						c-1.7,4.9-3.6,9.9-5.7,15c-2.2,5-4.3,9.5-6.5,13.5c-3.8,6.8-7.3,11.9-10.4,15.4c-3.1,3.5-6,5.3-8.8,5.3c-2.2,0-3.8-0.6-5.1-1.8
						s-2.1-2.7-2.4-4.4c1.2-1.1,2.6-2.4,4-3.9s2.9-3.1,4.3-4.9c1.5-1.8,2.9-3.5,4.1-5.5c1.3-1.9,2.5-3.7,3.3-5.5
						c-1.3-0.4-2.6-1.1-3.8-2.3C556.6,204.1,555.2,202,553.8,199z"/>
				</g>
			</g>
		</g>
	</g>
</g>
</svg>
