<svg xmlns="http://www.w3.org/2000/svg" xmlns:xlink="http://www.w3.org/1999/xlink" viewBox="0 0 231.33 231.33"><defs><style>.cls-1{fill:#fff;}.cls-2{fill:#e30613;}.cls-3{fill:#d78447;}.cls-4{fill:#f5a9a7;}.cls-5{fill:#e6007e;}.cls-6{fill:#009640;}.cls-7{fill:url(#linear-gradient);}</style><linearGradient id="linear-gradient" x1="115.78" y1="-9263.16" x2="115.78" y2="-9248.59" gradientTransform="matrix(1, 0, 0, -1, 0, -9141.14)" gradientUnits="userSpaceOnUse"><stop offset="0" stop-color="#e9e0d2"/><stop offset="1" stop-color="#c0685a"/></linearGradient></defs><g id="Layer_2" data-name="Layer 2"><g id="set"><circle class="cls-1" cx="115.66" cy="115.66" r="115.66"/><rect class="cls-1" x="62.14" y="66.48" width="107.28" height="96.26"/><path class="cls-2" d="M92.46,100.39v23s-1.64,23,22.81,36.8a2,2,0,0,0,1.8-.23s21.33-12.27,22.11-36.57v-23Z"/><path class="cls-3" d="M115.9,159.22h-.24c-12.19-6.95-17.58-16.25-19.92-22.89a34.82,34.82,0,0,1-2.19-12.89v-22H138v22c-.7,23.36-21.33,35.55-21.57,35.63a.8.8,0,0,1-.54.23Z"/><path class="cls-2" d="M37.92,38.35V193H193.41V38.35ZM169.5,162.74H62.14V66.48H169.5Z"/><path class="cls-4" d="M136.84,79.13A1.9,1.9,0,0,0,135,81a1.53,1.53,0,0,0,.32,1l-8,4.93L127,79.29h.08a1.48,1.48,0,0,0,1.49-1.48,1.49,1.49,0,1,0-3,0,1.49,1.49,0,0,0,.7,1.25l-4.92,6.17-5.16-9.38a2.42,2.42,0,0,0,2-2.34,2.34,2.34,0,1,0-2.89,2.26L110,85.31l-4.85-6.49a1.48,1.48,0,0,0,.71-1.25A1.41,1.41,0,1,0,104.49,79h.16L104,87,96.21,82.1A1.81,1.81,0,0,0,96.52,81a1.88,1.88,0,1,0-1.88,1.87,1.52,1.52,0,0,0,.86-.23l5.32,15.24a55.63,55.63,0,0,1,29.69,0l5.55-15.32a2,2,0,0,0,.93.24,1.9,1.9,0,0,0,1.88-1.88A2,2,0,0,0,136.84,79.13Z"/><path class="cls-5" d="M143.64,118.59s-.08,1.49,2.34,2.43c0,0,1.33-2.43-1.8-4.3a3.14,3.14,0,0,0-2.34-3.28s-.63,1.17.86,3.51a2.61,2.61,0,0,0-1.95,2.66C140.82,119.61,142.07,120.16,143.64,118.59Z"/><path class="cls-6" d="M145.36,116.8A4.83,4.83,0,0,1,149,116a5.66,5.66,0,0,1,3,3.91s.08,2-1.09,2.81c-.16.08-4.69,2.66-5.94,4.85L142.93,132a.51.51,0,0,0,.16.55c.08,0,.08.08.16.08s.31-.08.31-.24l2.19-4.37a11.22,11.22,0,0,1,3.43-3.13c.55.24,2,1.1,1.8,2.11l-.31,1a.39.39,0,0,0,.23.47H151a.4.4,0,0,0,.39-.32l.31-1.09c.32-1.33-.93-2.34-1.79-2.81a13.16,13.16,0,0,0,1.48-.94c1.56-1.09,1.49-3.44,1.49-3.59a6.52,6.52,0,0,0-3.6-4.61,5.1,5.1,0,0,0-4.37.93c-.16.16-.24.39-.08.55S145.2,117,145.36,116.8Z"/><path class="cls-6" d="M162.23,134.53l-.23,1.72c3.44.47,3.28,3.21,3.28,3.21a4.89,4.89,0,0,1-3,4.61,15.52,15.52,0,0,1-4.77.23,7,7,0,0,0-3.12-2.5c-.78-.23.23-.63.23-.63,2.43-1.17,1.49-2.57,1.49-2.57-.39-.55-.78.07-.78.07-.39,1-2,1-2,1l-3.67.39c-1,.16-.47-.23-.47-.23.78-.94-.23-2-.23-2-.39-.31-.24.78-.24.78a3.06,3.06,0,0,1-1.79,2,27.92,27.92,0,0,0-8.91,6.48c-1.8,1.49-.94.39-.94.39a26.35,26.35,0,0,1,4.85-4.84c.7-.55-.47-.78-.47-.78-.55-.08.86-1.88.86-1.88.86-1.17,1.4-1.17,1.4-1.17.71,0,.63-.31.63-.31.15-.31-.24-.47-.24-.47-.93-.16-2,.86-2,.86-.63.62-.55.16-.55.16a7,7,0,0,1,.86-2.35c.86-1,.24-1.33.24-1.33-.71-.15-2,1.1-2,1.1-.23.47-1.25-.08-1.25-.08-1.17-.55-1.4,0-1.4,0-.39.62.39.94.39.94,1,.54.62,2.26.62,2.26-.15,1.56-.7,1.1-.7,1.1a2.61,2.61,0,0,0-2.81-.32c-.39.39.54,1.18.54,1.18,1,1.09.39,3.12.39,3.12-.15.47-1.17-.55-1.17-.55-.94-1-1.33-.46-1.33-.46-.23.23.16,1.32.16,1.32.78,2.74-.86,3.68-.86,3.68-.94.78-.7,1.25-.7,1.25.23.31.54,0,.54,0,2.74-1.41,2.11-3.44,2.11-3.44-.07-.78.24-.39.24-.39a1.09,1.09,0,0,0,1.56-.16,2.18,2.18,0,0,0,.78-2.11c-.15-1.72.16-1.41.16-1.41.47,1.41.94.16.94.16a11.57,11.57,0,0,0,.7-4.61c-.24-1.17.39-.08.39-.08.47,1.1.7-.54.7-.54,1-1.64.94-.79.94-.79s-.39.94-.62,1.41a5.54,5.54,0,0,0-.55,2.5c.08.86-.94,1.72-.94,1.72-.55.86.16.86.16.86a10.15,10.15,0,0,1-1.33,2,42.43,42.43,0,0,1-6,6c2.66.39,5-2.11,5-2.11,4.07-3.6,5.79-3.83,5.79-3.83a2.14,2.14,0,0,1,2.89,1.8c-.16,1.56.62.78.62.78,1.49-1.64.08-3.75.08-3.75-.94-.78.47-.39.47-.39,3.44.54,1.95,3.83,1.95,3.83-.54,1,.86.7.86.7a2.47,2.47,0,0,0,1.8-3c-.31-.55-.08-.55-.08-.55,1.95,1,.94,3.28.94,3.28-.55,1.49.47,1.18.47,1.18,1.64-.08,1.87-2.19,1.87-2.19.08-.94.39-.55.39-.55,1.33,2.11.32,5.94.32,5.94-.4.78.07,1,.07,1a.69.69,0,0,0,.71-.24,7.56,7.56,0,0,0,.62-3.59,7.39,7.39,0,0,0-.62-2.74c0-.39,1.17.39,1.17.39,1.25,1.25,1.56.71,1.56.71-.08-.55-1.72-1.72-1.72-1.72-.86-.47-.54-.78-.54-.78,3.43.54,4.53.15,4.53.15,3.83-.78,4.61-4.84,4.61-4.84C166.84,136.41,162.23,134.53,162.23,134.53Zm-9.37,8.6s-.24.15.39.62A2.54,2.54,0,0,1,154,147s.55-3.44-4.06-4.46c0,0-.63,0,0,.78,0,0,1.95,2.35,0,3.68a5.27,5.27,0,0,0-.32-2.9,2.6,2.6,0,0,0-2.42-1.48,3.85,3.85,0,0,0-2.34.55s-.71.47.23.62c0,0,1.95.55,1.72,1.95a3,3,0,0,0-3.44-1.17,6,6,0,0,0-2.19.78s3.83-3.28,6.8-4.06c0,0-.39.94.71.63,0,0,3.43-1.25,5.39-1.1,0,0-2.27.63-2.58,1.25,0,0-.31.39.54.47a5.39,5.39,0,0,1,3.44,1.56C155.28,144.07,153.79,143.05,152.86,143.13Z"/><path class="cls-5" d="M144.42,133.75a2.74,2.74,0,0,0-2.74.47s-1.25,1.41-.31,1.09c0,0,1.64-.86,2.58,0,0,0,.86.86,1.25.55C145.12,135.78,146.06,134.77,144.42,133.75Z"/><path class="cls-5" d="M147.7,132.35a2,2,0,0,0-.63,1.79c.08,1.17.79.31.79.31l3.28-3.67c.93-1.33-.86-2.58-.86-2.58a1.89,1.89,0,0,0-2.74.24l-2.5,4c-.39.63,0,.78,0,.78a.76.76,0,0,0,.94-.39l1.48-2.11c1.33-1.09,1.65-.23,1.65-.23C149.26,131.1,147.7,132.35,147.7,132.35Z"/><path class="cls-5" d="M155.28,136.56a2.92,2.92,0,0,0,3.59.55c.94-.23.24.7.24.7a2.28,2.28,0,0,0,1,3.05,3.31,3.31,0,0,0,3.28-1.33l-1.79-.31c-.71-.08-.55-1.17-.55-1.17v-3.83c.24-2.11,2.66-1,2.66-1,1.09.16.47-1,.47-1a2.4,2.4,0,0,0-3.05-1.56c-1.95.86-1.25,2.57-.86,3.43s0,1.33,0,1.33c-2.74-2.5-4.85.55-4.85.55h3v.62Z"/><path class="cls-5" d="M162.55,148.68c-.94-.32-.94-.71-.94-.71a1.19,1.19,0,0,0,.86-.86,1,1,0,0,0-.86-1.25c-1.33,0-2,1.88-2,1.88l.86-.24c.86-.23.24.63.24.63a1.88,1.88,0,0,1,1.17,1.64c-.08.31-.86,0-1.17-.63a1.05,1.05,0,0,0-1-.54,1.54,1.54,0,0,0-1.4,1.48c-.16,1.41,1.09,1.33,1.09,1.33.55,0,1.09-1.48,1.09-1.48a2.57,2.57,0,0,0,1.41,1.25,1.13,1.13,0,0,0,1.41-1.1A2.2,2.2,0,0,0,162.55,148.68Z"/><path class="cls-5" d="M155.83,154.15c-.71.46,1.48,1.09,1.87,1.56s.47.78.31.94-1.33-.55-1.95-1.1-.78.31-.86,1.17a3.85,3.85,0,0,1-1.41,2.58c-.7.39-.62-1.25.08-1.79a3.42,3.42,0,0,0,1-2.19c.08-.39-.78-.31-1.88-.47s-.47-.47-.47-.47a8,8,0,0,1,1.88-.08c1.09.08.78-.55.78-.55-.55-2.18-3-1.79-3-1.79a2.3,2.3,0,0,0-1.87,2.26c-.08,2.35,2.73,2.27,2.73,2.27a3,3,0,0,0-1.25,2.81A1.73,1.73,0,0,0,154,161c1.72-.31,1.88-3.12,1.88-3.12.07-.86.93-.16.93-.16,1.88,1.25,2.89.39,2.89.39a2.8,2.8,0,0,0,.24-2.58C159,153.21,155.83,154.15,155.83,154.15Z"/><path class="cls-1" d="M50.81,175.32c1.87.24,3.28,1.09,3.28,3.05a3.26,3.26,0,0,1-1.72,3,7.28,7.28,0,0,1-3.59.78H44.64v-.55c1.56-.15,1.64-.23,1.64-1.87V172c0-1.64-.08-1.8-1.49-1.87v-.55h4.77a3.93,3.93,0,0,1,2.73.7,2.78,2.78,0,0,1,1,2.19,3.11,3.11,0,0,1-2.5,2.89Zm-2.11-.23c1.95,0,2.73-.86,2.73-2.43a2.22,2.22,0,0,0-2.34-2.5,1.6,1.6,0,0,0-1,.24c-.15.15-.23.31-.23.94v3.75Zm-.78,4.53c0,1.48.31,1.8,1.48,1.8a2.55,2.55,0,0,0,2.66-2.82c0-1.95-1.25-2.81-3.44-2.81h-.78v3.83Z"/><path class="cls-1" d="M62.3,180.4a4,4,0,0,1-3,1.95c-2.19,0-3.52-1.95-3.52-4.14a4.83,4.83,0,0,1,1.17-3.28,3.6,3.6,0,0,1,2.66-1.48h0a2.93,2.93,0,0,1,2.74,3c0,.4-.08.55-.4.63s-2.57.23-4.61.31c0,2.5,1.41,3.6,2.58,3.6a2.88,2.88,0,0,0,2-.94Zm-3.13-6.25c-.78,0-1.56.78-1.8,2.34.94,0,1.88,0,2.89-.08.32,0,.39-.15.39-.39a1.69,1.69,0,0,0-1.48-1.87Z"/><path class="cls-1" d="M69.17,182.35a1.44,1.44,0,0,1-.94-.39,3.08,3.08,0,0,1-.47-.86c-.7.47-1.56,1.17-2,1.17a2.29,2.29,0,0,1-2.18-2.42A1.81,1.81,0,0,1,65,178a11.57,11.57,0,0,0,2.73-1.25v-.32c0-1.4-.54-2.11-1.4-2.11a1.36,1.36,0,0,0-.78.32A3,3,0,0,0,65,176a.56.56,0,0,1-.55.46.92.92,0,0,1-.78-.85c0-.32.24-.55.55-.79a8.91,8.91,0,0,1,2.73-1.4,2.37,2.37,0,0,1,1.49.47,3.19,3.19,0,0,1,.86,2.42v3.51c0,.86.31,1.18.62,1.18a.88.88,0,0,0,.63-.24l.15.55Zm-1.41-4.92c-.39.23-1.09.55-1.48.78-.7.31-1.09.7-1.09,1.41a1.35,1.35,0,0,0,1.25,1.48,2.31,2.31,0,0,0,1.32-.62v-3Z"/><path class="cls-1" d="M79.88,181.65a13.55,13.55,0,0,0-1.41.31,11.78,11.78,0,0,1-1.33.39l-.15-.08v-1.4c-.4.31-.79.62-1.26,1a2.62,2.62,0,0,1-1.4.47c-1.25,0-2.27-.86-2.27-2.89v-3.67c0-1.09-.15-1.17-.62-1.25l-.47-.16v-.47a8.46,8.46,0,0,0,1.33-.15c.47-.08,1-.16,1.33-.24a26.48,26.48,0,0,0-.08,2.82v2.57c0,1.65.78,2.11,1.56,2.11a2.61,2.61,0,0,0,1.88-.85v-4.46c0-1.09-.16-1.17-.71-1.25l-.62-.16v-.46a13.76,13.76,0,0,0,1.72-.16,10.11,10.11,0,0,1,1.25-.16v6.41c0,1,.15,1.17.86,1.17H80v.55Z"/><path class="cls-1" d="M84.17,182a1.23,1.23,0,0,1-.78.23c-1.17,0-1.87-.78-1.87-2.34v-5.55H80.27l-.08-.23.47-.55h.78v-1.4l1.33-1.33L83,171v2.73h2a.53.53,0,0,1-.15.78H83v4.92c0,1.57.63,1.8,1.1,1.8a2.61,2.61,0,0,0,1.09-.31l.16.55Z"/><path class="cls-1" d="M94.1,174.15c-.94.15-1.1.31-1.57,1.41s-1,2.57-2.26,5.78a48.49,48.49,0,0,0-1.88,5.31.5.5,0,0,1-.54.47,1.11,1.11,0,0,1-1.1-1c0-.31.16-.47.47-.7a4,4,0,0,0,1.41-1.72,8.36,8.36,0,0,0,.54-1.25,1.57,1.57,0,0,0,0-.86c-.78-2.26-1.56-4.69-2.11-6-.39-1-.54-1.26-1.56-1.41v-.55h3.75v.55c-.86.15-.94.31-.7,1l1.64,4.77c.47-1.25,1.25-3.52,1.56-4.69.24-.7.08-.94-.93-1.09v-.55H94.1Z"/><path class="cls-1" d="M105.51,172.51c-.32-1.25-.86-2.66-2.35-2.66a1.92,1.92,0,0,0-2,2.11c0,1.41.86,2,2.26,2.81,1.57.86,3.13,1.72,3.13,3.91a3.78,3.78,0,0,1-4.06,3.75,5.46,5.46,0,0,1-1.8-.31,5.06,5.06,0,0,1-.86-.39,20.47,20.47,0,0,1-.47-3.13l.55-.15c.31,1.25,1.17,3.28,3,3.28a2,2,0,0,0,2.11-2.27c0-1.4-.93-2.11-2.34-2.89-1.25-.7-3-1.64-3-3.83a3.47,3.47,0,0,1,3.75-3.51,7.55,7.55,0,0,1,2.35.46c.07.71.15,1.49.31,2.74Z"/><path class="cls-1" d="M113.55,182.35a1.39,1.39,0,0,1-.93-.39,2.64,2.64,0,0,1-.47-.86c-.71.47-1.57,1.17-2,1.17a2.29,2.29,0,0,1-2.19-2.42,1.82,1.82,0,0,1,1.48-1.87,11.69,11.69,0,0,0,2.74-1.25v-.32c0-1.4-.55-2.11-1.41-2.11a1.36,1.36,0,0,0-.78.32,3,3,0,0,0-.55,1.33.56.56,0,0,1-.54.46.92.92,0,0,1-.79-.85c0-.32.24-.55.55-.79a8.86,8.86,0,0,1,2.74-1.4,2.36,2.36,0,0,1,1.48.47,3.15,3.15,0,0,1,.86,2.42v3.51c0,.86.31,1.18.62,1.18a.88.88,0,0,0,.63-.24l.16.55Zm-1.4-4.92c-.39.23-1.1.55-1.49.78-.7.31-1.09.7-1.09,1.41a1.35,1.35,0,0,0,1.25,1.48,2.37,2.37,0,0,0,1.33-.62v-3Z"/><path class="cls-1" d="M115.58,182.12v-.55c1.1-.15,1.26-.23,1.26-1.56v-9.14c0-1.33-.16-1.33-1.26-1.49v-.47a17.22,17.22,0,0,0,2.74-.7v11.72c0,1.33.16,1.41,1.33,1.56V182h-4.07Z"/><path class="cls-1" d="M124.57,173.45a4.12,4.12,0,0,1,4,4.29c0,3.13-2.19,4.61-4,4.61a4.08,4.08,0,0,1-4.06-4.29,4.37,4.37,0,0,1,4.06-4.61Zm-.16.62c-1,0-2,1.17-2,3.36,0,2.42.94,4.22,2.43,4.22,1,0,2-.78,2-3.52,0-2.26-.86-4.06-2.35-4.06Z"/><path class="cls-1" d="M134.65,182.12v-.55c1-.15,1.17-.31,1.17-1.64v-3.12c0-1.33-.47-2.19-1.56-2.19a3.11,3.11,0,0,0-1.88.94V180c0,1.33.08,1.41,1.1,1.56v.55h-4v-.55c1.18-.15,1.25-.23,1.25-1.56V176.1c0-1.25-.15-1.33-1.09-1.56v-.47a10,10,0,0,0,2.58-.78v1.56l1.17-.94a2.19,2.19,0,0,1,1.48-.54c1.41,0,2.35,1.09,2.35,3V180c0,1.33.08,1.41,1.17,1.56v.55Z"/><path class="cls-1" d="M156.76,174.38c-1.25.16-1.48.47-2.11,1.49-.47.7-.93,1.56-1.56,2.5a18.52,18.52,0,0,1,3,3.9l-.08.16a4.71,4.71,0,0,1-2.34-.78c-.24-.23-.94-1.17-1.57-1.8-1.32,1.8-2.5,2.5-3.75,2.5a3.52,3.52,0,0,1-3.59-3.59c0-1.8,1.09-2.5,2.66-3.67a3.76,3.76,0,0,1-1.25-2.74,3.11,3.11,0,0,1,3-3.12,2.72,2.72,0,0,1,2.74,2.73,2.12,2.12,0,0,1-.78,1.72c-.32.31-.78.62-1.49,1.17.63.55,1.88,1.72,3,3,.39-.7.7-1.33,1.09-2.19s.16-1.09-1.09-1.33v-.54h4.14v.62Zm-8,6.57a3.75,3.75,0,0,0,2.74-1.64,33,33,0,0,0-3.75-3.75,3.22,3.22,0,0,0-1.49,2.65,2.58,2.58,0,0,0,2.5,2.74Zm.08-10.94c-.78,0-1.48.78-1.41,2,0,1,.55,1.64,1.65,2.58a3,3,0,0,0,1.25-2.42c0-1.17-.63-2.11-1.49-2.11Z"/><path class="cls-1" d="M168.33,172.51c-.32-1.25-.86-2.66-2.35-2.66A1.92,1.92,0,0,0,164,172c0,1.41.86,2,2.27,2.81s3.12,1.72,3.12,3.91a3.78,3.78,0,0,1-4.06,3.75,5.51,5.51,0,0,1-1.8-.31,5.06,5.06,0,0,1-.86-.39,21.81,21.81,0,0,1-.47-3.13l.55-.15c.31,1.25,1.17,3.28,3.05,3.28a2,2,0,0,0,2.11-2.27c0-1.4-.94-2.11-2.35-2.89-1.25-.7-3-1.64-3-3.83a3.47,3.47,0,0,1,3.75-3.51,7.55,7.55,0,0,1,2.35.46c.08.71.15,1.49.31,2.74Z"/><path class="cls-1" d="M174.58,173.76a1.61,1.61,0,0,1,.94-.31c2,0,3.2,1.71,3.2,3.67a5.39,5.39,0,0,1-4.45,5.23A2.37,2.37,0,0,1,173,182v2.58c0,1.41.15,1.56,1.48,1.64v.55h-4.38v-.55c1.18-.16,1.33-.23,1.33-1.48V176c0-1.25-.08-1.25-1.17-1.4v-.47a16,16,0,0,0,2.74-.86v1.56Zm-1.64,6.87a2.7,2.7,0,0,0,1.64.79c1.48,0,2.42-1.49,2.42-3.52s-1.09-3.28-2.34-3.28a3.13,3.13,0,0,0-1.72.78v5.23Z"/><path class="cls-1" d="M185.75,182.35a1.44,1.44,0,0,1-.94-.39,2.82,2.82,0,0,1-.46-.86c-.71.47-1.57,1.17-2,1.17a2.29,2.29,0,0,1-2.18-2.42,1.81,1.81,0,0,1,1.48-1.87,11.89,11.89,0,0,0,2.74-1.25v-.32c0-1.4-.55-2.11-1.41-2.11a1.36,1.36,0,0,0-.78.32,3,3,0,0,0-.55,1.33.56.56,0,0,1-.55.46.92.92,0,0,1-.78-.85c0-.32.24-.55.55-.79a8.91,8.91,0,0,1,2.73-1.4,2.37,2.37,0,0,1,1.49.47,3.19,3.19,0,0,1,.86,2.42v3.51c0,.86.31,1.18.62,1.18a.88.88,0,0,0,.63-.24l.15.55Zm-1.4-4.92c-.4.23-1.1.55-1.49.78-.7.31-1.09.7-1.09,1.41A1.35,1.35,0,0,0,183,181.1a2.37,2.37,0,0,0,1.33-.62v-3Z"/><path class="cls-1" d="M50,78.51a20.1,20.1,0,0,1-3.28-1.17,17.47,17.47,0,0,1-.63-3.91c0-5.24,3.6-7.58,6.88-7.58,4.37,0,7.19,3.36,7.19,8.05a13.1,13.1,0,0,1-.63,3.75c-1.17.16-2,.31-3.28.47l-.16-.63a3.74,3.74,0,0,0,3.21-4.14c0-3.44-2.89-5.31-6-5.31-3.91,0-6.49,2.26-6.49,5.47,0,2.11,1.18,3.28,3.29,4.3Z"/><path class="cls-1" d="M55.73,84.6a4.49,4.49,0,0,1-4.61,4.46A4.56,4.56,0,0,1,46.2,84.6,4.5,4.5,0,0,1,50.73,80a4.85,4.85,0,0,1,5,4.61Zm-.7-.23c0-1.17-1.25-2.27-3.6-2.27-2.65,0-4.53,1.1-4.53,2.74,0,1.17.86,2.19,3.75,2.19,2.5,0,4.38-.94,4.38-2.66Z"/><path class="cls-1" d="M46.51,101.4h.55c.15,1.1.23,1.33,1.72,1.33h3.36c1.56,0,2.42-.55,2.42-1.72a3.52,3.52,0,0,0-1-2.11c-.23,0-.46.08-.86.08h-4c-1.33,0-1.41.16-1.56,1.25h-.55V95.78h.55c.15,1.17.23,1.4,1.56,1.4h3.52c1.56,0,2.34-.54,2.34-1.72a3.84,3.84,0,0,0-1-2.11H48.7c-1.33,0-1.49.16-1.56,1.1h-.55V90.07h.55c.15,1.33.23,1.49,1.64,1.49H53c1.33,0,1.4-.08,1.64-1.25h.54a12,12,0,0,0,.86,3H54.33c.31.47.7.86,1.09,1.48A3.21,3.21,0,0,1,56,96.4a2.55,2.55,0,0,1-1.72,2.27c.47.62.86,1.17,1.17,1.64a2.7,2.7,0,0,1,.55,1.48c0,1.57-1.18,2.66-3.21,2.66h-3.9c-1.41,0-1.41.16-1.57,1.33h-.54V101.4Z"/><path class="cls-1" d="M55.42,111.33a2.13,2.13,0,0,1,.31,1,3.66,3.66,0,0,1-3.91,3.6,5.79,5.79,0,0,1-5.54-5,4.11,4.11,0,0,1,.31-1.41H43.85c-1.48,0-1.64.16-1.79,1.72h-.55v-4.92h.55c.15,1.32.23,1.48,1.64,1.48h9.38c1.32,0,1.32-.08,1.56-1.33h.54a19.64,19.64,0,0,0,.94,3H54.48Zm-7.35-1.8a2.93,2.93,0,0,0-.78,1.87c0,1.72,1.57,2.74,3.75,2.74s3.44-1.25,3.44-2.66a4,4,0,0,0-.86-2Z"/><path class="cls-1" d="M46.2,123.91a1.53,1.53,0,0,1,.39-1,1.92,1.92,0,0,1,.86-.47,6.27,6.27,0,0,1-1.25-2.34,2.53,2.53,0,0,1,2.58-2.5,2.05,2.05,0,0,1,2,1.64,12.28,12.28,0,0,0,1.33,3.12h.39c1.48,0,2.26-.62,2.26-1.64a1.11,1.11,0,0,0-.39-.86,2.91,2.91,0,0,0-1.4-.62c-.39-.16-.55-.31-.55-.63a1,1,0,0,1,.94-.93c.31,0,.54.23.86.62a8.42,8.42,0,0,1,1.48,3,2.63,2.63,0,0,1-.55,1.72,3,3,0,0,1-2.65.93H48.78c-.94,0-1.25.4-1.25.71a1.29,1.29,0,0,0,.23.7l-.55.24Zm5.23-1.57a17.4,17.4,0,0,1-.78-1.64c-.39-.78-.78-1.25-1.56-1.25a1.44,1.44,0,0,0-1.56,1.41,2.38,2.38,0,0,0,.7,1.48Z"/><path class="cls-1" d="M46.51,132h.55c.15,1.17.31,1.25,1.72,1.25h3.36c1.4,0,2.34-.54,2.34-1.79a3.36,3.36,0,0,0-1-2.11H48.7c-1.41,0-1.49.07-1.64,1.25h-.55v-4.46h.55c.15,1.33.23,1.49,1.64,1.49h4.14c1.33,0,1.41-.16,1.64-1.18H55a10.33,10.33,0,0,0,.86,3H54.25c.31.39.62.86,1,1.33a2.91,2.91,0,0,1,.63,1.64c0,1.57-1.17,2.66-3.21,2.66H48.86c-1.41,0-1.49.16-1.65,1.25h-.54V132Z"/><path class="cls-1" d="M46.51,137.42h.55c.15,1.25.23,1.41,1.72,1.41h4.14c1.33,0,1.41-.08,1.64-1.25H55a12.3,12.3,0,0,0,.78,3h-7c-1.41,0-1.57.15-1.72,1.4h-.55Zm12.11,1.1a1.13,1.13,0,0,1,1.17,1.09,1.09,1.09,0,0,1-1.17,1.1,1.1,1.1,0,0,1,0-2.19Z"/><path class="cls-1" d="M55.73,147.58A4.49,4.49,0,0,1,51.12,152a4.57,4.57,0,0,1-4.92-4.46A4.5,4.5,0,0,1,50.73,143a4.85,4.85,0,0,1,5,4.61Zm-.7-.23c0-1.17-1.25-2.27-3.6-2.27-2.65,0-4.53,1.1-4.53,2.74,0,1.17.86,2.18,3.75,2.18,2.5,0,4.38-.93,4.38-2.65Z"/><path class="cls-1" d="M46.51,159h.55c.15,1.17.31,1.25,1.72,1.25h3.36c1.4,0,2.34-.55,2.34-1.8a3.41,3.41,0,0,0-1-2.11H48.7c-1.41,0-1.49.08-1.64,1.25h-.55v-4.45h.55c.15,1.33.23,1.48,1.64,1.48h4.14c1.33,0,1.41-.15,1.64-1.17H55a10.42,10.42,0,0,0,.86,3H54.25c.31.39.62.86,1,1.33a2.88,2.88,0,0,1,.63,1.64c0,1.56-1.17,2.66-3.21,2.66H48.86c-1.41,0-1.49.15-1.65,1.25h-.54V159Z"/><path class="cls-1" d="M164.89,52.72l-2.19,2.5V53.5l-3-3.12s-.23-.31-.46-.16c0,0-.32.32.23.78l2,2.43a2,2,0,0,1,.08,2.5,4.57,4.57,0,0,1-4.61,1.64,3.87,3.87,0,0,1-3-3.83,6.27,6.27,0,0,1,.55-2.81s.39-.94.54.62c0,0-.31,3.6,2.5,3.75,0,0,1.1.24,1.41-.54,0,0,.24-.55-.7-1.41,0,0-2.11-1.72-1.72-3.6a4.59,4.59,0,0,1,1.8-2.11s.93-.7,2.26.55Z"/><circle class="cls-1" cx="174.81" cy="58.58" r="1.17"/><circle class="cls-1" cx="177.63" cy="58.58" r="1.17"/><circle class="cls-1" cx="181.14" cy="58.58" r="1.17"/><circle class="cls-1" cx="104.57" cy="49.91" r="1.17"/><circle class="cls-1" cx="91.99" cy="47.18" r="1.17"/><path class="cls-1" d="M106,52.65l1.64-1.8s2.11,1.33,1.72,5.16c0,0-.23,2.34-3.36,2.89a4.33,4.33,0,0,1-4.76-3.68s-.39-2.73,1-3.75c0,0-.47,4.77,2.58,4.93a2.28,2.28,0,0,0,1.88-.86,2,2,0,0,0,0-2.19Z"/><circle class="cls-1" cx="183.64" cy="70.54" r="1.41"/><circle class="cls-1" cx="173.41" cy="90.39" r="1.41"/><circle class="cls-1" cx="173.41" cy="93.9" r="1.41"/><circle class="cls-1" cx="173.41" cy="110" r="1.41"/><circle class="cls-1" cx="187.47" cy="100.31" r="1.41"/><path class="cls-1" d="M180.36,72.18l2.19,1.95s-1.64,2.5-6.17,2.11c0,0-2.82-.23-3.44-4.06a5.19,5.19,0,0,1,4.37-5.7s3.28-.47,4.46,1.17c0,0-5.71-.55-5.86,3a2.55,2.55,0,0,0,1,2.26,2.37,2.37,0,0,0,2.58,0A3.6,3.6,0,0,0,180.36,72.18Z"/><path class="cls-1" d="M96.13,40.46S95,40,94.8,40.92a1.41,1.41,0,0,0,.55,1.65s-.39,1.17-.16,1.64l2-2.27a.46.46,0,0,0-.15-.7s-.24-.16-.55.15l-.55.79s-.78-.71,0-1.18C96,41.08,96.83,40.92,96.13,40.46Z"/><path class="cls-1" d="M91.67,50.85,94,49.13l.16,4.61L92,56.24H75.66V53.11h8.51s.16-.39-.78-.62h-7.5l3.44-4.38.39,1.8h4.61s2.5.08,2.73,3.36h4.77Z"/><polygon class="cls-1" points="95.42 44.99 97.46 42.72 98.39 53.66 96.36 56.01 95.42 44.99"/><polygon class="cls-1" points="65.19 49.21 67.37 47.65 70.89 53.43 68.7 56.01 49.01 56.01 48 44.91 50.18 42.72 51.12 53.43 54.48 53.43 54.33 50.61 56.44 48.74 56.83 53.43 59.33 53.43 61.51 51.71 62.84 53.51 63.7 53.51 62.14 51.24 64.33 49.75 66.83 53.43 67.77 53.43 65.19 49.21"/><circle class="cls-1" cx="55.58" cy="58.51" r="1.17"/><path class="cls-7" d="M138,101.48V118.2c-4.06,10.79-18.13,9.22-18.13,9.22-21.17-3.36-26-16.56-26.33-17.34v-8.52H138Z"/><path class="cls-1" d="M116.6,123.13a3.87,3.87,0,0,0,0,1.87,21.13,21.13,0,0,1,.86,6.49,13.19,13.19,0,0,1-1.56,5.39,6,6,0,0,0-.24,4.22s2.89,8.67,6.57,13.51a50,50,0,0,1-5.86,4.46,1,1,0,0,1-.63.15h-.23a44.71,44.71,0,0,1-3.83-2.42c.08-.15,1.25-2.65,0-7.34a25.34,25.34,0,0,1-.94-8.91,7,7,0,0,0-1.17-4.06s-.86-.94-.94-4.14v-5.87a5.89,5.89,0,0,1,2.11-3.43v-3.91a1,1,0,0,0-1.09-.94s-.32-3.67,1.17-4.06a9.61,9.61,0,0,1,2.11-.16v-.86s.08-.23-.63-.31c0,0-.86.16-1.25-1.48,0,0-1-4.3,2-5.32a3.32,3.32,0,0,1,3.75,1.41,4.68,4.68,0,0,1,.54,3.91,2.47,2.47,0,0,1-.86,1.09s-.31.23-.15.86c0,0,.15.78.62.94a12.6,12.6,0,0,0,2.19.08s1.25-.4,1.33,1.17c0,0,.08,5.47.31,10.39l.16,5.78a1,1,0,0,0,.7.55l1.72.55s.63.31.39.62c0,0-.55.39-2.58.24,0,0-1.33.15-1.4-2.11,0,0-1.1-6-1.18-7.66l-.46-3.67s-.24-.47-.63.62Z"/><path class="cls-1" d="M121.29,42.72l-2.11,2.11.62,8.44-2.81.08V48.74L115,50.38h-1.8c-2.34.16-2,3.36-2,3.36a1.81,1.81,0,0,0,1.64,2.11H115a3.59,3.59,0,0,1-1.56,3c3.83-.16,3.75-2.89,3.75-2.89h2.5l2.65-3Zm-6.72,10.63a.37.37,0,0,1-.39.39h-.47a.37.37,0,0,1-.39-.39v-.47a.37.37,0,0,1,.39-.39h.47a.37.37,0,0,1,.39.39Z"/><path class="cls-1" d="M151.53,52.65c.08-.79-1.41-2-1.41-2a3.27,3.27,0,0,0-2.19-.62H134a2.69,2.69,0,0,0-2.66,1.33,3.62,3.62,0,0,0-.86-1.8l-1.87,2.11a3.32,3.32,0,0,1,1.09,1.87h-3.36l-.94-10.7-2.11,1.95L124,55.46c0,.78.86.7.86.7h23.84l1.87-1.64A2.21,2.21,0,0,0,151.53,52.65Zm-18.75,1a1.1,1.1,0,0,1,1-1h13.83a1,1,0,0,1,1.09,1Z"/><path class="cls-1" d="M183.25,53.58l-.39-4.53-2,2v2.19h-3.2l-.39-4.3-2.19,1.65.39,2.65h-3.05V49.68c0-1.1-.55-.63-.55-.63-.47.08-1.25,1.41-1.25,1.41H169.5a2.51,2.51,0,0,0-2.58,2.89c-.08,2.42,2,2.34,2,2.34h1.88a3.49,3.49,0,0,1-1.88,3.13c4.22-.08,3.83-2.89,3.83-2.89h8.13Zm-13.05-.23a.37.37,0,0,1-.39.39h-.47a.37.37,0,0,1-.39-.39v-.47a.37.37,0,0,1,.39-.39h.47a.37.37,0,0,1,.39.39Z"/><path class="cls-1" d="M185.05,102.34l-2-2.5-3.36.16V93.82l5.23-.23-1.64-2.42s-3.44-.08-3.51,0,0-5.71,0-5.71l5.31-.39-2-1.95v-2c-.32-3.28-4-2.66-4-2.66-2.58.24-2.66,3-2.66,3V83c-1.64.08-2.89-1.64-2.89-1.64-.47-.7-.7-.23-.7-.23-.16,4.84,3.67,4.45,3.67,4.45v31.64c-3,2-1.09,5.55-1.09,5.55a4.61,4.61,0,0,0,5,2,3.52,3.52,0,0,0,3-3.59v-4.61h-3.83V111H185L183,108.59l-3.44.08v-6.33Zm-4.69,18.36a1.13,1.13,0,0,1-1.25,1,1.15,1.15,0,0,1-1-1.25,1.14,1.14,0,1,1,2.27.23Zm-1-38.21a.8.8,0,1,1,1.1-.31A.77.77,0,0,1,179.34,82.49Z"/><path class="cls-1" d="M184.89,140a6.12,6.12,0,0,0-4.06-3.51V157.9a1.13,1.13,0,0,1-1.25,1.32V134a41.9,41.9,0,0,0,5.23-.39l-2-2.27s.94-3.59-2.34-4.22c0,0-3.44-.63-3.91,2.27v2.18s-2.11.94-3.44-2.11a3.92,3.92,0,0,0,3.29,4.61v25.16l3.36,3.52s3.82-.39,4-3.2V142.89s3.28,3.29,7.11,1C190.91,143.91,187.47,144.3,184.89,140Zm-6-9.61a.76.76,0,0,1,.86-.7.78.78,0,0,1-.16,1.56A.74.74,0,0,1,178.88,130.39Z"/><path class="cls-5" d="M87.3,118.59s.08,1.49-2.34,2.43c0,0-1.33-2.43,1.79-4.3a3.16,3.16,0,0,1,2.35-3.28s.62,1.17-.86,3.51a2.61,2.61,0,0,1,2,2.66C90.11,119.61,88.94,120.16,87.3,118.59Z"/><path class="cls-6" d="M85.58,116.8a4.85,4.85,0,0,0-3.67-.79,5.69,5.69,0,0,0-3,3.91s-.08,2,1.09,2.81c.16.08,4.69,2.66,5.94,4.85L88.08,132a.51.51,0,0,1-.16.55c-.07,0-.07.08-.15.08s-.31-.08-.31-.23L85.27,128a11.27,11.27,0,0,0-3.44-3.13c-.55.24-2,1.1-1.8,2.11l.32,1a.39.39,0,0,1-.24.47H80a.41.41,0,0,1-.39-.31l-.31-1.1c-.31-1.33.94-2.34,1.8-2.81a14,14,0,0,1-1.49-.94c-1.56-1.09-1.48-3.44-1.48-3.59a6.55,6.55,0,0,1,3.59-4.61,5.17,5.17,0,0,1,4.38.93c.15.16.23.4.08.55C86,116.87,85.74,117,85.58,116.8Z"/><path class="cls-6" d="M64.8,140.55s.78,4.06,4.61,4.84c0,0,1.09.39,4.53-.15,0,0,.31.31-.55.78,0,0-1.72,1.09-1.72,1.72,0,0,.24.55,1.56-.7,0,0,1.18-.79,1.18-.4a9.6,9.6,0,0,0-.63,2.74,8.56,8.56,0,0,0,.63,3.59.67.67,0,0,0,.7.24s.47-.16.08-1c0,0-1.1-3.83.31-5.94,0,0,.31-.39.39.55,0,0,.24,2.11,1.88,2.19,0,0,1,.39.47-1.17,0,0-1-2.27.93-3.29,0,0,.24,0-.08.55a2.46,2.46,0,0,0,1.8,3s1.49.31.86-.7c0,0-1.56-3.28,2-3.83,0,0,1.41-.39.47.39,0,0-1.4,2.11.08,3.75,0,0,.78.86.63-.78a2.14,2.14,0,0,1,2.89-1.8s1.64.24,5.78,3.83c0,0,2.34,2.5,5,2.11a41.81,41.81,0,0,1-6-6s-1.32-1.56-1.32-2c0,0,.7,0,.15-.86,0,0-1-.86-.94-1.72a5.68,5.68,0,0,0-.54-2.5c-.24-.47-.63-1.4-.63-1.4s-.15-.86.94.78c0,0,.23,1.72.7.54,0,0,.63-1.09.39.08A11.66,11.66,0,0,0,92,142.5s.47,1.25.94-.15c0,0,.31-.32.15,1.4a2.37,2.37,0,0,0,.78,2.11,1.1,1.1,0,0,0,1.57.16s.31-.39.23.39c0,0-.7,2,2.11,3.44,0,0,.39.31.55,0,0,0,.23-.47-.71-1.25,0,0-1.56-.94-.86-3.67,0,0,.39-1.1.16-1.33,0,0-.39-.55-1.33.47,0,0-1,.93-1.17.54,0,0-.7-2.11.39-3.12,0,0,.94-.78.55-1.17a2.46,2.46,0,0,0-2.82.31s-.54.47-.7-1.1c0,0-.39-1.72.63-2.26,0,0,.78-.31.39-.94,0,0-.24-.55-1.41,0,0,0-1,.55-1.25.08,0,0-1.17-1.33-2-1.1,0,0-.63.32.23,1.33a6.26,6.26,0,0,1,.86,2.35s0,.54-.55-.16a3.16,3.16,0,0,0-2-.86s-.39.16-.23.47c0,0-.08.31.62.31,0,0,.55,0,1.41,1.17,0,0,1.4,1.72.86,1.88,0,0-1.18.23-.47.78a26.39,26.39,0,0,1,4.84,4.85s.86,1.17-.93-.39A29.25,29.25,0,0,0,84,140.55s-1.57-.63-1.8-2c0,0,.16-1.18-.23-.79a1.48,1.48,0,0,0-.24,2s.55.47-.47.23l-3.67-.39s-1.56,0-2-1a.43.43,0,0,0-.78-.08s-.94,1.4,1.48,2.58c0,0,1.09.39.23.62a6.34,6.34,0,0,0-3.12,2.5A18.36,18.36,0,0,1,68.7,144a4.77,4.77,0,0,1-3-4.61s-.15-2.74,3.29-3.21l-.24-1.72C68.7,134.53,64.09,136.41,64.8,140.55Zm10.86,3.52a5.86,5.86,0,0,1,3.43-1.57c.79,0,.55-.47.55-.47-.39-.62-2.58-1.25-2.58-1.25,2-.15,5.39,1.1,5.39,1.1,1.1.39.71-.63.71-.63,3,.78,6.8,4.07,6.8,4.07a6,6,0,0,0-2.19-.79,3.14,3.14,0,0,0-3.44,1.18c-.23-1.41,1.72-2,1.72-2,.94-.15.23-.62.23-.62a4.14,4.14,0,0,0-2.34-.55,2.68,2.68,0,0,0-2.42,1.49A5.23,5.23,0,0,0,81.2,147c-2-1.33,0-3.68,0-3.68.63-.7,0-.78,0-.78-4.61,1-4.06,4.46-4.06,4.46a2.52,2.52,0,0,1,.78-3.28c.63-.47.39-.63.39-.63A6,6,0,0,0,75.66,144.07Z"/><path class="cls-5" d="M86.52,133.75a2.72,2.72,0,0,1,2.73.47s1.25,1.41.32,1.09c0,0-1.65-.86-2.58,0,0,0-.86.86-1.25.55C85.89,135.78,85,134.77,86.52,133.75Z"/><path class="cls-5" d="M83.31,132.35a2,2,0,0,1,.63,1.79c-.08,1.17-.78.31-.78.31l-3.28-3.67c-.94-1.33.86-2.58.86-2.58a1.88,1.88,0,0,1,2.73.24l2.5,4c.39.63,0,.78,0,.78a.77.77,0,0,1-.94-.39l-1.48-2.11c-1.33-1.09-1.64-.23-1.64-.23C81.67,131.1,83.31,132.35,83.31,132.35Z"/><path class="cls-5" d="M75.66,136.56a2.93,2.93,0,0,1-3.6.55c-.94-.23-.23.7-.23.7a2.28,2.28,0,0,1-1,3.05,3.33,3.33,0,0,1-3.28-1.33l1.8-.31c.7-.08.54-1.17.54-1.17v-3.83c-.23-2.11-2.65-1-2.65-1-1.1.16-.47-1-.47-1a2.4,2.4,0,0,1,3-1.56c2,.86,1.25,2.57.86,3.43s0,1.33,0,1.33c2.73-2.5,4.84.55,4.84.55h-3v.62Z"/><path class="cls-5" d="M68.39,148.68c.94-.32.94-.71.94-.71a1.17,1.17,0,0,1-.86-.86,1,1,0,0,1,.86-1.25c1.33,0,2,1.88,2,1.88l-.86-.24c-.86-.23-.23.63-.23.63A1.86,1.86,0,0,0,69,149.77c.07.31.85,0,1.17-.63a1,1,0,0,1,1-.54,1.55,1.55,0,0,1,1.41,1.48c.16,1.41-1.09,1.33-1.09,1.33-.55,0-1.1-1.48-1.1-1.48a2.59,2.59,0,0,1-1.4,1.25,1.13,1.13,0,0,1-1.41-1.1A2.61,2.61,0,0,1,68.39,148.68Z"/><path class="cls-5" d="M75.11,154.15c.7.46-1.48,1.09-1.88,1.56s-.46.78-.31.94,1.33-.55,2-1.1.78.31.85,1.17a3.89,3.89,0,0,0,1.41,2.58c.7.39.63-1.25-.08-1.79a3.46,3.46,0,0,1-1-2.19c-.08-.39.78-.31,1.87-.47s.47-.47.47-.47a8,8,0,0,0-1.87-.08c-1.1.08-.79-.55-.79-.55.55-2.18,3-1.79,3-1.79a2.3,2.3,0,0,1,1.88,2.26c.08,2.35-2.74,2.27-2.74,2.27a3,3,0,0,1,1.25,2.81A1.72,1.72,0,0,1,77,161c-1.72-.31-1.88-3.12-1.88-3.12-.08-.86-.94-.16-.94-.16-1.87,1.25-2.89.39-2.89.39a2.79,2.79,0,0,1-.23-2.58C72.06,153.21,75.11,154.15,75.11,154.15Z"/></g></g></svg>