<svg xmlns="http://www.w3.org/2000/svg" viewBox="0 0 132.22 10.02"><defs><style>.cls-1{fill:#fff;}</style></defs><g id="Layer_2" data-name="Layer 2"><g id="Layer_1-2" data-name="Layer 1"><path class="cls-1" d="M131.94,4.71,1.69,4.93A.08.08,0,0,0,1.62,5a.08.08,0,0,0,.07.09l130.25.21a.29.29,0,0,0,.28-.29.29.29,0,0,0-.27-.31Z"/><path class="cls-1" d="M0,5A1,1,0,0,1,.91,4a1,1,0,0,1,.91,1A1,1,0,0,1,.91,6,1,1,0,0,1,0,5ZM.09,5a.88.88,0,0,0,.82.92A.88.88,0,0,0,1.73,5a.88.88,0,0,0-.82-.92A.88.88,0,0,0,.09,5Z"/><path class="cls-1" d="M1.43,5a.56.56,0,0,0-.52-.59A.57.57,0,0,0,.38,5a.56.56,0,0,0,.53.59A.55.55,0,0,0,1.43,5Z"/><path class="cls-1" d="M131.93,4.73a1.33,1.33,0,0,1-1-.39,6.51,6.51,0,0,1-.83-.9,24.69,24.69,0,0,0-1.62-1.93,7.43,7.43,0,0,0-1-.82A5.84,5.84,0,0,0,127,.36a2.66,2.66,0,0,0-.57-.25,2.63,2.63,0,0,0-2.37.44,2.78,2.78,0,0,0-.82,1A2.47,2.47,0,0,0,123,3a2.11,2.11,0,0,0,1.58,1.89,1.35,1.35,0,0,0,.6,0,1.34,1.34,0,0,0,.54-.31,1.52,1.52,0,0,0,.38-.52,1.24,1.24,0,0,0,.13-.66,1.26,1.26,0,0,0-.66-1.07.88.88,0,0,0-.62,0,.69.69,0,0,0-.29.16.67.67,0,0,0-.18.33h0a.12.12,0,0,0,.07.13.1.1,0,0,0,.11-.08v0a.49.49,0,0,1,.33-.38.72.72,0,0,1,.54,0,1,1,0,0,1,.44.38,1.33,1.33,0,0,1,.19.59,1.37,1.37,0,0,1-.49,1.1,1.25,1.25,0,0,1-1.07.29,1.28,1.28,0,0,1-.52-.23,2.09,2.09,0,0,1-.42-.42,2.17,2.17,0,0,1-.42-1.14,2.42,2.42,0,0,1,1-2.1,2.34,2.34,0,0,1,2.13-.39,2.74,2.74,0,0,1,.53.23c.17.1.34.2.5.31a8.44,8.44,0,0,1,.92.78c.57.58,1.07,1.26,1.61,1.91a6.87,6.87,0,0,0,.88.91,1.9,1.9,0,0,0,.54.34A1.27,1.27,0,0,0,132,5h0a.13.13,0,0,0,.1-.14A.14.14,0,0,0,131.93,4.73Z"/><path class="cls-1" d="M131.94,5.08a1.24,1.24,0,0,0-.63.08,2.1,2.1,0,0,0-.55.34,6.31,6.31,0,0,0-.88.91c-.54.64-1,1.31-1.63,1.89a6.06,6.06,0,0,1-.92.77,3.76,3.76,0,0,1-.5.31,2.66,2.66,0,0,1-.52.23,2.36,2.36,0,0,1-2.14-.4,2.46,2.46,0,0,1-1-2.12A2.27,2.27,0,0,1,123.65,6a1.81,1.81,0,0,1,.42-.41,1.3,1.3,0,0,1,.52-.24,1.29,1.29,0,0,1,1.07.3,1.37,1.37,0,0,1,.48,1.11,1.21,1.21,0,0,1-.19.59,1,1,0,0,1-.44.37.72.72,0,0,1-.54,0,.51.51,0,0,1-.32-.4.1.1,0,0,0-.11-.09.1.1,0,0,0-.08.12h0a.83.83,0,0,0,.18.32.82.82,0,0,0,.29.18.88.88,0,0,0,.62,0,1.26,1.26,0,0,0,.67-1.07,1.37,1.37,0,0,0-.13-.66,1.52,1.52,0,0,0-.38-.52,1.42,1.42,0,0,0-.53-.31,1.4,1.4,0,0,0-.61-.05A2.1,2.1,0,0,0,123,7.06a2.47,2.47,0,0,0,.22,1.37,2.76,2.76,0,0,0,.81,1,2.59,2.59,0,0,0,2.94.21,5.09,5.09,0,0,0,.54-.32,7.38,7.38,0,0,0,1-.81,25,25,0,0,0,1.64-1.93,7,7,0,0,1,.83-.89,1.39,1.39,0,0,1,1-.39c.06,0,.11,0,.12-.11a.12.12,0,0,0-.1-.14Z"/><path class="cls-1" d="M125,2.8a.29.29,0,1,0-.58,0,.29.29,0,1,0,.58,0Z"/><ellipse class="cls-1" cx="124.74" cy="7.24" rx="0.29" ry="0.33"/><path class="cls-1" d="M132.15,7a.45.45,0,0,0-.42-.47.47.47,0,0,0,0,.94A.45.45,0,0,0,132.15,7Z"/><path class="cls-1" d="M131.72,2.52a.45.45,0,0,0-.42.47.42.42,0,1,0,.84,0A.45.45,0,0,0,131.72,2.52Z"/></g></g></svg>