<svg xmlns="http://www.w3.org/2000/svg" viewBox="0 0 93.69 29.57"><defs><style>.cls-1{fill:#e30613;}</style></defs><g id="Layer_2" data-name="Layer 2"><g id="Layer_1-2" data-name="Layer 1"><g id="Layer_2-2" data-name="Layer 2"><g id="set"><path class="cls-1" d="M38.15,29.56l.13-.38a2.54,2.54,0,0,1,1.2-1.4,4.47,4.47,0,0,0,1.12-1,2.5,2.5,0,0,0,.51-1.73h0a1.81,1.81,0,0,0-.64-1.15l-.11-.08c.14-.15.32-.36.55-.58l.18-.17.2-.18.13-.11c0,.1-.06.2-.08.3a2.83,2.83,0,0,0,0,1.16,2.21,2.21,0,0,0,.17.57,2,2,0,0,0,.35.51,1.41,1.41,0,0,0,1.16.44,1.16,1.16,0,0,0,.32-.08,1.2,1.2,0,0,0,.27-.16A1.69,1.69,0,0,0,44,25.1l.13-.23a1.86,1.86,0,0,0,.1-.25.66.66,0,0,0,0-.28.62.62,0,0,0,0-.27.85.85,0,0,0-.3-.4.76.76,0,0,0-.41-.15.82.82,0,0,0-.38.06l-.14.09-.12.1a.43.43,0,0,0-.09.42.27.27,0,0,0,.07.08h0a.11.11,0,0,1,0-.08.33.33,0,0,1,0-.14.57.57,0,0,1,.11-.16.63.63,0,0,1,.5-.12.5.5,0,0,1,.26.13.57.57,0,0,1,.17.28v.33a.56.56,0,0,1-.09.17l-.12.18a1.42,1.42,0,0,1-.3.3.8.8,0,0,1-.36.14,1,1,0,0,1-.74-.31,1.69,1.69,0,0,1-.4-.8v-1a4.35,4.35,0,0,1,.33-1l.17-.31.18-.16c1-1,2.15-2.06,3-2.93a6.53,6.53,0,0,0,.55-.63,4,4,0,0,0,.35-.56,3.12,3.12,0,0,0,.15-.39.38.38,0,0,0,0-.15l-.08.12c-.08.12-.12.21-.22.35a4.51,4.51,0,0,1-.4.47c-.17.17-.37.35-.59.54l-.72.62c-.25.22-.52.45-.78.69-.54.47-1.08,1-1.6,1.46l-.81.76-.43.4h0a2,2,0,0,1-.6.13,1.61,1.61,0,0,1-.31,0h-.3a1.36,1.36,0,0,1-.5-.31,2,2,0,0,1-.17-.23.94.94,0,0,1-.1-.28.92.92,0,0,1,.12-.56A1,1,0,0,1,39.2,21a.3.3,0,0,1,.08-.08h0a.15.15,0,0,0-.08-.19h-.42a1.15,1.15,0,0,0-.27.27,1.26,1.26,0,0,0-.22.88,1.41,1.41,0,0,0,.14.44,1.21,1.21,0,0,0,.24.35,1.73,1.73,0,0,0,1.54.53h0a3.4,3.4,0,0,0-.31.52,1.67,1.67,0,0,0-.77-.06,2.53,2.53,0,0,0-1.65,1.27A3.29,3.29,0,0,0,37,27.16a5.42,5.42,0,0,0,.79,2.09Zm1.34-3c-.15.17-.32.33-.48.48a3.47,3.47,0,0,0-.94,1.21,3.74,3.74,0,0,1,.1-1,7.75,7.75,0,0,1,.56-1.83A3.76,3.76,0,0,1,39.81,24a.6.6,0,0,1,.19.06h0a2.45,2.45,0,0,1-.51,2.48ZM39.41,24a4,4,0,0,0-.92,1.28,8.53,8.53,0,0,0-.59,1.9,4.61,4.61,0,0,0-.1.91,4.35,4.35,0,0,1-.27-1,3,3,0,0,1,.42-2A2.14,2.14,0,0,1,39.35,24Zm-1,4.25a3.34,3.34,0,0,1,.83-1c.17-.16.34-.33.5-.51a2.79,2.79,0,0,0,.72-2.19v-.16a1.37,1.37,0,0,1,.34.74,2.13,2.13,0,0,1-.44,1.46,4.09,4.09,0,0,1-1,.9,3.5,3.5,0,0,0-1,.75Z"/><path class="cls-1" d="M52.27,13.42l-.15.11-.44.34c-.38.29-.94.72-1.69,1.2a24.43,24.43,0,0,1-2.77,1.58,28.48,28.48,0,0,1-3.76,1.53,34.69,34.69,0,0,1-4.6,1.13,38.63,38.63,0,0,1-5.14.55H31l-1.35-.07a10,10,0,0,1-1.34-.13l-.67-.12a3.08,3.08,0,0,1-.66-.13l-.67-.13-.66-.15L25,19l-.66-.15L23,18.55l-1.28-.29L20.42,18h-.35l-.36-.08-.36-.06H19c-.5-.06-1-.09-1.5-.1a16.74,16.74,0,0,0-3,.27c-.48.09-1,.19-1.41.31s-.9.24-1.33.38l-1.22.42c-.39.14-.76.28-1.11.43-.7.28-1.3.55-1.8.79-1,.47-1.57.8-1.49.87a5.15,5.15,0,0,0,1.76-.5c.51-.19,1.12-.42,1.81-.66s1.45-.5,2.27-.74c.41-.12.83-.24,1.26-.34s.89-.2,1.34-.28.92-.14,1.38-.19a13.19,13.19,0,0,1,1.41-.06,13,13,0,0,1,1.4.08h.68l.68.14,2.6.59,1.32.31,1.33.29L26,20h.34l.34.07.34.07h.34l.69.12h.69l.7.06c.46,0,.92.06,1.38.07H33.6a38.43,38.43,0,0,0,5.24-.63l1.23-.26,1.19-.3c.78-.22,1.53-.45,2.24-.7A27.37,27.37,0,0,0,47.32,17a24.41,24.41,0,0,0,2.76-1.71A20.6,20.6,0,0,0,51.73,14l.41-.38Z"/><path class="cls-1" d="M18.07,27.61a1.74,1.74,0,0,0,.42-.34,1.56,1.56,0,0,0,.16-.2,1.76,1.76,0,0,0,.14-.23.66.66,0,0,0,.06-.27,1.13,1.13,0,0,0,0-.26.85.85,0,0,0-.22-.42.82.82,0,0,0-.38-.2.73.73,0,0,0-.36,0,.38.38,0,0,0-.15,0h-.07l-.06,0a.45.45,0,0,0-.17.37.17.17,0,0,0,0,.1h0v-.08a.5.5,0,0,1,0-.13.44.44,0,0,1,.14-.13H18a.33.33,0,0,1,.14,0,.48.48,0,0,1,.23.17.7.7,0,0,1,.12.28v.16a.27.27,0,0,1,0,.15,1.13,1.13,0,0,1-.24.29,1.31,1.31,0,0,1-.34.24.93.93,0,0,1-.37.1.74.74,0,0,1-.36-.09,1.07,1.07,0,0,1-.31-.25l-.06-.08-.06-.09v-.19a2,2,0,0,1-.08-.43,1.62,1.62,0,0,1,0-.44v-.24a.21.21,0,0,1,0-.11v-.12a2,2,0,0,1,.21-.44l.07-.1a.61.61,0,0,1,.07-.1l.14-.18.19-.19a6.65,6.65,0,0,0,.84-.43,14.83,14.83,0,0,0,4.14-4.25l.34-.45-.46-.35c-.11.16-.22.31-.34.46a17.06,17.06,0,0,1-3.18,3.55l-.25.11a4.12,4.12,0,0,1-1.46.36,2.62,2.62,0,0,1-.74-.07,1.66,1.66,0,0,1-.31-.12l-.25-.19a1.52,1.52,0,0,1-.4-.54,1.44,1.44,0,0,1-.15-.65,1.06,1.06,0,0,1,.21-.59,1.2,1.2,0,0,1,.22-.23l.07-.05h.14a.83.83,0,0,1,.58,0A1.17,1.17,0,0,1,17,21a.94.94,0,0,1,.23.53.57.57,0,0,1,0,.26.68.68,0,0,1-.14.23l-.05.06H17a1.58,1.58,0,0,1-.24.15,1.05,1.05,0,0,1-.24.06.35.35,0,0,1-.2-.05h0a.52.52,0,0,1,0-.56.69.69,0,0,1,.23-.22.68.68,0,0,1,.24-.08h0a.76.76,0,0,0-.58.27,2.12,2.12,0,0,0-.11.21.57.57,0,0,0,0,.26.84.84,0,0,0,.08.27.57.57,0,0,0,.08.13l.12.11a.61.61,0,0,0,.32.13,1,1,0,0,0,.34-.05,1.77,1.77,0,0,0,.31-.15l.14-.09a.53.53,0,0,0,.14-.12.86.86,0,0,0,.13-.14l.06-.09V22a.91.91,0,0,0,.1-.4,1.14,1.14,0,0,0-.07-.41,1.3,1.3,0,0,0-.19-.37,1.61,1.61,0,0,0-.67-.54,1.36,1.36,0,0,0-.44-.11,1.3,1.3,0,0,0-.48.07h-.22l-.09.06h-.05a1.67,1.67,0,0,0-.34.31,1.55,1.55,0,0,0-.35.87A1.77,1.77,0,0,0,15,22a1.71,1.71,0,0,0,.13.44,2.42,2.42,0,0,0,.51.72,2.88,2.88,0,0,0,.35.26l.1.05.1,0,.12.05h.11a1.8,1.8,0,0,0,.45.09,3.53,3.53,0,0,0,.46,0h0a5.06,5.06,0,0,1-1.92.38H13.92a2,2,0,0,1-.55-.3,1.51,1.51,0,0,1-.23-.21l-.05-.06v-.06a.83.83,0,0,1-.08-.12,1.46,1.46,0,0,1-.18-.57,1.41,1.41,0,0,1,0-.29.84.84,0,0,1,.56-.62l.25-.07a.21.21,0,0,1,.11,0H14a.21.21,0,0,0,.1-.06v-.12h-.8a1.21,1.21,0,0,0-.38,0,1.23,1.23,0,0,0-.74.52,1.12,1.12,0,0,0-.18.42,1.58,1.58,0,0,0-.05.43,1.81,1.81,0,0,0,.24.82,1.85,1.85,0,0,0,.59.59h0a3.09,3.09,0,0,0-.59.18,1.5,1.5,0,0,0-.53-.53,2.52,2.52,0,0,0-2.08-.12A4,4,0,0,0,7,27.2l-.07.4.35-.2a2.52,2.52,0,0,1,1.82-.28,4.15,4.15,0,0,0,1.49,0A2.05,2.05,0,0,0,12.38,25h0a3.09,3.09,0,0,1,1.31-.21,1.83,1.83,0,0,0-.36.26l-.05.05h-.06l-.1.11-.1.11h0v.06l-.09.12-.07.12a.75.75,0,0,0-.07.12v.12a2.19,2.19,0,0,0-.17.55,2,2,0,0,0,0,.6,1.51,1.51,0,0,0,.26.56,1.24,1.24,0,0,0,.48.4A1.35,1.35,0,0,0,14,28a1.63,1.63,0,0,0,.53-.12,1.22,1.22,0,0,0,.24-.1,1,1,0,0,0,.22-.14.91.91,0,0,0,.18-.21.66.66,0,0,0,.11-.24.79.79,0,0,0,0-.48.7.7,0,0,0-.23-.35.87.87,0,0,0-.33-.17h-.3a.39.39,0,0,0-.32.26.17.17,0,0,0,0,.1h0V26.5a.43.43,0,0,1,.1-.09.37.37,0,0,1,.18-.05h.23a.24.24,0,0,1,.11.06l.11.09a.58.58,0,0,1,.13.26.76.76,0,0,1,0,.3.64.64,0,0,1-.08.14l-.11.11a1.14,1.14,0,0,1-.36.15,1.4,1.4,0,0,1-.41.06,1,1,0,0,1-.37-.08.71.71,0,0,1-.29-.25.82.82,0,0,1-.15-.36v-.1a.17.17,0,0,0,0-.1v-.21a1.45,1.45,0,0,1,.12-.42,1.47,1.47,0,0,1,.21-.39l.07-.09.08-.1.09-.08V25.3h0A2.19,2.19,0,0,1,14.1,25l.11-.06.1-.06.21-.09a3.19,3.19,0,0,1,.44-.13h.19a6.83,6.83,0,0,0,1.35-.17,2.3,2.3,0,0,0-.26.49v.14l0,.14v.15a.09.09,0,0,0,0,.07v.35A.74.74,0,0,0,16,26v.13a1.89,1.89,0,0,0,.38,1.1,1.65,1.65,0,0,0,.48.39,1.29,1.29,0,0,0,.61.13A1.26,1.26,0,0,0,18.07,27.61Zm-6.25-3.14a1.28,1.28,0,0,1,.11.2,2.4,2.4,0,0,1-2,1.51q-.35,0-.69.06a3.36,3.36,0,0,0-1.5.3,3.51,3.51,0,0,1,.74-.7,7.53,7.53,0,0,1,1.62-1A3.81,3.81,0,0,1,11.82,24.47ZM9.15,26.74a3.4,3.4,0,0,0-1.19,0,3.41,3.41,0,0,1,1.3-.24,3.3,3.3,0,0,0,.7-.05,2.82,2.82,0,0,0,2-1.33,1.75,1.75,0,0,1-1.51,1.6A3.77,3.77,0,0,1,9.15,26.74Zm2.32-2.57h.06a4.34,4.34,0,0,0-1.54.37A8.65,8.65,0,0,0,8.31,25.6a5,5,0,0,0-.68.62,3.23,3.23,0,0,1,2.08-2.17A2.09,2.09,0,0,1,11.47,24.17Z"/><path class="cls-1" d="M5.73,22.74a2,2,0,0,0,.85-1.54,1,1,0,0,0,0-.25h0c-.11-.92-1.09-1.78-2.74-1.63a3.73,3.73,0,0,0-2.4,1.14,5.85,5.85,0,0,0-1.28,2L0,22.84l.39-.12a2.85,2.85,0,0,1,2.07.15,4.81,4.81,0,0,0,1.63.35A2.91,2.91,0,0,0,5.73,22.74Zm-2.15-.65A5,5,0,0,1,2.82,22,3.62,3.62,0,0,0,1,22a4.34,4.34,0,0,1,1-.64,8.36,8.36,0,0,1,2-.71,4.23,4.23,0,0,1,2,.06,1.13,1.13,0,0,1,.08.24A2.72,2.72,0,0,1,3.58,22.09Zm2.31-1.75a4.7,4.7,0,0,0-1.83,0,9.2,9.2,0,0,0-2.1.74,4.74,4.74,0,0,0-1,.58,3.62,3.62,0,0,1,2.88-2A2.31,2.31,0,0,1,5.89,20.34ZM4.1,22.83a4.13,4.13,0,0,1-1.51-.32,4,4,0,0,0-1.45-.3,3.46,3.46,0,0,1,1.63,0,5.19,5.19,0,0,0,.79.12,3.11,3.11,0,0,0,2.62-1A2,2,0,0,1,4.1,22.83Z"/><path class="cls-1" d="M9.49,19.73a2.41,2.41,0,0,0-.38,0,5,5,0,0,1-.95-.06H7.87l-.29-.09A2.27,2.27,0,0,1,7,19.19,1.8,1.8,0,0,1,6.8,19v-.12l-.08-.12a1.26,1.26,0,0,1-.17-.57,1.41,1.41,0,0,1,0-.29.81.81,0,0,1,.11-.27A.93.93,0,0,1,7,17.26l.25-.06h.36a.12.12,0,0,0,.1-.05.13.13,0,0,0,0-.12H7.44a1.27,1.27,0,0,0-.39,0,1.29,1.29,0,0,0-.74.51,1.16,1.16,0,0,0-.18.43,1.55,1.55,0,0,0,0,.43,1.63,1.63,0,0,0,.24.81,1.75,1.75,0,0,0,.58.6,2.2,2.2,0,0,0,.7.31,2,2,0,0,0,.35.06V20H9.16A3.72,3.72,0,0,1,9.49,19.73Z"/><path class="cls-1" d="M12.18,19a1.19,1.19,0,0,0-.46.06,7.47,7.47,0,0,0-1.15.3,4.12,4.12,0,0,0-.74.34c-.13.08-.26.16-.38.25a1.82,1.82,0,0,0-.34.34,2.11,2.11,0,0,0-.47.9,1.57,1.57,0,0,0-.06.53,1.41,1.41,0,0,0,0,.29,1,1,0,0,0,.13.3.88.88,0,0,0,.22.25,1.18,1.18,0,0,0,.29.16,1.3,1.3,0,0,0,.62,0,1.59,1.59,0,0,0,.3-.06l.14-.05h.13a1.09,1.09,0,0,0,.37-.52.86.86,0,0,0,0-.32.68.68,0,0,0-.08-.31.76.76,0,0,0-.19-.21l-.1-.06h-.09a.39.39,0,0,0-.26,0,.13.13,0,0,0-.11.11.17.17,0,0,0,0,.14l.12.16v.22a.14.14,0,0,1,0,.09L10,22l-.09.09h0L10,22a.49.49,0,0,1-.17,0,.51.51,0,0,1-.3,0,.36.36,0,0,1-.16-.11.46.46,0,0,1-.06-.23,2,2,0,0,1,0-.35,1.76,1.76,0,0,1,.28-.66,2.17,2.17,0,0,1,.24-.29l.28-.25c.2-.14.4-.28.61-.4.41-.23.79-.4,1-.53A1.71,1.71,0,0,1,12.18,19Z"/><path class="cls-1" d="M28.44,20.07l.35-.44-.1-.09c-.72-.58-1.45-1.17-2.21-1.7-.11-.16-.27-.4-.43-.68L25.93,17l-.12-.23-.06-.12-.06-.13c0-.08-.07-.16-.11-.25s0-.08,0-.12V16a.81.81,0,0,1,0-.22V15.7h0v-.09a.52.52,0,0,1,.1-.18l.14-.11h.45l.06.06a.64.64,0,0,1,.08.14.33.33,0,0,1,0,.14v.12a.14.14,0,0,0,.07.08.11.11,0,0,0,.11,0,.28.28,0,0,0,.12-.14.63.63,0,0,0,.06-.27.79.79,0,0,0-.1-.34.7.7,0,0,0-.3-.29A.81.81,0,0,0,26,14.7a1,1,0,0,0-.41.09l-.09.05h-.05s-.05,0-.07.07l-.07.06a1.12,1.12,0,0,0-.2.33v0h0v.48a.49.49,0,0,0,0,.17,1.2,1.2,0,0,0,.13.31,1.17,1.17,0,0,0,.15.27l.07.12.09.12a.44.44,0,0,0,.08.11l.08.11a1.63,1.63,0,0,0,.17.2v.05a12,12,0,0,0-1.95-1c-.22-.24-.67-.66-1.24-1.18l-.33-.29L22,14.56l-.16-.16-.15-.17a1.27,1.27,0,0,1-.13-.19,1.74,1.74,0,0,1-.11-.18,1.3,1.3,0,0,1-.16-.8,1,1,0,0,1,.14-.34,1,1,0,0,1,.27-.26.76.76,0,0,1,.33-.11h.17a.51.51,0,0,1,.28.17.35.35,0,0,1,.08.13v.13a.33.33,0,0,1,0,.14.24.24,0,0,1-.06.11.23.23,0,0,1-.07.07.83.83,0,0,1-.21.06H21.9a.09.09,0,0,0,0,.07.17.17,0,0,0,0,.1.47.47,0,0,0,.24.22.75.75,0,0,0,.51,0,.64.64,0,0,0,.29-.16.85.85,0,0,0,.22-.28,1,1,0,0,0,.07-.74A1.18,1.18,0,0,0,23,12.1a1,1,0,0,0-1-.41,1.36,1.36,0,0,0-.65.19,1.62,1.62,0,0,0-.49.45,1.42,1.42,0,0,0-.26.62,1.93,1.93,0,0,0,0,.34,1.71,1.71,0,0,0,0,.32,2.42,2.42,0,0,0,.23.58c.06.08.11.17.17.24l.09.11.05.06h.05a4.48,4.48,0,0,0,.4.36l.39.29.38.25.94.62L23,16a5.84,5.84,0,0,0-3.21-.12l-.28.08h-.37a3.16,3.16,0,0,1-.9-.29h0l-.1-.06-.1-.07h0l-.09-.07-.08-.08-.07-.08h0a1.83,1.83,0,0,1-.23-.38,1.38,1.38,0,0,1-.1-.4.86.86,0,0,1,.26-.71,1.13,1.13,0,0,1,.75-.24,1,1,0,0,1,.39.05.28.28,0,0,1,.15.08.68.68,0,0,1,.12.12.64.64,0,0,1,.11.3.72.72,0,0,1-.06.29.66.66,0,0,1-.4.33.38.38,0,0,1-.21,0,.33.33,0,0,1-.13-.07.18.18,0,0,1-.06-.09h0a.24.24,0,0,0,0,.12.49.49,0,0,0,.4.18h.15l.15-.06.15-.1.13-.15a.76.76,0,0,0,.15-.41.85.85,0,0,0-.1-.47.83.83,0,0,0-.16-.21.76.76,0,0,0-.23-.17,1.14,1.14,0,0,0-.26-.09h-.25a2.44,2.44,0,0,0-.54,0,1.36,1.36,0,0,0-.55.24A1.17,1.17,0,0,0,17,14a1.53,1.53,0,0,0-.12.6V15a.58.58,0,0,0,.05.14,2.25,2.25,0,0,0,.29.5,3,3,0,0,0,.39.4l.12.09.12.09.12.08h.14a3,3,0,0,0,.41.18,3,3,0,0,1-1.34.1v-.07A2.55,2.55,0,0,0,17,16a2.08,2.08,0,0,0-.87-1.41,2.94,2.94,0,0,0-1.57-.52,5.16,5.16,0,0,0-1.7.26,3,3,0,0,1-2.16,0l-.38-.14.13.38a6.37,6.37,0,0,0,1.2,2.16A3.91,3.91,0,0,0,14.06,18a2.89,2.89,0,0,0,2.34-.53,1.79,1.79,0,0,0,.47-.62,2.22,2.22,0,0,0,.89,0l-.09.09a3,3,0,0,0-.22.28,2.07,2.07,0,0,0-.34.68,1.8,1.8,0,0,0-.07.83,1.74,1.74,0,0,0,.33.78,1.77,1.77,0,0,0,.3.31,1.68,1.68,0,0,0,.42.22A1.35,1.35,0,0,0,19,20a1.27,1.27,0,0,0,.33-.24l.11-.13v-.2a0,0,0,0,1,0-.05v-.1a.1.1,0,0,0-.07-.09c-.08,0-.15.06-.25.13h-.05l-.23.1a.93.93,0,0,1-.57,0,1,1,0,0,1-.46-.33,1.42,1.42,0,0,1-.24-.55v-.3a1.71,1.71,0,0,1,0-.32,3.23,3.23,0,0,1,.22-.59l.16-.26.09-.12.09-.11.1-.11.08-.09.94-.26.62-.17a5.27,5.27,0,0,1,2.92.11A17.33,17.33,0,0,1,28.33,20ZM11.24,15.5a5.19,5.19,0,0,0,1,.68,9.59,9.59,0,0,0,2.12.88,4.91,4.91,0,0,0,1.91.11l-.12.11a2.51,2.51,0,0,1-2,.45A3.82,3.82,0,0,1,11.24,15.5Zm5.39.65A3.21,3.21,0,0,0,14,15a7.58,7.58,0,0,0-.82.08A3.36,3.36,0,0,1,11.43,15,3.83,3.83,0,0,0,13,14.73a4.47,4.47,0,0,1,1.58-.25,2,2,0,0,1,2.07,1.6Zm-.13.7a4.35,4.35,0,0,1-2.06-.05,9.14,9.14,0,0,1-2.07-.86,4.12,4.12,0,0,1-1.06-.74,3.71,3.71,0,0,0,1.87.09c.26,0,.54-.06.8-.07A2.82,2.82,0,0,1,16.6,16.6.77.77,0,0,1,16.5,16.85Z"/><path class="cls-1" d="M34.37,25.64a1.76,1.76,0,0,0,.37-.17,2.6,2.6,0,0,0,.32-.26,1.48,1.48,0,0,0,.36-.69,1.15,1.15,0,0,0-.5-1.25,1,1,0,0,0-.28-.14,1.36,1.36,0,0,0-.29-.06.93.93,0,0,0-.52.09,1.52,1.52,0,0,0-.35.26,1.12,1.12,0,0,0-.19.29V24a.38.38,0,0,0,0,.15v0a.78.78,0,0,1,.05-.14v-.21a2.2,2.2,0,0,1,.2-.23,1.09,1.09,0,0,1,.33-.19l.2-.05h.43l.21.13.18.17a1,1,0,0,1,.18.48.57.57,0,0,1,0,.26,1,1,0,0,1-.28.5,1.08,1.08,0,0,1-.24.18,1.39,1.39,0,0,1-.28.12,1.74,1.74,0,0,1-.64.05,1.86,1.86,0,0,1-1.17-.55,1.12,1.12,0,0,1-.28-.54,1.71,1.71,0,0,1,0-.32,1.71,1.71,0,0,1,0-.32,2.06,2.06,0,0,1,.25-.59,3,3,0,0,1,.23-.27l.27-.24a3.48,3.48,0,0,1,.66-.35l.35-.11.17-.05h.18c.46-.09.88-.12,1.18-.16l.28-.05a8.24,8.24,0,0,0,2.43.05,7.31,7.31,0,0,0,1.23-.28,7.7,7.7,0,0,0,1-.4A6.67,6.67,0,0,0,42,19.86l.14-.13.12-.14.22-.24.18-.22.14-.19.19-.26c0-.06.06-.09,0-.1l-.07.08-.21.24-.16.18-.19.2a2.39,2.39,0,0,1-.23.22l-.12.12-.14.13a7.61,7.61,0,0,1-1.51,1l-.24.11-.12.05-.13.05-.26.1h-.28a5.88,5.88,0,0,1-1.18.24,8.21,8.21,0,0,1-2.66-.19A10.22,10.22,0,0,1,32.77,20l-.16-.1-.16-.1-.08-.05-.08-.05-.16-.11-.31-.22-.16-.12-.15-.12a8.42,8.42,0,0,1-.72-.62V18.5l-.08-.12a4.88,4.88,0,0,1-.42-.74v-.51a1.22,1.22,0,0,1,0-.27,1.22,1.22,0,0,1,0-.27,1.26,1.26,0,0,1,.24-.46.78.78,0,0,1,.2-.16h.67a.74.74,0,0,1,.21.13.57.57,0,0,1,.12.18.54.54,0,0,1,0,.18.43.43,0,0,1,0,.16v.13a.17.17,0,0,0,0,.1.11.11,0,0,0,.11,0,.4.4,0,0,0,.18-.1.72.72,0,0,0,.15-.27.54.54,0,0,0,0-.18.74.74,0,0,0,0-.21V16a.13.13,0,0,0-.05-.1l-.12,0-.07-.09a1,1,0,0,0-.36-.26H30.46l-.09.05a1.35,1.35,0,0,0-.32.26,1.52,1.52,0,0,0-.22.34,1.58,1.58,0,0,0-.11.37,1.46,1.46,0,0,0,0,.72.11.11,0,0,0,0,.08v.15c-.12-.16-.23-.32-.34-.49s-.25-.44-.36-.66L28.94,16a1.34,1.34,0,0,0-.07-.18l-.06-.17-.06-.17a1.09,1.09,0,0,0-.05-.17L28.61,15a2.41,2.41,0,0,0-.07-.37,1.65,1.65,0,0,0-.05-.38,5.3,5.3,0,0,1,.09-1.59,1.77,1.77,0,0,1,.11-.44l.25-.2a2.33,2.33,0,0,1,.34-.2,2,2,0,0,1,.42-.13,1.77,1.77,0,0,1,.46,0A1.6,1.6,0,0,1,31,12a1.27,1.27,0,0,1,.27.34.41.41,0,0,1,.05.09V13a.74.74,0,0,1,0,.21,1.37,1.37,0,0,1-.15.38l-.13.15a.91.91,0,0,1-.16.11,1,1,0,0,1-.37.1.75.75,0,0,1-.36-.07.38.38,0,0,1-.15-.09.49.49,0,0,1-.12-.13l-.05-.08V13.5a.43.43,0,0,1,0-.16.55.55,0,0,1,0-.31.61.61,0,0,1,.15-.24.78.78,0,0,1,.2-.16.48.48,0,0,1,.2-.07H30.2a.84.84,0,0,0-.51.43,1,1,0,0,0,0,.89,1.19,1.19,0,0,0,.36.38,1.15,1.15,0,0,0,.25.12,1.24,1.24,0,0,0,.85,0,.92.92,0,0,0,.27-.16,1.31,1.31,0,0,0,.49-.75,1.06,1.06,0,0,0,.05-.31v-.31a1.84,1.84,0,0,0-.57-1,1.92,1.92,0,0,0-.48-.32,2.1,2.1,0,0,0-.6-.19h-.63a2,2,0,0,0-.57.21h0c0-.08.08-.16.13-.24a3.33,3.33,0,0,1,1-1.08,2.34,2.34,0,0,1,.6-.28,1.76,1.76,0,0,1,.6-.1,2.61,2.61,0,0,1,1,.23,4.59,4.59,0,0,1,.61.35h0a1.6,1.6,0,0,0-.29.44,1.8,1.8,0,0,0-.12.86A2.26,2.26,0,0,0,34,13.24a4.08,4.08,0,0,0,1.42.32,2.47,2.47,0,0,1,1.68.63l.3.27v-.4a6.25,6.25,0,0,0,0-1.06,3.55,3.55,0,0,0-1.73-2.79,2.47,2.47,0,0,0-2-.3,1.61,1.61,0,0,0-.46.26h0v-.05L33,10a.52.52,0,0,0-.11-.1h.44l.22-.06a2,2,0,0,0,.77-.49,1.48,1.48,0,0,0,.41-.84,1.37,1.37,0,0,0-.18-.91,1.23,1.23,0,0,0-.33-.35A1.15,1.15,0,0,0,33.76,7a1.09,1.09,0,0,0-.79.13.81.81,0,0,0-.26.26.59.59,0,0,0-.12.31.48.48,0,0,0,0,.29.51.51,0,0,0,.42.35h0a.45.45,0,0,1-.19-.17.33.33,0,0,1,0-.17.61.61,0,0,1,0-.19.55.55,0,0,1,.3-.33.78.78,0,0,1,.78.1l.1.1v.06h0a1,1,0,0,1,0,.88.9.9,0,0,1-.17.26,1.25,1.25,0,0,1-.56.37l-.17.06H32a2.68,2.68,0,0,0-.63-.11,2.5,2.5,0,0,0-.72.1h-.12V9.13a2,2,0,0,0,.1-.92,1.37,1.37,0,0,0-.13-.45,1.24,1.24,0,0,0-.29-.39,1.56,1.56,0,0,0-.4-.27A1.47,1.47,0,0,0,29.35,7h-.47a1.2,1.2,0,0,0-.39.2h0l-.07.07-.07.09h0a.92.92,0,0,0-.11.4.74.74,0,0,0,.06.36.67.67,0,0,0,.19.28.82.82,0,0,0,.26.14h.49a.62.62,0,0,1-.27,0,.46.46,0,0,1-.32-.18.42.42,0,0,1-.1-.2.49.49,0,0,1,0-.24.24.24,0,0,1,0-.12.24.24,0,0,1,.06-.11.61.61,0,0,1,.2-.19,1,1,0,0,1,.24.09h.29a.93.93,0,0,1,.55.25,1,1,0,0,1,.28.54,1.53,1.53,0,0,1-.06.67L30,9.2v.16L30,9.44l-.05.07v.08l-.06.07c-.15.18-.29.33-.39.46v.06a4.29,4.29,0,0,0-.53.68,5.33,5.33,0,0,0-.65,1.6,6.14,6.14,0,0,0-.12.86v-.13a5.49,5.49,0,0,0-.18-.78,4,4,0,0,0-.41-.86,2.54,2.54,0,0,0-.77-.76h-.12l-.13-.06-.14-.05h-.15a1.52,1.52,0,0,0-.6,0,1.38,1.38,0,0,0-.59.2,1.35,1.35,0,0,0-.45.44,1.73,1.73,0,0,0-.22.57V12a.11.11,0,0,1,0,.08v.51a.89.89,0,0,0,.15.31,1.2,1.2,0,0,0,.24.26H25a.73.73,0,0,0,.36,0,1,1,0,0,0,.32-.14l.12-.12a.38.38,0,0,0,.09-.15.58.58,0,0,0,.05-.29.63.63,0,0,0-.08-.23.37.37,0,0,0-.13-.15.33.33,0,0,0-.13-.07h-.09a.29.29,0,0,0,0,.13v.08a.17.17,0,0,1,0,.1v.11a.16.16,0,0,1-.05.09.27.27,0,0,1-.22.11h-.16a.61.61,0,0,1-.09-.18,1,1,0,0,1,.1-.78l.12-.16h0a1.09,1.09,0,0,1,.38-.14,1,1,0,0,1,.43,0h.41a1.9,1.9,0,0,1,.37.26c.11.1.21.21.31.32l.07.09.06.09.06.09h0l.05.1.05.09.09.19a4.71,4.71,0,0,1,.27.71c.07.22.12.42.16.59s.08.29.11.38a6.83,6.83,0,0,0,.11.79v.19a1.33,1.33,0,0,0,.05.19,1.21,1.21,0,0,0,.11.37,4.89,4.89,0,0,0,.3.75c.05.13.12.25.18.37l.1.18.1.17a9,9,0,0,0,1,1.3,8.8,8.8,0,0,0,1.19,1.09l.16.13.16.12.33.23.33.21.35.21a10.17,10.17,0,0,0,2,.87h-.31a3.66,3.66,0,0,0-1.55.58l-.34.28a3,3,0,0,0-.28.34,2,2,0,0,0-.22.37,2,2,0,0,0-.13.39,2.12,2.12,0,0,0,0,.87,1.5,1.5,0,0,0,.15.42.17.17,0,0,0,0,.1v.1A.86.86,0,0,0,32,25a2.07,2.07,0,0,0,.7.51,2.59,2.59,0,0,0,.82.2A2,2,0,0,0,34.37,25.64ZM33,11.08a2.74,2.74,0,0,0,1.7,1.67c.22.08.44.14.66.2a3.29,3.29,0,0,1,1.17.46,3.55,3.55,0,0,0-1.11-.23,3.62,3.62,0,0,1-1.3-.29A1.86,1.86,0,0,1,33,11.53,1.14,1.14,0,0,1,33,11.08Zm.33-.58a3.59,3.59,0,0,1,1.57.66,8.67,8.67,0,0,1,1.34,1.3,4.44,4.44,0,0,1,.55.81,3.11,3.11,0,0,0-1.36-.58l-.64-.19a2.35,2.35,0,0,1-1.61-1.84A.75.75,0,0,1,33.33,10.5Zm2.09,0A3.16,3.16,0,0,1,37,13a5.11,5.11,0,0,0-.51-.71A7.68,7.68,0,0,0,35.05,11a4.19,4.19,0,0,0-1.38-.66h0a2.11,2.11,0,0,1,1.75.2Z"/><path class="cls-1" d="M23.69,27.74a3.11,3.11,0,0,0,1-2.52,1.81,1.81,0,0,0-.26-.78,1,1,0,0,0,.23-.13,3.31,3.31,0,0,0,.5-.41h0v.37a2.67,2.67,0,0,0,0,.4,3,3,0,0,0,.06.42,2.16,2.16,0,0,0,.14.43,1.91,1.91,0,0,0,.53.76,2,2,0,0,0,.84.45,2.42,2.42,0,0,0,.47.05,1.56,1.56,0,0,0,.52-.11,1.24,1.24,0,0,0,.46-.29,1.31,1.31,0,0,0,.3-.41,1.06,1.06,0,0,0,.12-.43.67.67,0,0,0,0-.2v-.16h0v-.05L28.45,25h-.12s-.07.15-.1.29,0,0,0,.06v.18a1,1,0,0,1-.13.28,1.13,1.13,0,0,1-.51.43.93.93,0,0,1-.33.07,1,1,0,0,1-.34,0A1.6,1.6,0,0,1,26.3,26l-.07-.06-.06-.06L26,25.66a2,2,0,0,1-.19-.31,2.16,2.16,0,0,1-.23-.69.83.83,0,0,0,0-.35V23.5h0l.17-.21.52-.71.26-.37.28-.35a9.88,9.88,0,0,1,.9-.93,3.24,3.24,0,0,0-.16.53v.26a1.22,1.22,0,0,0,0,.27,2.26,2.26,0,0,0,0,.52,2.39,2.39,0,0,0,.15.54,1.6,1.6,0,0,0,.36.49,1.33,1.33,0,0,0,.53.3,1.35,1.35,0,0,0,.29.05h.3a1.39,1.39,0,0,0,.77-.37,1.12,1.12,0,0,0,.18-.2,1.71,1.71,0,0,0,.13-.23,2.25,2.25,0,0,0,.08-.24v-.49A1.24,1.24,0,0,0,30.1,22a1.06,1.06,0,0,0-.29-.27.79.79,0,0,0-.34-.1.66.66,0,0,0-.28,0,.56.56,0,0,0-.2.11l-.07.06v.1h.5a.44.44,0,0,1,.19.1.75.75,0,0,1,.15.2v.13a.66.66,0,0,1,0,.44.87.87,0,0,1-.16.26l-.12.11a.42.42,0,0,1-.14.09.61.61,0,0,1-.3.08.86.86,0,0,1-.32,0,.74.74,0,0,1-.27-.16L28.34,23a.64.64,0,0,1-.08-.14,1.35,1.35,0,0,1-.11-.34,1.27,1.27,0,0,1,0-.39.74.74,0,0,1,0-.21v-.22a3,3,0,0,1,.27-.83v-.1h0v-.05a.8.8,0,0,0,.08-.16v-.15l.06-.13v-.07h.07l.19-.11.09-.05L29,20l.19-.11a7.35,7.35,0,0,1,1.58-.6,6.81,6.81,0,0,1,1.62-.23h2.14l.33.07a1.55,1.55,0,0,1,.31.07l.29.08h.28l.26.08.23.08.22.08.19.07h.17l.27.1a.63.63,0,0,0,.23.08l-.21-.13-.25-.14-.16-.09-.18-.09a9.59,9.59,0,0,0-2-.73,1.07,1.07,0,0,0-.19-.28,3,3,0,0,1-.45-.8V16.47a1.64,1.64,0,0,1,.62-.84,1.66,1.66,0,0,1,.47-.17,1.46,1.46,0,0,1,.51,0,1.11,1.11,0,0,1,.78.57,1.21,1.21,0,0,1,0,1,1.16,1.16,0,0,1-.26.39.89.89,0,0,1-.38.23,1,1,0,0,1-.41,0,.66.66,0,0,1-.51-.47.38.38,0,0,1,0-.15.38.38,0,0,1,0-.15.61.61,0,0,1,.13-.22.65.65,0,0,1,.16-.13l.17-.07H35a.41.41,0,0,0-.21.1.64.64,0,0,0-.22.24v.09a.17.17,0,0,0,0,.1.21.21,0,0,0,0,.11v.11a.78.78,0,0,0,.18.46,1.8,1.8,0,0,0,.19.2l.26.14a1.06,1.06,0,0,0,.61,0H36l.16-.06,0,.05h.07l.07-.05a1.44,1.44,0,0,0,.45-.53,1.75,1.75,0,0,0,.19-.71,1.6,1.6,0,0,0-.12-.75l-.09-.18a.41.41,0,0,1-.05-.09l-.06-.08-.07-.08-.06-.07-.15-.14a1.91,1.91,0,0,0-2.22-.17,2.22,2.22,0,0,0-1,1.23v.4a2.94,2.94,0,0,0,0,.42,2.66,2.66,0,0,0,.07.39l.06.18a.87.87,0,0,0,.07.17,2.1,2.1,0,0,0,.37.56l.11.11h-1a7.65,7.65,0,0,0-1.72.16,7.39,7.39,0,0,0-1.71.6l-.21.11-.2.11-.38.23a7.54,7.54,0,0,0-.73.53,10.13,10.13,0,0,0-1.32,1.3l-.3.38L26,22a3,3,0,0,1-.46.33,3.09,3.09,0,0,1-1,.4H23.48a2.64,2.64,0,0,1-.47-.17,1.58,1.58,0,0,1-.39-.29,1.09,1.09,0,0,1-.3-.86A1,1,0,0,1,22.5,21a1.46,1.46,0,0,1,.34-.36,1.29,1.29,0,0,1,.39-.23.61.61,0,0,1,.19,0h.2a.83.83,0,0,1,.32.2.6.6,0,0,1,.15.31.7.7,0,0,1-.12.59l-.09.09a.31.31,0,0,1-.1,0,.49.49,0,0,1-.17,0H23.5a.26.26,0,0,0,.11.07.53.53,0,0,0,.48-.13l.06-.06.05-.07.09-.16a1.46,1.46,0,0,0,.05-.2.81.81,0,0,0,0-.22.91.91,0,0,0-.16-.45,1,1,0,0,0-.43-.34.89.89,0,0,0-.28-.07h-.31a1.42,1.42,0,0,0-.29.1l-.25.15a2,2,0,0,0-.45.41,1.35,1.35,0,0,0-.31.59,1.65,1.65,0,0,0,0,.7,1.77,1.77,0,0,0,.33.6l.12.13.13.11.13.1.15.08a1.89,1.89,0,0,0,.6.22.54.54,0,0,1,.3.06h1.16l.17-.05.16,0L25.3,23h0c-.16.23-.32.44-.46.62a4.59,4.59,0,0,1-.4.44l-.16.15A2.73,2.73,0,0,0,24,24a2.2,2.2,0,0,0-2-.38,3.25,3.25,0,0,0-1.6,1.07,5.6,5.6,0,0,0-.89,1.67,3.3,3.3,0,0,1-1.41,1.94l-.33.22.38.12A7,7,0,0,0,21,29,4.29,4.29,0,0,0,23.69,27.74Zm-2.83-2c-.17.25-.32.52-.47.77A3.64,3.64,0,0,1,19.09,28,4.26,4.26,0,0,0,20,26.49a4.86,4.86,0,0,1,.82-1.56,2.22,2.22,0,0,1,2.92-.71,3.5,3.5,0,0,0-2.88,1.55Zm3.35-1a4.57,4.57,0,0,1-1.42,1.81,9.82,9.82,0,0,1-2.11,1.26,4.5,4.5,0,0,1-1.43.45,3.89,3.89,0,0,0,1.37-1.61,7.17,7.17,0,0,1,.46-.75,3.17,3.17,0,0,1,3-1.42,1.08,1.08,0,0,1,.13.29Zm-4.77,3.77a5.38,5.38,0,0,0,1.35-.46A10.27,10.27,0,0,0,23,26.79a5.23,5.23,0,0,0,1.38-1.65v.12a2.78,2.78,0,0,1-.94,2.21,4.29,4.29,0,0,1-4,1.07Z"/><path class="cls-1" d="M55.75,29.21a5.42,5.42,0,0,0,.79-2.09,3.29,3.29,0,0,0-.48-2.23,2.53,2.53,0,0,0-1.65-1.27,1.67,1.67,0,0,0-.77.06,2.47,2.47,0,0,0-.31-.52h0a1.74,1.74,0,0,0,1.54-.53,1.48,1.48,0,0,0,.25-.35,1.41,1.41,0,0,0,.14-.44A1.31,1.31,0,0,0,55,21a1.2,1.2,0,0,0-.28-.27h-.42a.14.14,0,0,0-.09.08.11.11,0,0,0,0,.11h0a.3.3,0,0,1,.08.08l.15.21a.85.85,0,0,1,.11.56.94.94,0,0,1-.1.28.76.76,0,0,1-.17.23,1.36,1.36,0,0,1-.5.31h-.61a2,2,0,0,1-.59-.13h0l-.43-.4-.81-.76c-.51-.49-1.06-1-1.6-1.46q-.39-.36-.78-.69l-.72-.62c-.22-.19-.42-.37-.58-.54a6,6,0,0,1-.41-.47,2.5,2.5,0,0,1-.21-.35L47.05,17v.15a1.68,1.68,0,0,0,.16.39,2.5,2.5,0,0,0,.35.56,8.14,8.14,0,0,0,.54.63c.83.87,1.92,2,3,2.93l.18.16.17.31a4.37,4.37,0,0,1,.34,1v1a1.52,1.52,0,0,1-.4.8.91.91,0,0,1-.73.31.73.73,0,0,1-.37-.14,1.42,1.42,0,0,1-.3-.3v-.16l-.09-.17a.49.49,0,0,1,0-.17.43.43,0,0,1,0-.16.57.57,0,0,1,.17-.28.5.5,0,0,1,.26-.13.63.63,0,0,1,.5.12A.57.57,0,0,1,51,24a.33.33,0,0,1,0,.14.11.11,0,0,1,0,.08h0l0-.06a.43.43,0,0,0-.09-.42l-.12-.1-.14-.09a.78.78,0,0,0-.37-.06.79.79,0,0,0-.42.15.83.83,0,0,0-.29.4,1.28,1.28,0,0,0-.06.55,1.86,1.86,0,0,0,.1.25l.13.23a1.42,1.42,0,0,0,.39.42,1.2,1.2,0,0,0,.27.16,1.09,1.09,0,0,0,.31.08,1.41,1.41,0,0,0,1.16-.44,2,2,0,0,0,.35-.51,2.21,2.21,0,0,0,.17-.57,2.83,2.83,0,0,0,0-1.16c0-.1,0-.2-.08-.3l.13.11.2.18.18.17c.23.22.41.43.55.58l-.11.08a1.81,1.81,0,0,0-.64,1.15h0a2.46,2.46,0,0,0,.52,1.73,4.6,4.6,0,0,0,1.11,1,2.54,2.54,0,0,1,1.2,1.4l.13.38Zm-2.09-5.12h0a.6.6,0,0,1,.19-.06A3.6,3.6,0,0,1,55,25.39a8.44,8.44,0,0,1,.57,1.83,4.19,4.19,0,0,1,.09,1,3.33,3.33,0,0,0-1-1.22c-.16-.15-.33-.31-.48-.48A2.44,2.44,0,0,1,53.66,24.09Zm.68-.09a2.12,2.12,0,0,1,1.4,1.09,3,3,0,0,1,.42,2,4.9,4.9,0,0,1-.26,1,4.62,4.62,0,0,0-.11-.91,8.38,8.38,0,0,0-.59-1.9A4,4,0,0,0,54.28,24Zm.09,3.46a3.89,3.89,0,0,1-1-.9A2.14,2.14,0,0,1,53,25.1a1.37,1.37,0,0,1,.34-.74v.16A2.81,2.81,0,0,0,54,26.71c.16.18.33.35.5.51a3.25,3.25,0,0,1,.84,1A3.68,3.68,0,0,0,54.43,27.46Z"/><path class="cls-1" d="M41.42,13.42l.15.11.44.34c.38.29,1,.72,1.69,1.2a27.08,27.08,0,0,0,2.77,1.58,28.61,28.61,0,0,0,3.77,1.53,34.55,34.55,0,0,0,4.59,1.13,38.63,38.63,0,0,0,5.14.55h2.69L64,19.8a10,10,0,0,0,1.34-.13l.66-.12a3.08,3.08,0,0,0,.66-.13l.67-.13.66-.15.67-.14.66-.15,1.32-.3,1.27-.29,1.35-.3h.35l.36-.08.36-.06h.37c.5-.06,1-.09,1.5-.1a16.74,16.74,0,0,1,3,.27c.48.09,1,.19,1.41.31s.9.24,1.33.38l1.22.42c.39.14.76.28,1.11.43.7.28,1.31.55,1.81.79,1,.47,1.56.8,1.48.87a5.1,5.1,0,0,1-1.75-.5c-.52-.19-1.13-.42-1.82-.66s-1.45-.5-2.26-.74c-.41-.12-.84-.24-1.27-.34s-.88-.2-1.34-.28-.92-.14-1.38-.19a13.19,13.19,0,0,0-1.41-.06,13,13,0,0,0-1.39.08h-.69l-.67.14L71,19.2l-1.32.31-1.33.29-.67.15h-.34L67,20l-.34.07h-.34l-.7.12h-.69a2.76,2.76,0,0,0-.7.06c-.46,0-.92.06-1.38.07H60.12a38.58,38.58,0,0,1-5.25-.63l-1.23-.26-1.19-.3c-.78-.22-1.53-.45-2.24-.7A27.77,27.77,0,0,1,46.37,17a22.16,22.16,0,0,1-2.75-1.71A17.66,17.66,0,0,1,42,13.93l-.41-.38C41.46,13.47,41.41,13.42,41.42,13.42Z"/><path class="cls-1" d="M76.2,27.79a1.29,1.29,0,0,0,.61-.13,1.65,1.65,0,0,0,.48-.39,1.83,1.83,0,0,0,.29-.53,2.2,2.2,0,0,0,.1-.57V25a2.87,2.87,0,0,0-.26-.49,6.73,6.73,0,0,0,1.34.17H79a3.06,3.06,0,0,1,.43.13l.21.09.11.06.1.06a2.27,2.27,0,0,1,.4.29h0v.05l.08.08.08.1.07.09a2.46,2.46,0,0,1,.22.39,2.17,2.17,0,0,1,.11.42v.41a1,1,0,0,1-.16.36.84.84,0,0,1-.28.25,1,1,0,0,1-.38.08,1.4,1.4,0,0,1-.41-.06,1.09,1.09,0,0,1-.35-.15.43.43,0,0,1-.12-.11.61.61,0,0,1-.07-.14.61.61,0,0,1,.14-.56l.1-.09.11-.06h.23a.37.37,0,0,1,.18.05.28.28,0,0,1,.1.09.11.11,0,0,1,0,.08h0a.17.17,0,0,0,0-.1.39.39,0,0,0-.31-.26h-.31a.76.76,0,0,0-.32.17.76.76,0,0,0-.24.83.72.72,0,0,0,.1.24.91.91,0,0,0,.18.21,1.09,1.09,0,0,0,.23.14.94.94,0,0,0,.23.1,1.63,1.63,0,0,0,.53.12A1.24,1.24,0,0,0,81,27.54a1.66,1.66,0,0,0,.25-.56,2,2,0,0,0,0-.6,2.07,2.07,0,0,0-.17-.55v-.12a.75.75,0,0,0-.07-.12L81,25.47a.83.83,0,0,1-.08-.12v-.06h0l-.1-.11-.1-.11h0L80.35,25a1.68,1.68,0,0,0-.35-.3,3.09,3.09,0,0,1,1.31.21h0a2.05,2.05,0,0,0,1.79,2.17,4.15,4.15,0,0,0,1.49,0,2.52,2.52,0,0,1,1.82.28l.35.2-.06-.4a4,4,0,0,0-2.59-3.48A2.52,2.52,0,0,0,82,23.8a1.5,1.5,0,0,0-.53.53,3,3,0,0,0-.58-.18h0a1.85,1.85,0,0,0,.59-.59,1.81,1.81,0,0,0,.24-.82,1.55,1.55,0,0,0,0-.43,1.26,1.26,0,0,0-.91-.94,1.28,1.28,0,0,0-.39,0H80.1a.13.13,0,0,0,0,.12.21.21,0,0,0,.1.06h.36l.25.07a.84.84,0,0,1,.56.62,1.46,1.46,0,0,1-.18.86.83.83,0,0,1-.08.12v.06l0,.06a1.51,1.51,0,0,1-.23.21,2,2,0,0,1-.55.3H78.79a5.06,5.06,0,0,1-1.92-.38h0a2.41,2.41,0,0,0,.92-.09h.11l.11-.05.1,0,.1-.05a2.88,2.88,0,0,0,.35-.26,2.42,2.42,0,0,0,.51-.72,2.25,2.25,0,0,0,.14-.44,1.19,1.19,0,0,0,0-.46,1.46,1.46,0,0,0-.35-.87,1.67,1.67,0,0,0-.34-.31h0l-.09-.06h-.22a1.25,1.25,0,0,0-.47-.07,1.35,1.35,0,0,0-.45.11,1.46,1.46,0,0,0-.66.54,1.11,1.11,0,0,0-.2.37,1.14,1.14,0,0,0-.07.41,1.12,1.12,0,0,0,.1.4.14.14,0,0,0,0,.09v.09a.86.86,0,0,0,.13.14l.14.12.15.09a1.4,1.4,0,0,0,.3.15,1,1,0,0,0,.34.05.68.68,0,0,0,.33-.13.57.57,0,0,0,.11-.11.57.57,0,0,0,.08-.13.65.65,0,0,0,.08-.27.57.57,0,0,0,0-.26.53.53,0,0,0-.11-.21.73.73,0,0,0-.3-.22.87.87,0,0,0-.28-.05h0a.68.68,0,0,1,.24.08.69.69,0,0,1,.23.22.52.52,0,0,1,0,.56h0a.35.35,0,0,1-.2.05,1.05,1.05,0,0,1-.24-.06,1.14,1.14,0,0,1-.23-.15h-.06v-.06a.68.68,0,0,1-.14-.23.57.57,0,0,1,0-.26.94.94,0,0,1,.23-.53,1.25,1.25,0,0,1,.52-.36.83.83,0,0,1,.58,0h.14l.07.05a1.25,1.25,0,0,1,.23.23,1,1,0,0,1,.2.59,1.46,1.46,0,0,1-.14.65,2.1,2.1,0,0,1-.4.54,2.48,2.48,0,0,1-.26.19,1.66,1.66,0,0,1-.31.12,2.55,2.55,0,0,1-.73.07,4.12,4.12,0,0,1-1.47-.36l-.74.22a17.06,17.06,0,0,1-3.18-3.55c-.11-.15-.23-.3-.34-.46l-.46.35.34.45a14.74,14.74,0,0,0,4.15,4.25,6.65,6.65,0,0,0,.84.43l.18.19.14.18a.36.36,0,0,1,.07.1l.07.1a2.58,2.58,0,0,1,.22.44v.47a3.23,3.23,0,0,1,0,.44,1.57,1.57,0,0,1-.09.43v.19l-.06.09a.16.16,0,0,1-.06.08.91.91,0,0,1-.3.25.78.78,0,0,1-.37.09.93.93,0,0,1-.37-.1,1.27,1.27,0,0,1-.33-.24,1.16,1.16,0,0,1-.25-.29.38.38,0,0,1,0-.15v-.16a.7.7,0,0,1,.12-.28.51.51,0,0,1,.24-.17.29.29,0,0,1,.13,0H76a.44.44,0,0,1,.14.13.29.29,0,0,1,0,.13v.08h0a.17.17,0,0,0,0-.1.38.38,0,0,0-.17-.37h-.19a.73.73,0,0,0-.36,0,.75.75,0,0,0-.37.2,1,1,0,0,0-.23.42,1.13,1.13,0,0,0,0,.26.9.9,0,0,0,.07.27,1,1,0,0,0,.13.23,1.63,1.63,0,0,0,.17.2,1.53,1.53,0,0,0,.42.34A1.21,1.21,0,0,0,76.2,27.79Zm7.39-3a7.29,7.29,0,0,1,1.62,1,3.51,3.51,0,0,1,.74.7,3.23,3.23,0,0,0-1.5-.3,3.91,3.91,0,0,1-.68-.06,2.44,2.44,0,0,1-2-1.51.82.82,0,0,1,.12-.2,3.73,3.73,0,0,1,1.7.4Zm-.42,1.9a1.73,1.73,0,0,1-1.5-1.6,2.85,2.85,0,0,0,2.06,1.33,3.3,3.3,0,0,1,.7,0,3.46,3.46,0,0,1,1.31.24,3.45,3.45,0,0,0-1.2,0,3.71,3.71,0,0,1-1.37,0ZM84,24.08a3.23,3.23,0,0,1,2.07,2.17,5,5,0,0,0-.68-.62,7.93,7.93,0,0,0-1.68-1.06,4.34,4.34,0,0,0-1.54-.37h.06A2.11,2.11,0,0,1,84,24.08Z"/><path class="cls-1" d="M89.6,23.22a4.81,4.81,0,0,0,1.63-.35,2.88,2.88,0,0,1,2.08-.15l.38.12-.15-.37a5.85,5.85,0,0,0-1.28-2,3.73,3.73,0,0,0-2.4-1.14c-1.64-.15-2.62.71-2.74,1.63h0v.25A2,2,0,0,0,88,22.74,2.92,2.92,0,0,0,89.6,23.22Zm-2.09-2.31a2.25,2.25,0,0,1,.08-.24,4.23,4.23,0,0,1,2-.06,9,9,0,0,1,2,.71,4.36,4.36,0,0,1,1,.64,3.62,3.62,0,0,0-1.79,0c-.25,0-.51.09-.76.11A2.74,2.74,0,0,1,87.51,20.91Zm2.32-1.21a3.62,3.62,0,0,1,2.88,2,4.35,4.35,0,0,0-1-.58,9.29,9.29,0,0,0-2.09-.74,4.75,4.75,0,0,0-1.84,0A2.31,2.31,0,0,1,89.83,19.7Zm-2.32,1.67a3.13,3.13,0,0,0,2.63,1q.39,0,.78-.12a3.45,3.45,0,0,1,1.63,0,4,4,0,0,0-1.45.3,4.07,4.07,0,0,1-1.5.32A1.94,1.94,0,0,1,87.51,21.37Z"/><path class="cls-1" d="M84.2,19.73a2.41,2.41,0,0,1,.38,0,5.6,5.6,0,0,0,1-.06h.29l.29-.09a2.29,2.29,0,0,0,.55-.31,1.51,1.51,0,0,0,.23-.21v-.12a.83.83,0,0,0,.08-.12,1.26,1.26,0,0,0,.17-.57,1.41,1.41,0,0,0,0-.29.81.81,0,0,0-.11-.27,1,1,0,0,0-.45-.35l-.25-.06H86a.12.12,0,0,1-.1-.05.13.13,0,0,1,0-.18A.14.14,0,0,1,86,17h.27a1.08,1.08,0,0,1,1.12.51,1.38,1.38,0,0,1,.19.43,1.55,1.55,0,0,1,0,.43,1.65,1.65,0,0,1-.23.81,2.07,2.07,0,0,1-.58.6,2.36,2.36,0,0,1-.71.31,2,2,0,0,1-.35.06H84.56A1,1,0,0,1,84.2,19.73Z"/><path class="cls-1" d="M81.51,19A1.35,1.35,0,0,1,82,19a7.91,7.91,0,0,1,1.16.3,4.84,4.84,0,0,1,.73.34,3.11,3.11,0,0,1,.38.25,2.81,2.81,0,0,1,.35.34,2.21,2.21,0,0,1,.46.9,1.57,1.57,0,0,1,.06.53,1.41,1.41,0,0,1,0,.29.81.81,0,0,1-.13.3.88.88,0,0,1-.22.25,1.18,1.18,0,0,1-.29.16,1.3,1.3,0,0,1-.62,0,1.36,1.36,0,0,1-.29-.06l-.15-.05h-.07a.88.88,0,0,1-.23-.24A1.51,1.51,0,0,1,83,22a.86.86,0,0,1,0-.32.56.56,0,0,1,.09-.31.91.91,0,0,1,.18-.21l.1-.06h.09a.42.42,0,0,1,.27,0,.14.14,0,0,1,.1.11.17.17,0,0,1,0,.14l-.13.16v.31a.36.36,0,0,0,.07.1.38.38,0,0,0,.09.09h.08a.43.43,0,0,0,.16,0,.51.51,0,0,0,.3,0,.36.36,0,0,0,.16-.11.46.46,0,0,0,.06-.23,2,2,0,0,0,0-.35,1.76,1.76,0,0,0-.28-.66,2.17,2.17,0,0,0-.24-.29l-.28-.25c-.2-.14-.4-.28-.61-.4-.41-.23-.79-.4-1-.53A2.87,2.87,0,0,0,81.51,19Z"/><path class="cls-1" d="M65.36,20a17.24,17.24,0,0,1,5.54-3.42,5.24,5.24,0,0,1,2.91-.11l.62.17.94.26.09.09.09.11.09.11.09.12a2.26,2.26,0,0,1,.16.26,2.1,2.1,0,0,1,.22.59v.62a1.42,1.42,0,0,1-.24.55,1,1,0,0,1-.46.33.93.93,0,0,1-.57,0l-.23-.1h0c-.09-.07-.17-.14-.24-.13s-.06,0-.07.09a.17.17,0,0,0,0,.1v.05h0v.14a.64.64,0,0,0,.1.13,1.27,1.27,0,0,0,.33.24,1.35,1.35,0,0,0,.93.06A1.27,1.27,0,0,0,76,20a1.77,1.77,0,0,0,.3-.31,1.64,1.64,0,0,0,.33-.78,1.94,1.94,0,0,0-.06-.83,2.58,2.58,0,0,0-.35-.68,3,3,0,0,0-.22-.28L75.92,17a2.22,2.22,0,0,0,.89,0,1.79,1.79,0,0,0,.47.62,2.89,2.89,0,0,0,2.34.53A3.88,3.88,0,0,0,82,16.79a6.21,6.21,0,0,0,1.2-2.16l.13-.38-.38.14a3,3,0,0,1-2.16,0,5.16,5.16,0,0,0-1.7-.26,2.91,2.91,0,0,0-1.56.52A2,2,0,0,0,76.69,16a1.41,1.41,0,0,0,0,.29v.07a3,3,0,0,1-1.34-.1,3.79,3.79,0,0,0,.42-.18h.13L76,16l.12-.09.11-.09a3,3,0,0,0,.39-.4,1.92,1.92,0,0,0,.29-.5.33.33,0,0,0,0-.14v-.29a.43.43,0,0,0,0-.16,1.53,1.53,0,0,0-.12-.6,1.17,1.17,0,0,0-.38-.5A1.27,1.27,0,0,0,76,13a2.44,2.44,0,0,0-.54,0h-.25a1.14,1.14,0,0,0-.26.09.76.76,0,0,0-.23.17.8.8,0,0,0-.15.21.86.86,0,0,0-.11.47.85.85,0,0,0,.15.41c0,.06.09.1.13.15l.15.1a.47.47,0,0,0,.15.06h.15a.46.46,0,0,0,.4-.18.24.24,0,0,0,0-.12h0v.09a.37.37,0,0,1-.14.07.34.34,0,0,1-.2,0,.63.63,0,0,1-.4-.33.49.49,0,0,1-.06-.29.46.46,0,0,1,.11-.3.43.43,0,0,1,.11-.12.44.44,0,0,1,.15-.08,1,1,0,0,1,.39-.05,1.13,1.13,0,0,1,.75.24.86.86,0,0,1,.26.71,1.12,1.12,0,0,1-.1.4,1.83,1.83,0,0,1-.23.38h0l-.08.08-.08.08-.09.07h0l-.09.07-.11.06h0a3.16,3.16,0,0,1-.9.29h-.37l-.28-.08a5.84,5.84,0,0,0-3.21.12l-.33.11,1-.62L72,15l.4-.29a3.33,3.33,0,0,0,.39-.36h0V14.3l.09-.11L73,14a2.42,2.42,0,0,0,.23-.58,1.64,1.64,0,0,0,.05-.32,1.93,1.93,0,0,0,0-.34,1.55,1.55,0,0,0-.76-1.07,1.36,1.36,0,0,0-.65-.19,1.15,1.15,0,0,0-.37,0,1.09,1.09,0,0,0-.35.15,1.2,1.2,0,0,0-.29.26,1.06,1.06,0,0,0-.18.35,1,1,0,0,0,.06.74.85.85,0,0,0,.22.28.84.84,0,0,0,.8.16.59.59,0,0,0,.25-.22.17.17,0,0,0,0-.1A.09.09,0,0,0,72,13H71.7a.83.83,0,0,1-.21-.06l-.25.06a.24.24,0,0,1-.06-.11.33.33,0,0,1,0-.14v-.13a.57.57,0,0,1,.08-.13.69.69,0,0,1,.13-.11l.15-.06h.18a.78.78,0,0,1,.59.37,1,1,0,0,1,.14.34,1.39,1.39,0,0,1-.15.8l-.11.18-.14.19c0,.06-.1.11-.15.17l-.16.16-.33.32-.34.29c-.57.52-1,.94-1.24,1.18a11.86,11.86,0,0,0-1.94,1v-.05l.16-.2.09-.11.08-.11.08-.12.08-.12c0-.09.1-.17.15-.27a1.66,1.66,0,0,0,.12-.31v-.65h0v-.05a.86.86,0,0,0-.2-.33h0s-.05,0-.07-.07h0l-.09,0a1,1,0,0,0-.41-.09,1,1,0,0,0-.41.11,1.09,1.09,0,0,0-.17.13,1,1,0,0,0-.13.16.79.79,0,0,0-.1.34.63.63,0,0,0,.06.27.28.28,0,0,0,.12.14.13.13,0,0,0,.12,0,.16.16,0,0,0,.06-.08V15.6a.64.64,0,0,1,.08-.14l.06-.06h.45l.14.11a.52.52,0,0,1,.1.18h0v.49a1.89,1.89,0,0,1-.11.25l-.06.13-.06.12-.12.23-.12.21c-.16.28-.32.52-.43.68-.76.53-1.49,1.12-2.21,1.7l-.1.09.36.44Zm14.2-2.26a2.51,2.51,0,0,1-2-.45l-.11-.11a4.87,4.87,0,0,0,1.9-.11,9.59,9.59,0,0,0,2.12-.88,5.19,5.19,0,0,0,1-.68,3.83,3.83,0,0,1-2.91,2.22Zm-2.5-1.65a2,2,0,0,1,2.08-1.6,4.47,4.47,0,0,1,1.58.25,3.89,3.89,0,0,0,1.55.22,3.5,3.5,0,0,1-1.73.08c-.27,0-.54-.07-.82-.08a3.21,3.21,0,0,0-2.66,1.2Zm0,.52a2.84,2.84,0,0,1,2.63-1.38,3,3,0,0,1,.79.07,3.71,3.71,0,0,0,1.87-.09,4.12,4.12,0,0,1-1.06.74,9.07,9.07,0,0,1-2.06.86,4.39,4.39,0,0,1-2.07.05.77.77,0,0,1-.07-.26Z"/><path class="cls-1" d="M61.55,16.05a.74.74,0,0,0,0,.21.54.54,0,0,0,0,.18.49.49,0,0,0,.15.27.32.32,0,0,0,.18.1.11.11,0,0,0,.11,0,.17.17,0,0,0,0-.1v-.29a.54.54,0,0,1,0-.18.57.57,0,0,1,.12-.18.74.74,0,0,1,.21-.13h.5L63,16h0l.19.16a1.26,1.26,0,0,1,.24.46,2.56,2.56,0,0,1,0,.27v.78a4.1,4.1,0,0,1-.41.74l-.08.12v0a8.42,8.42,0,0,1-.72.62l-.15.12-.16.12-.31.22-.15.11-.08.05-.08.05-.16.1-.17.1a9.67,9.67,0,0,1-1.34.64,9.08,9.08,0,0,1-1.37.43,8.27,8.27,0,0,1-2.67.19,5.88,5.88,0,0,1-1.18-.24h-.27l-.27-.1-.12,0-.13-.05-.24-.11a7.54,7.54,0,0,1-1.5-1l-.15-.13-.12-.12-.23-.22-.19-.2L51,18.9l-.2-.24-.08-.08.06.1.18.26.14.19.18.22.22.24.12.14.14.13a6.76,6.76,0,0,0,2.57,1.57,7.42,7.42,0,0,0,1.24.28A8.24,8.24,0,0,0,58,21.66l.28.05a7,7,0,0,1,1.19.16h.17l.17.05.35.11a3.21,3.21,0,0,1,.66.35l.28.24.22.27a1.62,1.62,0,0,1,.25.59,1.71,1.71,0,0,1,0,.32,1.71,1.71,0,0,1,0,.32,1.24,1.24,0,0,1-.29.54,1.81,1.81,0,0,1-1.17.55,1.74,1.74,0,0,1-.64-.05,1.39,1.39,0,0,1-.28-.12,1,1,0,0,1-.23-.18,1.1,1.1,0,0,1-.29-.5.57.57,0,0,1,0-.26.53.53,0,0,1,0-.25.76.76,0,0,1,.13-.23,1.37,1.37,0,0,1,.17-.17l.21-.13h.44l.2.05a1.29,1.29,0,0,1,.32.19,1.43,1.43,0,0,1,.2.23v.35a.38.38,0,0,0,0-.15v-.25a1.87,1.87,0,0,0-.2-.29,1.52,1.52,0,0,0-.35-.26.93.93,0,0,0-.52-.09,1.36,1.36,0,0,0-.29.06,1.23,1.23,0,0,0-.71.65,1.17,1.17,0,0,0-.07.74,1.48,1.48,0,0,0,.36.69l.32.26a1.84,1.84,0,0,0,.38.17,1.92,1.92,0,0,0,.89.06,2.53,2.53,0,0,0,.81-.2,2,2,0,0,0,.7-.51,1.15,1.15,0,0,0,.14-.17v-.1a.17.17,0,0,0,0-.1,1.5,1.5,0,0,0,.15-.42,2.13,2.13,0,0,0,0-.87A2.23,2.23,0,0,0,61.9,23a2.71,2.71,0,0,0-.21-.37c-.09-.12-.19-.23-.29-.34L61.06,22a3.7,3.7,0,0,0-1.54-.58H59.2a10.17,10.17,0,0,0,2-.87l.35-.21.33-.21.33-.23.16-.12.16-.13a10.35,10.35,0,0,0,1.2-1.09,9,9,0,0,0,1-1.3l.1-.17a1.62,1.62,0,0,0,.1-.18c.06-.12.13-.24.18-.37a4.89,4.89,0,0,0,.3-.75,1.92,1.92,0,0,1,.11-.37.61.61,0,0,0,0-.19l0-.19a6.83,6.83,0,0,0,.11-.79,2.42,2.42,0,0,1,.1-.38c0-.16.1-.37.16-.59s.17-.48.27-.71l.09-.19,0-.09.06-.1h0l.06-.09.07-.09.06-.09c.1-.11.2-.22.31-.32a1.9,1.9,0,0,1,.37-.26h.37a1.48,1.48,0,0,1,.42,0,1.09,1.09,0,0,1,.38.14h0a.61.61,0,0,1,.12.16.9.9,0,0,1,.1.78,1.42,1.42,0,0,1-.08.18h-.15a.3.3,0,0,1-.23-.11.14.14,0,0,1,0-.09V12h-.1a.33.33,0,0,0-.13.07.37.37,0,0,0-.13.15.62.62,0,0,0-.07.23.71.71,0,0,0,0,.29.46.46,0,0,0,.09.15L68,13a1,1,0,0,0,.32.14,1.15,1.15,0,0,0,.37,0h.17L69,13h0a.85.85,0,0,0,.24-.26.89.89,0,0,0,.15-.31v-.69a1.47,1.47,0,0,0-.22-.57,1.32,1.32,0,0,0-.44-.44,1.42,1.42,0,0,0-.6-.2,1.51,1.51,0,0,0-.6,0h-.15l-.13.05-.14.06H67a2.54,2.54,0,0,0-.77.76,4,4,0,0,0-.4.86,7.38,7.38,0,0,0-.19.78v.13a6.14,6.14,0,0,0-.12-.86,5.33,5.33,0,0,0-.65-1.6,4.29,4.29,0,0,0-.53-.68l0-.06c-.09-.13-.24-.28-.39-.46l0-.07V9.36l-.06-.07V9.05L63.63,9a1.28,1.28,0,0,1-.06-.67.9.9,0,0,1,.82-.79h.3a.85.85,0,0,1,.26.11.61.61,0,0,1,.2.19.24.24,0,0,1,.06.11v.12a.49.49,0,0,1,0,.24.72.72,0,0,1-.09.2.48.48,0,0,1-.33.18.57.57,0,0,1-.26,0H65a.82.82,0,0,0,.26-.14.67.67,0,0,0,.19-.28.74.74,0,0,0,.06-.36v-.2a1.19,1.19,0,0,0-.08-.2h0l-.06-.09-.08-.07h0a1.16,1.16,0,0,0-.4-.2h-.46a1.47,1.47,0,0,0-.46.11,1.39,1.39,0,0,0-.41.27,1.24,1.24,0,0,0-.29.39A1.45,1.45,0,0,0,63,8.3a2,2,0,0,0,.1.92v.17H63a2.44,2.44,0,0,0-.71-.1,2.68,2.68,0,0,0-.63.11H60.4l-.18-.06A1.41,1.41,0,0,1,59.66,9a2.33,2.33,0,0,1-.17-.26,1.4,1.4,0,0,1-.09-.29.93.93,0,0,1,.1-.59h0l0-.06.09-.1A.78.78,0,0,1,60,7.41a.7.7,0,0,1,.53,0,.52.52,0,0,1,.19.14.39.39,0,0,1,.12.19.61.61,0,0,1,0,.19.44.44,0,0,1-.06.16.45.45,0,0,1-.19.17h0a.53.53,0,0,0,.39,0A.54.54,0,0,0,61.08,8a.48.48,0,0,0,0-.29A.68.68,0,0,0,61,7.4a1,1,0,0,0-.27-.26,1.08,1.08,0,0,0-.8-.14,1.28,1.28,0,0,0-.42.17,1.07,1.07,0,0,0-.32.35,1.38,1.38,0,0,0-.19.91,1.48,1.48,0,0,0,.41.84,2,2,0,0,0,.77.49l.22.06h.44a.47.47,0,0,0-.1.1.57.57,0,0,0-.11.11v.05h0a1.66,1.66,0,0,0-.47-.26,2.47,2.47,0,0,0-2,.3A3.58,3.58,0,0,0,56.35,13a6.25,6.25,0,0,0,0,1.06v.4l.3-.27a2.47,2.47,0,0,1,1.68-.63,4.08,4.08,0,0,0,1.42-.32,2.23,2.23,0,0,0,1.37-1.66,1.8,1.8,0,0,0-.12-.86,1.37,1.37,0,0,0-.28-.44h0a5.45,5.45,0,0,1,.62-.35,2.44,2.44,0,0,1,1-.23,1.76,1.76,0,0,1,.6.1,2.8,2.8,0,0,1,.61.28,3.33,3.33,0,0,1,1,1.08l.14.24h0a2,2,0,0,0-.57-.21h-.63a2.1,2.1,0,0,0-.6.19,2.51,2.51,0,0,0-.48.32,1.76,1.76,0,0,0-.56,1V13a1.61,1.61,0,0,0,0,.31,1.4,1.4,0,0,0,.28.54,1.1,1.1,0,0,0,.22.21,1,1,0,0,0,.26.16,1.24,1.24,0,0,0,.85,0,1.23,1.23,0,0,0,.26-.12,1.27,1.27,0,0,0,.35-.38,1,1,0,0,0,0-.89.8.8,0,0,0-.23-.29.92.92,0,0,0-.28-.14h-.18a.48.48,0,0,1,.2.07.83.83,0,0,1,.21.16.72.72,0,0,1,.14.24.81.81,0,0,1,0,.31.43.43,0,0,1,0,.16v.08l0,.08a.49.49,0,0,1-.12.13.42.42,0,0,1-.14.09.79.79,0,0,1-.37.07,1,1,0,0,1-.37-.1l-.15-.11-.13-.15a1,1,0,0,1-.16-.38v-.8a2.24,2.24,0,0,1,.27-.34,1.56,1.56,0,0,1,.79-.37,1.77,1.77,0,0,1,.46,0,2,2,0,0,1,.42.13,2.43,2.43,0,0,1,.35.2l.24.2a2.36,2.36,0,0,0,.11.44,5.3,5.3,0,0,1,.09,1.59v.38a.68.68,0,0,1-.07.37,2.25,2.25,0,0,1-.09.35.49.49,0,0,1,0,.17l-.06.17-.06.17-.07.18c0,.11-.1.23-.16.34s-.23.45-.36.66a5.83,5.83,0,0,1-.34.49v-.07a.11.11,0,0,0,0-.08v-.08a1.84,1.84,0,0,0-.1-1.09,1.52,1.52,0,0,0-.22-.34,1.35,1.35,0,0,0-.32-.26l-.09-.05H62.12a1,1,0,0,0-.36.26l-.07.09-.06.09m-.91-4.32a1.87,1.87,0,0,1-1.14,1.36,3.84,3.84,0,0,1-1.3.29,3.61,3.61,0,0,0-1.12.23A3.27,3.27,0,0,1,58.33,13c.22-.06.45-.12.66-.2a2.71,2.71,0,0,0,1.7-1.67A1.35,1.35,0,0,1,60.72,11.53Zm-.2-.87A2.36,2.36,0,0,1,58.9,12.5c-.2.07-.42.13-.64.19a3.11,3.11,0,0,0-1.36.58,4.44,4.44,0,0,1,.55-.81,8.31,8.31,0,0,1,1.35-1.3,3.55,3.55,0,0,1,1.56-.66ZM60,10.27h0a4.24,4.24,0,0,0-1.39.66,8.39,8.39,0,0,0-1.39,1.34,5.11,5.11,0,0,0-.51.71,3.15,3.15,0,0,1,1.54-2.46A2.12,2.12,0,0,1,60,10.27Z"/><path class="cls-1" d="M72.75,29a6.77,6.77,0,0,0,2.68-.36l.39-.12-.34-.22a3.3,3.3,0,0,1-1.41-1.94,5.08,5.08,0,0,0-.89-1.67,3.25,3.25,0,0,0-1.6-1.07,2.21,2.21,0,0,0-1.94.38l-.26.23-.15-.15a4.18,4.18,0,0,1-.4-.44c-.15-.18-.3-.39-.46-.62h0l.16.07.16.05.16.05H70a.54.54,0,0,0,.3-.06,1.89,1.89,0,0,0,.6-.22l.15-.08.14-.1.12-.11a.49.49,0,0,0,.12-.13,1.68,1.68,0,0,0,.33-.6,1.38,1.38,0,0,0,0-.7,1.44,1.44,0,0,0-.3-.59,2,2,0,0,0-.46-.41L70.76,20a1.33,1.33,0,0,0-.28-.1,1.61,1.61,0,0,0-.31,0,1,1,0,0,0-.29.07,1,1,0,0,0-.43.34.91.91,0,0,0-.16.45.81.81,0,0,0,0,.22.66.66,0,0,0,.06.2.8.8,0,0,0,.08.16v.07l.06.06a.53.53,0,0,0,.48.13.19.19,0,0,0,.11-.07h-.29l-.1-.05-.09-.09a.77.77,0,0,1-.12-.59.58.58,0,0,1,.16-.31.83.83,0,0,1,.32-.2h.38a1.23,1.23,0,0,1,.4.23,1.86,1.86,0,0,1,.33.36,1,1,0,0,1,.18.41,1.08,1.08,0,0,1-.29.86,2.19,2.19,0,0,1-.39.29,2.74,2.74,0,0,1-.48.17H69a3.09,3.09,0,0,1-1-.4,3.72,3.72,0,0,1-.45-.33l-.07-.09-.3-.38A9.52,9.52,0,0,0,66,20.2c-.23-.18-.47-.37-.72-.53l-.39-.23-.2-.11-.2-.11a7.39,7.39,0,0,0-1.71-.6A8.19,8.19,0,0,0,61,18.46a2.81,2.81,0,0,0-.41,0H60l.1-.11a2.1,2.1,0,0,0,.37-.56c0-.05.05-.11.08-.17a1.21,1.21,0,0,0,0-.18,1.78,1.78,0,0,0,.07-.39,2.94,2.94,0,0,0,0-.42v-.4a2.2,2.2,0,0,0-1-1.23,2,2,0,0,0-.74-.26,1.87,1.87,0,0,0-.78.07,2,2,0,0,0-.7.36l-.14.14a.23.23,0,0,0-.07.07l-.07.08,0,.08-.06.09-.09.18a1.79,1.79,0,0,0,.07,1.46,1.44,1.44,0,0,0,.45.53l.07.05h.07l.16.07L58,18h.16a1.06,1.06,0,0,0,.61,0,1.3,1.3,0,0,0,.26-.14.9.9,0,0,0,.19-.2.78.78,0,0,0,.18-.46V17a.17.17,0,0,0,0-.1v-.09a.69.69,0,0,0-.21-.24.55.55,0,0,0-.22-.1h-.19a.29.29,0,0,1,.16.07.65.65,0,0,1,.16.13A.48.48,0,0,1,59,17a.38.38,0,0,1,0,.15.38.38,0,0,1,0,.15.51.51,0,0,1-.17.3.7.7,0,0,1-.33.17,1,1,0,0,1-.42,0,.89.89,0,0,1-.38-.23,1,1,0,0,1-.25-.39A1.12,1.12,0,0,1,58,15.69a1.09,1.09,0,0,1,.24-.07,1.46,1.46,0,0,1,.51,0,1.34,1.34,0,0,1,1.09,1v.45a1.22,1.22,0,0,1,0,.27v.25a3,3,0,0,1-.46.8,2.75,2.75,0,0,0-.19.28,10.19,10.19,0,0,0-2,.73l-.18.09-.16.09-.25.14-.21.13a.75.75,0,0,0,.24-.08l.26-.1h.17l.2-.07.21-.08.24-.08.25-.08h.28l.29-.08a1.65,1.65,0,0,1,.32-.07l.33-.07h1.85a6.81,6.81,0,0,1,1.62.23,7.35,7.35,0,0,1,1.58.6l.19.11.09.05.09.05.19.11h.07v.07l.06.13v.15a.8.8,0,0,0,.08.16v.05h0V21a3,3,0,0,1,.27.83v.43a2.54,2.54,0,0,1,0,.39,1.35,1.35,0,0,1-.11.34.64.64,0,0,1-.08.14.43.43,0,0,1-.11.12.74.74,0,0,1-.27.16.86.86,0,0,1-.32,0,.8.8,0,0,1-.44-.17l.1-.19a1,1,0,0,1-.16-.26.76.76,0,0,1,0-.3v-.27a.75.75,0,0,1,.15-.2.54.54,0,0,1,.2-.1.67.67,0,0,1,.2,0,.49.49,0,0,1,.17,0h.12v-.1s0-.05-.07-.06a.45.45,0,0,0-.19-.11.71.71,0,0,0-.29,0,.75.75,0,0,0-.33.1.86.86,0,0,0-.3.27,1,1,0,0,0-.16.41,1,1,0,0,0,0,.24.24.24,0,0,0,0,.12v.13a1.17,1.17,0,0,0,.09.24.76.76,0,0,0,.13.23,1.63,1.63,0,0,0,.17.2,1.39,1.39,0,0,0,.77.37h.3a1.35,1.35,0,0,0,.29-.05,1.42,1.42,0,0,0,.89-.79,1.67,1.67,0,0,0,.15-.54,2.26,2.26,0,0,0,0-.52,1.22,1.22,0,0,0,0-.27v-.26A3.24,3.24,0,0,0,66,21a8.77,8.77,0,0,1,.9.93c.1.11.19.23.28.35s.18.24.26.37l.52.71.17.21h0v.82a2,2,0,0,1,0,.35,2.16,2.16,0,0,1-.23.69,2,2,0,0,1-.19.31l-.12.14-.06.06L67.5,26a1.6,1.6,0,0,1-.62.32.92.92,0,0,1-.33,0,1,1,0,0,1-.34-.07,1.13,1.13,0,0,1-.51-.43,1,1,0,0,1-.13-.28v-.24c0-.06,0-.25-.1-.29s-.07,0-.11,0a.22.22,0,0,0-.07.09,0,0,0,0,0,0,.05h0v.16a.67.67,0,0,0,0,.2,1.06,1.06,0,0,0,.12.43,1.31,1.31,0,0,0,.3.41,1.38,1.38,0,0,0,.46.29,1.56,1.56,0,0,0,.52.11,2.61,2.61,0,0,0,.48-.05A2,2,0,0,0,68,26.2a2.13,2.13,0,0,0,.53-.76,2.88,2.88,0,0,0,.19-.85,2.67,2.67,0,0,0,0-.4V24h0v-.09h0a3.23,3.23,0,0,0,.49.41.92.92,0,0,0,.24.13,1.82,1.82,0,0,0-.27.78A3.08,3.08,0,0,0,70,27.74,4.27,4.27,0,0,0,72.75,29ZM70,24.22a2.22,2.22,0,0,1,2.92.71,4.58,4.58,0,0,1,.82,1.56,4.28,4.28,0,0,0,.89,1.58,3.64,3.64,0,0,1-1.3-1.53c-.14-.25-.3-.52-.47-.77A3.47,3.47,0,0,0,70,24.22Zm-.33.29a3.17,3.17,0,0,1,3,1.42,7.17,7.17,0,0,1,.46.75,3.89,3.89,0,0,0,1.37,1.61,4.41,4.41,0,0,1-1.5-.45,10.06,10.06,0,0,1-2.12-1.26,4.74,4.74,0,0,1-1.42-1.81,1.51,1.51,0,0,1,.18-.26Zm.64,3a2.74,2.74,0,0,1-.94-2.21v-.12a5.2,5.2,0,0,0,1.37,1.65,10.36,10.36,0,0,0,2.17,1.29,5.46,5.46,0,0,0,1.36.46,4.29,4.29,0,0,1-4-1.11Z"/><polygon class="cls-1" points="49.48 6.37 46.8 2.03 44.13 6.37 40.61 4.85 42.12 11.06 46.8 11.06 51.49 11.06 53 4.85 49.48 6.37"/><polygon class="cls-1" points="48.84 4.55 49.66 5.75 51.18 5.15 50.77 2.58 48.84 4.55"/><polygon class="cls-1" points="44.81 4.55 43.98 5.75 42.46 5.15 42.87 2.58 44.81 4.55"/><path class="cls-1" d="M53.89,4.24a.44.44,0,0,1-.38.51A.45.45,0,0,1,53,4.37a.29.29,0,0,1,0-.13.45.45,0,0,1,.89,0Z"/><path class="cls-1" d="M51.63,1.82a.58.58,0,1,1-.58-.58.58.58,0,0,1,.58.58Z"/><path class="cls-1" d="M39.8,4.24a.44.44,0,0,0,.38.51.45.45,0,0,0,.51-.38.29.29,0,0,0,0-.13.45.45,0,0,0-.89,0Z"/><path class="cls-1" d="M42.07,1.82a.58.58,0,1,0,.58-.58.58.58,0,0,0-.58.58Z"/><circle class="cls-1" cx="46.75" cy="0.76" r="0.76"/><rect class="cls-1" x="42.17" y="11.37" width="9.27" height="0.96"/></g></g></g></g></svg>