<svg xmlns="http://www.w3.org/2000/svg" xmlns:xlink="http://www.w3.org/1999/xlink" viewBox="0 0 175.8 174.83"><defs><style>.cls-1{fill:#fff;}.cls-2{fill:#e30613;}.cls-3{fill:#d78447;}.cls-4{fill:#f5a9a7;}.cls-5{fill:#e6007e;}.cls-6{fill:#009640;}.cls-7{fill:url(#linear-gradient);}</style><linearGradient id="linear-gradient" x1="88.03" y1="1200.1" x2="88.03" y2="1216.58" gradientTransform="matrix(1, 0, 0, -1, 0, 1294.7)" gradientUnits="userSpaceOnUse"><stop offset="0" stop-color="#e9e0d2"/><stop offset="1" stop-color="#c0685a"/></linearGradient></defs><g id="Layer_2" data-name="Layer 2"><g id="set"><rect class="cls-1" x="27.39" y="31.8" width="121.29" height="108.84"/><path class="cls-2" d="M61.66,70.14V96.2s-1.85,26,25.8,41.61a2.21,2.21,0,0,0,2-.26s24.12-13.87,25-41.35V70.14Z"/><path class="cls-3" d="M88.17,136.66H87.9C74.12,128.8,68,118.29,65.37,110.78A39.48,39.48,0,0,1,62.9,96.2V71.29h50.27V96.12c-.8,26.41-24.12,40.19-24.39,40.28a.91.91,0,0,1-.61.26Z"/><path class="cls-2" d="M0,0V174.83H175.8V0ZM148.77,140.64H27.39V31.8H148.77Z"/><path class="cls-4" d="M111.84,46.11a2.15,2.15,0,0,0-2.12,2.12,1.79,1.79,0,0,0,.35,1.15l-9,5.57-.35-8.66h.09a1.68,1.68,0,0,0,1.68-1.68,1.68,1.68,0,0,0-3.36,0A1.69,1.69,0,0,0,99.91,46l-5.56,7L88.52,42.4a2.73,2.73,0,0,0,2.21-2.65,2.65,2.65,0,1,0-3.27,2.57L81.54,53.09l-5.48-7.33a1.67,1.67,0,0,0,.8-1.41,1.59,1.59,0,1,0-1.59,1.59h.17l-.7,9L65.9,49.47a2,2,0,0,0,.36-1.24,2.12,2.12,0,1,0-2.12,2.12,1.76,1.76,0,0,0,1-.26l6,17.23a62.9,62.9,0,0,1,33.56,0L111,50a2.29,2.29,0,0,0,1.06.27,2.15,2.15,0,0,0,2.12-2.12A2.24,2.24,0,0,0,111.84,46.11Z"/><path class="cls-5" d="M119.53,90.73s-.09,1.68,2.65,2.74c0,0,1.5-2.74-2-4.86a3.56,3.56,0,0,0-2.65-3.71s-.7,1.32,1,4a3,3,0,0,0-2.21,3C116.35,91.88,117.76,92.49,119.53,90.73Z"/><path class="cls-6" d="M121.47,88.7s2.12-1.51,4.15-.89a6.42,6.42,0,0,1,3.45,4.42s.09,2.3-1.24,3.18c-.18.09-5.3,3-6.71,5.48l-2.39,5a.58.58,0,0,0,.18.62c.09,0,.09.09.17.09s.36-.09.36-.27l2.47-4.94a12.78,12.78,0,0,1,3.89-3.54c.62.27,2.3,1.24,2,2.39l-.35,1.15a.43.43,0,0,0,.26.53h.09a.45.45,0,0,0,.44-.36l.36-1.23c.35-1.51-1.06-2.65-2-3.18a16.34,16.34,0,0,0,1.68-1.06C130,94.88,130,92.23,130,92.05a7.42,7.42,0,0,0-4.06-5.21,5.81,5.81,0,0,0-5,1.06c-.18.18-.27.44-.09.62S121.29,88.87,121.47,88.7Z"/><path class="cls-6" d="M140.55,108.75l-.26,1.94c3.88.53,3.71,3.62,3.71,3.62a5.53,5.53,0,0,1-3.36,5.22,17.55,17.55,0,0,1-5.39.26,8,8,0,0,0-3.53-2.83c-.89-.26.26-.7.26-.7,2.74-1.33,1.68-2.92,1.68-2.92-.44-.62-.88.09-.88.09-.44,1.15-2.21,1.15-2.21,1.15l-4.15.44c-1.15.18-.53-.26-.53-.26.88-1.06-.27-2.21-.27-2.21-.44-.36-.26.88-.26.88a3.48,3.48,0,0,1-2,2.21A31.77,31.77,0,0,0,113.25,123c-2,1.68-1.06.44-1.06.44a30.21,30.21,0,0,1,5.48-5.47c.8-.62-.53-.89-.53-.89-.62-.09,1-2.12,1-2.12,1-1.32,1.59-1.32,1.59-1.32.8,0,.71-.36.71-.36.18-.35-.27-.53-.27-.53-1.06-.17-2.2,1-2.2,1-.71.7-.62.17-.62.17a7.87,7.87,0,0,1,1-2.65c1-1.15.26-1.5.26-1.5-.79-.18-2.2,1.24-2.2,1.24-.27.53-1.42-.09-1.42-.09-1.32-.62-1.59,0-1.59,0-.44.71.44,1.06.44,1.06,1.15.62.71,2.56.71,2.56-.18,1.77-.79,1.24-.79,1.24a3,3,0,0,0-3.18-.36c-.45.45.61,1.33.61,1.33,1.15,1.24.45,3.53.45,3.53-.18.53-1.33-.62-1.33-.62-1.06-1.14-1.5-.53-1.5-.53-.27.27.18,1.51.18,1.51.88,3.09-1,4.15-1,4.15-1.06.88-.79,1.41-.79,1.41.26.36.62,0,.62,0,3.09-1.59,2.38-3.89,2.38-3.89-.09-.88.27-.44.27-.44a1.22,1.22,0,0,0,1.76-.17,2.46,2.46,0,0,0,.89-2.39c-.18-1.94.17-1.59.17-1.59.53,1.59,1.06.18,1.06.18a13,13,0,0,0,.8-5.21c-.27-1.33.44-.09.44-.09.53,1.23.8-.62.8-.62,1.14-1.86,1.06-.88,1.06-.88s-.45,1.06-.71,1.59a6.26,6.26,0,0,0-.62,2.82c.09,1-1.06,2-1.06,2-.62,1,.18,1,.18,1a11.44,11.44,0,0,1-1.5,2.29,47.49,47.49,0,0,1-6.81,6.81c3,.44,5.66-2.39,5.66-2.39,4.59-4.06,6.53-4.33,6.53-4.33a2.42,2.42,0,0,1,3.27,2c-.17,1.76.71.88.71.88,1.68-1.86.09-4.24.09-4.24-1.06-.89.53-.44.53-.44,3.89.61,2.21,4.33,2.21,4.33-.62,1.14,1,.79,1,.79a2.8,2.8,0,0,0,2-3.36c-.35-.62-.09-.62-.09-.62,2.21,1.15,1.06,3.72,1.06,3.72-.62,1.67.53,1.32.53,1.32,1.86-.09,2.12-2.47,2.12-2.47.09-1.06.44-.62.44-.62,1.51,2.38.36,6.71.36,6.71-.44.89.09,1.15.09,1.15a.74.74,0,0,0,.79-.26,8.67,8.67,0,0,0,.71-4.07,8.23,8.23,0,0,0-.71-3.09c0-.44,1.33.44,1.33.44,1.41,1.42,1.76.8,1.76.8-.09-.62-1.94-2-1.94-2-1-.53-.62-.88-.62-.88,3.89.62,5.12.18,5.12.18,4.33-.89,5.22-5.48,5.22-5.48C145.76,110.87,140.55,108.75,140.55,108.75ZM130,118.47s-.26.17.44.7a2.86,2.86,0,0,1,.89,3.71s.61-3.88-4.6-5c0,0-.7,0,0,.88,0,0,2.21,2.65,0,4.15a5.89,5.89,0,0,0-.35-3.27,2.93,2.93,0,0,0-2.74-1.67,4.39,4.39,0,0,0-2.65.61s-.8.53.26.71c0,0,2.21.62,2,2.21a3.41,3.41,0,0,0-3.89-1.33,6.65,6.65,0,0,0-2.47.89s4.33-3.71,7.68-4.6c0,0-.44,1.06.8.71,0,0,3.89-1.41,6.09-1.24,0,0-2.56.71-2.91,1.42,0,0-.35.44.62.53,0,0,2.65.17,3.88,1.76C132.69,119.53,131,118.38,130,118.47Z"/><path class="cls-5" d="M120.41,107.87a3.05,3.05,0,0,0-3.09.53s-1.42,1.59-.36,1.23c0,0,1.86-1,2.92,0,0,0,1,1,1.41.62C121.2,110.16,122.26,109,120.41,107.87Z"/><path class="cls-5" d="M124.12,106.28a2.23,2.23,0,0,0-.71,2c.09,1.32.89.35.89.35l3.71-4.15c1.06-1.5-1-2.92-1-2.92a2.14,2.14,0,0,0-3.1.27l-2.82,4.5c-.45.71,0,.89,0,.89a.87.87,0,0,0,1.06-.44l1.68-2.39c1.5-1.24,1.85-.27,1.85-.27C125.89,104.86,124.12,106.28,124.12,106.28Z"/><path class="cls-5" d="M132.69,111.05a3.3,3.3,0,0,0,4.06.61c1.06-.26.27.8.27.8a2.57,2.57,0,0,0,1.15,3.44,3.74,3.74,0,0,0,3.71-1.5l-2-.35c-.79-.09-.61-1.33-.61-1.33V108.4c.26-2.39,3-1.15,3-1.15,1.24.17.53-1.15.53-1.15a2.72,2.72,0,0,0-3.45-1.77c-2.2,1-1.41,2.92-1,3.89s0,1.5,0,1.5c-3.09-2.83-5.47.62-5.47.62h3.35v.71Z"/><path class="cls-5" d="M140.91,124.74c-1.07-.35-1.07-.8-1.07-.8a1.34,1.34,0,0,0,1-1,1.13,1.13,0,0,0-1-1.41c-1.5,0-2.2,2.12-2.2,2.12l1-.27c1-.26.26.71.26.71A2.12,2.12,0,0,1,140.2,126c-.09.35-1,0-1.33-.71a1.18,1.18,0,0,0-1.15-.62,1.76,1.76,0,0,0-1.59,1.68,1.19,1.19,0,0,0,1.24,1.5c.62,0,1.24-1.68,1.24-1.68a2.89,2.89,0,0,0,1.59,1.42,1.28,1.28,0,0,0,1.59-1.24A2.53,2.53,0,0,0,140.91,124.74Z"/><path class="cls-5" d="M133.31,130.92c-.8.53,1.68,1.24,2.12,1.77s.53.88.35,1.06-1.5-.62-2.21-1.24-.88.36-1,1.33a4.34,4.34,0,0,1-1.59,2.91c-.79.44-.71-1.41.09-2a3.92,3.92,0,0,0,1.15-2.47c.09-.44-.89-.36-2.12-.53s-.53-.53-.53-.53a9.08,9.08,0,0,1,2.12-.09c1.23.09.88-.62.88-.62-.62-2.47-3.36-2-3.36-2a2.6,2.6,0,0,0-2.12,2.56c-.08,2.65,3.1,2.56,3.1,2.56a3.41,3.41,0,0,0-1.42,3.18,2,2,0,0,0,2.39,1.95c1.94-.36,2.12-3.54,2.12-3.54.09-1,1.06-.17,1.06-.17,2.12,1.41,3.27.44,3.27.44a3.16,3.16,0,0,0,.26-2.92C136.84,129.86,133.31,130.92,133.31,130.92Z"/><path class="cls-1" d="M14.58,154.86c2.12.27,3.71,1.24,3.71,3.45a3.7,3.7,0,0,1-1.95,3.36,8.21,8.21,0,0,1-4.06.88H7.6v-.62c1.76-.18,1.85-.26,1.85-2.12v-8.75c0-1.85-.09-2-1.68-2.12v-.61h5.39a4.47,4.47,0,0,1,3.09.79,3.14,3.14,0,0,1,1.15,2.47,3.51,3.51,0,0,1-2.82,3.27Zm-2.39-.26c2.21,0,3.09-1,3.09-2.74A2.51,2.51,0,0,0,12.63,149a1.81,1.81,0,0,0-1.15.27c-.17.17-.26.35-.26,1.06v4.24Zm-.88,5.12c0,1.68.35,2,1.68,2a2.87,2.87,0,0,0,3-3.18c0-2.21-1.41-3.18-3.89-3.18h-.88v4.33Z"/><path class="cls-1" d="M27.56,160.61a4.45,4.45,0,0,1-3.44,2.2c-2.48,0-4-2.2-4-4.68a5.43,5.43,0,0,1,1.33-3.71,4.06,4.06,0,0,1,3-1.68h0a3.3,3.3,0,0,1,3.09,3.36c0,.44-.09.62-.44.71s-2.91.26-5.21.35c0,2.83,1.59,4.06,2.91,4.06a3.25,3.25,0,0,0,2.3-1.06ZM24,153.54c-.88,0-1.77.88-2,2.65,1.06,0,2.12,0,3.27-.09.35,0,.44-.18.44-.44A1.91,1.91,0,0,0,24,153.54Z"/><path class="cls-1" d="M35.34,162.81a1.58,1.58,0,0,1-1.06-.44,3.13,3.13,0,0,1-.53-1c-.8.53-1.77,1.33-2.3,1.33A2.59,2.59,0,0,1,29,160a2.07,2.07,0,0,1,1.67-2.12,13.21,13.21,0,0,0,3.1-1.42v-.35c0-1.59-.62-2.39-1.59-2.39a1.57,1.57,0,0,0-.89.36,3.51,3.51,0,0,0-.62,1.5.64.64,0,0,1-.61.53,1,1,0,0,1-.89-1c0-.36.27-.62.62-.89a10.23,10.23,0,0,1,3.09-1.59,2.74,2.74,0,0,1,1.68.53,3.6,3.6,0,0,1,1,2.74v4c0,1,.36,1.32.71,1.32a1,1,0,0,0,.71-.26l.17.62Zm-1.59-5.56c-.45.26-1.24.62-1.68.88-.8.36-1.24.8-1.24,1.59a1.53,1.53,0,0,0,1.41,1.68,2.61,2.61,0,0,0,1.51-.71v-3.44Z"/><path class="cls-1" d="M47.44,162a15,15,0,0,0-1.59.35,11.51,11.51,0,0,1-1.5.44l-.18-.08v-1.59c-.44.35-.88.7-1.41,1.14a3,3,0,0,1-1.59.53c-1.42,0-2.56-1-2.56-3.26v-4.16c0-1.23-.18-1.32-.71-1.41l-.53-.18v-.53a10.94,10.94,0,0,0,1.5-.17c.53-.09,1.15-.18,1.5-.27a29.92,29.92,0,0,0-.09,3.18v2.92c0,1.85.89,2.38,1.77,2.38a2.9,2.9,0,0,0,2.12-1v-5c0-1.23-.18-1.32-.79-1.41l-.71-.18v-.53a15.45,15.45,0,0,0,1.94-.17,11.84,11.84,0,0,1,1.42-.18v7.25c0,1.14.17,1.32,1,1.32h.53V162Z"/><path class="cls-1" d="M52.3,162.46a1.38,1.38,0,0,1-.89.27c-1.32,0-2.12-.89-2.12-2.65V153.8H47.88l-.09-.26.53-.62h.89v-1.59l1.5-1.5.26.09V153h2.3a.6.6,0,0,1-.18.88H51v5.57c0,1.76.71,2,1.24,2a3,3,0,0,0,1.24-.35l.17.61Z"/><path class="cls-1" d="M63.52,153.54c-1.06.17-1.24.35-1.77,1.59s-1.15,2.91-2.56,6.54a52.82,52.82,0,0,0-2.12,6,.57.57,0,0,1-.62.53,1.25,1.25,0,0,1-1.24-1.15c0-.35.18-.53.53-.79a4.47,4.47,0,0,0,1.59-1.94A10.54,10.54,0,0,0,58,162.9a1.78,1.78,0,0,0,0-1c-.88-2.56-1.76-5.3-2.38-6.8-.44-1.15-.62-1.42-1.77-1.59v-.62H58v.62c-1,.17-1.06.35-.79,1.15l1.85,5.39c.53-1.42,1.41-4,1.77-5.31.26-.79.09-1.06-1.06-1.23v-.62h3.71Z"/><path class="cls-1" d="M76.42,151.68c-.36-1.41-1-3-2.65-3a2.17,2.17,0,0,0-2.21,2.38c0,1.59,1,2.3,2.56,3.18,1.77,1,3.53,1.95,3.53,4.42a4.27,4.27,0,0,1-4.59,4.24,6.26,6.26,0,0,1-3-.79,24.62,24.62,0,0,1-.53-3.54l.62-.17c.36,1.41,1.33,3.71,3.45,3.71A2.28,2.28,0,0,0,76,159.55c0-1.59-1.06-2.39-2.65-3.27-1.41-.8-3.35-1.86-3.35-4.33a3.93,3.93,0,0,1,4.24-4,8.49,8.49,0,0,1,2.65.53c.09.8.17,1.68.35,3.09Z"/><path class="cls-1" d="M85.51,162.81a1.62,1.62,0,0,1-1.06-.44,3.61,3.61,0,0,1-.53-1c-.79.53-1.76,1.33-2.29,1.33A2.6,2.6,0,0,1,79.15,160a2.07,2.07,0,0,1,1.68-2.12,12.89,12.89,0,0,0,3.09-1.42v-.35c0-1.59-.61-2.39-1.59-2.39a1.57,1.57,0,0,0-.88.36,3.51,3.51,0,0,0-.62,1.5.65.65,0,0,1-.62.53,1,1,0,0,1-.88-1c0-.36.27-.62.62-.89A10.23,10.23,0,0,1,83,152.65a2.74,2.74,0,0,1,1.68.53,3.6,3.6,0,0,1,1,2.74v4c0,1,.35,1.32.71,1.32a1,1,0,0,0,.7-.26l.18.62Zm-1.59-5.56c-.44.26-1.23.62-1.67.88-.8.36-1.24.8-1.24,1.59a1.52,1.52,0,0,0,1.41,1.68,2.59,2.59,0,0,0,1.5-.71v-3.44Z"/><path class="cls-1" d="M87.81,162.55v-.62c1.24-.18,1.42-.26,1.42-1.77V149.83c0-1.5-.18-1.5-1.42-1.68v-.53a19.07,19.07,0,0,0,3.09-.8v13.26c0,1.5.18,1.59,1.51,1.76v.62h-4.6Z"/><path class="cls-1" d="M98,152.74a4.67,4.67,0,0,1,4.51,4.86c0,3.54-2.48,5.21-4.51,5.21A4.61,4.61,0,0,1,93.38,158,5,5,0,0,1,98,152.74Zm-.18.71c-1.14,0-2.29,1.32-2.29,3.8,0,2.74,1.06,4.77,2.74,4.77,1.14,0,2.2-.88,2.2-4,0-2.56-1-4.59-2.65-4.59Z"/><path class="cls-1" d="M109.37,162.55v-.62c1.15-.18,1.32-.35,1.32-1.85v-3.54c0-1.5-.53-2.47-1.76-2.47a3.45,3.45,0,0,0-2.12,1.06v5c0,1.51.08,1.59,1.23,1.77v.62h-4.5v-.62c1.32-.18,1.41-.26,1.41-1.77v-4.41c0-1.42-.18-1.51-1.24-1.77v-.53a11.33,11.33,0,0,0,2.92-.88v1.76l1.32-1.06a2.49,2.49,0,0,1,1.68-.62c1.59,0,2.65,1.24,2.65,3.45v4.06c0,1.51.09,1.59,1.33,1.77v.62Z"/><path class="cls-1" d="M134.37,153.8c-1.42.18-1.68.53-2.39,1.68-.53.8-1.06,1.77-1.76,2.83a20.75,20.75,0,0,1,3.35,4.42l-.09.17a5.4,5.4,0,0,1-2.65-.88c-.26-.27-1.06-1.33-1.76-2-1.5,2-2.83,2.82-4.24,2.82a4,4,0,0,1-4.07-4.06c0-2,1.24-2.83,3-4.15a4.23,4.23,0,0,1-1.42-3.09A3.53,3.53,0,0,1,125.8,148a3.07,3.07,0,0,1,3.09,3.09A2.4,2.4,0,0,1,128,153c-.36.35-.89.7-1.68,1.32.71.62,2.12,1.95,3.44,3.36.45-.8.8-1.5,1.24-2.47s.18-1.24-1.24-1.51v-.61h4.69v.7Zm-9,7.42a4.25,4.25,0,0,0,3.09-1.85,38.3,38.3,0,0,0-4.24-4.24,3.67,3.67,0,0,0-1.68,3,2.91,2.91,0,0,0,2.83,3.09Zm.09-12.36c-.89,0-1.68.88-1.59,2.2,0,1.15.61,1.86,1.85,2.92a3.4,3.4,0,0,0,1.41-2.74c0-1.32-.7-2.38-1.67-2.38Z"/><path class="cls-1" d="M147.44,151.68c-.35-1.41-1-3-2.65-3a2.18,2.18,0,0,0-2.21,2.38c0,1.59,1,2.3,2.57,3.18,1.76,1,3.53,1.95,3.53,4.42a4.28,4.28,0,0,1-4.59,4.24,6,6,0,0,1-2-.35,5.67,5.67,0,0,1-1-.44,24.62,24.62,0,0,1-.53-3.54l.62-.17c.35,1.41,1.33,3.71,3.45,3.71a2.28,2.28,0,0,0,2.38-2.56c0-1.59-1.06-2.39-2.65-3.27-1.41-.8-3.36-1.86-3.36-4.33a3.93,3.93,0,0,1,4.24-4,8.37,8.37,0,0,1,2.65.53c.09.8.18,1.68.36,3.09Z"/><path class="cls-1" d="M154.51,153.1a1.84,1.84,0,0,1,1.06-.36c2.3,0,3.62,1.95,3.62,4.15a6.09,6.09,0,0,1-5,5.92,2.74,2.74,0,0,1-1.42-.35v2.92c0,1.59.18,1.76,1.68,1.85v.62h-4.95v-.62c1.33-.18,1.51-.26,1.51-1.68v-9.89c0-1.42-.09-1.42-1.33-1.59v-.53a18,18,0,0,0,3.09-1v1.76Zm-1.86,7.77a3.09,3.09,0,0,0,1.86.88c1.68,0,2.74-1.67,2.74-4s-1.24-3.71-2.65-3.71a3.56,3.56,0,0,0-1.95.88v5.92Z"/><path class="cls-1" d="M167.14,162.81a1.62,1.62,0,0,1-1.06-.44,3.61,3.61,0,0,1-.53-1c-.79.53-1.76,1.33-2.29,1.33a2.59,2.59,0,0,1-2.48-2.74,2.07,2.07,0,0,1,1.68-2.12,12.89,12.89,0,0,0,3.09-1.42v-.35c0-1.59-.62-2.39-1.59-2.39a1.54,1.54,0,0,0-.88.36,3.39,3.39,0,0,0-.62,1.5.65.65,0,0,1-.62.53,1,1,0,0,1-.88-1c0-.36.26-.62.62-.89a10.23,10.23,0,0,1,3.09-1.59,2.74,2.74,0,0,1,1.68.53,3.64,3.64,0,0,1,1,2.74v4c0,1,.35,1.32.71,1.32a1,1,0,0,0,.7-.26l.18.62Zm-1.59-5.56c-.44.26-1.23.62-1.68.88-.79.36-1.23.8-1.23,1.59a1.52,1.52,0,0,0,1.41,1.68,2.59,2.59,0,0,0,1.5-.71v-3.44Z"/><path class="cls-1" d="M13.69,45.41A22.13,22.13,0,0,1,10,44.08a20.33,20.33,0,0,1-.7-4.41c0-5.92,4.06-8.57,7.77-8.57,4.95,0,8.13,3.79,8.13,9.1a14.89,14.89,0,0,1-.71,4.24c-1.32.17-2.3.35-3.71.53l-.18-.71c2.57-.62,3.63-2.12,3.63-4.68,0-3.89-3.27-6-6.81-6-4.41,0-7.33,2.56-7.33,6.18,0,2.39,1.33,3.71,3.71,4.86Z"/><path class="cls-1" d="M20.14,52.3a5.07,5.07,0,0,1-5.21,5c-3.8,0-5.57-2.73-5.57-5a5.09,5.09,0,0,1,5.13-5.21,5.46,5.46,0,0,1,5.65,5.21ZM19.35,52c0-1.32-1.42-2.56-4.07-2.56-3,0-5.12,1.24-5.12,3.09,0,1.33,1,2.48,4.24,2.48,2.83,0,5-1.06,5-3Z"/><path class="cls-1" d="M9.72,71.29h.62c.17,1.24.26,1.5,1.94,1.5h3.8c1.77,0,2.74-.61,2.74-1.94a4,4,0,0,0-1.15-2.39c-.27,0-.53.09-1,.09H12.19c-1.5,0-1.59.18-1.77,1.42H9.81v-5h.61c.18,1.33.27,1.59,1.77,1.59h4c1.76,0,2.65-.62,2.65-1.94a4.32,4.32,0,0,0-1.15-2.39H12.19c-1.5,0-1.68.18-1.77,1.24H9.81v-5h.61c.18,1.5.27,1.68,1.86,1.68h4.77c1.5,0,1.59-.09,1.86-1.41h.61a13.11,13.11,0,0,0,1,3.35H18.55c.36.53.8,1,1.24,1.68a3.62,3.62,0,0,1,.62,1.86,2.87,2.87,0,0,1-1.95,2.56c.53.71,1,1.32,1.33,1.86a3,3,0,0,1,.62,1.67c0,1.77-1.33,3-3.63,3H12.37c-1.59,0-1.59.17-1.77,1.5H10V71.29Z"/><path class="cls-1" d="M19.79,82.51a2.4,2.4,0,0,1,.35,1.15,4.13,4.13,0,0,1-4.42,4.06,6.55,6.55,0,0,1-6.27-5.65,4.6,4.6,0,0,1,.36-1.59H6.71c-1.67,0-1.85.18-2,1.94H4.06V76.86h.62c.18,1.5.27,1.68,1.86,1.68h10.6c1.5,0,1.5-.09,1.77-1.51h.61a21.85,21.85,0,0,0,1.06,3.45H18.73Zm-8.31-2a3.25,3.25,0,0,0-.88,2.12c0,1.94,1.77,3.09,4.24,3.09s3.89-1.41,3.89-3a4.5,4.5,0,0,0-1-2.21Z"/><path class="cls-1" d="M9.36,96.73a1.64,1.64,0,0,1,.45-1.14,1.94,1.94,0,0,1,1-.53,7.22,7.22,0,0,1-1.42-2.65,2.87,2.87,0,0,1,2.92-2.83,2.34,2.34,0,0,1,2.3,1.85A13.9,13.9,0,0,0,16.08,95h.44c1.68,0,2.56-.71,2.56-1.86a1.25,1.25,0,0,0-.44-1,3.37,3.37,0,0,0-1.59-.71c-.44-.17-.62-.35-.62-.7a1.14,1.14,0,0,1,1.06-1.06c.36,0,.62.26,1,.7a9.57,9.57,0,0,1,1.68,3.45,3,3,0,0,1-.62,1.94c-.7.89-1.67,1.06-3,1.06H12.28c-1.06,0-1.41.44-1.41.8a1.38,1.38,0,0,0,.26.79l-.62.27ZM15.28,95a19.53,19.53,0,0,1-.88-1.86c-.44-.88-.88-1.41-1.77-1.41a1.62,1.62,0,0,0-1.76,1.59A2.71,2.71,0,0,0,11.66,95Z"/><path class="cls-1" d="M9.72,105.92h.62c.17,1.33.35,1.42,1.94,1.42h3.8c1.59,0,2.65-.62,2.65-2a3.77,3.77,0,0,0-1.15-2.38H12.19c-1.59,0-1.68.09-1.85,1.41H9.72v-5h.62c.17,1.5.26,1.67,1.85,1.67h4.68c1.51,0,1.59-.17,1.86-1.32h.62a11.85,11.85,0,0,0,1,3.36H18.46c.36.44.71,1,1.15,1.5a3.28,3.28,0,0,1,.71,1.85c0,1.77-1.33,3-3.62,3H12.37c-1.59,0-1.68.17-1.86,1.41H9.89v-4.86Z"/><path class="cls-1" d="M9.72,112h.62c.17,1.41.26,1.59,1.94,1.59H17c1.5,0,1.59-.09,1.86-1.42h.53a13.85,13.85,0,0,0,.88,3.45h-8c-1.59,0-1.77.18-1.94,1.59H9.72Zm13.69,1.23a1.29,1.29,0,0,1,1.33,1.24,1.23,1.23,0,0,1-1.33,1.24,1.24,1.24,0,1,1,0-2.48Z"/><path class="cls-1" d="M20.14,123.5a5.07,5.07,0,0,1-5.21,5c-3.8,0-5.57-2.74-5.57-5a5.09,5.09,0,0,1,5.13-5.21,5.47,5.47,0,0,1,5.65,5.21Zm-.79-.26c0-1.33-1.42-2.57-4.07-2.57-3,0-5.12,1.24-5.12,3.1,0,1.32,1,2.47,4.24,2.47,2.83,0,5-1.06,5-3Z"/><path class="cls-1" d="M9.72,136.4h.62c.17,1.32.35,1.41,1.94,1.41h3.8c1.59,0,2.65-.62,2.65-2a3.77,3.77,0,0,0-1.15-2.38H12.19c-1.59,0-1.68.08-1.85,1.41H9.72v-5h.62c.17,1.51.26,1.68,1.85,1.68h4.68c1.51,0,1.59-.17,1.86-1.32h.62a11.78,11.78,0,0,0,1,3.35H18.46c.36.45.71,1,1.15,1.51a3.23,3.23,0,0,1,.71,1.85c0,1.77-1.33,3-3.62,3H12.37c-1.59,0-1.68.18-1.86,1.42H9.89V136.4Z"/><path class="cls-1" d="M143.56,16.25l-2.48,2.83V17.14l-3.44-3.54s-.27-.35-.53-.17c0,0-.36.35.26.88l2.3,2.74a2.26,2.26,0,0,1,.09,2.83,5.17,5.17,0,0,1-5.22,1.85,4.35,4.35,0,0,1-3.35-4.33,7.13,7.13,0,0,1,.62-3.18s.44-1.06.61.71c0,0-.35,4.06,2.83,4.24,0,0,1.24.27,1.59-.62,0,0,.27-.62-.79-1.59,0,0-2.39-1.94-2-4.06a5.18,5.18,0,0,1,2-2.39s1.06-.79,2.57.62Z"/><circle class="cls-1" cx="154.77" cy="22.88" r="1.33"/><circle class="cls-1" cx="157.96" cy="22.88" r="1.33"/><circle class="cls-1" cx="161.93" cy="22.88" r="1.33"/><circle class="cls-1" cx="75.36" cy="13.07" r="1.33"/><circle class="cls-1" cx="61.13" cy="9.98" r="1.33"/><path class="cls-1" d="M77,16.17l1.85-2s2.39,1.51,1.94,5.84c0,0-.26,2.65-3.79,3.26a4.9,4.9,0,0,1-5.39-4.15s-.44-3.09,1.15-4.24c0,0-.53,5.39,2.91,5.57a2.54,2.54,0,0,0,2.12-1,2.29,2.29,0,0,0,0-2.48Z"/><circle class="cls-1" cx="164.76" cy="36.4" r="1.59"/><circle class="cls-1" cx="153.18" cy="58.84" r="1.59"/><circle class="cls-1" cx="153.18" cy="62.81" r="1.59"/><circle class="cls-1" cx="153.18" cy="81.01" r="1.59"/><circle class="cls-1" cx="169.09" cy="70.05" r="1.59"/><path class="cls-1" d="M161.05,38.25l2.47,2.21s-1.85,2.83-7,2.39c0,0-3.18-.27-3.89-4.6a5.89,5.89,0,0,1,4.95-6.45s3.71-.53,5,1.33c0,0-6.45-.62-6.63,3.44a2.91,2.91,0,0,0,1.15,2.57,2.71,2.71,0,0,0,2.92,0A4.59,4.59,0,0,0,161.05,38.25Z"/><path class="cls-1" d="M65.81,2.39s-1.32-.53-1.5.53a1.57,1.57,0,0,0,.62,1.85s-.44,1.33-.18,1.86L67,4.06a.52.52,0,0,0-.17-.79s-.27-.18-.62.18l-.62.88s-.88-.8,0-1.33C65.64,3.09,66.61,2.92,65.81,2.39Z"/><path class="cls-1" d="M60.78,14.13l2.65-1.94.18,5.21-2.48,2.83H42.67V16.7H52.3s.18-.45-.89-.71H42.93l3.89-5,.44,2h5.21s2.83.09,3.1,3.8H61Z"/><polygon class="cls-1" points="65.02 7.51 67.32 4.95 68.38 17.32 66.08 19.96 65.02 7.51"/><polygon class="cls-1" points="30.83 12.28 33.3 10.51 37.28 17.05 34.81 19.96 12.54 19.96 11.4 7.42 13.87 4.95 14.93 17.05 18.73 17.05 18.55 13.87 20.94 11.75 21.38 17.05 24.21 17.05 26.68 15.11 28.18 17.14 29.15 17.14 27.39 14.58 29.86 12.9 32.69 17.05 33.75 17.05 30.83 12.28"/><circle class="cls-1" cx="19.97" cy="22.79" r="1.33"/><path class="cls-7" d="M113.17,71.38V90.29c-4.6,12.19-20.5,10.42-20.5,10.42C68.73,96.91,63.25,82,62.9,81.1V71.47h50.27Z"/><path class="cls-1" d="M89,95.85A4.41,4.41,0,0,0,89,98a24,24,0,0,1,1,7.33s-.26,3.89-1.76,6.1a6.69,6.69,0,0,0-.27,4.77s3.27,9.81,7.42,15.28a56.63,56.63,0,0,1-6.62,5,1.12,1.12,0,0,1-.71.17h-.27c-1.5-.88-3-1.76-4.33-2.73.09-.18,1.42-3,0-8.31a28.7,28.7,0,0,1-1.06-10.07A7.91,7.91,0,0,0,81,111s-1-1.06-1.06-4.68V99.65a6.62,6.62,0,0,1,2.38-3.89V91.35a1.17,1.17,0,0,0-1.23-1.06s-.36-4.16,1.32-4.6a11,11,0,0,1,2.39-.18v-1s.09-.26-.71-.35c0,0-1,.18-1.41-1.68,0,0-1.15-4.86,2.21-6a3.76,3.76,0,0,1,4.24,1.59s1.5,2.3.62,4.42a2.91,2.91,0,0,1-1,1.24s-.35.26-.17,1c0,0,.17.88.7,1.06a13.13,13.13,0,0,0,2.48.09s1.41-.44,1.5,1.32c0,0,.09,6.19.35,11.75l.18,6.54a1.22,1.22,0,0,0,.79.62l2,.62s.7.35.44.7c0,0-.62.45-2.92.27,0,0-1.5.18-1.59-2.39,0,0-1.23-6.8-1.32-8.65l-.53-4.16s-.27-.53-.71.71Z"/><path class="cls-1" d="M94.26,5,91.88,7.33l.7,9.54L89.4,17V11.75L87.19,13.6h-2c-2.65.18-2.3,3.8-2.3,3.8a2.06,2.06,0,0,0,1.86,2.39H87.1a4,4,0,0,1-1.76,3.44c4.33-.17,4.24-3.26,4.24-3.26h2.83l3-3.36Zm-7.6,12a.41.41,0,0,1-.44.44h-.53a.41.41,0,0,1-.44-.44v-.53a.42.42,0,0,1,.44-.44h.53a.41.41,0,0,1,.44.44Z"/><path class="cls-1" d="M128.45,16.17c.09-.89-1.59-2.21-1.59-2.21a3.67,3.67,0,0,0-2.47-.71H108.57c-2.38,0-3,1.5-3,1.5a4.08,4.08,0,0,0-1-2l-2.12,2.39a3.76,3.76,0,0,1,1.23,2.12h-3.8L98.85,5.12,96.47,7.33l.88,12c0,.88,1,.79,1,.79h27l2.12-1.85A2.47,2.47,0,0,0,128.45,16.17Zm-21.2,1.14a1.26,1.26,0,0,1,1.15-1.14H124a1.15,1.15,0,0,1,1.24,1.14Z"/><path class="cls-1" d="M164.32,17.23l-.45-5.13-2.29,2.21v2.47H158l-.45-4.85L155,13.78l.44,3H152v-4c0-1.24-.62-.71-.62-.71-.53.09-1.42,1.59-1.42,1.59h-1.23c-3.27,0-2.92,3.27-2.92,3.27-.09,2.74,2.21,2.65,2.21,2.65h2.12a4,4,0,0,1-2.12,3.54c4.77-.09,4.33-3.27,4.33-3.27h9.19ZM149.56,17a.41.41,0,0,1-.44.44h-.53a.41.41,0,0,1-.44-.44v-.53a.42.42,0,0,1,.44-.44h.53a.41.41,0,0,1,.44.44Z"/><path class="cls-1" d="M166.35,72.35l-2.3-2.83-3.8.18v-7l5.92-.26-1.85-2.74s-3.89-.09-4,0,0-6.45,0-6.45l6-.44-2.21-2.21v-2.3c-.35-3.71-4.51-3-4.51-3-2.91.26-3,3.44-3,3.44v1.77c-1.86.09-3.27-1.85-3.27-1.85-.53-.8-.79-.27-.79-.27-.18,5.48,4.15,5,4.15,5V89.23c-3.36,2.29-1.24,6.27-1.24,6.27a5.21,5.21,0,0,0,5.66,2.29,4,4,0,0,0,3.35-4.06V88.52h-4.33V82.16h6.1l-2.21-2.74-3.89.09V72.35Zm-5.3,20.76a1.29,1.29,0,1,1-2.56-.26,1.29,1.29,0,1,1,2.56.26Zm-1.15-43.2a.91.91,0,0,1,.88-1.59.91.91,0,0,1,.36,1.24A.87.87,0,0,1,159.9,49.91Z"/><path class="cls-1" d="M166.17,114.93a6.9,6.9,0,0,0-4.59-4v24.2a1.29,1.29,0,0,1-1.42,1.5V108.13a47.61,47.61,0,0,0,5.92-.44l-2.29-2.56s1.06-4.07-2.65-4.77c0,0-3.89-.71-4.42,2.56v2.47s-2.39,1.06-3.89-2.38a4.43,4.43,0,0,0,3.71,5.21v28.44l3.8,4s4.33-.44,4.51-3.62V118.2s3.71,3.71,8,1.15C173,119.35,169.09,119.79,166.17,114.93Zm-6.8-10.86a.89.89,0,1,1,.79,1A.83.83,0,0,1,159.37,104.07Z"/><path class="cls-5" d="M55.83,90.73s.09,1.68-2.65,2.74c0,0-1.5-2.74,2-4.86a3.58,3.58,0,0,1,2.65-3.71s.71,1.32-1,4a3,3,0,0,1,2.21,3C59,91.88,57.69,92.49,55.83,90.73Z"/><path class="cls-6" d="M53.89,88.7s-2.12-1.51-4.15-.89a6.42,6.42,0,0,0-3.45,4.42s-.09,2.3,1.24,3.18c.17.09,5.3,3,6.71,5.48l2.48,4.94a.6.6,0,0,1-.18.62c-.09,0-.09.09-.18.09s-.35-.09-.35-.26l-2.47-5a12.9,12.9,0,0,0-3.89-3.54c-.62.27-2.3,1.24-2,2.39l.35,1.15a.43.43,0,0,1-.27.53h-.08a.46.46,0,0,1-.45-.36l-.35-1.23c-.35-1.5,1.06-2.65,2-3.18A15.69,15.69,0,0,1,47.17,96C45.41,94.79,45.5,92.14,45.5,92a7.39,7.39,0,0,1,4.06-5.21,5.84,5.84,0,0,1,4.95,1.06.45.45,0,0,1,.09.62C54.33,88.78,54.07,88.87,53.89,88.7Z"/><path class="cls-6" d="M30.39,115.55s.88,4.59,5.21,5.48c0,0,1.24.44,5.13-.18,0,0,.35.35-.62.88,0,0-2,1.24-2,2,0,0,.27.62,1.77-.8,0,0,1.33-.88,1.33-.44a10.83,10.83,0,0,0-.71,3.09,9.76,9.76,0,0,0,.71,4.07.74.74,0,0,0,.79.26s.53-.17.09-1.15c0,0-1.24-4.32.35-6.71,0,0,.36-.44.44.62,0,0,.27,2.38,2.12,2.47,0,0,1.15.44.53-1.32,0,0-1.14-2.57,1.06-3.71,0,0,.27,0-.08.61a2.77,2.77,0,0,0,2,3.36s1.68.36,1-.79c0,0-1.77-3.71,2.21-4.33,0,0,1.59-.44.53.44,0,0-1.59,2.38.09,4.24,0,0,.88,1,.7-.88a2.42,2.42,0,0,1,3.27-2s1.86.27,6.54,4.33c0,0,2.65,2.83,5.65,2.39a47.94,47.94,0,0,1-6.8-6.8s-1.5-1.77-1.5-2.3c0,0,.79,0,.18-1,0,0-1.15-1-1.06-1.95a6.54,6.54,0,0,0-.62-2.82C58.48,112,58,111,58,111s-.18-1,1.06.88c0,0,.27,1.94.8.62,0,0,.7-1.24.44.09a13.11,13.11,0,0,0,.79,5.21s.53,1.41,1.06-.18c0,0,.36-.35.18,1.59a2.66,2.66,0,0,0,.88,2.39,1.23,1.23,0,0,0,1.77.17s.35-.44.26.45c0,0-.79,2.21,2.39,3.88,0,0,.44.36.62,0,0,0,.26-.53-.8-1.41,0,0-1.76-1.06-1-4.15,0,0,.44-1.24.18-1.5,0,0-.44-.62-1.5.53,0,0-1.15,1.06-1.33.61,0,0-.79-2.38.44-3.53,0,0,1.06-.88.62-1.32a2.75,2.75,0,0,0-3.18.35s-.62.53-.79-1.24c0,0-.45-1.94.7-2.56,0,0,.89-.35.44-1.06,0,0-.26-.62-1.59,0,0,0-1.14.62-1.41.09,0,0-1.32-1.5-2.21-1.24,0,0-.7.36.27,1.5a7.14,7.14,0,0,1,1,2.65s0,.62-.62-.17a3.61,3.61,0,0,0-2.21-1s-.44.17-.26.53c0,0-.09.35.7.35,0,0,.62,0,1.59,1.32,0,0,1.59,2,1,2.12,0,0-1.33.27-.53.89a29.86,29.86,0,0,1,5.47,5.48s1,1.32-1.06-.45a33.05,33.05,0,0,0-10.07-7.33,3.46,3.46,0,0,1-2-2.21s.18-1.32-.27-.88a1.67,1.67,0,0,0-.26,2.21s.62.53-.53.26l-4.15-.44s-1.77,0-2.21-1.15a.49.49,0,0,0-.88-.09s-1.06,1.59,1.67,2.92c0,0,1.24.44.27.71a7.15,7.15,0,0,0-3.53,2.82,20.8,20.8,0,0,1-5.39-.26,5.39,5.39,0,0,1-3.36-5.21s-.18-3.1,3.71-3.63l-.27-1.94C34.81,108.75,29.59,110.87,30.39,115.55Zm12.28,4c1.24-1.51,3.89-1.77,3.89-1.77.88,0,.61-.53.61-.53-.44-.71-2.91-1.41-2.91-1.41,2.21-.18,6.09,1.23,6.09,1.23,1.24.44.8-.7.8-.7,3.36.88,7.69,4.59,7.69,4.59a6.77,6.77,0,0,0-2.48-.88c-2.82-.53-3.88,1.32-3.88,1.32-.27-1.59,1.94-2.21,1.94-2.21,1.06-.17.26-.7.26-.7a4.68,4.68,0,0,0-2.65-.62,3,3,0,0,0-2.74,1.68,6,6,0,0,0-.35,3.26c-2.21-1.5,0-4.15,0-4.15.71-.79,0-.88,0-.88-5.21,1.15-4.59,5-4.59,5a2.86,2.86,0,0,1,.88-3.71c.71-.53.44-.7.44-.7A6.78,6.78,0,0,0,42.67,119.53Z"/><path class="cls-5" d="M55,107.87a3.05,3.05,0,0,1,3.09.53s1.41,1.59.35,1.23c0,0-1.85-1-2.91,0,0,0-1,1-1.41.62C54.24,110.16,53.18,109,55,107.87Z"/><path class="cls-5" d="M51.33,106.28a2.21,2.21,0,0,1,.7,2c-.09,1.32-.88.35-.88.35l-3.71-4.15c-1.06-1.5,1-2.92,1-2.92a2.13,2.13,0,0,1,3.09.27l2.83,4.5c.44.71,0,.89,0,.89a.87.87,0,0,1-1.06-.44l-1.68-2.39c-1.5-1.24-1.85-.27-1.85-.27C49.47,104.86,51.33,106.28,51.33,106.28Z"/><path class="cls-5" d="M42.67,111.05a3.3,3.3,0,0,1-4.06.61c-1.06-.26-.27.8-.27.8a2.58,2.58,0,0,1-1.15,3.44,3.74,3.74,0,0,1-3.71-1.5l2-.35c.8-.09.62-1.33.62-1.33V108.4c-.26-2.39-3-1.15-3-1.15-1.24.17-.53-1.15-.53-1.15A2.71,2.71,0,0,1,36,104.33c2.21,1,1.42,2.92,1,3.89s0,1.5,0,1.5c3.09-2.83,5.47.62,5.47.62H39.14v.71Z"/><path class="cls-5" d="M34.45,124.74c1.06-.35,1.06-.8,1.06-.8a1.34,1.34,0,0,1-1-1,1.13,1.13,0,0,1,1-1.41c1.51,0,2.21,2.12,2.21,2.12l-1-.27c-1-.26-.26.71-.26.71A2.12,2.12,0,0,0,35.16,126c.09.35,1,0,1.33-.71a1.17,1.17,0,0,1,1.14-.62,1.75,1.75,0,0,1,1.59,1.68c.18,1.59-1.23,1.5-1.23,1.5-.62,0-1.24-1.68-1.24-1.68a2.89,2.89,0,0,1-1.59,1.42,1.27,1.27,0,0,1-1.59-1.24A3.08,3.08,0,0,1,34.45,124.74Z"/><path class="cls-5" d="M42.05,130.92c.8.53-1.68,1.24-2.12,1.77s-.53.88-.35,1.06,1.5-.62,2.21-1.24.88.36,1,1.33a4.34,4.34,0,0,0,1.59,2.91c.79.44.7-1.41-.09-2a3.87,3.87,0,0,1-1.15-2.47c-.09-.44.88-.36,2.12-.53s.53-.53.53-.53a9.08,9.08,0,0,0-2.12-.09c-1.24.09-.88-.62-.88-.62.62-2.47,3.35-2,3.35-2A2.6,2.6,0,0,1,48.23,131c.09,2.65-3.09,2.56-3.09,2.56a3.41,3.41,0,0,1,1.42,3.18,2,2,0,0,1-2.39,1.95c-1.94-.36-2.12-3.54-2.12-3.54C42,134.19,41,135,41,135c-2.12,1.41-3.27.44-3.27.44a3.16,3.16,0,0,1-.26-2.92C38.61,129.86,42.05,130.92,42.05,130.92Z"/></g></g></svg>