<svg xmlns="http://www.w3.org/2000/svg" viewBox="0 0 202.28 154.07"><defs><style>.cls-1{fill:#fff;}</style></defs><g id="Layer_2" data-name="Layer 2"><g id="set"><path class="cls-1" d="M110.2,23.79H5.9l9.4,6.87Q57.54,61.5,99.76,92.36a1.92,1.92,0,0,0,2.72.09c6.15-4.53,12.36-9,18.54-13.43.35-.26.66-.58,1-.84C108.31,62.08,104,44.09,110.2,23.79Z"/><path class="cls-1" d="M202.28,149.67c-1.58,3.42-4.3,4.4-8,4.4Q100.69,154,7.08,154c-3.76,0-6-1.42-6.83-4.4A8.13,8.13,0,0,1,0,147.47Q0,91.76,0,36.07V34.25C1,35,1.77,35.45,2.49,36l94.07,68.68c3.62,2.64,5.56,2.64,9.26,0l25.67-18.53a53.55,53.55,0,0,0,55.36,1.84c6.45-3.55,9.57-9.18,9.45-16.55a2.28,2.28,0,0,1,1.37-2.44c1.62-.86,3.08-2,4.61-3Z"/><path class="cls-1" d="M202.28,44.19c-.34,1.12-.64,2.25-1,3.35A19.48,19.48,0,0,1,174.17,59c-2.79-1.4-5-1.84-8.11-.7-9.41,3.4-19.77-2.47-22.42-12.18a17.84,17.84,0,0,1,13-21.94A17.6,17.6,0,0,1,178.13,38c.45,2.64,0,5.46-.27,8.18-.1,1,0,1.52.95,2a7.8,7.8,0,0,0,11.61-7c.08-14.07-10.75-26.69-24.86-28.95A29.61,29.61,0,1,0,173.88,68c.65-.32,1.28-.68,1.93-1a5.94,5.94,0,0,1,7.89,2.29,5.85,5.85,0,0,1-2.19,8.06,38.8,38.8,0,0,1-14.81,5.12C144,85.48,124.14,71,120,48.32c-4-21.93,10.95-43.63,32.86-47.6,24-4.35,45.66,11.35,49.1,35.63a7.63,7.63,0,0,0,.35,1.12Zm-41.5,3.15a5.92,5.92,0,1,0-5.91-5.89A6,6,0,0,0,160.78,47.34Z"/><path class="cls-1" d="M110.2,23.79C104,44.09,108.31,62.08,122,78.18c-.3.26-.61.58-1,.84-6.18,4.47-12.39,8.9-18.54,13.43a1.92,1.92,0,0,1-2.72-.09Q57.55,61.49,15.3,30.66L5.9,23.79Z"/></g></g></svg>