<svg xmlns="http://www.w3.org/2000/svg" viewBox="0 0 235.64 235.62"><defs><style>.cls-1{fill:#fff;}</style></defs><g id="Layer_2" data-name="Layer 2"><g id="set"><path class="cls-1" d="M122.42,0c4.72.91,9.54,1.49,14.16,2.78a66.37,66.37,0,0,1,37.72,27,67.53,67.53,0,0,1,12,43.68c-.72,11.94-4.7,22.83-11,33-10.26,16.44-20.63,32.83-30.4,49.56-6.44,11-11.93,22.62-17.82,34-2.61,5-6.32,7.08-11.35,6.12-3.63-.69-5.73-3.19-7.35-6.34-7.08-13.75-14.16-27.5-21.35-41.19-7.83-14.89-17.41-28.66-26.8-42.57A63.14,63.14,0,0,1,49.62,61.74C53.32,32.11,70,12.8,98,3.05c4.28-1.49,9-1.8,13.48-2.65l2.24-.4Zm-4.58,98.12A29.43,29.43,0,1,0,88.36,68.81,29.45,29.45,0,0,0,117.84,98.12Z"/><path class="cls-1" d="M235.64,190.06c-1.57,3.77-2.7,7.81-4.8,11.26-4.32,7.07-11.07,11.58-18.2,15.45-14.24,7.74-29.68,11.82-45.5,14.64A278,278,0,0,1,109,235.46c-24-.8-47.68-3.72-70.45-11.81-11-3.9-21.4-8.86-29.75-17.29C-3,194.51-2.9,178.47,8.83,166.63c8.48-8.56,19.07-13.49,30.2-17.4,5.47-1.93,11.12-3.4,16.74-4.9,5.92-1.59,11.17,1.34,12.62,6.84,1.41,5.34-1.76,10.25-7.52,12.11-8.36,2.71-16.74,5.38-24.94,8.53a35.93,35.93,0,0,0-13.25,8.93c-3.88,4.1-4,7.45-.14,11.65s8.67,6.8,13.7,9.09c14.28,6.52,29.44,9.83,44.88,12A260.93,260.93,0,0,0,127,215.79c22.85-.79,45.35-3.75,66.88-12,6.1-2.32,12-5.12,17-9.36a23.23,23.23,0,0,0,2.46-2.4c3.4-3.85,3.34-7.19-.12-11a35.33,35.33,0,0,0-13.36-9.16c-8.19-3.18-16.56-5.88-24.93-8.56-6.28-2-9.48-7.33-7.46-13a9.39,9.39,0,0,1,11.19-6.21c14.25,3.27,28.06,7.75,40.32,16.05,8.34,5.64,14.51,12.86,16.61,23Z"/><path class="cls-1" d="M108.07,68.82a9.75,9.75,0,1,1,9.84,9.73A9.79,9.79,0,0,1,108.07,68.82Z"/></g></g></svg>