<svg xmlns="http://www.w3.org/2000/svg" viewBox="0 0 231.59 24.13"><defs><style>.cls-1{fill:#fff;}</style></defs><g id="Layer_2" data-name="Layer 2"><g id="set"><path class="cls-1" d="M149.21,11.4c-7,0-17.76,0-17.93.56s11.11.46,18.1.49c14.88.05,82.21-.37,82.21-.49S164.1,11.35,149.21,11.4Z"/><path class="cls-1" d="M82.21,11.4C67.32,11.35,0,11.77,0,11.89s67.48.61,82.37.56c7,0,17.76,0,17.93-.56S89.19,11.43,82.21,11.4Z"/><path class="cls-1" d="M129.94,12.07a4.79,4.79,0,0,0,1.18-.75,4.13,4.13,0,0,0,1.29-2.51A3,3,0,0,0,131.87,7a2.87,2.87,0,0,0-2.38-1.22h-.1a3,3,0,0,0-.93.17,2.14,2.14,0,0,0-.53.25,12,12,0,0,0-1.64,1,18,18,0,0,1-2.53,1.57,2.6,2.6,0,0,1-1,.18,3.13,3.13,0,0,1-.63-.06,1.65,1.65,0,0,1-1.27-1.42,1.67,1.67,0,0,1,1-1.64,1.19,1.19,0,0,1,1.08.07.87.87,0,0,1,.33.57.24.24,0,0,1-.06.21c-.09.08-.14.09-.15.09s-.11-.07-.17-.14a.75.75,0,0,0-.58-.33.57.57,0,0,0-.18,0,.64.64,0,0,0-.45.33.86.86,0,0,0,0,.7,1.39,1.39,0,0,0,1.3.69,1.25,1.25,0,0,0,1.18-1,1.85,1.85,0,0,0-.71-1.94,1.84,1.84,0,0,0-1-.25,2.07,2.07,0,0,0-1.15.31,2.68,2.68,0,0,0-1.2,2.4,2.28,2.28,0,0,0,2,2,2.45,2.45,0,0,0,.48,0,3.87,3.87,0,0,0,1.54-.33,1.65,1.65,0,0,0-.22,1,1.32,1.32,0,0,0,.47.89l.15.09a16.37,16.37,0,0,0-2.59.39,16,16,0,0,1-5.58-2.43c1.35-.92,4.12-3,4.66-5,.49-1.78.16-3.1-1-3.92a2.59,2.59,0,0,0-1.48-.4,3.24,3.24,0,0,0-.64.06,3.44,3.44,0,0,0-2.1,1.58A3.39,3.39,0,0,0,113.7.06a3.31,3.31,0,0,0-.64-.06,2.63,2.63,0,0,0-1.49.4c-1.13.82-1.46,2.14-1,3.92.54,2,3.51,4.2,4.65,5a16,16,0,0,1-5.57,2.43,16.54,16.54,0,0,0-2.59-.39l.15-.09a1.32,1.32,0,0,0,.47-.89,1.71,1.71,0,0,0-.22-1,3.6,3.6,0,0,0,2,.29,2.26,2.26,0,0,0,2-2,2.7,2.7,0,0,0-1.19-2.4,2.13,2.13,0,0,0-1.16-.31,1.78,1.78,0,0,0-1,.25,1.88,1.88,0,0,0-.72,1.94,1.26,1.26,0,0,0,1.19,1,1.36,1.36,0,0,0,1.29-.69.79.79,0,0,0,0-.7.65.65,0,0,0-.44-.33l-.18,0a.78.78,0,0,0-.59.33c-.06.07-.12.14-.16.14s-.06,0-.15-.09a.24.24,0,0,1-.06-.21.83.83,0,0,1,.33-.57,1.22,1.22,0,0,1,1.08-.07,1.67,1.67,0,0,1,1,1.64,1.65,1.65,0,0,1-1.28,1.42,3,3,0,0,1-.62.06,2.65,2.65,0,0,1-1-.18,18.55,18.55,0,0,1-2.53-1.57,12,12,0,0,0-1.61-1,2.34,2.34,0,0,0-.56-.26,2.94,2.94,0,0,0-.93-.17h-.09A2.86,2.86,0,0,0,99.72,7a2.93,2.93,0,0,0-.54,1.81,4.35,4.35,0,0,0,.74,1.95,4.81,4.81,0,0,0,1.73,1.3,4.66,4.66,0,0,0-1.19.74,4.13,4.13,0,0,0-1.28,2.51,3,3,0,0,0,.54,1.82,2.88,2.88,0,0,0,2.38,1.22h.09a3.25,3.25,0,0,0,.93-.17,2.92,2.92,0,0,0,.54-.25,13.11,13.11,0,0,0,1.63-1,18.55,18.55,0,0,1,2.53-1.57,2.68,2.68,0,0,1,1-.19,3.84,3.84,0,0,1,.62.06,1.6,1.6,0,0,1,.28,3.06,1.21,1.21,0,0,1-1.09-.07.81.81,0,0,1-.32-.56.24.24,0,0,1,.06-.21c.09-.08.13-.09.15-.09s.1.07.16.14a.8.8,0,0,0,.59.32.55.55,0,0,0,.18,0,.67.67,0,0,0,.44-.34.77.77,0,0,0,0-.69,1.39,1.39,0,0,0-1.29-.7,1.26,1.26,0,0,0-1.19,1,1.89,1.89,0,0,0,.72,2,1.78,1.78,0,0,0,1,.25,2.22,2.22,0,0,0,1.16-.31,2.7,2.7,0,0,0,1.19-2.4,2.26,2.26,0,0,0-2-2,3.6,3.6,0,0,0-2,.29,1.73,1.73,0,0,0,.22-1,1.29,1.29,0,0,0-.47-.89l-.15-.1a17.78,17.78,0,0,0,2.59-.38,16,16,0,0,1,5.57,2.42c-1.14.79-4.11,3-4.65,5-.49,1.77-.16,3.09,1,3.92a2.63,2.63,0,0,0,1.49.4,2.67,2.67,0,0,0,.64-.07,3.34,3.34,0,0,0,2.09-1.57,3.38,3.38,0,0,0,2.1,1.57,2.94,2.94,0,0,0,2.12-.33c1.14-.83,1.47-2.15,1-3.92-.54-2-3.31-4.06-4.66-5a16.11,16.11,0,0,1,5.58-2.42,17.58,17.58,0,0,0,2.59.38l-.15.1a1.29,1.29,0,0,0-.47.89,1.65,1.65,0,0,0,.22,1,3.88,3.88,0,0,0-1.54-.34,2.44,2.44,0,0,0-.48,0,2.28,2.28,0,0,0-2,2,2.68,2.68,0,0,0,1.2,2.4,2.16,2.16,0,0,0,1.15.31,1.84,1.84,0,0,0,1-.25,1.87,1.87,0,0,0,.71-2A1.25,1.25,0,0,0,123,16h-.1a1.4,1.4,0,0,0-1.2.7.84.84,0,0,0,0,.69.66.66,0,0,0,.45.34.55.55,0,0,0,.18,0,.78.78,0,0,0,.58-.32c.06-.07.13-.14.17-.14s.06,0,.14.09a.25.25,0,0,1,.07.21.82.82,0,0,1-.33.56,1.19,1.19,0,0,1-1.08.07,1.6,1.6,0,0,1,.27-3.06,4.08,4.08,0,0,1,.63-.06,2.71,2.71,0,0,1,1,.19,18.5,18.5,0,0,1,2.52,1.57,13.1,13.1,0,0,0,1.62,1,2.74,2.74,0,0,0,.55.26,3.38,3.38,0,0,0,.93.17h.1a2.9,2.9,0,0,0,2.38-1.22,3,3,0,0,0,.54-1.81,4.6,4.6,0,0,0-.74-2A4.79,4.79,0,0,0,129.94,12.07Zm-2.51,0a12.67,12.67,0,0,1-3.8,0A13.37,13.37,0,0,1,127.43,12.06Zm-1.4-.9a1.24,1.24,0,0,0,.35-.85,1,1,0,0,0-.36-.79.63.63,0,0,0-1,.13.47.47,0,0,0,0,.5c.1.15.15.27.11.31a.38.38,0,0,1-.35.08.64.64,0,0,1-.23-.7,2,2,0,0,1,.85-1.11l.36-.24.88-.56A2.45,2.45,0,0,0,127,9.72a2,2,0,0,0,1.25.84c1.28.21,2-.39,2.09-1.75a1.31,1.31,0,0,0-.75-1.32,1,1,0,0,0-.41-.09.65.65,0,0,0-.63.4c-.12.29.21.62.44.72a.51.51,0,0,1,.34.41.8.8,0,0,1-.1.6,1,1,0,0,1-.69.29,1.11,1.11,0,0,1-1-.6,1.66,1.66,0,0,1,0-1.72,2.23,2.23,0,0,1,1.65-.82,2.35,2.35,0,0,1,1.78.91,2.07,2.07,0,0,1-.15,2.52,4.62,4.62,0,0,1-2,1.56,12.78,12.78,0,0,0-3-.37A1.1,1.1,0,0,0,126,11.16Zm2.82,1.3a4.55,4.55,0,0,1,2,1.56,2.07,2.07,0,0,1,.15,2.52,2.37,2.37,0,0,1-1.78.91,2.27,2.27,0,0,1-1.65-.82,1.65,1.65,0,0,1,0-1.72,1.07,1.07,0,0,1,1-.6,1,1,0,0,1,.69.28.79.79,0,0,1,.09.62.49.49,0,0,1-.33.4c-.23.1-.56.42-.44.71a.65.65,0,0,0,.63.4,1.08,1.08,0,0,0,.41-.08,1.31,1.31,0,0,0,.75-1.32c-.1-1.49-.94-1.8-1.63-1.8a3.91,3.91,0,0,0-.46,0,2,2,0,0,0-1.25.85,2.44,2.44,0,0,0-.29,1.78l-.89-.56-.35-.23a2,2,0,0,1-.85-1.11.66.66,0,0,1,.23-.71.4.4,0,0,1,.35.08c0,.05,0,.17-.11.32a.46.46,0,0,0,0,.49.64.64,0,0,0,1,.14,1.05,1.05,0,0,0,.36-.8A1.21,1.21,0,0,0,126,13l-.21-.15A12.4,12.4,0,0,0,128.85,12.46Zm-13.06,3c.59.41,4.23,3.05,4.62,4.82a3,3,0,0,1-.43,2.35,2,2,0,0,1-2,.6A3,3,0,0,1,116,21.7c0-.07-.13-.19-.25-.19s-.2.12-.24.19a3.06,3.06,0,0,1-1.92,1.52,2.07,2.07,0,0,1-2.06-.62,3,3,0,0,1-.4-2.31C111.62,18.44,115.21,15.86,115.79,15.45Zm0-6.77c-.58-.42-4.22-3-4.62-4.82a3,3,0,0,1,.43-2.35,1.83,1.83,0,0,1,1.51-.65,4.92,4.92,0,0,1,.52,0,3.05,3.05,0,0,1,1.91,1.53c.09.13.17.19.25.19s.19-.1.25-.19A3,3,0,0,1,118,.9a2.07,2.07,0,0,1,2.05.63,3,3,0,0,1,.41,2.31C120,5.69,116.38,8.27,115.79,8.68Zm4.89,3.38a18.36,18.36,0,0,0-4.89,2.4,18.15,18.15,0,0,0-4.88-2.4,17.86,17.86,0,0,0,4.88-2.4A18.06,18.06,0,0,0,120.68,12.06Zm-12.73,0a12.67,12.67,0,0,1-3.8,0A13.37,13.37,0,0,1,108,12.06Zm-5.22-.39a4.62,4.62,0,0,1-2-1.56,2.1,2.1,0,0,1-.15-2.52,2.38,2.38,0,0,1,1.78-.91A2.25,2.25,0,0,1,104,7.5a1.7,1.7,0,0,1,0,1.72,1.13,1.13,0,0,1-1,.6,1,1,0,0,1-.69-.29.78.78,0,0,1-.1-.62.49.49,0,0,1,.34-.39c.22-.1.56-.43.43-.72a.64.64,0,0,0-.63-.4,1.07,1.07,0,0,0-.41.09,1.3,1.3,0,0,0-.74,1.32c.09,1.48.94,1.79,1.63,1.79a2.42,2.42,0,0,0,.45,0,1.93,1.93,0,0,0,1.25-.84,2.41,2.41,0,0,0,.3-1.79l.81.52.42.27A2.07,2.07,0,0,1,107,9.84a.62.62,0,0,1-.24.7.35.35,0,0,1-.35-.08s0-.16.12-.31a.47.47,0,0,0,0-.5.63.63,0,0,0-1-.13,1.06,1.06,0,0,0-.37.79,1.2,1.2,0,0,0,.36.85l.2.14A12.86,12.86,0,0,0,102.73,11.67Zm2.83,1.3a1.18,1.18,0,0,0-.36.84,1.06,1.06,0,0,0,.37.8.64.64,0,0,0,1-.14.46.46,0,0,0,0-.49c-.11-.15-.15-.27-.12-.32a.41.41,0,0,1,.35-.08.64.64,0,0,1,.24.71,2.08,2.08,0,0,1-.85,1.11l-.43.28-.81.51a2.39,2.39,0,0,0-.3-1.78,2,2,0,0,0-1.25-.85,3.75,3.75,0,0,0-.45,0c-.69,0-1.54.31-1.63,1.8a1.31,1.31,0,0,0,.74,1.32,1.13,1.13,0,0,0,.41.08.64.64,0,0,0,.63-.4c.13-.29-.21-.61-.43-.71a.5.5,0,0,1-.34-.42.76.76,0,0,1,.1-.6,1,1,0,0,1,.69-.28,1.09,1.09,0,0,1,1,.6,1.7,1.7,0,0,1,0,1.72,2.29,2.29,0,0,1-1.66.82,2.38,2.38,0,0,1-1.78-.91A2.1,2.1,0,0,1,100.7,14a4.61,4.61,0,0,1,2-1.56,12.47,12.47,0,0,0,3,.36Z"/></g></g></svg>